<?xml version="1.0" encoding="UTF-8" standalone="no"?>
<!DOCTYPE svg PUBLIC "-//W3C//DTD SVG 1.1//EN"
 "http://www.w3.org/Graphics/SVG/1.1/DTD/svg11.dtd">
<!-- Generated by graphviz version 2.26.3 (20100126.1600)
 -->
<!-- Title: collimator_setup Pages: 1 -->
<svg width="2624pt" height="495pt"
 viewBox="0.00 0.00 2624.00 495.00" xmlns="http://www.w3.org/2000/svg" xmlns:xlink="http://www.w3.org/1999/xlink">
<g id="graph1" class="graph" transform="scale(1 1) rotate(0) translate(4 491)">
<title>collimator_setup</title>
<polygon fill="white" stroke="white" points="-4,5 -4,-491 2621,-491 2621,5 -4,5"/>
<!-- Subsystem:AutoSetup -->
<g id="node1" class="node"><title>Subsystem:AutoSetup</title>
<polygon fill="none" stroke="black" points="490,-319 320,-319 320,-243 490,-243 490,-319"/>
<text text-anchor="middle" x="405" y="-302.4" font-family="Times Roman,serif" font-size="14.00">Subsystem:AutoSetup</text>
<text text-anchor="middle" x="405" y="-285.4" font-family="Times Roman,serif" font-size="14.00">calcout</text>
<text text-anchor="middle" x="405" y="-268.4" font-family="Times Roman,serif" font-size="14.00">A&amp;&amp;B&amp;&amp;C&amp;&amp;D</text>
<text text-anchor="middle" x="405" y="-251.4" font-family="Times Roman,serif" font-size="14.00">When Non&#45;zero</text>
</g>
<!-- LeafMotion:CheckUI -->
<g id="node11" class="node"><title>LeafMotion:CheckUI</title>
<polygon fill="none" stroke="black" points="924,-232 624,-232 624,-156 924,-156 924,-232"/>
<text text-anchor="middle" x="774" y="-215.4" font-family="Times Roman,serif" font-size="14.00">LeafMotion:CheckUI</text>
<text text-anchor="middle" x="774" y="-198.4" font-family="Times Roman,serif" font-size="14.00">scalcout</text>
<text text-anchor="middle" x="774" y="-181.4" font-family="Times Roman,serif" font-size="14.00">AA==BB||AA==CC||AA==DD||AA==EE</text>
<text text-anchor="middle" x="774" y="-164.4" font-family="Times Roman,serif" font-size="14.00">When Non&#45;zero</text>
</g>
<!-- Subsystem:AutoSetup&#45;&gt;LeafMotion:CheckUI -->
<g id="edge10" class="edge"><title>Subsystem:AutoSetup&#45;&gt;LeafMotion:CheckUI</title>
<path fill="none" stroke="black" d="M490.094,-258.449C496.148,-256.92 502.163,-255.423 508,-254 542.264,-245.647 579.111,-237.075 614.137,-229.118"/>
<polygon fill="black" stroke="black" points="614.985,-232.515 623.964,-226.891 613.438,-225.688 614.985,-232.515"/>
<text text-anchor="middle" x="557" y="-258.4" font-family="Times Roman,serif" font-size="14.00">OUT PP PROC</text>
</g>
<!-- LCCCal:Status -->
<g id="node2" class="node"><title>LCCCal:Status</title>
<polygon fill="none" stroke="black" stroke-dasharray="5,2" points="177,-353 61,-353 61,-317 177,-317 177,-353"/>
<text text-anchor="middle" x="119" y="-330.9" font-family="Times Roman,serif" font-size="14.00">LCCCal:Status</text>
</g>
<!-- LCCCal:Status&#45;&gt;Subsystem:AutoSetup -->
<g id="edge2" class="edge"><title>LCCCal:Status&#45;&gt;Subsystem:AutoSetup</title>
<path fill="none" stroke="black" stroke-dasharray="5,2" d="M177.167,-324.859C213.163,-318.496 260.31,-310.008 302,-302 304.639,-301.493 307.316,-300.975 310.017,-300.449"/>
<polygon fill="black" stroke="black" points="310.739,-303.874 319.878,-298.512 309.391,-297.005 310.739,-303.874"/>
<text text-anchor="middle" x="279" y="-314.4" font-family="Times Roman,serif" font-size="14.00">INPC &#160;</text>
</g>
<!-- LCCSetup:Status -->
<g id="node4" class="node"><title>LCCSetup:Status</title>
<polygon fill="none" stroke="black" stroke-dasharray="5,2" points="2616,-273 2482,-273 2482,-237 2616,-237 2616,-273"/>
<text text-anchor="middle" x="2549" y="-250.9" font-family="Times Roman,serif" font-size="14.00">LCCSetup:Status</text>
</g>
<!-- LCCSetup:Status&#45;&gt;Subsystem:AutoSetup -->
<g id="edge4" class="edge"><title>LCCSetup:Status&#45;&gt;Subsystem:AutoSetup</title>
<path fill="none" stroke="black" stroke-dasharray="5,2" d="M2481.92,-268.946C2438.51,-276.78 2380.65,-285 2329,-285 774,-285 774,-285 774,-285 680.994,-285 574.809,-283.714 500.301,-282.6"/>
<polygon fill="black" stroke="black" points="500.054,-279.096 490.003,-282.444 499.948,-286.095 500.054,-279.096"/>
<text text-anchor="middle" x="1649" y="-289.4" font-family="Times Roman,serif" font-size="14.00">INPB &#160;</text>
</g>
<!-- LeafMotion:ControlAuto -->
<g id="node6" class="node"><title>LeafMotion:ControlAuto</title>
<polygon fill="none" stroke="black" stroke-dasharray="5,2" points="210,-299 28,-299 28,-263 210,-263 210,-299"/>
<text text-anchor="middle" x="119" y="-276.9" font-family="Times Roman,serif" font-size="14.00">LeafMotion:ControlAuto</text>
</g>
<!-- LeafMotion:ControlAuto&#45;&gt;Subsystem:AutoSetup -->
<g id="edge6" class="edge"><title>LeafMotion:ControlAuto&#45;&gt;Subsystem:AutoSetup</title>
<path fill="none" stroke="black" stroke-dasharray="5,2" d="M210.279,-281C241.994,-281 277.631,-281 309.666,-281"/>
<polygon fill="black" stroke="black" points="309.93,-284.5 319.93,-281 309.93,-277.5 309.93,-284.5"/>
<text text-anchor="middle" x="279" y="-285.4" font-family="Times Roman,serif" font-size="14.00">INPD &#160;</text>
</g>
<!-- LCCError:Status -->
<g id="node8" class="node"><title>LCCError:Status</title>
<polygon fill="none" stroke="black" stroke-dasharray="5,2" points="183,-245 55,-245 55,-209 183,-209 183,-245"/>
<text text-anchor="middle" x="119" y="-222.9" font-family="Times Roman,serif" font-size="14.00">LCCError:Status</text>
</g>
<!-- LCCError:Status&#45;&gt;Subsystem:AutoSetup -->
<g id="edge8" class="edge"><title>LCCError:Status&#45;&gt;Subsystem:AutoSetup</title>
<path fill="none" stroke="black" stroke-dasharray="5,2" d="M183.857,-238.326C218.88,-244.535 262.846,-252.479 302,-260 304.639,-260.507 307.316,-261.025 310.017,-261.551"/>
<polygon fill="black" stroke="black" points="309.391,-264.995 319.878,-263.488 310.739,-258.126 309.391,-264.995"/>
<text text-anchor="middle" x="279" y="-264.4" font-family="Times Roman,serif" font-size="14.00">INPA &#160;</text>
</g>
<!-- LeafMotion:Start -->
<g id="node13" class="node"><title>LeafMotion:Start</title>
<polygon fill="none" stroke="black" points="1202,-206 1070,-206 1070,-164 1202,-164 1202,-206"/>
<text text-anchor="middle" x="1136" y="-189.4" font-family="Times Roman,serif" font-size="14.00">LeafMotion:Start</text>
<text text-anchor="middle" x="1136" y="-172.4" font-family="Times Roman,serif" font-size="14.00">seq</text>
</g>
<!-- LeafMotion:CheckUI&#45;&gt;LeafMotion:Start -->
<g id="edge12" class="edge"><title>LeafMotion:CheckUI&#45;&gt;LeafMotion:Start</title>
<path fill="none" stroke="black" d="M924.114,-190.268C970.606,-189.112 1019.9,-187.886 1059.23,-186.909"/>
<polygon fill="black" stroke="black" points="1059.36,-190.407 1069.27,-186.659 1059.19,-183.409 1059.36,-190.407"/>
<text text-anchor="middle" x="991" y="-194.4" font-family="Times Roman,serif" font-size="14.00">OUT PP PROC</text>
</g>
<!-- LeafMotion:RequestEnabled -->
<g id="node17" class="node"><title>LeafMotion:RequestEnabled</title>
<polygon fill="none" stroke="black" stroke-dasharray="5,2" points="2190,-157 1982,-157 1982,-121 2190,-121 2190,-157"/>
<text text-anchor="middle" x="2086" y="-134.9" font-family="Times Roman,serif" font-size="14.00">LeafMotion:RequestEnabled</text>
</g>
<!-- LeafMotion:Start&#45;&gt;LeafMotion:RequestEnabled -->
<g id="edge16" class="edge"><title>LeafMotion:Start&#45;&gt;LeafMotion:RequestEnabled</title>
<path fill="none" stroke="black" d="M1202.93,-174.111C1241.69,-168.27 1291.47,-161.559 1336,-158 1560.58,-140.05 1824.08,-137.682 1971.37,-138.035"/>
<polygon fill="black" stroke="black" points="1971.76,-141.536 1981.78,-138.065 1971.79,-134.536 1971.76,-141.536"/>
<text text-anchor="middle" x="1649" y="-148.4" font-family="Times Roman,serif" font-size="14.00">LNK1 PP , 1</text>
</g>
<!-- LeafMotion:Timeout -->
<g id="node19" class="node"><title>LeafMotion:Timeout</title>
<polygon fill="none" stroke="black" points="1582,-76 1336,-76 1336,-2.13163e-14 1582,-0 1582,-76"/>
<text text-anchor="middle" x="1459" y="-59.4" font-family="Times Roman,serif" font-size="14.00">LeafMotion:Timeout</text>
<text text-anchor="middle" x="1459" y="-42.4" font-family="Times Roman,serif" font-size="14.00">calcout</text>
<text text-anchor="middle" x="1459" y="-25.4" font-family="Times Roman,serif" font-size="14.00">b?b:(a&amp;&amp;c?a&#45;1:a);c:=(b?b:c);b:=0</text>
<text text-anchor="middle" x="1459" y="-8.4" font-family="Times Roman,serif" font-size="14.00">Transition To Zero</text>
</g>
<!-- LeafMotion:Start&#45;&gt;LeafMotion:Timeout -->
<g id="edge18" class="edge"><title>LeafMotion:Start&#45;&gt;LeafMotion:Timeout</title>
<path fill="none" stroke="black" d="M1157.55,-163.706C1175.97,-146.551 1203.87,-122.914 1232,-108 1261.14,-92.5482 1294.23,-79.9191 1325.95,-69.857"/>
<polygon fill="black" stroke="black" points="1327.24,-73.1235 1335.75,-66.8164 1325.16,-66.4381 1327.24,-73.1235"/>
<text text-anchor="middle" x="1275" y="-112.4" font-family="Times Roman,serif" font-size="14.00">LNK4 &#160;B, 80</text>
</g>
<!-- 1 -->
<g id="node21" class="node"><title>1</title>
<polygon fill="none" stroke="black" stroke-dasharray="5,2" points="1486,-257 1432,-257 1432,-221 1486,-221 1486,-257"/>
<text text-anchor="middle" x="1459" y="-234.9" font-family="Times Roman,serif" font-size="14.00">1</text>
</g>
<!-- LeafMotion:Start&#45;&gt;1 -->
<g id="edge20" class="edge"><title>LeafMotion:Start&#45;&gt;1</title>
<path fill="none" stroke="black" d="M1202.76,-200.241C1212.54,-202.289 1222.52,-204.276 1232,-206 1298.56,-218.103 1376.75,-228.675 1421.81,-234.418"/>
<polygon fill="black" stroke="black" points="1421.63,-237.923 1431.99,-235.704 1422.51,-230.978 1421.63,-237.923"/>
<text text-anchor="middle" x="1275" y="-224.4" font-family="Times Roman,serif" font-size="14.00">DOL1 &#160;, 1</text>
</g>
<!-- 80 -->
<g id="node23" class="node"><title>80</title>
<polygon fill="none" stroke="black" stroke-dasharray="5,2" points="1486,-203 1432,-203 1432,-167 1486,-167 1486,-203"/>
<text text-anchor="middle" x="1459" y="-180.9" font-family="Times Roman,serif" font-size="14.00">80</text>
</g>
<!-- LeafMotion:Start&#45;&gt;80 -->
<g id="edge22" class="edge"><title>LeafMotion:Start&#45;&gt;80</title>
<path fill="none" stroke="black" d="M1202.53,-185C1268.84,-185 1368.28,-185 1421.77,-185"/>
<polygon fill="black" stroke="black" points="1421.83,-188.5 1431.83,-185 1421.83,-181.5 1421.83,-188.5"/>
<text text-anchor="middle" x="1275" y="-189.4" font-family="Times Roman,serif" font-size="14.00">DOL4 &#160;, 80</text>
</g>
<!-- UI:Panel -->
<g id="node14" class="node"><title>UI:Panel</title>
<polygon fill="none" stroke="black" stroke-dasharray="5,2" points="442,-212 368,-212 368,-176 442,-176 442,-212"/>
<text text-anchor="middle" x="405" y="-189.9" font-family="Times Roman,serif" font-size="14.00">UI:Panel</text>
</g>
<!-- UI:Panel&#45;&gt;LeafMotion:CheckUI -->
<g id="edge14" class="edge"><title>UI:Panel&#45;&gt;LeafMotion:CheckUI</title>
<path fill="none" stroke="black" stroke-dasharray="5,2" d="M442.071,-194C482.491,-194 549.928,-194 613.498,-194"/>
<polygon fill="black" stroke="black" points="613.663,-197.5 623.663,-194 613.663,-190.5 613.663,-197.5"/>
<text text-anchor="middle" x="557" y="-198.4" font-family="Times Roman,serif" font-size="14.00">INAA &#160;</text>
</g>
<!-- LCCSetup:Calc -->
<g id="node41" class="node"><title>LCCSetup:Calc</title>
<polygon fill="none" stroke="black" points="2388,-237 2270,-237 2270,-161 2388,-161 2388,-237"/>
<text text-anchor="middle" x="2329" y="-220.4" font-family="Times Roman,serif" font-size="14.00">LCCSetup:Calc</text>
<text text-anchor="middle" x="2329" y="-203.4" font-family="Times Roman,serif" font-size="14.00">calcout</text>
<text text-anchor="middle" x="2329" y="-186.4" font-family="Times Roman,serif" font-size="14.00">!A</text>
<text text-anchor="middle" x="2329" y="-169.4" font-family="Times Roman,serif" font-size="14.00">Every Time</text>
</g>
<!-- LeafMotion:RequestEnabled&#45;&gt;LCCSetup:Calc -->
<g id="edge42" class="edge"><title>LeafMotion:RequestEnabled&#45;&gt;LCCSetup:Calc</title>
<path fill="none" stroke="black" stroke-dasharray="5,2" d="M2158.91,-157.002C2190.82,-164.882 2228.09,-174.085 2259.6,-181.864"/>
<polygon fill="black" stroke="black" points="2259.06,-185.337 2269.61,-184.336 2260.74,-178.541 2259.06,-185.337"/>
<text text-anchor="middle" x="2230" y="-184.4" font-family="Times Roman,serif" font-size="14.00">INPA &#160;</text>
</g>
<!-- LeafMotion:Timeout&#45;&gt;LeafMotion:Timeout -->
<g id="edge34" class="edge"><title>LeafMotion:Timeout&#45;&gt;LeafMotion:Timeout</title>
<path fill="none" stroke="black" stroke-dasharray="5,2" d="M1424.8,-76.214C1426.76,-86.3346 1438.16,-94 1459,-94 1473,-94 1482.75,-90.5397 1488.22,-85.1994"/>
<polygon fill="black" stroke="black" points="1491.42,-86.658 1493.2,-76.214 1485.29,-83.2677 1491.42,-86.658"/>
<text text-anchor="middle" x="1459" y="-98.4" font-family="Times Roman,serif" font-size="14.00">INPA &#160;VAL</text>
</g>
<!-- LeafMotion:Disable -->
<g id="node37" class="node"><title>LeafMotion:Disable</title>
<polygon fill="none" stroke="black" points="1864,-77 1716,-77 1716,-35 1864,-35 1864,-77"/>
<text text-anchor="middle" x="1790" y="-60.4" font-family="Times Roman,serif" font-size="14.00">LeafMotion:Disable</text>
<text text-anchor="middle" x="1790" y="-43.4" font-family="Times Roman,serif" font-size="14.00">seq</text>
</g>
<!-- LeafMotion:Timeout&#45;&gt;LeafMotion:Disable -->
<g id="edge36" class="edge"><title>LeafMotion:Timeout&#45;&gt;LeafMotion:Disable</title>
<path fill="none" stroke="black" d="M1582.25,-44.7025C1623.25,-46.9318 1667.95,-49.3627 1705.35,-51.3964"/>
<polygon fill="black" stroke="black" points="1705.52,-54.9108 1715.69,-51.959 1705.9,-47.9211 1705.52,-54.9108"/>
<text text-anchor="middle" x="1649" y="-55.4" font-family="Times Roman,serif" font-size="14.00">OUT PP PROC</text>
</g>
<!-- LeafMotion:DriveEnabledFanout -->
<g id="node24" class="node"><title>LeafMotion:DriveEnabledFanout</title>
<polygon fill="none" stroke="black" points="237,-479 1,-479 1,-437 237,-437 237,-479"/>
<text text-anchor="middle" x="119" y="-462.4" font-family="Times Roman,serif" font-size="14.00">LeafMotion:DriveEnabledFanout</text>
<text text-anchor="middle" x="119" y="-445.4" font-family="Times Roman,serif" font-size="14.00">fanout</text>
</g>
<!-- MotionSafety:Status -->
<g id="node26" class="node"><title>MotionSafety:Status</title>
<polygon fill="none" stroke="black" stroke-dasharray="5,2" points="483,-487 327,-487 327,-451 483,-451 483,-487"/>
<text text-anchor="middle" x="405" y="-464.9" font-family="Times Roman,serif" font-size="14.00">MotionSafety:Status</text>
</g>
<!-- LeafMotion:DriveEnabledFanout&#45;&gt;MotionSafety:Status -->
<g id="edge24" class="edge"><title>LeafMotion:DriveEnabledFanout&#45;&gt;MotionSafety:Status</title>
<path fill="none" stroke="black" stroke-dasharray="1,5" d="M237.805,-462.569C263.973,-463.576 291.255,-464.625 316.006,-465.577"/>
<polygon fill="black" stroke="black" points="315.956,-469.078 326.083,-465.965 316.225,-462.083 315.956,-469.078"/>
<text text-anchor="middle" x="279" y="-468.4" font-family="Times Roman,serif" font-size="14.00">LNK1 &#160;</text>
</g>
<!-- LeafMotion:RunStart -->
<g id="node28" class="node"><title>LeafMotion:RunStart</title>
<polygon fill="none" stroke="black" points="485,-430 325,-430 325,-354 485,-354 485,-430"/>
<text text-anchor="middle" x="405" y="-413.4" font-family="Times Roman,serif" font-size="14.00">LeafMotion:RunStart</text>
<text text-anchor="middle" x="405" y="-396.4" font-family="Times Roman,serif" font-size="14.00">calcout</text>
<text text-anchor="middle" x="405" y="-379.4" font-family="Times Roman,serif" font-size="14.00">A</text>
<text text-anchor="middle" x="405" y="-362.4" font-family="Times Roman,serif" font-size="14.00">Transition To Zero</text>
</g>
<!-- LeafMotion:DriveEnabledFanout&#45;&gt;LeafMotion:RunStart -->
<g id="edge26" class="edge"><title>LeafMotion:DriveEnabledFanout&#45;&gt;LeafMotion:RunStart</title>
<path fill="none" stroke="black" stroke-dasharray="1,5" d="M210.279,-436.936C243.612,-429.243 281.28,-420.551 314.542,-412.875"/>
<polygon fill="black" stroke="black" points="315.756,-416.187 324.713,-410.528 314.182,-409.366 315.756,-416.187"/>
<text text-anchor="middle" x="279" y="-429.4" font-family="Times Roman,serif" font-size="14.00">LNK2 &#160;</text>
</g>
<!-- LCC:AutoSetup -->
<g id="node32" class="node"><title>LCC:AutoSetup</title>
<polygon fill="none" stroke="black" stroke-dasharray="5,2" points="835,-410 713,-410 713,-374 835,-374 835,-410"/>
<text text-anchor="middle" x="774" y="-387.9" font-family="Times Roman,serif" font-size="14.00">LCC:AutoSetup</text>
</g>
<!-- LeafMotion:RunStart&#45;&gt;LCC:AutoSetup -->
<g id="edge30" class="edge"><title>LeafMotion:RunStart&#45;&gt;LCC:AutoSetup</title>
<path fill="none" stroke="black" d="M485.068,-392C549.922,-392 640.445,-392 702.799,-392"/>
<polygon fill="black" stroke="black" points="702.941,-395.5 712.941,-392 702.941,-388.5 702.941,-395.5"/>
<text text-anchor="middle" x="557" y="-396.4" font-family="Times Roman,serif" font-size="14.00">OUT PP PROC</text>
</g>
<!-- LeafMotion:DriveEnabled -->
<g id="node29" class="node"><title>LeafMotion:DriveEnabled</title>
<polygon fill="none" stroke="black" stroke-dasharray="5,2" points="214,-407 24,-407 24,-371 214,-371 214,-407"/>
<text text-anchor="middle" x="119" y="-384.9" font-family="Times Roman,serif" font-size="14.00">LeafMotion:DriveEnabled</text>
</g>
<!-- LeafMotion:DriveEnabled&#45;&gt;LeafMotion:RunStart -->
<g id="edge28" class="edge"><title>LeafMotion:DriveEnabled&#45;&gt;LeafMotion:RunStart</title>
<path fill="none" stroke="black" stroke-dasharray="5,2" d="M214.455,-389.27C242.647,-389.418 273.567,-389.646 302,-390 306.175,-390.052 310.445,-390.111 314.758,-390.176"/>
<polygon fill="black" stroke="black" points="314.821,-393.677 324.874,-390.335 314.931,-386.678 314.821,-393.677"/>
<text text-anchor="middle" x="279" y="-394.4" font-family="Times Roman,serif" font-size="14.00">INPA &#160;</text>
</g>
<!-- LeafMotion:RunStop -->
<g id="node33" class="node"><title>LeafMotion:RunStop</title>
<polygon fill="none" stroke="black" points="1214,-76 1058,-76 1058,-2.13163e-14 1214,-0 1214,-76"/>
<text text-anchor="middle" x="1136" y="-59.4" font-family="Times Roman,serif" font-size="14.00">LeafMotion:RunStop</text>
<text text-anchor="middle" x="1136" y="-42.4" font-family="Times Roman,serif" font-size="14.00">scalcout</text>
<text text-anchor="middle" x="1136" y="-25.4" font-family="Times Roman,serif" font-size="14.00">AA!=&#39;$&#39;</text>
<text text-anchor="middle" x="1136" y="-8.4" font-family="Times Roman,serif" font-size="14.00">Transition To Zero</text>
</g>
<!-- LeafMotion:RunStop&#45;&gt;LeafMotion:Timeout -->
<g id="edge32" class="edge"><title>LeafMotion:RunStop&#45;&gt;LeafMotion:Timeout</title>
<path fill="none" stroke="black" d="M1214.19,-38C1247.7,-38 1287.79,-38 1325.74,-38"/>
<polygon fill="black" stroke="black" points="1325.85,-41.5001 1335.85,-38 1325.85,-34.5001 1325.85,-41.5001"/>
<text text-anchor="middle" x="1275" y="-42.4" font-family="Times Roman,serif" font-size="14.00">OUT PP VAL</text>
</g>
<!-- LeafMotion:Disable&#45;&gt;LeafMotion:RequestEnabled -->
<g id="edge40" class="edge"><title>LeafMotion:Disable&#45;&gt;LeafMotion:RequestEnabled</title>
<path fill="none" stroke="black" d="M1864.31,-76.8373C1909.46,-89.4979 1966.9,-105.603 2011.99,-118.248"/>
<polygon fill="black" stroke="black" points="2011.14,-121.643 2021.71,-120.973 2013.03,-114.903 2011.14,-121.643"/>
<text text-anchor="middle" x="1923" y="-107.4" font-family="Times Roman,serif" font-size="14.00">LNK1 PP , 0</text>
</g>
<!-- 0 -->
<g id="node39" class="node"><title>0</title>
<polygon fill="none" stroke="black" stroke-dasharray="5,2" points="2113,-74 2059,-74 2059,-38 2113,-38 2113,-74"/>
<text text-anchor="middle" x="2086" y="-51.9" font-family="Times Roman,serif" font-size="14.00">0</text>
</g>
<!-- LeafMotion:Disable&#45;&gt;0 -->
<g id="edge38" class="edge"><title>LeafMotion:Disable&#45;&gt;0</title>
<path fill="none" stroke="black" d="M1864.31,-56C1923.1,-56 2002.7,-56 2048.79,-56"/>
<polygon fill="black" stroke="black" points="2048.92,-59.5001 2058.92,-56 2048.92,-52.5001 2048.92,-59.5001"/>
<text text-anchor="middle" x="1923" y="-60.4" font-family="Times Roman,serif" font-size="14.00">DOL1 &#160;, 0</text>
</g>
<!-- LCCSetup:Calc&#45;&gt;LCCSetup:Status -->
<g id="edge44" class="edge"><title>LCCSetup:Calc&#45;&gt;LCCSetup:Status</title>
<path fill="none" stroke="black" d="M2388.25,-214.081C2413.98,-220.63 2444.45,-228.387 2471.91,-235.377"/>
<polygon fill="black" stroke="black" points="2471.32,-238.839 2481.88,-237.914 2473.05,-232.056 2471.32,-238.839"/>
<text text-anchor="middle" x="2435" y="-237.4" font-family="Times Roman,serif" font-size="14.00">OUT PP </text>
</g>
</g>
</svg>
