<?xml version="1.0" encoding="UTF-8" standalone="no"?>
<!DOCTYPE svg PUBLIC "-//W3C//DTD SVG 1.1//EN"
 "http://www.w3.org/Graphics/SVG/1.1/DTD/svg11.dtd">
<!-- Generated by graphviz version 2.26.3 (20100126.1600)
 -->
<!-- Title: dosimetry_setup Pages: 1 -->
<svg width="1308pt" height="409pt"
 viewBox="0.00 0.00 1308.00 409.00" xmlns="http://www.w3.org/2000/svg" xmlns:xlink="http://www.w3.org/1999/xlink">
<g id="graph1" class="graph" transform="scale(1 1) rotate(0) translate(4 405)">
<title>dosimetry_setup</title>
<polygon fill="white" stroke="white" points="-4,5 -4,-405 1305,-405 1305,5 -4,5"/>
<!-- Subsystem:AutoSetup -->
<g id="node1" class="node"><title>Subsystem:AutoSetup</title>
<polygon fill="none" stroke="black" points="414,-141 244,-141 244,-65 414,-65 414,-141"/>
<text text-anchor="middle" x="329" y="-124.4" font-family="Times Roman,serif" font-size="14.00">Subsystem:AutoSetup</text>
<text text-anchor="middle" x="329" y="-107.4" font-family="Times Roman,serif" font-size="14.00">calcout</text>
<text text-anchor="middle" x="329" y="-90.4" font-family="Times Roman,serif" font-size="14.00">A&amp;&amp;B&amp;&amp;C&amp;&amp;D</text>
<text text-anchor="middle" x="329" y="-73.4" font-family="Times Roman,serif" font-size="14.00">When Non&#45;zero</text>
</g>
<!-- Subsystem:CheckUI -->
<g id="node11" class="node"><title>Subsystem:CheckUI</title>
<polygon fill="none" stroke="black" points="777,-182 549,-182 549,-106 777,-106 777,-182"/>
<text text-anchor="middle" x="663" y="-165.4" font-family="Times Roman,serif" font-size="14.00">Subsystem:CheckUI</text>
<text text-anchor="middle" x="663" y="-148.4" font-family="Times Roman,serif" font-size="14.00">scalcout</text>
<text text-anchor="middle" x="663" y="-131.4" font-family="Times Roman,serif" font-size="14.00">AA==BB||AA==CC||AA==DD</text>
<text text-anchor="middle" x="663" y="-114.4" font-family="Times Roman,serif" font-size="14.00">When Non&#45;zero</text>
</g>
<!-- Subsystem:AutoSetup&#45;&gt;Subsystem:CheckUI -->
<g id="edge10" class="edge"><title>Subsystem:AutoSetup&#45;&gt;Subsystem:CheckUI</title>
<path fill="none" stroke="black" d="M414.147,-113.452C451.821,-118.077 496.879,-123.608 538.238,-128.685"/>
<polygon fill="black" stroke="black" points="538.035,-132.186 548.387,-129.931 538.888,-125.238 538.035,-132.186"/>
<text text-anchor="middle" x="481" y="-132.4" font-family="Times Roman,serif" font-size="14.00">OUT PP PROC</text>
</g>
<!-- DMCCal:Status -->
<g id="node2" class="node"><title>DMCCal:Status</title>
<polygon fill="none" stroke="black" stroke-dasharray="5,2" points="141,-198 21,-198 21,-162 141,-162 141,-198"/>
<text text-anchor="middle" x="81" y="-175.9" font-family="Times Roman,serif" font-size="14.00">DMCCal:Status</text>
</g>
<!-- DMCCal:Status&#45;&gt;Subsystem:AutoSetup -->
<g id="edge2" class="edge"><title>DMCCal:Status&#45;&gt;Subsystem:AutoSetup</title>
<path fill="none" stroke="black" stroke-dasharray="5,2" d="M141.503,-163.141C167.582,-155.703 198.374,-146.69 226,-138 228.745,-137.137 231.527,-136.252 234.334,-135.352"/>
<polygon fill="black" stroke="black" points="235.512,-138.65 243.947,-132.24 233.355,-131.99 235.512,-138.65"/>
<text text-anchor="middle" x="203" y="-156.4" font-family="Times Roman,serif" font-size="14.00">INPC &#160;</text>
</g>
<!-- DMCSetup:Status -->
<g id="node4" class="node"><title>DMCSetup:Status</title>
<polygon fill="none" stroke="black" stroke-dasharray="5,2" points="151,-144 11,-144 11,-108 151,-108 151,-144"/>
<text text-anchor="middle" x="81" y="-121.9" font-family="Times Roman,serif" font-size="14.00">DMCSetup:Status</text>
</g>
<!-- DMCSetup:Status&#45;&gt;Subsystem:AutoSetup -->
<g id="edge4" class="edge"><title>DMCSetup:Status&#45;&gt;Subsystem:AutoSetup</title>
<path fill="none" stroke="black" stroke-dasharray="5,2" d="M151.072,-119.501C176.714,-117.123 206.176,-114.391 233.652,-111.843"/>
<polygon fill="black" stroke="black" points="234.041,-115.322 243.675,-110.913 233.394,-108.352 234.041,-115.322"/>
<text text-anchor="middle" x="203" y="-121.4" font-family="Times Roman,serif" font-size="14.00">INPB &#160;</text>
</g>
<!-- PressTemp:Status -->
<g id="node6" class="node"><title>PressTemp:Status</title>
<polygon fill="none" stroke="black" stroke-dasharray="5,2" points="150,-90 12,-90 12,-54 150,-54 150,-90"/>
<text text-anchor="middle" x="81" y="-67.9" font-family="Times Roman,serif" font-size="14.00">PressTemp:Status</text>
</g>
<!-- PressTemp:Status&#45;&gt;Subsystem:AutoSetup -->
<g id="edge6" class="edge"><title>PressTemp:Status&#45;&gt;Subsystem:AutoSetup</title>
<path fill="none" stroke="black" stroke-dasharray="5,2" d="M150.742,-80.7177C176.516,-83.9395 206.187,-87.6483 233.833,-91.1041"/>
<polygon fill="black" stroke="black" points="233.559,-94.597 243.915,-92.3644 234.427,-87.651 233.559,-94.597"/>
<text text-anchor="middle" x="203" y="-94.4" font-family="Times Roman,serif" font-size="14.00">INPD &#160;</text>
</g>
<!-- DMCError:Status -->
<g id="node8" class="node"><title>DMCError:Status</title>
<polygon fill="none" stroke="black" stroke-dasharray="5,2" points="148,-36 14,-36 14,-1.06581e-14 148,-0 148,-36"/>
<text text-anchor="middle" x="81" y="-13.9" font-family="Times Roman,serif" font-size="14.00">DMCError:Status</text>
</g>
<!-- DMCError:Status&#45;&gt;Subsystem:AutoSetup -->
<g id="edge8" class="edge"><title>DMCError:Status&#45;&gt;Subsystem:AutoSetup</title>
<path fill="none" stroke="black" stroke-dasharray="5,2" d="M140.503,-36.0703C166.815,-44.2682 198.061,-54.287 226,-64 228.751,-64.9565 231.54,-65.9373 234.352,-66.9361"/>
<polygon fill="black" stroke="black" points="233.386,-70.308 243.981,-70.3922 235.751,-63.7195 233.386,-70.308"/>
<text text-anchor="middle" x="203" y="-68.4" font-family="Times Roman,serif" font-size="14.00">INPA &#160;</text>
</g>
<!-- $(ROOM):DMC:AutoSetup -->
<g id="node13" class="node"><title>$(ROOM):DMC:AutoSetup</title>
<polygon fill="none" stroke="black" stroke-dasharray="5,2" points="1108,-162 912,-162 912,-126 1108,-126 1108,-162"/>
<text text-anchor="middle" x="1010" y="-139.9" font-family="Times Roman,serif" font-size="14.00">$(ROOM):DMC:AutoSetup</text>
</g>
<!-- Subsystem:CheckUI&#45;&gt;$(ROOM):DMC:AutoSetup -->
<g id="edge12" class="edge"><title>Subsystem:CheckUI&#45;&gt;$(ROOM):DMC:AutoSetup</title>
<path fill="none" stroke="black" d="M777.582,-144C817.535,-144 862.217,-144 901.647,-144"/>
<polygon fill="black" stroke="black" points="901.818,-147.5 911.818,-144 901.818,-140.5 901.818,-147.5"/>
<text text-anchor="middle" x="845" y="-148.4" font-family="Times Roman,serif" font-size="14.00">OUT PP PROC</text>
</g>
<!-- $(ROOM):UI:Panel -->
<g id="node14" class="node"><title>$(ROOM):UI:Panel</title>
<polygon fill="none" stroke="black" stroke-dasharray="5,2" points="400,-195 258,-195 258,-159 400,-159 400,-195"/>
<text text-anchor="middle" x="329" y="-172.9" font-family="Times Roman,serif" font-size="14.00">$(ROOM):UI:Panel</text>
</g>
<!-- $(ROOM):UI:Panel&#45;&gt;Subsystem:CheckUI -->
<g id="edge14" class="edge"><title>$(ROOM):UI:Panel&#45;&gt;Subsystem:CheckUI</title>
<path fill="none" stroke="black" stroke-dasharray="5,2" d="M400.242,-169.961C440.313,-166.002 491.493,-160.945 538.02,-156.348"/>
<polygon fill="black" stroke="black" points="538.572,-159.811 548.18,-155.345 537.884,-152.845 538.572,-159.811"/>
<text text-anchor="middle" x="481" y="-171.4" font-family="Times Roman,serif" font-size="14.00">INAA &#160;</text>
</g>
<!-- RunDose:Computed -->
<g id="node16" class="node"><title>RunDose:Computed</title>
<polygon fill="none" stroke="black" points="405,-295 253,-295 253,-219 405,-219 405,-295"/>
<text text-anchor="middle" x="329" y="-278.4" font-family="Times Roman,serif" font-size="14.00">RunDose:Computed</text>
<text text-anchor="middle" x="329" y="-261.4" font-family="Times Roman,serif" font-size="14.00">calcout</text>
<text text-anchor="middle" x="329" y="-244.4" font-family="Times Roman,serif" font-size="14.00">A</text>
<text text-anchor="middle" x="329" y="-227.4" font-family="Times Roman,serif" font-size="14.00">Every Time</text>
</g>
<!-- RunDose:Preset -->
<g id="node18" class="node"><title>RunDose:Preset</title>
<polygon fill="none" stroke="black" stroke-dasharray="5,2" points="726,-293 600,-293 600,-257 726,-257 726,-293"/>
<text text-anchor="middle" x="663" y="-270.9" font-family="Times Roman,serif" font-size="14.00">RunDose:Preset</text>
</g>
<!-- RunDose:Computed&#45;&gt;RunDose:Preset -->
<g id="edge16" class="edge"><title>RunDose:Computed&#45;&gt;RunDose:Preset</title>
<path fill="none" stroke="black" d="M405.626,-261.13C460.721,-264.099 534.594,-268.08 589.063,-271.015"/>
<polygon fill="black" stroke="black" points="589.169,-274.526 599.343,-271.569 589.545,-267.536 589.169,-274.526"/>
<text text-anchor="middle" x="481" y="-271.4" font-family="Times Roman,serif" font-size="14.00">OUT PP </text>
</g>
<!-- Time:Computed -->
<g id="node22" class="node"><title>Time:Computed</title>
<polygon fill="none" stroke="black" points="1086,-347 934,-347 934,-271 1086,-271 1086,-347"/>
<text text-anchor="middle" x="1010" y="-330.4" font-family="Times Roman,serif" font-size="14.00">Time:Computed</text>
<text text-anchor="middle" x="1010" y="-313.4" font-family="Times Roman,serif" font-size="14.00">calcout</text>
<text text-anchor="middle" x="1010" y="-296.4" font-family="Times Roman,serif" font-size="14.00">E:=C*A/B;E&gt;D?E:D</text>
<text text-anchor="middle" x="1010" y="-279.4" font-family="Times Roman,serif" font-size="14.00">Every Time</text>
</g>
<!-- RunDose:Computed&#45;&gt;Time:Computed -->
<g id="edge20" class="edge"><title>RunDose:Computed&#45;&gt;Time:Computed</title>
<path fill="none" stroke="black" stroke-dasharray="1,5" d="M405.8,-242.387C495.63,-227.636 648.543,-209.82 778,-231 827.806,-239.148 881.333,-256.525 924.409,-272.813"/>
<polygon fill="black" stroke="black" points="923.407,-276.177 933.997,-276.485 925.91,-269.64 923.407,-276.177"/>
<text text-anchor="middle" x="663" y="-235.4" font-family="Times Roman,serif" font-size="14.00">FLNK &#160;</text>
</g>
<!-- RunDose:Preset&#45;&gt;Time:Computed -->
<g id="edge26" class="edge"><title>RunDose:Preset&#45;&gt;Time:Computed</title>
<path fill="none" stroke="black" stroke-dasharray="5,2" d="M726.787,-279.941C773.201,-283.678 837.544,-289.151 894,-295 903.685,-296.003 913.816,-297.123 923.886,-298.279"/>
<polygon fill="black" stroke="black" points="923.579,-301.767 933.916,-299.445 924.387,-294.814 923.579,-301.767"/>
<text text-anchor="middle" x="845" y="-299.4" font-family="Times Roman,serif" font-size="14.00">INPA &#160;</text>
</g>
<!-- DailyDose:Prescribed -->
<g id="node19" class="node"><title>DailyDose:Prescribed</title>
<polygon fill="none" stroke="black" stroke-dasharray="5,2" points="162,-275 2.84217e-14,-275 0,-239 162,-239 162,-275"/>
<text text-anchor="middle" x="81" y="-252.9" font-family="Times Roman,serif" font-size="14.00">DailyDose:Prescribed</text>
</g>
<!-- DailyDose:Prescribed&#45;&gt;RunDose:Computed -->
<g id="edge18" class="edge"><title>DailyDose:Prescribed&#45;&gt;RunDose:Computed</title>
<path fill="none" stroke="black" stroke-dasharray="5,2" d="M162.204,-257C187.77,-257 216.102,-257 242.05,-257"/>
<polygon fill="black" stroke="black" points="242.246,-260.5 252.246,-257 242.245,-253.5 242.246,-260.5"/>
<text text-anchor="middle" x="203" y="-261.4" font-family="Times Roman,serif" font-size="14.00">INPA &#160;</text>
</g>
<!-- Time:Preset -->
<g id="node29" class="node"><title>Time:Preset</title>
<polygon fill="none" stroke="black" stroke-dasharray="5,2" points="1300,-327 1202,-327 1202,-291 1300,-291 1300,-327"/>
<text text-anchor="middle" x="1251" y="-304.9" font-family="Times Roman,serif" font-size="14.00">Time:Preset</text>
</g>
<!-- Time:Computed&#45;&gt;Time:Preset -->
<g id="edge28" class="edge"><title>Time:Computed&#45;&gt;Time:Preset</title>
<path fill="none" stroke="black" d="M1086.25,-309C1120.35,-309 1159.93,-309 1191.75,-309"/>
<polygon fill="black" stroke="black" points="1191.79,-312.5 1201.79,-309 1191.79,-305.5 1191.79,-312.5"/>
<text text-anchor="middle" x="1155" y="-313.4" font-family="Times Roman,serif" font-size="14.00">OUT PP </text>
</g>
<!-- TimeFactor:Cal -->
<g id="node23" class="node"><title>TimeFactor:Cal</title>
<polygon fill="none" stroke="black" stroke-dasharray="5,2" points="722,-401 604,-401 604,-365 722,-365 722,-401"/>
<text text-anchor="middle" x="663" y="-378.9" font-family="Times Roman,serif" font-size="14.00">TimeFactor:Cal</text>
</g>
<!-- TimeFactor:Cal&#45;&gt;Time:Computed -->
<g id="edge22" class="edge"><title>TimeFactor:Cal&#45;&gt;Time:Computed</title>
<path fill="none" stroke="black" stroke-dasharray="5,2" d="M722.161,-373.739C769.006,-366.047 835.982,-354.249 894,-341 903.7,-338.785 913.805,-336.287 923.83,-333.687"/>
<polygon fill="black" stroke="black" points="925.029,-336.99 933.809,-331.06 923.247,-330.221 925.029,-336.99"/>
<text text-anchor="middle" x="845" y="-364.4" font-family="Times Roman,serif" font-size="14.00">INPC &#160;</text>
</g>
<!-- DoseRate:Cal -->
<g id="node25" class="node"><title>DoseRate:Cal</title>
<polygon fill="none" stroke="black" stroke-dasharray="5,2" points="718,-347 608,-347 608,-311 718,-311 718,-347"/>
<text text-anchor="middle" x="663" y="-324.9" font-family="Times Roman,serif" font-size="14.00">DoseRate:Cal</text>
</g>
<!-- DoseRate:Cal&#45;&gt;Time:Computed -->
<g id="edge24" class="edge"><title>DoseRate:Cal&#45;&gt;Time:Computed</title>
<path fill="none" stroke="black" stroke-dasharray="5,2" d="M718.367,-325.809C773.672,-322.621 859.475,-317.676 923.717,-313.973"/>
<polygon fill="black" stroke="black" points="924.053,-317.46 933.835,-313.39 923.65,-310.471 924.053,-317.46"/>
<text text-anchor="middle" x="845" y="-324.4" font-family="Times Roman,serif" font-size="14.00">INPB &#160;</text>
</g>
<!-- Iso:Nowhere -->
<g id="node30" class="node"><title>Iso:Nowhere</title>
<polygon fill="none" stroke="black" points="133,-335 29,-335 29,-293 133,-293 133,-335"/>
<text text-anchor="middle" x="81" y="-318.4" font-family="Times Roman,serif" font-size="14.00">Iso:Nowhere</text>
<text text-anchor="middle" x="81" y="-301.4" font-family="Times Roman,serif" font-size="14.00">bo</text>
</g>
</g>
</svg>
