<?xml version="1.0" encoding="UTF-8" standalone="no"?>
<!DOCTYPE svg PUBLIC "-//W3C//DTD SVG 1.1//EN"
 "http://www.w3.org/Graphics/SVG/1.1/DTD/svg11.dtd">
<!-- Generated by graphviz version 2.26.3 (20100126.1600)
 -->
<!-- Title: dosimetry_merged Pages: 1 -->
<svg width="1852pt" height="1260pt"
 viewBox="0.00 0.00 1852.00 1260.00" xmlns="http://www.w3.org/2000/svg" xmlns:xlink="http://www.w3.org/1999/xlink">
<g id="graph1" class="graph" transform="scale(1 1) rotate(0) translate(4 1256)">
<title>dosimetry_merged</title>
<polygon fill="white" stroke="white" points="-4,5 -4,-1256 1849,-1256 1849,5 -4,5"/>
<!-- Subsystem:Override -->
<g id="node1" class="node"><title>Subsystem:Override</title>
<polygon fill="none" stroke="black" points="622,-742 466,-742 466,-700 622,-700 622,-742"/>
<text text-anchor="middle" x="544" y="-725.4" font-family="Times Roman,serif" font-size="14.00">Subsystem:Override</text>
<text text-anchor="middle" x="544" y="-708.4" font-family="Times Roman,serif" font-size="14.00">bo</text>
</g>
<!-- Settings:Readiness -->
<g id="node3" class="node"><title>Settings:Readiness</title>
<polygon fill="none" stroke="black" points="852,-620.5 706,-620.5 706,-561.5 852,-561.5 852,-620.5"/>
<text text-anchor="middle" x="779" y="-603.9" font-family="Times Roman,serif" font-size="14.00">Settings:Readiness</text>
<text text-anchor="middle" x="779" y="-586.9" font-family="Times Roman,serif" font-size="14.00">calc</text>
<text text-anchor="middle" x="779" y="-569.9" font-family="Times Roman,serif" font-size="14.00">D?1:MIN(A,B,C)</text>
</g>
<!-- Subsystem:Override&#45;&gt;Settings:Readiness -->
<g id="edge2" class="edge"><title>Subsystem:Override&#45;&gt;Settings:Readiness</title>
<path fill="none" stroke="black" stroke-dasharray="1,5" d="M622.106,-726.023C644.485,-724.483 668.17,-719.795 688,-709 720.561,-691.275 745.182,-656.42 760.551,-629.166"/>
<polygon fill="black" stroke="black" points="763.697,-630.707 765.406,-620.25 757.549,-627.359 763.697,-630.707"/>
<text text-anchor="middle" x="665" y="-727.4" font-family="Times Roman,serif" font-size="14.00">FLNK &#160;</text>
</g>
<!-- Subsystem:Override&#45;&gt;Settings:Readiness -->
<g id="edge8" class="edge"><title>Subsystem:Override&#45;&gt;Settings:Readiness</title>
<path fill="none" stroke="black" stroke-dasharray="5,2" d="M601.222,-699.971C628.259,-689.136 660.547,-674.87 688,-659 704.424,-649.506 721.352,-637.546 736.088,-626.314"/>
<polygon fill="black" stroke="black" points="738.263,-629.056 744.032,-620.169 733.98,-623.52 738.263,-629.056"/>
<text text-anchor="middle" x="665" y="-686.4" font-family="Times Roman,serif" font-size="14.00">INPD &#160;</text>
</g>
<!-- CheckConfirm:Status -->
<g id="node12" class="node"><title>CheckConfirm:Status</title>
<polygon fill="none" stroke="black" points="1124,-656.5 962,-656.5 962,-597.5 1124,-597.5 1124,-656.5"/>
<text text-anchor="middle" x="1043" y="-639.9" font-family="Times Roman,serif" font-size="14.00">CheckConfirm:Status</text>
<text text-anchor="middle" x="1043" y="-622.9" font-family="Times Roman,serif" font-size="14.00">calc</text>
<text text-anchor="middle" x="1043" y="-605.9" font-family="Times Roman,serif" font-size="14.00">A?1:0</text>
</g>
<!-- Settings:Readiness&#45;&gt;CheckConfirm:Status -->
<g id="edge12" class="edge"><title>Settings:Readiness&#45;&gt;CheckConfirm:Status</title>
<path fill="none" stroke="black" stroke-dasharray="1,5" d="M852.405,-606.119C858.347,-607.16 864.267,-608.137 870,-609 896.478,-612.988 925.369,-616.372 951.824,-619.093"/>
<polygon fill="black" stroke="black" points="951.534,-622.582 961.835,-620.104 952.237,-615.617 951.534,-622.582"/>
<text text-anchor="middle" x="893" y="-618.4" font-family="Times Roman,serif" font-size="14.00">FLNK &#160;</text>
</g>
<!-- Settings:Readiness&#45;&gt;CheckConfirm:Status -->
<g id="edge14" class="edge"><title>Settings:Readiness&#45;&gt;CheckConfirm:Status</title>
<path fill="none" stroke="black" stroke-dasharray="5,2" d="M852.008,-588.381C858.094,-588.228 864.152,-588.096 870,-588 890.442,-587.663 895.782,-584.966 916,-588 927.761,-589.765 939.937,-592.401 951.882,-595.486"/>
<polygon fill="black" stroke="black" points="951.282,-598.949 961.849,-598.174 953.105,-592.191 951.282,-598.949"/>
<text text-anchor="middle" x="893" y="-592.4" font-family="Times Roman,serif" font-size="14.00">INPA &#160;</text>
</g>
<!-- Subsystem:Calc -->
<g id="node15" class="node"><title>Subsystem:Calc</title>
<polygon fill="none" stroke="black" points="1598,-371.5 1234,-371.5 1234,-312.5 1598,-312.5 1598,-371.5"/>
<text text-anchor="middle" x="1416" y="-354.9" font-family="Times Roman,serif" font-size="14.00">Subsystem:Calc</text>
<text text-anchor="middle" x="1416" y="-337.9" font-family="Times Roman,serif" font-size="14.00">calc</text>
<text text-anchor="middle" x="1416" y="-320.9" font-family="Times Roman,serif" font-size="14.00">(B&amp;&amp;C&amp;&amp;D&amp;&amp;E&amp;&amp;F&amp;&amp;G&amp;&amp;H&amp;&amp;I&amp;&amp;J&amp;&amp;K&amp;&amp;L)?A:0</text>
</g>
<!-- Settings:Readiness&#45;&gt;Subsystem:Calc -->
<g id="edge40" class="edge"><title>Settings:Readiness&#45;&gt;Subsystem:Calc</title>
<path fill="none" stroke="black" stroke-dasharray="5,2" d="M852.087,-580.922C952.698,-566.792 1124.6,-541.632 1152,-531 1242.54,-495.871 1330.78,-422.426 1378.81,-378.146"/>
<polygon fill="black" stroke="black" points="1381.23,-380.675 1386.17,-371.3 1376.47,-375.55 1381.23,-380.675"/>
<text text-anchor="middle" x="1043" y="-572.4" font-family="Times Roman,serif" font-size="14.00">INPA &#160;</text>
</g>
<!-- TotalDose:Readiness -->
<g id="node4" class="node"><title>TotalDose:Readiness</title>
<polygon fill="none" stroke="black" points="622,-672 466,-672 466,-630 622,-630 622,-672"/>
<text text-anchor="middle" x="544" y="-655.4" font-family="Times Roman,serif" font-size="14.00">TotalDose:Readiness</text>
<text text-anchor="middle" x="544" y="-638.4" font-family="Times Roman,serif" font-size="14.00">mbbo</text>
</g>
<!-- TotalDose:Readiness&#45;&gt;Settings:Readiness -->
<g id="edge4" class="edge"><title>TotalDose:Readiness&#45;&gt;Settings:Readiness</title>
<path fill="none" stroke="black" stroke-dasharray="5,2" d="M622.837,-642.497C644.206,-639.236 667.181,-634.842 688,-629 693.597,-627.429 699.31,-625.607 705.01,-623.627"/>
<polygon fill="black" stroke="black" points="706.358,-626.861 714.567,-620.163 703.973,-620.28 706.358,-626.861"/>
<text text-anchor="middle" x="665" y="-642.4" font-family="Times Roman,serif" font-size="14.00">INPC &#160;</text>
</g>
<!-- TotalDose:Readiness&#45;&gt;Settings:Readiness -->
<g id="edge72" class="edge"><title>TotalDose:Readiness&#45;&gt;Settings:Readiness</title>
<path fill="none" stroke="black" stroke-dasharray="1,5" d="M584.992,-629.839C602.188,-621.807 622.653,-613.323 642,-608 658.999,-603.323 677.541,-599.931 695.336,-597.47"/>
<polygon fill="black" stroke="black" points="696.242,-600.882 705.709,-596.127 695.342,-593.94 696.242,-600.882"/>
<text text-anchor="middle" x="665" y="-612.4" font-family="Times Roman,serif" font-size="14.00">FLNK &#160;</text>
</g>
<!-- DailyDose:Readiness -->
<g id="node6" class="node"><title>DailyDose:Readiness</title>
<polygon fill="none" stroke="black" points="623,-592 465,-592 465,-550 623,-550 623,-592"/>
<text text-anchor="middle" x="544" y="-575.4" font-family="Times Roman,serif" font-size="14.00">DailyDose:Readiness</text>
<text text-anchor="middle" x="544" y="-558.4" font-family="Times Roman,serif" font-size="14.00">mbbo</text>
</g>
<!-- DailyDose:Readiness&#45;&gt;Settings:Readiness -->
<g id="edge6" class="edge"><title>DailyDose:Readiness&#45;&gt;Settings:Readiness</title>
<path fill="none" stroke="black" stroke-dasharray="5,2" d="M623.76,-568.731C644.706,-568.906 667.243,-569.783 688,-572 690.528,-572.27 693.089,-572.579 695.669,-572.92"/>
<polygon fill="black" stroke="black" points="695.291,-576.402 705.693,-574.388 696.306,-569.476 695.291,-576.402"/>
<text text-anchor="middle" x="665" y="-576.4" font-family="Times Roman,serif" font-size="14.00">INPB &#160;</text>
</g>
<!-- DailyDose:Readiness&#45;&gt;Settings:Readiness -->
<g id="edge86" class="edge"><title>DailyDose:Readiness&#45;&gt;Settings:Readiness</title>
<path fill="none" stroke="black" stroke-dasharray="1,5" d="M609.921,-549.981C634.55,-544.874 662.68,-542.319 688,-548 698.078,-550.261 708.354,-553.771 718.198,-557.831"/>
<polygon fill="black" stroke="black" points="716.918,-561.091 727.484,-561.871 719.71,-554.672 716.918,-561.091"/>
<text text-anchor="middle" x="665" y="-552.4" font-family="Times Roman,serif" font-size="14.00">FLNK &#160;</text>
</g>
<!-- Fractions:Readiness -->
<g id="node9" class="node"><title>Fractions:Readiness</title>
<polygon fill="none" stroke="black" points="620,-472 468,-472 468,-430 620,-430 620,-472"/>
<text text-anchor="middle" x="544" y="-455.4" font-family="Times Roman,serif" font-size="14.00">Fractions:Readiness</text>
<text text-anchor="middle" x="544" y="-438.4" font-family="Times Roman,serif" font-size="14.00">mbbo</text>
</g>
<!-- Fractions:Readiness&#45;&gt;Settings:Readiness -->
<g id="edge58" class="edge"><title>Fractions:Readiness&#45;&gt;Settings:Readiness</title>
<path fill="none" stroke="black" stroke-dasharray="1,5" d="M591.508,-472.139C620.141,-485.515 656.955,-503.851 688,-523 703.716,-532.694 720.108,-544.392 734.58,-555.333"/>
<polygon fill="black" stroke="black" points="732.789,-558.37 742.859,-561.666 737.042,-552.81 732.789,-558.37"/>
<text text-anchor="middle" x="665" y="-527.4" font-family="Times Roman,serif" font-size="14.00">FLNK &#160;</text>
</g>
<!-- Fractions:Readiness&#45;&gt;Settings:Readiness -->
<g id="edge10" class="edge"><title>Fractions:Readiness&#45;&gt;Settings:Readiness</title>
<path fill="none" stroke="black" stroke-dasharray="5,2" d="M620.338,-438.159C643.263,-437.732 667.695,-440.932 688,-452 726.955,-473.233 751.951,-519.132 765.698,-552.39"/>
<polygon fill="black" stroke="black" points="762.503,-553.828 769.443,-561.834 769.01,-551.248 762.503,-553.828"/>
<text text-anchor="middle" x="665" y="-456.4" font-family="Times Roman,serif" font-size="14.00">INPA &#160;</text>
</g>
<!-- CheckConfirm:Status&#45;&gt;Subsystem:Calc -->
<g id="edge30" class="edge"><title>CheckConfirm:Status&#45;&gt;Subsystem:Calc</title>
<path fill="none" stroke="black" stroke-dasharray="5,2" d="M1124.21,-631.902C1154.68,-630.421 1188.55,-624.564 1216,-609 1309.02,-556.262 1371.89,-440.723 1399.72,-380.395"/>
<polygon fill="black" stroke="black" points="1402.94,-381.758 1403.88,-371.205 1396.57,-378.868 1402.94,-381.758"/>
<text text-anchor="middle" x="1193" y="-629.4" font-family="Times Roman,serif" font-size="14.00">INPB &#160;</text>
</g>
<!-- CheckConfirm:Status&#45;&gt;Subsystem:Calc -->
<g id="edge16" class="edge"><title>CheckConfirm:Status&#45;&gt;Subsystem:Calc</title>
<path fill="none" stroke="black" stroke-dasharray="1,5" d="M1124.19,-604.185C1161.16,-592.913 1200.16,-579.512 1216,-569 1292.99,-517.894 1358.62,-429.818 1392.14,-379.725"/>
<polygon fill="black" stroke="black" points="1395.23,-381.401 1397.83,-371.129 1389.39,-377.539 1395.23,-381.401"/>
<text text-anchor="middle" x="1193" y="-592.4" font-family="Times Roman,serif" font-size="14.00">FLNK &#160;</text>
</g>
<!-- Subsystem:Readiness -->
<g id="node39" class="node"><title>Subsystem:Readiness</title>
<polygon fill="none" stroke="black" points="1844,-363 1680,-363 1680,-321 1844,-321 1844,-363"/>
<text text-anchor="middle" x="1762" y="-346.4" font-family="Times Roman,serif" font-size="14.00">Subsystem:Readiness</text>
<text text-anchor="middle" x="1762" y="-329.4" font-family="Times Roman,serif" font-size="14.00">mbbo</text>
</g>
<!-- Subsystem:Calc&#45;&gt;Subsystem:Readiness -->
<g id="edge42" class="edge"><title>Subsystem:Calc&#45;&gt;Subsystem:Readiness</title>
<path fill="none" stroke="black" stroke-dasharray="1,5" d="M1598.12,-342C1622.97,-342 1647.56,-342 1669.85,-342"/>
<polygon fill="black" stroke="black" points="1669.92,-345.5 1679.92,-342 1669.92,-338.5 1669.92,-345.5"/>
<text text-anchor="middle" x="1639" y="-346.4" font-family="Times Roman,serif" font-size="14.00">FLNK &#160;</text>
</g>
<!-- Subsystem:Calc&#45;&gt;Subsystem:Readiness -->
<g id="edge44" class="edge"><title>Subsystem:Calc&#45;&gt;Subsystem:Readiness</title>
<path fill="none" stroke="black" stroke-dasharray="5,2" d="M1598.1,-318.743C1619.65,-318.272 1641.32,-318.852 1662,-321 1664.55,-321.265 1667.13,-321.566 1669.72,-321.9"/>
<polygon fill="black" stroke="black" points="1669.42,-325.391 1679.81,-323.334 1670.4,-318.461 1669.42,-325.391"/>
<text text-anchor="middle" x="1639" y="-325.4" font-family="Times Roman,serif" font-size="14.00">DOL &#160;</text>
</g>
<!-- DMCError:Status -->
<g id="node16" class="node"><title>DMCError:Status</title>
<polygon fill="none" stroke="black" stroke-dasharray="5,2" points="1110,-522 976,-522 976,-486 1110,-486 1110,-522"/>
<text text-anchor="middle" x="1043" y="-499.9" font-family="Times Roman,serif" font-size="14.00">DMCError:Status</text>
</g>
<!-- DMCError:Status&#45;&gt;Subsystem:Calc -->
<g id="edge18" class="edge"><title>DMCError:Status&#45;&gt;Subsystem:Calc</title>
<path fill="none" stroke="black" stroke-dasharray="5,2" d="M1110.03,-489.974C1124.08,-486.32 1138.67,-481.984 1152,-477 1226.07,-449.309 1306.31,-406.242 1358.64,-376.222"/>
<polygon fill="black" stroke="black" points="1360.52,-379.177 1367.43,-371.148 1357.02,-373.113 1360.52,-379.177"/>
<text text-anchor="middle" x="1193" y="-472.4" font-family="Times Roman,serif" font-size="14.00">INPI &#160;</text>
</g>
<!-- StartTimeout:Status -->
<g id="node18" class="node"><title>StartTimeout:Status</title>
<polygon fill="none" stroke="black" stroke-dasharray="5,2" points="1122,-468 964,-468 964,-432 1122,-432 1122,-468"/>
<text text-anchor="middle" x="1043" y="-445.9" font-family="Times Roman,serif" font-size="14.00">StartTimeout:Status</text>
</g>
<!-- StartTimeout:Status&#45;&gt;Subsystem:Calc -->
<g id="edge20" class="edge"><title>StartTimeout:Status&#45;&gt;Subsystem:Calc</title>
<path fill="none" stroke="black" stroke-dasharray="5,2" d="M1118.19,-431.947C1129.55,-429.056 1141.1,-426.019 1152,-423 1206.47,-407.91 1266.76,-389.541 1315.95,-374.113"/>
<polygon fill="black" stroke="black" points="1317.15,-377.406 1325.64,-371.068 1315.05,-370.728 1317.15,-377.406"/>
<text text-anchor="middle" x="1193" y="-420.4" font-family="Times Roman,serif" font-size="14.00">INPH &#160;</text>
</g>
<!-- PLCError:Status -->
<g id="node20" class="node"><title>PLCError:Status</title>
<polygon fill="none" stroke="black" stroke-dasharray="5,2" points="1107,-414 979,-414 979,-378 1107,-378 1107,-414"/>
<text text-anchor="middle" x="1043" y="-391.9" font-family="Times Roman,serif" font-size="14.00">PLCError:Status</text>
</g>
<!-- PLCError:Status&#45;&gt;Subsystem:Calc -->
<g id="edge22" class="edge"><title>PLCError:Status&#45;&gt;Subsystem:Calc</title>
<path fill="none" stroke="black" stroke-dasharray="5,2" d="M1107.12,-386.717C1139.81,-381.985 1181.47,-375.953 1223.54,-369.863"/>
<polygon fill="black" stroke="black" points="1224.27,-373.294 1233.66,-368.398 1223.26,-366.367 1224.27,-373.294"/>
<text text-anchor="middle" x="1193" y="-380.4" font-family="Times Roman,serif" font-size="14.00">INPK &#160;</text>
</g>
<!-- DMCSetup:Status -->
<g id="node22" class="node"><title>DMCSetup:Status</title>
<polygon fill="none" stroke="black" stroke-dasharray="5,2" points="1113,-360 973,-360 973,-324 1113,-324 1113,-360"/>
<text text-anchor="middle" x="1043" y="-337.9" font-family="Times Roman,serif" font-size="14.00">DMCSetup:Status</text>
</g>
<!-- DMCSetup:Status&#45;&gt;Subsystem:Calc -->
<g id="edge24" class="edge"><title>DMCSetup:Status&#45;&gt;Subsystem:Calc</title>
<path fill="none" stroke="black" stroke-dasharray="5,2" d="M1113.16,-342C1144.87,-342 1184.05,-342 1223.59,-342"/>
<polygon fill="black" stroke="black" points="1223.64,-345.5 1233.64,-342 1223.64,-338.5 1223.64,-345.5"/>
<text text-anchor="middle" x="1193" y="-346.4" font-family="Times Roman,serif" font-size="14.00">INPJ &#160;</text>
</g>
<!-- RelayError:Status -->
<g id="node24" class="node"><title>RelayError:Status</title>
<polygon fill="none" stroke="black" stroke-dasharray="5,2" points="1112,-306 974,-306 974,-270 1112,-270 1112,-306"/>
<text text-anchor="middle" x="1043" y="-283.9" font-family="Times Roman,serif" font-size="14.00">RelayError:Status</text>
</g>
<!-- RelayError:Status&#45;&gt;Subsystem:Calc -->
<g id="edge26" class="edge"><title>RelayError:Status&#45;&gt;Subsystem:Calc</title>
<path fill="none" stroke="black" stroke-dasharray="5,2" d="M1112.72,-298.094C1144.5,-302.695 1183.86,-308.392 1223.57,-314.141"/>
<polygon fill="black" stroke="black" points="1223.27,-317.634 1233.67,-315.603 1224.27,-310.707 1223.27,-317.634"/>
<text text-anchor="middle" x="1193" y="-315.4" font-family="Times Roman,serif" font-size="14.00">INPL &#160;</text>
</g>
<!-- CYC:DosimRelayA1OK:Status -->
<g id="node26" class="node"><title>CYC:DosimRelayA1OK:Status</title>
<polygon fill="none" stroke="black" stroke-dasharray="5,2" points="1152,-252 934,-252 934,-216 1152,-216 1152,-252"/>
<text text-anchor="middle" x="1043" y="-229.9" font-family="Times Roman,serif" font-size="14.00">CYC:DosimRelayA1OK:Status</text>
</g>
<!-- CYC:DosimRelayA1OK:Status&#45;&gt;Subsystem:Calc -->
<g id="edge28" class="edge"><title>CYC:DosimRelayA1OK:Status&#45;&gt;Subsystem:Calc</title>
<path fill="none" stroke="black" stroke-dasharray="5,2" d="M1118.19,-252.053C1129.55,-254.944 1141.1,-257.981 1152,-261 1206.47,-276.09 1266.76,-294.459 1315.95,-309.887"/>
<polygon fill="black" stroke="black" points="1315.05,-313.272 1325.64,-312.932 1317.15,-306.594 1315.05,-313.272"/>
<text text-anchor="middle" x="1193" y="-281.4" font-family="Times Roman,serif" font-size="14.00">INPC &#160;</text>
</g>
<!-- PressTemp:Status -->
<g id="node29" class="node"><title>PressTemp:Status</title>
<polygon fill="none" stroke="black" stroke-dasharray="5,2" points="1112,-198 974,-198 974,-162 1112,-162 1112,-198"/>
<text text-anchor="middle" x="1043" y="-175.9" font-family="Times Roman,serif" font-size="14.00">PressTemp:Status</text>
</g>
<!-- PressTemp:Status&#45;&gt;Subsystem:Calc -->
<g id="edge32" class="edge"><title>PressTemp:Status&#45;&gt;Subsystem:Calc</title>
<path fill="none" stroke="black" stroke-dasharray="5,2" d="M1112.63,-194.709C1125.87,-198.217 1139.49,-202.324 1152,-207 1226.07,-234.691 1306.31,-277.758 1358.64,-307.778"/>
<polygon fill="black" stroke="black" points="1357.02,-310.887 1367.43,-312.852 1360.52,-304.823 1357.02,-310.887"/>
<text text-anchor="middle" x="1193" y="-235.4" font-family="Times Roman,serif" font-size="14.00">INPE &#160;</text>
</g>
<!-- CYC:DosimRelayA2OK:Status -->
<g id="node31" class="node"><title>CYC:DosimRelayA2OK:Status</title>
<polygon fill="none" stroke="black" stroke-dasharray="5,2" points="1152,-144 934,-144 934,-108 1152,-108 1152,-144"/>
<text text-anchor="middle" x="1043" y="-121.9" font-family="Times Roman,serif" font-size="14.00">CYC:DosimRelayA2OK:Status</text>
</g>
<!-- CYC:DosimRelayA2OK:Status&#45;&gt;Subsystem:Calc -->
<g id="edge34" class="edge"><title>CYC:DosimRelayA2OK:Status&#45;&gt;Subsystem:Calc</title>
<path fill="none" stroke="black" stroke-dasharray="5,2" d="M1127.81,-144.09C1136.11,-146.725 1144.3,-149.687 1152,-153 1240.72,-191.168 1328.93,-262.904 1377.58,-306.18"/>
<polygon fill="black" stroke="black" points="1375.26,-308.801 1385.04,-312.872 1379.94,-303.59 1375.26,-308.801"/>
<text text-anchor="middle" x="1193" y="-189.4" font-family="Times Roman,serif" font-size="14.00">INPD &#160;</text>
</g>
<!-- SetupTimeout:Status -->
<g id="node33" class="node"><title>SetupTimeout:Status</title>
<polygon fill="none" stroke="black" stroke-dasharray="5,2" points="1124,-90 962,-90 962,-54 1124,-54 1124,-90"/>
<text text-anchor="middle" x="1043" y="-67.9" font-family="Times Roman,serif" font-size="14.00">SetupTimeout:Status</text>
</g>
<!-- SetupTimeout:Status&#45;&gt;Subsystem:Calc -->
<g id="edge36" class="edge"><title>SetupTimeout:Status&#45;&gt;Subsystem:Calc</title>
<path fill="none" stroke="black" stroke-dasharray="5,2" d="M1124.75,-88.8174C1134.11,-91.745 1143.38,-95.1225 1152,-99 1255.49,-145.532 1345.36,-248.869 1388.6,-304.617"/>
<polygon fill="black" stroke="black" points="1386.02,-307.008 1394.89,-312.812 1391.58,-302.748 1386.02,-307.008"/>
<text text-anchor="middle" x="1193" y="-136.4" font-family="Times Roman,serif" font-size="14.00">INPG &#160;</text>
</g>
<!-- DMCCal:Status -->
<g id="node35" class="node"><title>DMCCal:Status</title>
<polygon fill="none" stroke="black" stroke-dasharray="5,2" points="1103,-36 983,-36 983,-1.06581e-14 1103,-0 1103,-36"/>
<text text-anchor="middle" x="1043" y="-13.9" font-family="Times Roman,serif" font-size="14.00">DMCCal:Status</text>
</g>
<!-- DMCCal:Status&#45;&gt;Subsystem:Calc -->
<g id="edge38" class="edge"><title>DMCCal:Status&#45;&gt;Subsystem:Calc</title>
<path fill="none" stroke="black" stroke-dasharray="5,2" d="M1103.75,-28.8441C1119.84,-32.8386 1136.92,-38.1248 1152,-45 1271.3,-99.3999 1358.97,-236.729 1396.22,-303.865"/>
<polygon fill="black" stroke="black" points="1393.27,-305.763 1401.14,-312.856 1399.41,-302.403 1393.27,-305.763"/>
<text text-anchor="middle" x="1193" y="-87.4" font-family="Times Roman,serif" font-size="14.00">INPF &#160;</text>
</g>
<!-- Fractions:Prescribed -->
<g id="node41" class="node"><title>Fractions:Prescribed</title>
<polygon fill="none" stroke="black" points="167,-447 13,-447 13,-405 167,-405 167,-447"/>
<text text-anchor="middle" x="90" y="-430.4" font-family="Times Roman,serif" font-size="14.00">Fractions:Prescribed</text>
<text text-anchor="middle" x="90" y="-413.4" font-family="Times Roman,serif" font-size="14.00">longout</text>
</g>
<!-- Fractions:Calc -->
<g id="node43" class="node"><title>Fractions:Calc</title>
<polygon fill="none" stroke="black" points="378,-440.5 266,-440.5 266,-381.5 378,-381.5 378,-440.5"/>
<text text-anchor="middle" x="322" y="-423.9" font-family="Times Roman,serif" font-size="14.00">Fractions:Calc</text>
<text text-anchor="middle" x="322" y="-406.9" font-family="Times Roman,serif" font-size="14.00">calc</text>
<text text-anchor="middle" x="322" y="-389.9" font-family="Times Roman,serif" font-size="14.00">(A&gt;B)?2:0</text>
</g>
<!-- Fractions:Prescribed&#45;&gt;Fractions:Calc -->
<g id="edge46" class="edge"><title>Fractions:Prescribed&#45;&gt;Fractions:Calc</title>
<path fill="none" stroke="black" stroke-dasharray="1,5" d="M167.742,-431.523C192.21,-432.188 219.29,-431.814 244,-429 247.851,-428.561 251.789,-428.005 255.749,-427.361"/>
<polygon fill="black" stroke="black" points="256.374,-430.805 265.601,-425.599 255.141,-423.914 256.374,-430.805"/>
<text text-anchor="middle" x="221" y="-435.4" font-family="Times Roman,serif" font-size="14.00">FLNK &#160;</text>
</g>
<!-- Fractions:Prescribed&#45;&gt;Fractions:Calc -->
<g id="edge52" class="edge"><title>Fractions:Prescribed&#45;&gt;Fractions:Calc</title>
<path fill="none" stroke="black" stroke-dasharray="5,2" d="M167.676,-411.479C177.844,-410.042 188.149,-408.815 198,-408 218.375,-406.314 223.559,-407.607 244,-408 247.743,-408.072 251.586,-408.163 255.465,-408.269"/>
<polygon fill="black" stroke="black" points="255.669,-411.777 265.769,-408.579 255.879,-404.78 255.669,-411.777"/>
<text text-anchor="middle" x="221" y="-412.4" font-family="Times Roman,serif" font-size="14.00">INPA &#160;</text>
</g>
<!-- Fractions:Calc&#45;&gt;Fractions:Readiness -->
<g id="edge54" class="edge"><title>Fractions:Calc&#45;&gt;Fractions:Readiness</title>
<path fill="none" stroke="black" stroke-dasharray="1,5" d="M378.131,-424.484C385.47,-426.091 392.902,-427.641 400,-429 418.719,-432.585 438.897,-435.965 458.052,-438.951"/>
<polygon fill="black" stroke="black" points="457.546,-442.415 467.962,-440.476 458.61,-435.496 457.546,-442.415"/>
<text text-anchor="middle" x="423" y="-440.4" font-family="Times Roman,serif" font-size="14.00">FLNK &#160;</text>
</g>
<!-- Fractions:Calc&#45;&gt;Fractions:Readiness -->
<g id="edge56" class="edge"><title>Fractions:Calc&#45;&gt;Fractions:Readiness</title>
<path fill="none" stroke="black" stroke-dasharray="5,2" d="M378.052,-404.221C399.507,-403.036 424.081,-403.403 446,-408 463.167,-411.601 481,-418.393 496.673,-425.534"/>
<polygon fill="black" stroke="black" points="495.59,-428.894 506.127,-430 498.58,-422.564 495.59,-428.894"/>
<text text-anchor="middle" x="423" y="-412.4" font-family="Times Roman,serif" font-size="14.00">DOL &#160;</text>
</g>
<!-- Fractions:Accumulated -->
<g id="node44" class="node"><title>Fractions:Accumulated</title>
<polygon fill="none" stroke="black" points="176,-377 4,-377 4,-335 176,-335 176,-377"/>
<text text-anchor="middle" x="90" y="-360.4" font-family="Times Roman,serif" font-size="14.00">Fractions:Accumulated</text>
<text text-anchor="middle" x="90" y="-343.4" font-family="Times Roman,serif" font-size="14.00">longin</text>
</g>
<!-- Fractions:Accumulated&#45;&gt;Fractions:Calc -->
<g id="edge48" class="edge"><title>Fractions:Accumulated&#45;&gt;Fractions:Calc</title>
<path fill="none" stroke="black" stroke-dasharray="1,5" d="M176.334,-370.962C198.503,-375.311 222.234,-380.412 244,-386 248.029,-387.034 252.155,-388.158 256.304,-389.339"/>
<polygon fill="black" stroke="black" points="255.411,-392.724 265.992,-392.178 257.38,-386.007 255.411,-392.724"/>
<text text-anchor="middle" x="221" y="-390.4" font-family="Times Roman,serif" font-size="14.00">FLNK &#160;</text>
</g>
<!-- Fractions:Accumulated&#45;&gt;Fractions:Calc -->
<g id="edge50" class="edge"><title>Fractions:Accumulated&#45;&gt;Fractions:Calc</title>
<path fill="none" stroke="black" stroke-dasharray="5,2" d="M176.187,-345.935C198.691,-345.863 222.621,-348.12 244,-355 257.663,-359.397 270.959,-367.171 282.589,-375.553"/>
<polygon fill="black" stroke="black" points="280.658,-378.481 290.745,-381.724 284.882,-372.899 280.658,-378.481"/>
<text text-anchor="middle" x="221" y="-359.4" font-family="Times Roman,serif" font-size="14.00">INPB &#160;</text>
</g>
<!-- TotalDose:Prescribed -->
<g id="node51" class="node"><title>TotalDose:Prescribed</title>
<polygon fill="none" stroke="black" points="170,-772 10,-772 10,-730 170,-730 170,-772"/>
<text text-anchor="middle" x="90" y="-755.4" font-family="Times Roman,serif" font-size="14.00">TotalDose:Prescribed</text>
<text text-anchor="middle" x="90" y="-738.4" font-family="Times Roman,serif" font-size="14.00">ao</text>
</g>
<!-- TotalDose:Calc -->
<g id="node53" class="node"><title>TotalDose:Calc</title>
<polygon fill="none" stroke="black" points="380,-720.5 264,-720.5 264,-661.5 380,-661.5 380,-720.5"/>
<text text-anchor="middle" x="322" y="-703.9" font-family="Times Roman,serif" font-size="14.00">TotalDose:Calc</text>
<text text-anchor="middle" x="322" y="-686.9" font-family="Times Roman,serif" font-size="14.00">calc</text>
<text text-anchor="middle" x="322" y="-669.9" font-family="Times Roman,serif" font-size="14.00">(A&gt;B)?2:0</text>
</g>
<!-- TotalDose:Prescribed&#45;&gt;TotalDose:Calc -->
<g id="edge60" class="edge"><title>TotalDose:Prescribed&#45;&gt;TotalDose:Calc</title>
<path fill="none" stroke="black" stroke-dasharray="1,5" d="M170.335,-759.295C194.542,-759.331 220.824,-756.84 244,-749 258.287,-744.167 272.105,-735.639 284.041,-726.586"/>
<polygon fill="black" stroke="black" points="286.334,-729.234 291.985,-720.273 281.979,-723.754 286.334,-729.234"/>
<text text-anchor="middle" x="221" y="-762.4" font-family="Times Roman,serif" font-size="14.00">FLNK &#160;</text>
</g>
<!-- TotalDose:Prescribed&#45;&gt;TotalDose:Calc -->
<g id="edge66" class="edge"><title>TotalDose:Prescribed&#45;&gt;TotalDose:Calc</title>
<path fill="none" stroke="black" stroke-dasharray="5,2" d="M170.166,-730.267C197.342,-723.239 227.428,-715.458 253.602,-708.689"/>
<polygon fill="black" stroke="black" points="254.622,-712.041 263.427,-706.148 252.869,-705.263 254.622,-712.041"/>
<text text-anchor="middle" x="221" y="-726.4" font-family="Times Roman,serif" font-size="14.00">INPA &#160;</text>
</g>
<!-- TotalDose:Calc&#45;&gt;TotalDose:Readiness -->
<g id="edge68" class="edge"><title>TotalDose:Calc&#45;&gt;TotalDose:Readiness</title>
<path fill="none" stroke="black" stroke-dasharray="1,5" d="M380.675,-680.665C401.329,-677.007 424.699,-672.846 446,-669 449.051,-668.449 452.155,-667.887 455.29,-667.319"/>
<polygon fill="black" stroke="black" points="456.166,-670.717 465.378,-665.484 454.913,-663.83 456.166,-670.717"/>
<text text-anchor="middle" x="423" y="-680.4" font-family="Times Roman,serif" font-size="14.00">FLNK &#160;</text>
</g>
<!-- TotalDose:Calc&#45;&gt;TotalDose:Readiness -->
<g id="edge70" class="edge"><title>TotalDose:Calc&#45;&gt;TotalDose:Readiness</title>
<path fill="none" stroke="black" stroke-dasharray="5,2" d="M365.748,-661.903C376.516,-656.173 388.319,-651.006 400,-648 417.572,-643.477 436.752,-641.76 455.216,-641.62"/>
<polygon fill="black" stroke="black" points="455.359,-645.121 465.386,-641.697 455.413,-638.121 455.359,-645.121"/>
<text text-anchor="middle" x="423" y="-652.4" font-family="Times Roman,serif" font-size="14.00">DOL &#160;</text>
</g>
<!-- TotalDose:Accumulated -->
<g id="node54" class="node"><title>TotalDose:Accumulated</title>
<polygon fill="none" stroke="black" points="178,-692 2,-692 2,-650 178,-650 178,-692"/>
<text text-anchor="middle" x="90" y="-675.4" font-family="Times Roman,serif" font-size="14.00">TotalDose:Accumulated</text>
<text text-anchor="middle" x="90" y="-658.4" font-family="Times Roman,serif" font-size="14.00">ai</text>
</g>
<!-- TotalDose:Accumulated&#45;&gt;TotalDose:Calc -->
<g id="edge62" class="edge"><title>TotalDose:Accumulated&#45;&gt;TotalDose:Calc</title>
<path fill="none" stroke="black" stroke-dasharray="1,5" d="M178.702,-678.647C203.44,-680.779 229.933,-683.063 253.327,-685.08"/>
<polygon fill="black" stroke="black" points="253.229,-688.584 263.493,-685.956 253.83,-681.61 253.229,-688.584"/>
<text text-anchor="middle" x="221" y="-687.4" font-family="Times Roman,serif" font-size="14.00">FLNK &#160;</text>
</g>
<!-- TotalDose:Accumulated&#45;&gt;TotalDose:Calc -->
<g id="edge64" class="edge"><title>TotalDose:Accumulated&#45;&gt;TotalDose:Calc</title>
<path fill="none" stroke="black" stroke-dasharray="5,2" d="M178.841,-655.872C200.306,-654.471 223.083,-654.876 244,-659 247.061,-659.603 250.152,-660.328 253.248,-661.15"/>
<polygon fill="black" stroke="black" points="252.538,-664.59 263.12,-664.074 254.526,-657.878 252.538,-664.59"/>
<text text-anchor="middle" x="221" y="-663.4" font-family="Times Roman,serif" font-size="14.00">INPB &#160;</text>
</g>
<!-- DailyDose:Prescribed -->
<g id="node61" class="node"><title>DailyDose:Prescribed</title>
<polygon fill="none" stroke="black" points="171,-612 9,-612 9,-570 171,-570 171,-612"/>
<text text-anchor="middle" x="90" y="-595.4" font-family="Times Roman,serif" font-size="14.00">DailyDose:Prescribed</text>
<text text-anchor="middle" x="90" y="-578.4" font-family="Times Roman,serif" font-size="14.00">ao</text>
</g>
<!-- DailyDose:Calc -->
<g id="node63" class="node"><title>DailyDose:Calc</title>
<polygon fill="none" stroke="black" points="381,-600.5 263,-600.5 263,-541.5 381,-541.5 381,-600.5"/>
<text text-anchor="middle" x="322" y="-583.9" font-family="Times Roman,serif" font-size="14.00">DailyDose:Calc</text>
<text text-anchor="middle" x="322" y="-566.9" font-family="Times Roman,serif" font-size="14.00">calc</text>
<text text-anchor="middle" x="322" y="-549.9" font-family="Times Roman,serif" font-size="14.00">(A&gt;B)?2:0</text>
</g>
<!-- DailyDose:Prescribed&#45;&gt;DailyDose:Calc -->
<g id="edge74" class="edge"><title>DailyDose:Prescribed&#45;&gt;DailyDose:Calc</title>
<path fill="none" stroke="black" stroke-dasharray="1,5" d="M171.338,-593.187C194.852,-592.943 220.506,-591.83 244,-589 246.688,-588.676 249.419,-588.297 252.171,-587.874"/>
<polygon fill="black" stroke="black" points="252.917,-591.297 262.185,-586.163 251.738,-584.397 252.917,-591.297"/>
<text text-anchor="middle" x="221" y="-596.4" font-family="Times Roman,serif" font-size="14.00">FLNK &#160;</text>
</g>
<!-- DailyDose:Prescribed&#45;&gt;DailyDose:Calc -->
<g id="edge80" class="edge"><title>DailyDose:Prescribed&#45;&gt;DailyDose:Calc</title>
<path fill="none" stroke="black" stroke-dasharray="5,2" d="M171.088,-571.825C180.125,-570.258 189.23,-568.923 198,-568 218.332,-565.859 223.559,-567.607 244,-568 246.701,-568.052 249.455,-568.114 252.237,-568.184"/>
<polygon fill="black" stroke="black" points="252.291,-571.687 262.386,-568.471 252.489,-564.69 252.291,-571.687"/>
<text text-anchor="middle" x="221" y="-572.4" font-family="Times Roman,serif" font-size="14.00">INPA &#160;</text>
</g>
<!-- DailyDose:Calc&#45;&gt;DailyDose:Readiness -->
<g id="edge82" class="edge"><title>DailyDose:Calc&#45;&gt;DailyDose:Readiness</title>
<path fill="none" stroke="black" stroke-dasharray="1,5" d="M381.806,-586.243C387.919,-587.367 394.062,-588.324 400,-589 417.555,-590.999 436.297,-590.552 454.26,-588.85"/>
<polygon fill="black" stroke="black" points="454.873,-592.304 464.438,-587.747 454.119,-585.345 454.873,-592.304"/>
<text text-anchor="middle" x="423" y="-594.4" font-family="Times Roman,serif" font-size="14.00">FLNK &#160;</text>
</g>
<!-- DailyDose:Calc&#45;&gt;DailyDose:Readiness -->
<g id="edge84" class="edge"><title>DailyDose:Calc&#45;&gt;DailyDose:Readiness</title>
<path fill="none" stroke="black" stroke-dasharray="5,2" d="M381.614,-568.471C387.822,-568.278 394.038,-568.115 400,-568 417.532,-567.663 436.265,-567.736 454.225,-568.019"/>
<polygon fill="black" stroke="black" points="454.34,-571.522 464.401,-568.203 454.466,-564.523 454.34,-571.522"/>
<text text-anchor="middle" x="423" y="-572.4" font-family="Times Roman,serif" font-size="14.00">DOL &#160;</text>
</g>
<!-- DailyDose:Accumulated -->
<g id="node64" class="node"><title>DailyDose:Accumulated</title>
<polygon fill="none" stroke="black" points="179,-532 1,-532 1,-490 179,-490 179,-532"/>
<text text-anchor="middle" x="90" y="-515.4" font-family="Times Roman,serif" font-size="14.00">DailyDose:Accumulated</text>
<text text-anchor="middle" x="90" y="-498.4" font-family="Times Roman,serif" font-size="14.00">ai</text>
</g>
<!-- DailyDose:Accumulated&#45;&gt;DailyDose:Calc -->
<g id="edge76" class="edge"><title>DailyDose:Accumulated&#45;&gt;DailyDose:Calc</title>
<path fill="none" stroke="black" stroke-dasharray="1,5" d="M179.56,-529.116C200.791,-533.867 223.283,-539.277 244,-545 246.773,-545.766 249.593,-546.573 252.436,-547.409"/>
<polygon fill="black" stroke="black" points="251.565,-550.802 262.15,-550.348 253.592,-544.102 251.565,-550.802"/>
<text text-anchor="middle" x="221" y="-549.4" font-family="Times Roman,serif" font-size="14.00">FLNK &#160;</text>
</g>
<!-- DailyDose:Accumulated&#45;&gt;DailyDose:Calc -->
<g id="edge78" class="edge"><title>DailyDose:Accumulated&#45;&gt;DailyDose:Calc</title>
<path fill="none" stroke="black" stroke-dasharray="5,2" d="M179.55,-502.817C201.1,-503.38 223.737,-506.146 244,-513 258.287,-517.833 272.105,-526.361 284.041,-535.414"/>
<polygon fill="black" stroke="black" points="281.979,-538.246 291.985,-541.727 286.334,-532.766 281.979,-538.246"/>
<text text-anchor="middle" x="221" y="-517.4" font-family="Times Roman,serif" font-size="14.00">INPB &#160;</text>
</g>
<!-- RunDose:Computed -->
<g id="node71" class="node"><title>RunDose:Computed</title>
<polygon fill="none" stroke="black" points="166,-832 14,-832 14,-790 166,-790 166,-832"/>
<text text-anchor="middle" x="90" y="-815.4" font-family="Times Roman,serif" font-size="14.00">RunDose:Computed</text>
<text text-anchor="middle" x="90" y="-798.4" font-family="Times Roman,serif" font-size="14.00">ao</text>
</g>
<!-- RunDose:Preset -->
<g id="node72" class="node"><title>RunDose:Preset</title>
<polygon fill="none" stroke="black" points="153,-892 27,-892 27,-850 153,-850 153,-892"/>
<text text-anchor="middle" x="90" y="-875.4" font-family="Times Roman,serif" font-size="14.00">RunDose:Preset</text>
<text text-anchor="middle" x="90" y="-858.4" font-family="Times Roman,serif" font-size="14.00">ai</text>
</g>
<!-- Time:Computed -->
<g id="node73" class="node"><title>Time:Computed</title>
<polygon fill="none" stroke="black" points="152,-952 28,-952 28,-910 152,-910 152,-952"/>
<text text-anchor="middle" x="90" y="-935.4" font-family="Times Roman,serif" font-size="14.00">Time:Computed</text>
<text text-anchor="middle" x="90" y="-918.4" font-family="Times Roman,serif" font-size="14.00">ao</text>
</g>
<!-- Time:Preset -->
<g id="node74" class="node"><title>Time:Preset</title>
<polygon fill="none" stroke="black" points="139,-1012 41,-1012 41,-970 139,-970 139,-1012"/>
<text text-anchor="middle" x="90" y="-995.4" font-family="Times Roman,serif" font-size="14.00">Time:Preset</text>
<text text-anchor="middle" x="90" y="-978.4" font-family="Times Roman,serif" font-size="14.00">ai</text>
</g>
<!-- RunDose:Official -->
<g id="node75" class="node"><title>RunDose:Official</title>
<polygon fill="none" stroke="black" points="155,-1072 25,-1072 25,-1030 155,-1030 155,-1072"/>
<text text-anchor="middle" x="90" y="-1055.4" font-family="Times Roman,serif" font-size="14.00">RunDose:Official</text>
<text text-anchor="middle" x="90" y="-1038.4" font-family="Times Roman,serif" font-size="14.00">ao</text>
</g>
<!-- DoseA:Actual -->
<g id="node76" class="node"><title>DoseA:Actual</title>
<polygon fill="none" stroke="black" points="144,-1132 36,-1132 36,-1090 144,-1090 144,-1132"/>
<text text-anchor="middle" x="90" y="-1115.4" font-family="Times Roman,serif" font-size="14.00">DoseA:Actual</text>
<text text-anchor="middle" x="90" y="-1098.4" font-family="Times Roman,serif" font-size="14.00">ai</text>
</g>
<!-- DoseB:Actual -->
<g id="node77" class="node"><title>DoseB:Actual</title>
<polygon fill="none" stroke="black" points="144,-1192 36,-1192 36,-1150 144,-1150 144,-1192"/>
<text text-anchor="middle" x="90" y="-1175.4" font-family="Times Roman,serif" font-size="14.00">DoseB:Actual</text>
<text text-anchor="middle" x="90" y="-1158.4" font-family="Times Roman,serif" font-size="14.00">ai</text>
</g>
<!-- Time:Actual -->
<g id="node78" class="node"><title>Time:Actual</title>
<polygon fill="none" stroke="black" points="139,-1252 41,-1252 41,-1210 139,-1210 139,-1252"/>
<text text-anchor="middle" x="90" y="-1235.4" font-family="Times Roman,serif" font-size="14.00">Time:Actual</text>
<text text-anchor="middle" x="90" y="-1218.4" font-family="Times Roman,serif" font-size="14.00">ai</text>
</g>
</g>
</svg>
