<?xml version="1.0" encoding="UTF-8" standalone="no"?>
<!DOCTYPE svg PUBLIC "-//W3C//DTD SVG 1.1//EN"
 "http://www.w3.org/Graphics/SVG/1.1/DTD/svg11.dtd">
<!-- Generated by graphviz version 2.26.3 (20100126.1600)
 -->
<!-- Title: dosimetry Pages: 1 -->
<svg width="1388pt" height="692pt"
 viewBox="0.00 0.00 1388.00 692.00" xmlns="http://www.w3.org/2000/svg" xmlns:xlink="http://www.w3.org/1999/xlink">
<g id="graph1" class="graph" transform="scale(1 1) rotate(0) translate(4 688)">
<title>dosimetry</title>
<polygon fill="white" stroke="white" points="-4,5 -4,-688 1385,-688 1385,5 -4,5"/>
<!-- Subsystem:Override -->
<g id="node1" class="node"><title>Subsystem:Override</title>
<polygon fill="none" stroke="black" points="158,-684 2,-684 2,-642 158,-642 158,-684"/>
<text text-anchor="middle" x="80" y="-667.4" font-family="Times Roman,serif" font-size="14.00">Subsystem:Override</text>
<text text-anchor="middle" x="80" y="-650.4" font-family="Times Roman,serif" font-size="14.00">bo</text>
</g>
<!-- Settings:Readiness -->
<g id="node3" class="node"><title>Settings:Readiness</title>
<polygon fill="none" stroke="black" points="388,-620.5 242,-620.5 242,-561.5 388,-561.5 388,-620.5"/>
<text text-anchor="middle" x="315" y="-603.9" font-family="Times Roman,serif" font-size="14.00">Settings:Readiness</text>
<text text-anchor="middle" x="315" y="-586.9" font-family="Times Roman,serif" font-size="14.00">calc</text>
<text text-anchor="middle" x="315" y="-569.9" font-family="Times Roman,serif" font-size="14.00">D?1:MIN(A,B,C)</text>
</g>
<!-- Subsystem:Override&#45;&gt;Settings:Readiness -->
<g id="edge2" class="edge"><title>Subsystem:Override&#45;&gt;Settings:Readiness</title>
<path fill="none" stroke="black" stroke-dasharray="1,5" d="M158.028,-662.104C179.827,-660.07 203.223,-656.167 224,-649 239.84,-643.536 255.719,-634.81 269.677,-625.769"/>
<polygon fill="black" stroke="black" points="271.741,-628.599 278.102,-620.126 267.845,-622.783 271.741,-628.599"/>
<text text-anchor="middle" x="201" y="-663.4" font-family="Times Roman,serif" font-size="14.00">FLNK &#160;</text>
</g>
<!-- Subsystem:Override&#45;&gt;Settings:Readiness -->
<g id="edge8" class="edge"><title>Subsystem:Override&#45;&gt;Settings:Readiness</title>
<path fill="none" stroke="black" stroke-dasharray="5,2" d="M136.487,-641.966C150.017,-637.167 164.466,-632.237 178,-628 195.358,-622.566 214.099,-617.189 231.981,-612.288"/>
<polygon fill="black" stroke="black" points="233.08,-615.616 241.812,-609.616 231.244,-608.861 233.08,-615.616"/>
<text text-anchor="middle" x="201" y="-632.4" font-family="Times Roman,serif" font-size="14.00">INPD &#160;</text>
</g>
<!-- CheckConfirm:Status -->
<g id="node12" class="node"><title>CheckConfirm:Status</title>
<polygon fill="none" stroke="black" points="660,-656.5 498,-656.5 498,-597.5 660,-597.5 660,-656.5"/>
<text text-anchor="middle" x="579" y="-639.9" font-family="Times Roman,serif" font-size="14.00">CheckConfirm:Status</text>
<text text-anchor="middle" x="579" y="-622.9" font-family="Times Roman,serif" font-size="14.00">calc</text>
<text text-anchor="middle" x="579" y="-605.9" font-family="Times Roman,serif" font-size="14.00">A?1:0</text>
</g>
<!-- Settings:Readiness&#45;&gt;CheckConfirm:Status -->
<g id="edge12" class="edge"><title>Settings:Readiness&#45;&gt;CheckConfirm:Status</title>
<path fill="none" stroke="black" stroke-dasharray="1,5" d="M388.405,-606.119C394.347,-607.16 400.267,-608.137 406,-609 432.478,-612.988 461.369,-616.372 487.824,-619.093"/>
<polygon fill="black" stroke="black" points="487.534,-622.582 497.835,-620.104 488.237,-615.617 487.534,-622.582"/>
<text text-anchor="middle" x="429" y="-618.4" font-family="Times Roman,serif" font-size="14.00">FLNK &#160;</text>
</g>
<!-- Settings:Readiness&#45;&gt;CheckConfirm:Status -->
<g id="edge14" class="edge"><title>Settings:Readiness&#45;&gt;CheckConfirm:Status</title>
<path fill="none" stroke="black" stroke-dasharray="5,2" d="M388.008,-588.381C394.094,-588.228 400.152,-588.096 406,-588 426.442,-587.663 431.782,-584.966 452,-588 463.761,-589.765 475.937,-592.401 487.882,-595.486"/>
<polygon fill="black" stroke="black" points="487.282,-598.949 497.849,-598.174 489.105,-592.191 487.282,-598.949"/>
<text text-anchor="middle" x="429" y="-592.4" font-family="Times Roman,serif" font-size="14.00">INPA &#160;</text>
</g>
<!-- Subsystem:Calc -->
<g id="node15" class="node"><title>Subsystem:Calc</title>
<polygon fill="none" stroke="black" points="1134,-371.5 770,-371.5 770,-312.5 1134,-312.5 1134,-371.5"/>
<text text-anchor="middle" x="952" y="-354.9" font-family="Times Roman,serif" font-size="14.00">Subsystem:Calc</text>
<text text-anchor="middle" x="952" y="-337.9" font-family="Times Roman,serif" font-size="14.00">calc</text>
<text text-anchor="middle" x="952" y="-320.9" font-family="Times Roman,serif" font-size="14.00">(B&amp;&amp;C&amp;&amp;D&amp;&amp;E&amp;&amp;F&amp;&amp;G&amp;&amp;H&amp;&amp;I&amp;&amp;J&amp;&amp;K&amp;&amp;L)?A:0</text>
</g>
<!-- Settings:Readiness&#45;&gt;Subsystem:Calc -->
<g id="edge40" class="edge"><title>Settings:Readiness&#45;&gt;Subsystem:Calc</title>
<path fill="none" stroke="black" stroke-dasharray="5,2" d="M388.087,-580.922C488.698,-566.792 660.598,-541.632 688,-531 778.536,-495.871 866.781,-422.426 914.814,-378.146"/>
<polygon fill="black" stroke="black" points="917.235,-380.675 922.172,-371.3 912.466,-375.55 917.235,-380.675"/>
<text text-anchor="middle" x="579" y="-572.4" font-family="Times Roman,serif" font-size="14.00">INPA &#160;</text>
</g>
<!-- TotalDose:Readiness -->
<g id="node4" class="node"><title>TotalDose:Readiness</title>
<polygon fill="none" stroke="black" stroke-dasharray="5,2" points="158,-616 2,-616 2,-580 158,-580 158,-616"/>
<text text-anchor="middle" x="80" y="-593.9" font-family="Times Roman,serif" font-size="14.00">TotalDose:Readiness</text>
</g>
<!-- TotalDose:Readiness&#45;&gt;Settings:Readiness -->
<g id="edge4" class="edge"><title>TotalDose:Readiness&#45;&gt;Settings:Readiness</title>
<path fill="none" stroke="black" stroke-dasharray="5,2" d="M158.612,-592.814C165.168,-592.495 171.697,-592.216 178,-592 195.288,-591.408 213.81,-591.072 231.47,-590.894"/>
<polygon fill="black" stroke="black" points="231.783,-594.391 241.752,-590.806 231.723,-587.391 231.783,-594.391"/>
<text text-anchor="middle" x="201" y="-596.4" font-family="Times Roman,serif" font-size="14.00">INPC &#160;</text>
</g>
<!-- DailyDose:Readiness -->
<g id="node6" class="node"><title>DailyDose:Readiness</title>
<polygon fill="none" stroke="black" stroke-dasharray="5,2" points="159,-562 1,-562 1,-526 159,-526 159,-562"/>
<text text-anchor="middle" x="80" y="-539.9" font-family="Times Roman,serif" font-size="14.00">DailyDose:Readiness</text>
</g>
<!-- DailyDose:Readiness&#45;&gt;Settings:Readiness -->
<g id="edge6" class="edge"><title>DailyDose:Readiness&#45;&gt;Settings:Readiness</title>
<path fill="none" stroke="black" stroke-dasharray="5,2" d="M159.776,-556.894C180.722,-560.54 203.254,-564.696 224,-569 226.507,-569.52 229.049,-570.059 231.614,-570.614"/>
<polygon fill="black" stroke="black" points="231.067,-574.077 241.586,-572.816 232.577,-567.242 231.067,-574.077"/>
<text text-anchor="middle" x="201" y="-573.4" font-family="Times Roman,serif" font-size="14.00">INPB &#160;</text>
</g>
<!-- Fractions:Readiness -->
<g id="node9" class="node"><title>Fractions:Readiness</title>
<polygon fill="none" stroke="black" stroke-dasharray="5,2" points="156,-508 4,-508 4,-472 156,-472 156,-508"/>
<text text-anchor="middle" x="80" y="-485.9" font-family="Times Roman,serif" font-size="14.00">Fractions:Readiness</text>
</g>
<!-- Fractions:Readiness&#45;&gt;Settings:Readiness -->
<g id="edge10" class="edge"><title>Fractions:Readiness&#45;&gt;Settings:Readiness</title>
<path fill="none" stroke="black" stroke-dasharray="5,2" d="M133.805,-508.113C142.563,-511.075 151.536,-514.117 160,-517 188.472,-526.698 196.599,-526.595 224,-539 235.51,-544.211 247.471,-550.421 258.792,-556.704"/>
<polygon fill="black" stroke="black" points="257.284,-559.872 267.713,-561.742 260.726,-553.777 257.284,-559.872"/>
<text text-anchor="middle" x="201" y="-543.4" font-family="Times Roman,serif" font-size="14.00">INPA &#160;</text>
</g>
<!-- CheckConfirm:Status&#45;&gt;Subsystem:Calc -->
<g id="edge30" class="edge"><title>CheckConfirm:Status&#45;&gt;Subsystem:Calc</title>
<path fill="none" stroke="black" stroke-dasharray="5,2" d="M660.212,-631.902C690.683,-630.421 724.549,-624.564 752,-609 845.017,-556.262 907.89,-440.723 935.72,-380.395"/>
<polygon fill="black" stroke="black" points="938.945,-381.758 939.885,-371.205 932.569,-378.868 938.945,-381.758"/>
<text text-anchor="middle" x="729" y="-629.4" font-family="Times Roman,serif" font-size="14.00">INPB &#160;</text>
</g>
<!-- CheckConfirm:Status&#45;&gt;Subsystem:Calc -->
<g id="edge16" class="edge"><title>CheckConfirm:Status&#45;&gt;Subsystem:Calc</title>
<path fill="none" stroke="black" stroke-dasharray="1,5" d="M660.191,-604.185C697.162,-592.913 736.165,-579.512 752,-569 828.99,-517.894 894.62,-429.818 928.141,-379.725"/>
<polygon fill="black" stroke="black" points="931.229,-381.401 933.827,-371.129 925.391,-377.539 931.229,-381.401"/>
<text text-anchor="middle" x="729" y="-592.4" font-family="Times Roman,serif" font-size="14.00">FLNK &#160;</text>
</g>
<!-- Subsystem:Readiness -->
<g id="node39" class="node"><title>Subsystem:Readiness</title>
<polygon fill="none" stroke="black" points="1380,-363 1216,-363 1216,-321 1380,-321 1380,-363"/>
<text text-anchor="middle" x="1298" y="-346.4" font-family="Times Roman,serif" font-size="14.00">Subsystem:Readiness</text>
<text text-anchor="middle" x="1298" y="-329.4" font-family="Times Roman,serif" font-size="14.00">mbbo</text>
</g>
<!-- Subsystem:Calc&#45;&gt;Subsystem:Readiness -->
<g id="edge42" class="edge"><title>Subsystem:Calc&#45;&gt;Subsystem:Readiness</title>
<path fill="none" stroke="black" stroke-dasharray="1,5" d="M1134.12,-342C1158.97,-342 1183.56,-342 1205.85,-342"/>
<polygon fill="black" stroke="black" points="1205.92,-345.5 1215.92,-342 1205.92,-338.5 1205.92,-345.5"/>
<text text-anchor="middle" x="1175" y="-346.4" font-family="Times Roman,serif" font-size="14.00">FLNK &#160;</text>
</g>
<!-- Subsystem:Calc&#45;&gt;Subsystem:Readiness -->
<g id="edge44" class="edge"><title>Subsystem:Calc&#45;&gt;Subsystem:Readiness</title>
<path fill="none" stroke="black" stroke-dasharray="5,2" d="M1134.1,-318.743C1155.65,-318.272 1177.32,-318.852 1198,-321 1200.55,-321.265 1203.13,-321.566 1205.72,-321.9"/>
<polygon fill="black" stroke="black" points="1205.42,-325.391 1215.81,-323.334 1206.4,-318.461 1205.42,-325.391"/>
<text text-anchor="middle" x="1175" y="-325.4" font-family="Times Roman,serif" font-size="14.00">DOL &#160;</text>
</g>
<!-- DMCError:Status -->
<g id="node16" class="node"><title>DMCError:Status</title>
<polygon fill="none" stroke="black" stroke-dasharray="5,2" points="646,-522 512,-522 512,-486 646,-486 646,-522"/>
<text text-anchor="middle" x="579" y="-499.9" font-family="Times Roman,serif" font-size="14.00">DMCError:Status</text>
</g>
<!-- DMCError:Status&#45;&gt;Subsystem:Calc -->
<g id="edge18" class="edge"><title>DMCError:Status&#45;&gt;Subsystem:Calc</title>
<path fill="none" stroke="black" stroke-dasharray="5,2" d="M646.029,-489.974C660.078,-486.32 674.669,-481.984 688,-477 762.071,-449.309 842.305,-406.242 894.636,-376.222"/>
<polygon fill="black" stroke="black" points="896.519,-379.177 903.432,-371.148 893.021,-373.113 896.519,-379.177"/>
<text text-anchor="middle" x="729" y="-472.4" font-family="Times Roman,serif" font-size="14.00">INPI &#160;</text>
</g>
<!-- StartTimeout:Status -->
<g id="node18" class="node"><title>StartTimeout:Status</title>
<polygon fill="none" stroke="black" stroke-dasharray="5,2" points="658,-468 500,-468 500,-432 658,-432 658,-468"/>
<text text-anchor="middle" x="579" y="-445.9" font-family="Times Roman,serif" font-size="14.00">StartTimeout:Status</text>
</g>
<!-- StartTimeout:Status&#45;&gt;Subsystem:Calc -->
<g id="edge20" class="edge"><title>StartTimeout:Status&#45;&gt;Subsystem:Calc</title>
<path fill="none" stroke="black" stroke-dasharray="5,2" d="M654.194,-431.947C665.549,-429.056 677.103,-426.019 688,-423 742.468,-407.91 802.756,-389.541 851.953,-374.113"/>
<polygon fill="black" stroke="black" points="853.149,-377.406 861.639,-371.068 851.05,-370.728 853.149,-377.406"/>
<text text-anchor="middle" x="729" y="-420.4" font-family="Times Roman,serif" font-size="14.00">INPH &#160;</text>
</g>
<!-- PLCError:Status -->
<g id="node20" class="node"><title>PLCError:Status</title>
<polygon fill="none" stroke="black" stroke-dasharray="5,2" points="643,-414 515,-414 515,-378 643,-378 643,-414"/>
<text text-anchor="middle" x="579" y="-391.9" font-family="Times Roman,serif" font-size="14.00">PLCError:Status</text>
</g>
<!-- PLCError:Status&#45;&gt;Subsystem:Calc -->
<g id="edge22" class="edge"><title>PLCError:Status&#45;&gt;Subsystem:Calc</title>
<path fill="none" stroke="black" stroke-dasharray="5,2" d="M643.121,-386.717C675.806,-381.985 717.47,-375.953 759.539,-369.863"/>
<polygon fill="black" stroke="black" points="760.265,-373.294 769.661,-368.398 759.262,-366.367 760.265,-373.294"/>
<text text-anchor="middle" x="729" y="-380.4" font-family="Times Roman,serif" font-size="14.00">INPK &#160;</text>
</g>
<!-- DMCSetup:Status -->
<g id="node22" class="node"><title>DMCSetup:Status</title>
<polygon fill="none" stroke="black" stroke-dasharray="5,2" points="649,-360 509,-360 509,-324 649,-324 649,-360"/>
<text text-anchor="middle" x="579" y="-337.9" font-family="Times Roman,serif" font-size="14.00">DMCSetup:Status</text>
</g>
<!-- DMCSetup:Status&#45;&gt;Subsystem:Calc -->
<g id="edge24" class="edge"><title>DMCSetup:Status&#45;&gt;Subsystem:Calc</title>
<path fill="none" stroke="black" stroke-dasharray="5,2" d="M649.158,-342C680.869,-342 720.052,-342 759.589,-342"/>
<polygon fill="black" stroke="black" points="759.645,-345.5 769.645,-342 759.645,-338.5 759.645,-345.5"/>
<text text-anchor="middle" x="729" y="-346.4" font-family="Times Roman,serif" font-size="14.00">INPJ &#160;</text>
</g>
<!-- RelayError:Status -->
<g id="node24" class="node"><title>RelayError:Status</title>
<polygon fill="none" stroke="black" stroke-dasharray="5,2" points="648,-306 510,-306 510,-270 648,-270 648,-306"/>
<text text-anchor="middle" x="579" y="-283.9" font-family="Times Roman,serif" font-size="14.00">RelayError:Status</text>
</g>
<!-- RelayError:Status&#45;&gt;Subsystem:Calc -->
<g id="edge26" class="edge"><title>RelayError:Status&#45;&gt;Subsystem:Calc</title>
<path fill="none" stroke="black" stroke-dasharray="5,2" d="M648.721,-298.094C680.503,-302.695 719.856,-308.392 759.568,-314.141"/>
<polygon fill="black" stroke="black" points="759.269,-317.634 769.667,-315.603 760.272,-310.707 759.269,-317.634"/>
<text text-anchor="middle" x="729" y="-315.4" font-family="Times Roman,serif" font-size="14.00">INPL &#160;</text>
</g>
<!-- CYC:DosimRelayA1OK:Status -->
<g id="node26" class="node"><title>CYC:DosimRelayA1OK:Status</title>
<polygon fill="none" stroke="black" stroke-dasharray="5,2" points="688,-252 470,-252 470,-216 688,-216 688,-252"/>
<text text-anchor="middle" x="579" y="-229.9" font-family="Times Roman,serif" font-size="14.00">CYC:DosimRelayA1OK:Status</text>
</g>
<!-- CYC:DosimRelayA1OK:Status&#45;&gt;Subsystem:Calc -->
<g id="edge28" class="edge"><title>CYC:DosimRelayA1OK:Status&#45;&gt;Subsystem:Calc</title>
<path fill="none" stroke="black" stroke-dasharray="5,2" d="M654.194,-252.053C665.549,-254.944 677.103,-257.981 688,-261 742.468,-276.09 802.756,-294.459 851.953,-309.887"/>
<polygon fill="black" stroke="black" points="851.05,-313.272 861.639,-312.932 853.149,-306.594 851.05,-313.272"/>
<text text-anchor="middle" x="729" y="-281.4" font-family="Times Roman,serif" font-size="14.00">INPC &#160;</text>
</g>
<!-- PressTemp:Status -->
<g id="node29" class="node"><title>PressTemp:Status</title>
<polygon fill="none" stroke="black" stroke-dasharray="5,2" points="648,-198 510,-198 510,-162 648,-162 648,-198"/>
<text text-anchor="middle" x="579" y="-175.9" font-family="Times Roman,serif" font-size="14.00">PressTemp:Status</text>
</g>
<!-- PressTemp:Status&#45;&gt;Subsystem:Calc -->
<g id="edge32" class="edge"><title>PressTemp:Status&#45;&gt;Subsystem:Calc</title>
<path fill="none" stroke="black" stroke-dasharray="5,2" d="M648.633,-194.709C661.872,-198.217 675.491,-202.324 688,-207 762.071,-234.691 842.305,-277.758 894.636,-307.778"/>
<polygon fill="black" stroke="black" points="893.021,-310.887 903.432,-312.852 896.519,-304.823 893.021,-310.887"/>
<text text-anchor="middle" x="729" y="-235.4" font-family="Times Roman,serif" font-size="14.00">INPE &#160;</text>
</g>
<!-- CYC:DosimRelayA2OK:Status -->
<g id="node31" class="node"><title>CYC:DosimRelayA2OK:Status</title>
<polygon fill="none" stroke="black" stroke-dasharray="5,2" points="688,-144 470,-144 470,-108 688,-108 688,-144"/>
<text text-anchor="middle" x="579" y="-121.9" font-family="Times Roman,serif" font-size="14.00">CYC:DosimRelayA2OK:Status</text>
</g>
<!-- CYC:DosimRelayA2OK:Status&#45;&gt;Subsystem:Calc -->
<g id="edge34" class="edge"><title>CYC:DosimRelayA2OK:Status&#45;&gt;Subsystem:Calc</title>
<path fill="none" stroke="black" stroke-dasharray="5,2" d="M663.814,-144.09C672.11,-146.725 680.299,-149.687 688,-153 776.716,-191.168 864.934,-262.904 913.582,-306.18"/>
<polygon fill="black" stroke="black" points="911.263,-308.801 921.045,-312.872 915.936,-303.59 911.263,-308.801"/>
<text text-anchor="middle" x="729" y="-189.4" font-family="Times Roman,serif" font-size="14.00">INPD &#160;</text>
</g>
<!-- SetupTimeout:Status -->
<g id="node33" class="node"><title>SetupTimeout:Status</title>
<polygon fill="none" stroke="black" stroke-dasharray="5,2" points="660,-90 498,-90 498,-54 660,-54 660,-90"/>
<text text-anchor="middle" x="579" y="-67.9" font-family="Times Roman,serif" font-size="14.00">SetupTimeout:Status</text>
</g>
<!-- SetupTimeout:Status&#45;&gt;Subsystem:Calc -->
<g id="edge36" class="edge"><title>SetupTimeout:Status&#45;&gt;Subsystem:Calc</title>
<path fill="none" stroke="black" stroke-dasharray="5,2" d="M660.749,-88.8174C670.108,-91.745 679.376,-95.1225 688,-99 791.487,-145.532 881.361,-248.869 924.602,-304.617"/>
<polygon fill="black" stroke="black" points="922.025,-307.008 930.888,-312.812 927.579,-302.748 922.025,-307.008"/>
<text text-anchor="middle" x="729" y="-136.4" font-family="Times Roman,serif" font-size="14.00">INPG &#160;</text>
</g>
<!-- DMCCal:Status -->
<g id="node35" class="node"><title>DMCCal:Status</title>
<polygon fill="none" stroke="black" stroke-dasharray="5,2" points="639,-36 519,-36 519,-1.06581e-14 639,-0 639,-36"/>
<text text-anchor="middle" x="579" y="-13.9" font-family="Times Roman,serif" font-size="14.00">DMCCal:Status</text>
</g>
<!-- DMCCal:Status&#45;&gt;Subsystem:Calc -->
<g id="edge38" class="edge"><title>DMCCal:Status&#45;&gt;Subsystem:Calc</title>
<path fill="none" stroke="black" stroke-dasharray="5,2" d="M639.748,-28.8441C655.84,-32.8386 672.922,-38.1248 688,-45 807.302,-99.3999 894.974,-236.729 932.223,-303.865"/>
<polygon fill="black" stroke="black" points="929.272,-305.763 937.142,-312.856 935.413,-302.403 929.272,-305.763"/>
<text text-anchor="middle" x="729" y="-87.4" font-family="Times Roman,serif" font-size="14.00">INPF &#160;</text>
</g>
</g>
</svg>
