<?xml version="1.0" encoding="UTF-8" standalone="no"?>
<!DOCTYPE svg PUBLIC "-//W3C//DTD SVG 1.1//EN"
 "http://www.w3.org/Graphics/SVG/1.1/DTD/svg11.dtd">
<!-- Generated by graphviz version 2.26.3 (20100126.1600)
 -->
<!-- Title: dosimetry_subs Pages: 1 -->
<svg width="860pt" height="925pt"
 viewBox="0.00 0.00 860.00 925.00" xmlns="http://www.w3.org/2000/svg" xmlns:xlink="http://www.w3.org/1999/xlink">
<g id="graph1" class="graph" transform="scale(1 1) rotate(0) translate(4 921)">
<title>dosimetry_subs</title>
<polygon fill="white" stroke="white" points="-4,5 -4,-921 857,-921 857,5 -4,5"/>
<!-- Fractions:Prescribed -->
<g id="node1" class="node"><title>Fractions:Prescribed</title>
<polygon fill="none" stroke="black" points="167,-277 13,-277 13,-235 167,-235 167,-277"/>
<text text-anchor="middle" x="90" y="-260.4" font-family="Times Roman,serif" font-size="14.00">Fractions:Prescribed</text>
<text text-anchor="middle" x="90" y="-243.4" font-family="Times Roman,serif" font-size="14.00">longout</text>
</g>
<!-- Fractions:Calc -->
<g id="node3" class="node"><title>Fractions:Calc</title>
<polygon fill="none" stroke="black" points="378,-232.5 266,-232.5 266,-173.5 378,-173.5 378,-232.5"/>
<text text-anchor="middle" x="322" y="-215.9" font-family="Times Roman,serif" font-size="14.00">Fractions:Calc</text>
<text text-anchor="middle" x="322" y="-198.9" font-family="Times Roman,serif" font-size="14.00">calc</text>
<text text-anchor="middle" x="322" y="-181.9" font-family="Times Roman,serif" font-size="14.00">(A&gt;B)?2:0</text>
</g>
<!-- Fractions:Prescribed&#45;&gt;Fractions:Calc -->
<g id="edge2" class="edge"><title>Fractions:Prescribed&#45;&gt;Fractions:Calc</title>
<path fill="none" stroke="black" stroke-dasharray="1,5" d="M167.682,-263.417C192.521,-263.573 219.831,-261.371 244,-254 255.849,-250.386 267.587,-244.372 278.22,-237.717"/>
<polygon fill="black" stroke="black" points="280.448,-240.441 286.871,-232.015 276.596,-234.596 280.448,-240.441"/>
<text text-anchor="middle" x="221" y="-266.4" font-family="Times Roman,serif" font-size="14.00">FLNK &#160;</text>
</g>
<!-- Fractions:Prescribed&#45;&gt;Fractions:Calc -->
<g id="edge8" class="edge"><title>Fractions:Prescribed&#45;&gt;Fractions:Calc</title>
<path fill="none" stroke="black" stroke-dasharray="5,2" d="M167.575,-238.278C196.201,-231.739 228.346,-224.395 255.867,-218.108"/>
<polygon fill="black" stroke="black" points="256.812,-221.482 265.781,-215.843 255.253,-214.658 256.812,-221.482"/>
<text text-anchor="middle" x="221" y="-235.4" font-family="Times Roman,serif" font-size="14.00">INPA &#160;</text>
</g>
<!-- Fractions:Readiness -->
<g id="node9" class="node"><title>Fractions:Readiness</title>
<polygon fill="none" stroke="black" points="620,-207 468,-207 468,-165 620,-165 620,-207"/>
<text text-anchor="middle" x="544" y="-190.4" font-family="Times Roman,serif" font-size="14.00">Fractions:Readiness</text>
<text text-anchor="middle" x="544" y="-173.4" font-family="Times Roman,serif" font-size="14.00">mbbo</text>
</g>
<!-- Fractions:Calc&#45;&gt;Fractions:Readiness -->
<g id="edge10" class="edge"><title>Fractions:Calc&#45;&gt;Fractions:Readiness</title>
<path fill="none" stroke="black" stroke-dasharray="1,5" d="M378.02,-198.71C402.166,-196.861 430.956,-194.656 457.725,-192.607"/>
<polygon fill="black" stroke="black" points="458.168,-196.083 467.872,-191.83 457.634,-189.103 458.168,-196.083"/>
<text text-anchor="middle" x="423" y="-201.4" font-family="Times Roman,serif" font-size="14.00">FLNK &#160;</text>
</g>
<!-- Fractions:Calc&#45;&gt;Fractions:Readiness -->
<g id="edge12" class="edge"><title>Fractions:Calc&#45;&gt;Fractions:Readiness</title>
<path fill="none" stroke="black" stroke-dasharray="5,2" d="M378.335,-177.747C385.508,-175.387 392.844,-173.37 400,-172 418.507,-168.457 438.533,-168.193 457.598,-169.59"/>
<polygon fill="black" stroke="black" points="457.499,-173.095 467.77,-170.495 458.12,-166.122 457.499,-173.095"/>
<text text-anchor="middle" x="423" y="-176.4" font-family="Times Roman,serif" font-size="14.00">DOL &#160;</text>
</g>
<!-- Fractions:Accumulated -->
<g id="node4" class="node"><title>Fractions:Accumulated</title>
<polygon fill="none" stroke="black" points="176,-197 4,-197 4,-155 176,-155 176,-197"/>
<text text-anchor="middle" x="90" y="-180.4" font-family="Times Roman,serif" font-size="14.00">Fractions:Accumulated</text>
<text text-anchor="middle" x="90" y="-163.4" font-family="Times Roman,serif" font-size="14.00">longin</text>
</g>
<!-- Fractions:Accumulated&#45;&gt;Fractions:Calc -->
<g id="edge4" class="edge"><title>Fractions:Accumulated&#45;&gt;Fractions:Calc</title>
<path fill="none" stroke="black" stroke-dasharray="1,5" d="M176.059,-186.015C202.467,-189.089 231.097,-192.421 255.947,-195.313"/>
<polygon fill="black" stroke="black" points="255.65,-198.802 265.988,-196.481 256.459,-191.849 255.65,-198.802"/>
<text text-anchor="middle" x="221" y="-197.4" font-family="Times Roman,serif" font-size="14.00">FLNK &#160;</text>
</g>
<!-- Fractions:Accumulated&#45;&gt;Fractions:Calc -->
<g id="edge6" class="edge"><title>Fractions:Accumulated&#45;&gt;Fractions:Calc</title>
<path fill="none" stroke="black" stroke-dasharray="5,2" d="M176.187,-162.692C198.468,-161.501 222.289,-162.231 244,-167 248.179,-167.918 252.401,-169.082 256.603,-170.426"/>
<polygon fill="black" stroke="black" points="255.751,-173.836 266.346,-173.856 258.076,-167.234 255.751,-173.836"/>
<text text-anchor="middle" x="221" y="-171.4" font-family="Times Roman,serif" font-size="14.00">INPB &#160;</text>
</g>
<!-- Settings:Readiness -->
<g id="node12" class="node"><title>Settings:Readiness</title>
<polygon fill="none" stroke="black" stroke-dasharray="5,2" points="852,-204 706,-204 706,-168 852,-168 852,-204"/>
<text text-anchor="middle" x="779" y="-181.9" font-family="Times Roman,serif" font-size="14.00">Settings:Readiness</text>
</g>
<!-- Fractions:Readiness&#45;&gt;Settings:Readiness -->
<g id="edge14" class="edge"><title>Fractions:Readiness&#45;&gt;Settings:Readiness</title>
<path fill="none" stroke="black" stroke-dasharray="1,5" d="M620.298,-186C644.445,-186 671.25,-186 695.853,-186"/>
<polygon fill="black" stroke="black" points="695.884,-189.5 705.884,-186 695.884,-182.5 695.884,-189.5"/>
<text text-anchor="middle" x="665" y="-190.4" font-family="Times Roman,serif" font-size="14.00">FLNK &#160;</text>
</g>
<!-- TotalDose:Prescribed -->
<g id="node13" class="node"><title>TotalDose:Prescribed</title>
<polygon fill="none" stroke="black" points="170,-437 10,-437 10,-395 170,-395 170,-437"/>
<text text-anchor="middle" x="90" y="-420.4" font-family="Times Roman,serif" font-size="14.00">TotalDose:Prescribed</text>
<text text-anchor="middle" x="90" y="-403.4" font-family="Times Roman,serif" font-size="14.00">ao</text>
</g>
<!-- TotalDose:Calc -->
<g id="node15" class="node"><title>TotalDose:Calc</title>
<polygon fill="none" stroke="black" points="380,-385.5 264,-385.5 264,-326.5 380,-326.5 380,-385.5"/>
<text text-anchor="middle" x="322" y="-368.9" font-family="Times Roman,serif" font-size="14.00">TotalDose:Calc</text>
<text text-anchor="middle" x="322" y="-351.9" font-family="Times Roman,serif" font-size="14.00">calc</text>
<text text-anchor="middle" x="322" y="-334.9" font-family="Times Roman,serif" font-size="14.00">(A&gt;B)?2:0</text>
</g>
<!-- TotalDose:Prescribed&#45;&gt;TotalDose:Calc -->
<g id="edge22" class="edge"><title>TotalDose:Prescribed&#45;&gt;TotalDose:Calc</title>
<path fill="none" stroke="black" stroke-dasharray="5,2" d="M170.238,-419.879C194.442,-418.924 220.747,-415.705 244,-408 255.947,-404.042 267.793,-397.73 278.509,-390.848"/>
<polygon fill="black" stroke="black" points="280.499,-393.728 286.842,-385.241 276.591,-387.92 280.499,-393.728"/>
<text text-anchor="middle" x="221" y="-421.4" font-family="Times Roman,serif" font-size="14.00">INPA &#160;</text>
</g>
<!-- TotalDose:Prescribed&#45;&gt;TotalDose:Calc -->
<g id="edge16" class="edge"><title>TotalDose:Prescribed&#45;&gt;TotalDose:Calc</title>
<path fill="none" stroke="black" stroke-dasharray="1,5" d="M170.166,-395.267C197.342,-388.239 227.428,-380.458 253.602,-373.689"/>
<polygon fill="black" stroke="black" points="254.622,-377.041 263.427,-371.148 252.869,-370.263 254.622,-377.041"/>
<text text-anchor="middle" x="221" y="-391.4" font-family="Times Roman,serif" font-size="14.00">FLNK &#160;</text>
</g>
<!-- TotalDose:Readiness -->
<g id="node21" class="node"><title>TotalDose:Readiness</title>
<polygon fill="none" stroke="black" points="622,-337 466,-337 466,-295 622,-295 622,-337"/>
<text text-anchor="middle" x="544" y="-320.4" font-family="Times Roman,serif" font-size="14.00">TotalDose:Readiness</text>
<text text-anchor="middle" x="544" y="-303.4" font-family="Times Roman,serif" font-size="14.00">mbbo</text>
</g>
<!-- TotalDose:Calc&#45;&gt;TotalDose:Readiness -->
<g id="edge24" class="edge"><title>TotalDose:Calc&#45;&gt;TotalDose:Readiness</title>
<path fill="none" stroke="black" stroke-dasharray="1,5" d="M380.675,-345.665C401.329,-342.007 424.699,-337.846 446,-334 449.051,-333.449 452.155,-332.887 455.29,-332.319"/>
<polygon fill="black" stroke="black" points="456.166,-335.717 465.378,-330.484 454.913,-328.83 456.166,-335.717"/>
<text text-anchor="middle" x="423" y="-345.4" font-family="Times Roman,serif" font-size="14.00">FLNK &#160;</text>
</g>
<!-- TotalDose:Calc&#45;&gt;TotalDose:Readiness -->
<g id="edge26" class="edge"><title>TotalDose:Calc&#45;&gt;TotalDose:Readiness</title>
<path fill="none" stroke="black" stroke-dasharray="5,2" d="M365.748,-326.903C376.516,-321.173 388.319,-316.006 400,-313 417.572,-308.477 436.752,-306.76 455.216,-306.62"/>
<polygon fill="black" stroke="black" points="455.359,-310.121 465.386,-306.697 455.413,-303.121 455.359,-310.121"/>
<text text-anchor="middle" x="423" y="-317.4" font-family="Times Roman,serif" font-size="14.00">DOL &#160;</text>
</g>
<!-- TotalDose:Accumulated -->
<g id="node16" class="node"><title>TotalDose:Accumulated</title>
<polygon fill="none" stroke="black" points="178,-357 2,-357 2,-315 178,-315 178,-357"/>
<text text-anchor="middle" x="90" y="-340.4" font-family="Times Roman,serif" font-size="14.00">TotalDose:Accumulated</text>
<text text-anchor="middle" x="90" y="-323.4" font-family="Times Roman,serif" font-size="14.00">ai</text>
</g>
<!-- TotalDose:Accumulated&#45;&gt;TotalDose:Calc -->
<g id="edge18" class="edge"><title>TotalDose:Accumulated&#45;&gt;TotalDose:Calc</title>
<path fill="none" stroke="black" stroke-dasharray="1,5" d="M178.702,-343.647C203.44,-345.779 229.933,-348.063 253.327,-350.08"/>
<polygon fill="black" stroke="black" points="253.229,-353.584 263.493,-350.956 253.83,-346.61 253.229,-353.584"/>
<text text-anchor="middle" x="221" y="-352.4" font-family="Times Roman,serif" font-size="14.00">FLNK &#160;</text>
</g>
<!-- TotalDose:Accumulated&#45;&gt;TotalDose:Calc -->
<g id="edge20" class="edge"><title>TotalDose:Accumulated&#45;&gt;TotalDose:Calc</title>
<path fill="none" stroke="black" stroke-dasharray="5,2" d="M178.841,-320.872C200.306,-319.471 223.083,-319.876 244,-324 247.061,-324.603 250.152,-325.328 253.248,-326.15"/>
<polygon fill="black" stroke="black" points="252.538,-329.59 263.12,-329.074 254.526,-322.878 252.538,-329.59"/>
<text text-anchor="middle" x="221" y="-328.4" font-family="Times Roman,serif" font-size="14.00">INPB &#160;</text>
</g>
<!-- TotalDose:Readiness&#45;&gt;Settings:Readiness -->
<g id="edge28" class="edge"><title>TotalDose:Readiness&#45;&gt;Settings:Readiness</title>
<path fill="none" stroke="black" stroke-dasharray="1,5" d="M582.018,-294.969C624.586,-271.421 693.354,-233.378 737.349,-209.041"/>
<polygon fill="black" stroke="black" points="739.286,-211.969 746.342,-204.066 735.898,-205.844 739.286,-211.969"/>
<text text-anchor="middle" x="665" y="-262.4" font-family="Times Roman,serif" font-size="14.00">FLNK &#160;</text>
</g>
<!-- DailyDose:Prescribed -->
<g id="node24" class="node"><title>DailyDose:Prescribed</title>
<polygon fill="none" stroke="black" points="171,-42 9,-42 9,-1.06581e-14 171,-0 171,-42"/>
<text text-anchor="middle" x="90" y="-25.4" font-family="Times Roman,serif" font-size="14.00">DailyDose:Prescribed</text>
<text text-anchor="middle" x="90" y="-8.4" font-family="Times Roman,serif" font-size="14.00">ao</text>
</g>
<!-- DailyDose:Calc -->
<g id="node26" class="node"><title>DailyDose:Calc</title>
<polygon fill="none" stroke="black" points="381,-105.5 263,-105.5 263,-46.5 381,-46.5 381,-105.5"/>
<text text-anchor="middle" x="322" y="-88.9" font-family="Times Roman,serif" font-size="14.00">DailyDose:Calc</text>
<text text-anchor="middle" x="322" y="-71.9" font-family="Times Roman,serif" font-size="14.00">calc</text>
<text text-anchor="middle" x="322" y="-54.9" font-family="Times Roman,serif" font-size="14.00">(A&gt;B)?2:0</text>
</g>
<!-- DailyDose:Prescribed&#45;&gt;DailyDose:Calc -->
<g id="edge30" class="edge"><title>DailyDose:Prescribed&#45;&gt;DailyDose:Calc</title>
<path fill="none" stroke="black" stroke-dasharray="1,5" d="M171.067,-35.7412C194.692,-40.4622 220.474,-46.0285 244,-52 246.768,-52.7026 249.584,-53.4433 252.422,-54.2118"/>
<polygon fill="black" stroke="black" points="251.554,-57.6031 262.127,-56.9167 253.433,-50.8602 251.554,-57.6031"/>
<text text-anchor="middle" x="221" y="-56.4" font-family="Times Roman,serif" font-size="14.00">FLNK &#160;</text>
</g>
<!-- DailyDose:Prescribed&#45;&gt;DailyDose:Calc -->
<g id="edge36" class="edge"><title>DailyDose:Prescribed&#45;&gt;DailyDose:Calc</title>
<path fill="none" stroke="black" stroke-dasharray="5,2" d="M171.339,-12.5717C195.209,-12.4749 221.055,-14.7507 244,-22 257.016,-26.1122 269.779,-33.2211 281.088,-40.9557"/>
<polygon fill="black" stroke="black" points="279.271,-43.9595 289.434,-46.9529 283.356,-38.275 279.271,-43.9595"/>
<text text-anchor="middle" x="221" y="-26.4" font-family="Times Roman,serif" font-size="14.00">INPA &#160;</text>
</g>
<!-- DailyDose:Readiness -->
<g id="node32" class="node"><title>DailyDose:Readiness</title>
<polygon fill="none" stroke="black" points="623,-137 465,-137 465,-95 623,-95 623,-137"/>
<text text-anchor="middle" x="544" y="-120.4" font-family="Times Roman,serif" font-size="14.00">DailyDose:Readiness</text>
<text text-anchor="middle" x="544" y="-103.4" font-family="Times Roman,serif" font-size="14.00">mbbo</text>
</g>
<!-- DailyDose:Calc&#45;&gt;DailyDose:Readiness -->
<g id="edge38" class="edge"><title>DailyDose:Calc&#45;&gt;DailyDose:Readiness</title>
<path fill="none" stroke="black" stroke-dasharray="1,5" d="M381.523,-90.2215C387.749,-91.5635 393.994,-92.8499 400,-94 417.5,-97.3511 436.274,-100.524 454.295,-103.363"/>
<polygon fill="black" stroke="black" points="453.798,-106.827 464.217,-104.905 454.873,-99.9105 453.798,-106.827"/>
<text text-anchor="middle" x="423" y="-105.4" font-family="Times Roman,serif" font-size="14.00">FLNK &#160;</text>
</g>
<!-- DailyDose:Calc&#45;&gt;DailyDose:Readiness -->
<g id="edge40" class="edge"><title>DailyDose:Calc&#45;&gt;DailyDose:Readiness</title>
<path fill="none" stroke="black" stroke-dasharray="5,2" d="M381.795,-69.032C402.334,-68.0924 425.346,-68.6681 446,-73 463.167,-76.6005 481,-83.3932 496.673,-90.5341"/>
<polygon fill="black" stroke="black" points="495.59,-93.8935 506.127,-94.9999 498.58,-87.5641 495.59,-93.8935"/>
<text text-anchor="middle" x="423" y="-78.4" font-family="Times Roman,serif" font-size="14.00">DOL &#160;</text>
</g>
<!-- DailyDose:Accumulated -->
<g id="node27" class="node"><title>DailyDose:Accumulated</title>
<polygon fill="none" stroke="black" points="179,-112 1,-112 1,-70 179,-70 179,-112"/>
<text text-anchor="middle" x="90" y="-95.4" font-family="Times Roman,serif" font-size="14.00">DailyDose:Accumulated</text>
<text text-anchor="middle" x="90" y="-78.4" font-family="Times Roman,serif" font-size="14.00">ai</text>
</g>
<!-- DailyDose:Accumulated&#45;&gt;DailyDose:Calc -->
<g id="edge32" class="edge"><title>DailyDose:Accumulated&#45;&gt;DailyDose:Calc</title>
<path fill="none" stroke="black" stroke-dasharray="1,5" d="M179.765,-96.7574C200.884,-97.0037 223.276,-96.3602 244,-94 246.69,-93.6936 249.423,-93.3295 252.176,-92.9184"/>
<polygon fill="black" stroke="black" points="252.909,-96.3447 262.194,-91.2427 251.754,-89.4406 252.909,-96.3447"/>
<text text-anchor="middle" x="221" y="-100.4" font-family="Times Roman,serif" font-size="14.00">FLNK &#160;</text>
</g>
<!-- DailyDose:Accumulated&#45;&gt;DailyDose:Calc -->
<g id="edge34" class="edge"><title>DailyDose:Accumulated&#45;&gt;DailyDose:Calc</title>
<path fill="none" stroke="black" stroke-dasharray="5,2" d="M179.729,-74.8899C185.899,-74.1387 192.033,-73.4939 198,-73 218.375,-71.3137 223.559,-72.6071 244,-73 246.701,-73.0519 249.455,-73.114 252.237,-73.1842"/>
<polygon fill="black" stroke="black" points="252.291,-76.6871 262.386,-73.4712 252.489,-69.6899 252.291,-76.6871"/>
<text text-anchor="middle" x="221" y="-77.4" font-family="Times Roman,serif" font-size="14.00">INPB &#160;</text>
</g>
<!-- DailyDose:Readiness&#45;&gt;Settings:Readiness -->
<g id="edge42" class="edge"><title>DailyDose:Readiness&#45;&gt;Settings:Readiness</title>
<path fill="none" stroke="black" stroke-dasharray="1,5" d="M614.508,-137.002C644.267,-145.867 678.841,-156.165 708.59,-165.027"/>
<polygon fill="black" stroke="black" points="707.896,-168.472 718.479,-167.973 709.895,-161.763 707.896,-168.472"/>
<text text-anchor="middle" x="665" y="-161.4" font-family="Times Roman,serif" font-size="14.00">FLNK &#160;</text>
</g>
<!-- RunDose:Computed -->
<g id="node35" class="node"><title>RunDose:Computed</title>
<polygon fill="none" stroke="black" points="166,-497 14,-497 14,-455 166,-455 166,-497"/>
<text text-anchor="middle" x="90" y="-480.4" font-family="Times Roman,serif" font-size="14.00">RunDose:Computed</text>
<text text-anchor="middle" x="90" y="-463.4" font-family="Times Roman,serif" font-size="14.00">ao</text>
</g>
<!-- RunDose:Preset -->
<g id="node36" class="node"><title>RunDose:Preset</title>
<polygon fill="none" stroke="black" points="153,-557 27,-557 27,-515 153,-515 153,-557"/>
<text text-anchor="middle" x="90" y="-540.4" font-family="Times Roman,serif" font-size="14.00">RunDose:Preset</text>
<text text-anchor="middle" x="90" y="-523.4" font-family="Times Roman,serif" font-size="14.00">ai</text>
</g>
<!-- Time:Computed -->
<g id="node37" class="node"><title>Time:Computed</title>
<polygon fill="none" stroke="black" points="152,-617 28,-617 28,-575 152,-575 152,-617"/>
<text text-anchor="middle" x="90" y="-600.4" font-family="Times Roman,serif" font-size="14.00">Time:Computed</text>
<text text-anchor="middle" x="90" y="-583.4" font-family="Times Roman,serif" font-size="14.00">ao</text>
</g>
<!-- Time:Preset -->
<g id="node38" class="node"><title>Time:Preset</title>
<polygon fill="none" stroke="black" points="139,-677 41,-677 41,-635 139,-635 139,-677"/>
<text text-anchor="middle" x="90" y="-660.4" font-family="Times Roman,serif" font-size="14.00">Time:Preset</text>
<text text-anchor="middle" x="90" y="-643.4" font-family="Times Roman,serif" font-size="14.00">ai</text>
</g>
<!-- RunDose:Official -->
<g id="node39" class="node"><title>RunDose:Official</title>
<polygon fill="none" stroke="black" points="155,-737 25,-737 25,-695 155,-695 155,-737"/>
<text text-anchor="middle" x="90" y="-720.4" font-family="Times Roman,serif" font-size="14.00">RunDose:Official</text>
<text text-anchor="middle" x="90" y="-703.4" font-family="Times Roman,serif" font-size="14.00">ao</text>
</g>
<!-- DoseA:Actual -->
<g id="node40" class="node"><title>DoseA:Actual</title>
<polygon fill="none" stroke="black" points="144,-797 36,-797 36,-755 144,-755 144,-797"/>
<text text-anchor="middle" x="90" y="-780.4" font-family="Times Roman,serif" font-size="14.00">DoseA:Actual</text>
<text text-anchor="middle" x="90" y="-763.4" font-family="Times Roman,serif" font-size="14.00">ai</text>
</g>
<!-- DoseB:Actual -->
<g id="node41" class="node"><title>DoseB:Actual</title>
<polygon fill="none" stroke="black" points="144,-857 36,-857 36,-815 144,-815 144,-857"/>
<text text-anchor="middle" x="90" y="-840.4" font-family="Times Roman,serif" font-size="14.00">DoseB:Actual</text>
<text text-anchor="middle" x="90" y="-823.4" font-family="Times Roman,serif" font-size="14.00">ai</text>
</g>
<!-- Time:Actual -->
<g id="node42" class="node"><title>Time:Actual</title>
<polygon fill="none" stroke="black" points="139,-917 41,-917 41,-875 139,-875 139,-917"/>
<text text-anchor="middle" x="90" y="-900.4" font-family="Times Roman,serif" font-size="14.00">Time:Actual</text>
<text text-anchor="middle" x="90" y="-883.4" font-family="Times Roman,serif" font-size="14.00">ai</text>
</g>
</g>
</svg>
