<?xml version="1.0" encoding="UTF-8" standalone="no"?>
<!DOCTYPE svg PUBLIC "-//W3C//DTD SVG 1.1//EN"
 "http://www.w3.org/Graphics/SVG/1.1/DTD/svg11.dtd">
<!-- Generated by graphviz version 2.26.3 (20100126.1600)
 -->
<!-- Title: filter_wedge_setup_merged Pages: 1 -->
<svg width="2396pt" height="999pt"
 viewBox="0.00 0.00 2396.00 999.00" xmlns="http://www.w3.org/2000/svg" xmlns:xlink="http://www.w3.org/1999/xlink">
<g id="graph1" class="graph" transform="scale(1 1) rotate(0) translate(4 995)">
<title>filter_wedge_setup_merged</title>
<polygon fill="white" stroke="white" points="-4,5 -4,-995 2393,-995 2393,5 -4,5"/>
<!-- WedgeType:AutoSetup -->
<g id="node1" class="node"><title>WedgeType:AutoSetup</title>
<polygon fill="none" stroke="black" points="459,-263 253,-263 253,-187 459,-187 459,-263"/>
<text text-anchor="middle" x="356" y="-246.4" font-family="Times Roman,serif" font-size="14.00">WedgeType:AutoSetup</text>
<text text-anchor="middle" x="356" y="-229.4" font-family="Times Roman,serif" font-size="14.00">calcout</text>
<text text-anchor="middle" x="356" y="-212.4" font-family="Times Roman,serif" font-size="14.00">A==0&amp;&amp;!B&amp;&amp;!C&amp;&amp;!D&amp;&amp;!E</text>
<text text-anchor="middle" x="356" y="-195.4" font-family="Times Roman,serif" font-size="14.00">When Non&#45;zero</text>
</g>
<!-- WedgeType:Start -->
<g id="node13" class="node"><title>WedgeType:Start</title>
<polygon fill="none" stroke="black" points="789,-568 655,-568 655,-526 789,-526 789,-568"/>
<text text-anchor="middle" x="722" y="-551.4" font-family="Times Roman,serif" font-size="14.00">WedgeType:Start</text>
<text text-anchor="middle" x="722" y="-534.4" font-family="Times Roman,serif" font-size="14.00">seq</text>
</g>
<!-- WedgeType:AutoSetup&#45;&gt;WedgeType:Start -->
<g id="edge12" class="edge"><title>WedgeType:AutoSetup&#45;&gt;WedgeType:Start</title>
<path fill="none" stroke="black" d="M399.422,-263.202C474.025,-328.836 624.822,-461.505 690.376,-519.178"/>
<polygon fill="black" stroke="black" points="688.117,-521.852 697.937,-525.83 692.741,-516.597 688.117,-521.852"/>
<text text-anchor="middle" x="548" y="-455.4" font-family="Times Roman,serif" font-size="14.00">OUT PP PROC</text>
</g>
<!-- WedgeType30:RequestEnabled -->
<g id="node2" class="node"><title>WedgeType30:RequestEnabled</title>
<polygon fill="none" stroke="black" stroke-dasharray="5,2" points="1851,-951 1623,-951 1623,-915 1851,-915 1851,-951"/>
<text text-anchor="middle" x="1737" y="-928.9" font-family="Times Roman,serif" font-size="14.00">WedgeType30:RequestEnabled</text>
</g>
<!-- WedgeType30:RequestEnabled&#45;&gt;WedgeType:AutoSetup -->
<g id="edge2" class="edge"><title>WedgeType30:RequestEnabled&#45;&gt;WedgeType:AutoSetup</title>
<path fill="none" stroke="black" stroke-dasharray="5,2" d="M1646.48,-951.043C1583.52,-962.043 1497.48,-974 1421,-974 722,-974 722,-974 722,-974 591.088,-974 550.951,-917.702 478,-809 418.621,-720.521 375.882,-397.02 361.392,-273.437"/>
<polygon fill="black" stroke="black" points="364.828,-272.681 360.198,-263.152 357.875,-273.489 364.828,-272.681"/>
<text text-anchor="middle" x="1089" y="-978.4" font-family="Times Roman,serif" font-size="14.00">INPC &#160;</text>
</g>
<!-- FWSetup:Calc -->
<g id="node60" class="node"><title>FWSetup:Calc</title>
<polygon fill="none" stroke="black" points="2163,-326 1943,-326 1943,-250 2163,-250 2163,-326"/>
<text text-anchor="middle" x="2053" y="-309.4" font-family="Times Roman,serif" font-size="14.00">FWSetup:Calc</text>
<text text-anchor="middle" x="2053" y="-292.4" font-family="Times Roman,serif" font-size="14.00">calcout</text>
<text text-anchor="middle" x="2053" y="-275.4" font-family="Times Roman,serif" font-size="14.00">!(A||B||C||D||E||F||G||H||I||J||K)</text>
<text text-anchor="middle" x="2053" y="-258.4" font-family="Times Roman,serif" font-size="14.00">Every Time</text>
</g>
<!-- WedgeType30:RequestEnabled&#45;&gt;FWSetup:Calc -->
<g id="edge90" class="edge"><title>WedgeType30:RequestEnabled&#45;&gt;FWSetup:Calc</title>
<path fill="none" stroke="black" stroke-dasharray="5,2" d="M1754.5,-914.897C1780.35,-887.399 1829,-832.616 1860,-779 1948.16,-626.529 2012.77,-426.085 2039.47,-335.762"/>
<polygon fill="black" stroke="black" points="2042.85,-336.658 2042.31,-326.077 2036.14,-334.687 2042.85,-336.658"/>
<text text-anchor="middle" x="1901" y="-745.4" font-family="Times Roman,serif" font-size="14.00">INPB &#160;</text>
</g>
<!-- WedgeTypeNone:RequestEnabled -->
<g id="node4" class="node"><title>WedgeTypeNone:RequestEnabled</title>
<polygon fill="none" stroke="black" stroke-dasharray="5,2" points="1860,-522 1614,-522 1614,-486 1860,-486 1860,-522"/>
<text text-anchor="middle" x="1737" y="-499.9" font-family="Times Roman,serif" font-size="14.00">WedgeTypeNone:RequestEnabled</text>
</g>
<!-- WedgeTypeNone:RequestEnabled&#45;&gt;WedgeType:AutoSetup -->
<g id="edge4" class="edge"><title>WedgeTypeNone:RequestEnabled&#45;&gt;WedgeType:AutoSetup</title>
<path fill="none" stroke="black" stroke-dasharray="5,2" d="M1642.23,-485.937C1632.59,-483.287 1623.03,-480.314 1614,-477 1566.78,-459.671 1541.62,-466.039 1514,-424 1486.21,-381.708 1531.81,-232.749 1496,-197 1424.59,-125.72 744.022,-185.717 469.736,-213.116"/>
<polygon fill="black" stroke="black" points="469.357,-209.637 459.756,-214.117 470.055,-216.602 469.357,-209.637"/>
<text text-anchor="middle" x="1089" y="-176.4" font-family="Times Roman,serif" font-size="14.00">INPB &#160;</text>
</g>
<!-- WedgeTypeNone:RequestEnabled&#45;&gt;FWSetup:Calc -->
<g id="edge100" class="edge"><title>WedgeTypeNone:RequestEnabled&#45;&gt;FWSetup:Calc</title>
<path fill="none" stroke="black" stroke-dasharray="5,2" d="M1835.77,-485.9C1844.1,-483.301 1852.28,-480.349 1860,-477 1929.26,-446.963 1987.73,-379.967 2021.6,-334.371"/>
<polygon fill="black" stroke="black" points="2024.55,-336.258 2027.63,-326.12 2018.9,-332.126 2024.55,-336.258"/>
<text text-anchor="middle" x="1901" y="-471.4" font-family="Times Roman,serif" font-size="14.00">INPA &#160;</text>
</g>
<!-- WedgeType60:RequestEnabled -->
<g id="node6" class="node"><title>WedgeType60:RequestEnabled</title>
<polygon fill="none" stroke="black" stroke-dasharray="5,2" points="1851,-468 1623,-468 1623,-432 1851,-432 1851,-468"/>
<text text-anchor="middle" x="1737" y="-445.9" font-family="Times Roman,serif" font-size="14.00">WedgeType60:RequestEnabled</text>
</g>
<!-- WedgeType60:RequestEnabled&#45;&gt;WedgeType:AutoSetup -->
<g id="edge6" class="edge"><title>WedgeType60:RequestEnabled&#45;&gt;WedgeType:AutoSetup</title>
<path fill="none" stroke="black" stroke-dasharray="5,2" d="M1623.99,-431.821C1620.41,-429.21 1617.05,-426.281 1614,-423 1576.06,-382.232 1617.68,-350.294 1596,-299 1595.6,-298.051 1488.61,-113 1421,-113 722,-113 722,-113 722,-113 612.179,-113 570.937,-93.4904 478,-152 466.106,-159.488 470.796,-169.001 460,-178 458.835,-178.971 457.646,-179.927 456.437,-180.866"/>
<polygon fill="black" stroke="black" points="454.232,-178.14 448.177,-186.834 458.332,-183.814 454.232,-178.14"/>
<text text-anchor="middle" x="1089" y="-117.4" font-family="Times Roman,serif" font-size="14.00">INPE &#160;</text>
</g>
<!-- WedgeType60:RequestEnabled&#45;&gt;FWSetup:Calc -->
<g id="edge94" class="edge"><title>WedgeType60:RequestEnabled&#45;&gt;FWSetup:Calc</title>
<path fill="none" stroke="black" stroke-dasharray="5,2" d="M1834.68,-431.923C1843.36,-429.31 1851.92,-426.348 1860,-423 1912.68,-401.167 1965.24,-363.06 2002.17,-332.889"/>
<polygon fill="black" stroke="black" points="2004.8,-335.258 2010.28,-326.19 2000.34,-329.862 2004.8,-335.258"/>
<text text-anchor="middle" x="1901" y="-416.4" font-family="Times Roman,serif" font-size="14.00">INPD &#160;</text>
</g>
<!-- WedgeType45:RequestEnabled -->
<g id="node8" class="node"><title>WedgeType45:RequestEnabled</title>
<polygon fill="none" stroke="black" stroke-dasharray="5,2" points="1851,-36 1623,-36 1623,-1.06581e-14 1851,-0 1851,-36"/>
<text text-anchor="middle" x="1737" y="-13.9" font-family="Times Roman,serif" font-size="14.00">WedgeType45:RequestEnabled</text>
</g>
<!-- WedgeType45:RequestEnabled&#45;&gt;WedgeType:AutoSetup -->
<g id="edge8" class="edge"><title>WedgeType45:RequestEnabled&#45;&gt;WedgeType:AutoSetup</title>
<path fill="none" stroke="black" stroke-dasharray="5,2" d="M1622.65,-28.7318C1562.67,-33.4764 1487.93,-38 1421,-38 722,-38 722,-38 722,-38 610.218,-38 556.209,-19.1344 478,-99 452.805,-124.729 482.788,-150.117 460,-178 459.608,-178.479 459.21,-178.954 458.807,-179.424"/>
<polygon fill="black" stroke="black" points="456.257,-177.026 451.801,-186.639 461.279,-181.903 456.257,-177.026"/>
<text text-anchor="middle" x="1089" y="-42.4" font-family="Times Roman,serif" font-size="14.00">INPD &#160;</text>
</g>
<!-- WedgeType45:RequestEnabled&#45;&gt;FWSetup:Calc -->
<g id="edge88" class="edge"><title>WedgeType45:RequestEnabled&#45;&gt;FWSetup:Calc</title>
<path fill="none" stroke="black" stroke-dasharray="5,2" d="M1835.41,-36.0888C1843.85,-38.6932 1852.16,-41.6495 1860,-45 1891.51,-58.4659 1900,-63.5425 1924,-88 1968.99,-133.839 2006.9,-197.749 2029.75,-240.885"/>
<polygon fill="black" stroke="black" points="2026.66,-242.522 2034.39,-249.76 2032.86,-239.277 2026.66,-242.522"/>
<text text-anchor="middle" x="1901" y="-92.4" font-family="Times Roman,serif" font-size="14.00">INPC &#160;</text>
</g>
<!-- WedgeType:Readiness -->
<g id="node10" class="node"><title>WedgeType:Readiness</title>
<polygon fill="none" stroke="black" stroke-dasharray="5,2" points="169,-676 1,-676 1,-640 169,-640 169,-676"/>
<text text-anchor="middle" x="85" y="-653.9" font-family="Times Roman,serif" font-size="14.00">WedgeType:Readiness</text>
</g>
<!-- WedgeType:Readiness&#45;&gt;WedgeType:AutoSetup -->
<g id="edge10" class="edge"><title>WedgeType:Readiness&#45;&gt;WedgeType:AutoSetup</title>
<path fill="none" stroke="black" stroke-dasharray="5,2" d="M96.2995,-639.946C135.642,-577.086 267.434,-366.51 326.696,-271.821"/>
<polygon fill="black" stroke="black" points="329.691,-273.633 332.03,-263.3 323.757,-269.92 329.691,-273.633"/>
<text text-anchor="middle" x="211" y="-497.4" font-family="Times Roman,serif" font-size="14.00">INPA &#160;</text>
</g>
<!-- WedgeType:Stop -->
<g id="node40" class="node"><title>WedgeType:Stop</title>
<polygon fill="none" stroke="black" points="618,-800 478,-800 478,-724 618,-724 618,-800"/>
<text text-anchor="middle" x="548" y="-783.4" font-family="Times Roman,serif" font-size="14.00">WedgeType:Stop</text>
<text text-anchor="middle" x="548" y="-766.4" font-family="Times Roman,serif" font-size="14.00">calcout</text>
<text text-anchor="middle" x="548" y="-749.4" font-family="Times Roman,serif" font-size="14.00">A!=2</text>
<text text-anchor="middle" x="548" y="-732.4" font-family="Times Roman,serif" font-size="14.00">Transition To Zero</text>
</g>
<!-- WedgeType:Readiness&#45;&gt;WedgeType:Stop -->
<g id="edge50" class="edge"><title>WedgeType:Readiness&#45;&gt;WedgeType:Stop</title>
<path fill="none" stroke="black" stroke-dasharray="5,2" d="M165.384,-676.056C250.2,-695.108 383.078,-724.955 467.818,-743.989"/>
<polygon fill="black" stroke="black" points="467.127,-747.421 477.651,-746.198 468.661,-740.591 467.127,-747.421"/>
<text text-anchor="middle" x="211" y="-694.4" font-family="Times Roman,serif" font-size="14.00">INPA &#160;</text>
</g>
<!-- WedgeTypeNone:Calc -->
<g id="node15" class="node"><title>WedgeTypeNone:Calc</title>
<polygon fill="none" stroke="black" points="1171,-465 1007,-465 1007,-389 1171,-389 1171,-465"/>
<text text-anchor="middle" x="1089" y="-448.4" font-family="Times Roman,serif" font-size="14.00">WedgeTypeNone:Calc</text>
<text text-anchor="middle" x="1089" y="-431.4" font-family="Times Roman,serif" font-size="14.00">calcout</text>
<text text-anchor="middle" x="1089" y="-414.4" font-family="Times Roman,serif" font-size="14.00">A==0</text>
<text text-anchor="middle" x="1089" y="-397.4" font-family="Times Roman,serif" font-size="14.00">Every Time</text>
</g>
<!-- WedgeType:Start&#45;&gt;WedgeTypeNone:Calc -->
<g id="edge14" class="edge"><title>WedgeType:Start&#45;&gt;WedgeTypeNone:Calc</title>
<path fill="none" stroke="black" d="M749.674,-525.908C769.833,-511.519 798.344,-493.122 826,-482 842.01,-475.561 927.382,-458.19 996.581,-444.676"/>
<polygon fill="black" stroke="black" points="997.517,-448.06 1006.66,-442.712 996.179,-441.189 997.517,-448.06"/>
<text text-anchor="middle" x="887" y="-486.4" font-family="Times Roman,serif" font-size="14.00">LNK1 PP PROC, 0</text>
</g>
<!-- WedgeType:Timeout -->
<g id="node17" class="node"><title>WedgeType:Timeout</title>
<polygon fill="none" stroke="black" points="1212,-821 966,-821 966,-745 1212,-745 1212,-821"/>
<text text-anchor="middle" x="1089" y="-804.4" font-family="Times Roman,serif" font-size="14.00">WedgeType:Timeout</text>
<text text-anchor="middle" x="1089" y="-787.4" font-family="Times Roman,serif" font-size="14.00">calcout</text>
<text text-anchor="middle" x="1089" y="-770.4" font-family="Times Roman,serif" font-size="14.00">b?b:(a&amp;&amp;c?a&#45;1:a);c:=(b?b:c);b:=0</text>
<text text-anchor="middle" x="1089" y="-753.4" font-family="Times Roman,serif" font-size="14.00">Transition To Zero</text>
</g>
<!-- WedgeType:Start&#45;&gt;WedgeType:Timeout -->
<g id="edge16" class="edge"><title>WedgeType:Start&#45;&gt;WedgeType:Timeout</title>
<path fill="none" stroke="black" d="M727.67,-568.138C739.202,-606.782 769.239,-688.564 826,-729 870.94,-761.015 893.938,-740.964 948,-752 950.525,-752.515 953.074,-753.039 955.642,-753.571"/>
<polygon fill="black" stroke="black" points="955.123,-757.037 965.627,-755.651 956.551,-750.185 955.123,-757.037"/>
<text text-anchor="middle" x="887" y="-756.4" font-family="Times Roman,serif" font-size="14.00">LNK5 &#160;B, 20</text>
</g>
<!-- WedgeType60:Calc -->
<g id="node19" class="node"><title>WedgeType60:Calc</title>
<polygon fill="none" stroke="black" points="1162,-371 1016,-371 1016,-295 1162,-295 1162,-371"/>
<text text-anchor="middle" x="1089" y="-354.4" font-family="Times Roman,serif" font-size="14.00">WedgeType60:Calc</text>
<text text-anchor="middle" x="1089" y="-337.4" font-family="Times Roman,serif" font-size="14.00">calcout</text>
<text text-anchor="middle" x="1089" y="-320.4" font-family="Times Roman,serif" font-size="14.00">A==3</text>
<text text-anchor="middle" x="1089" y="-303.4" font-family="Times Roman,serif" font-size="14.00">Every Time</text>
</g>
<!-- WedgeType:Start&#45;&gt;WedgeType60:Calc -->
<g id="edge18" class="edge"><title>WedgeType:Start&#45;&gt;WedgeType60:Calc</title>
<path fill="none" stroke="black" d="M734.859,-525.787C752.086,-499.387 785.257,-455.092 826,-433 874.302,-406.809 903.184,-444.79 948,-413 961.627,-403.334 953.42,-390.994 966,-380 977.72,-369.758 991.906,-361.639 1006.42,-355.239"/>
<polygon fill="black" stroke="black" points="1008.08,-358.338 1015.98,-351.276 1005.4,-351.872 1008.08,-358.338"/>
<text text-anchor="middle" x="887" y="-437.4" font-family="Times Roman,serif" font-size="14.00">LNK4 PP PROC, 0</text>
</g>
<!-- WedgeType45:Calc -->
<g id="node21" class="node"><title>WedgeType45:Calc</title>
<polygon fill="none" stroke="black" points="1162,-277 1016,-277 1016,-201 1162,-201 1162,-277"/>
<text text-anchor="middle" x="1089" y="-260.4" font-family="Times Roman,serif" font-size="14.00">WedgeType45:Calc</text>
<text text-anchor="middle" x="1089" y="-243.4" font-family="Times Roman,serif" font-size="14.00">calcout</text>
<text text-anchor="middle" x="1089" y="-226.4" font-family="Times Roman,serif" font-size="14.00">A==2</text>
<text text-anchor="middle" x="1089" y="-209.4" font-family="Times Roman,serif" font-size="14.00">Every Time</text>
</g>
<!-- WedgeType:Start&#45;&gt;WedgeType45:Calc -->
<g id="edge20" class="edge"><title>WedgeType:Start&#45;&gt;WedgeType45:Calc</title>
<path fill="none" stroke="black" d="M733.017,-525.749C758.962,-475.783 822.031,-354.819 826,-352 870.737,-320.219 905.322,-367.496 948,-333 965.396,-318.939 950.177,-301.811 966,-286 977.316,-274.693 991.635,-266.056 1006.47,-259.473"/>
<polygon fill="black" stroke="black" points="1007.85,-262.691 1015.75,-255.635 1005.17,-256.222 1007.85,-262.691"/>
<text text-anchor="middle" x="887" y="-356.4" font-family="Times Roman,serif" font-size="14.00">LNK3 PP PROC, 0</text>
</g>
<!-- WedgeType30:Calc -->
<g id="node23" class="node"><title>WedgeType30:Calc</title>
<polygon fill="none" stroke="black" points="1162,-651 1016,-651 1016,-575 1162,-575 1162,-651"/>
<text text-anchor="middle" x="1089" y="-634.4" font-family="Times Roman,serif" font-size="14.00">WedgeType30:Calc</text>
<text text-anchor="middle" x="1089" y="-617.4" font-family="Times Roman,serif" font-size="14.00">calcout</text>
<text text-anchor="middle" x="1089" y="-600.4" font-family="Times Roman,serif" font-size="14.00">A==1</text>
<text text-anchor="middle" x="1089" y="-583.4" font-family="Times Roman,serif" font-size="14.00">Every Time</text>
</g>
<!-- WedgeType:Start&#45;&gt;WedgeType30:Calc -->
<g id="edge22" class="edge"><title>WedgeType:Start&#45;&gt;WedgeType30:Calc</title>
<path fill="none" stroke="black" d="M756.258,-568.126C775.914,-579.118 801.49,-591.573 826,-598 884.685,-613.389 953.171,-616.857 1005.54,-616.626"/>
<polygon fill="black" stroke="black" points="1005.83,-620.124 1015.79,-616.533 1005.76,-613.124 1005.83,-620.124"/>
<text text-anchor="middle" x="887" y="-619.4" font-family="Times Roman,serif" font-size="14.00">LNK2 PP PROC, 0</text>
</g>
<!-- 0 -->
<g id="node25" class="node"><title>0</title>
<polygon fill="none" stroke="black" stroke-dasharray="5,2" points="1764,-770 1710,-770 1710,-734 1764,-734 1764,-770"/>
<text text-anchor="middle" x="1737" y="-747.9" font-family="Times Roman,serif" font-size="14.00">0</text>
</g>
<!-- WedgeType:Start&#45;&gt;0 -->
<g id="edge24" class="edge"><title>WedgeType:Start&#45;&gt;0</title>
<path fill="none" stroke="black" d="M789.526,-546.528C968.964,-546.229 1453.66,-551.927 1596,-620 1647.43,-644.596 1692.74,-694.742 1717.37,-725.653"/>
<polygon fill="black" stroke="black" points="1714.84,-728.102 1723.76,-733.825 1720.36,-723.791 1714.84,-728.102"/>
<text text-anchor="middle" x="1279" y="-570.4" font-family="Times Roman,serif" font-size="14.00">DOL3 &#160;, 0</text>
</g>
<!-- WedgeType:Start&#45;&gt;0 -->
<g id="edge26" class="edge"><title>WedgeType:Start&#45;&gt;0</title>
<path fill="none" stroke="black" d="M727.454,-568.175C739.322,-610.941 770.938,-708.984 826,-773 874.552,-829.447 894.811,-843.191 966,-865 1233.73,-947.018 1335.9,-962.695 1596,-859 1642.24,-840.564 1686.43,-802.61 1712.64,-777.225"/>
<polygon fill="black" stroke="black" points="1715.19,-779.618 1719.86,-770.105 1710.28,-774.634 1715.19,-779.618"/>
<text text-anchor="middle" x="1279" y="-935.4" font-family="Times Roman,serif" font-size="14.00">DOL2 &#160;, 0</text>
</g>
<!-- WedgeType:Start&#45;&gt;0 -->
<g id="edge28" class="edge"><title>WedgeType:Start&#45;&gt;0</title>
<path fill="none" stroke="black" d="M729.902,-568.093C743.661,-601.446 775.473,-665.402 826,-693 901.172,-734.06 1510.79,-721.33 1596,-730 1631.45,-733.607 1671.58,-740.106 1699.93,-745.108"/>
<polygon fill="black" stroke="black" points="1699.36,-748.561 1709.82,-746.875 1700.59,-741.67 1699.36,-748.561"/>
<text text-anchor="middle" x="1279" y="-729.4" font-family="Times Roman,serif" font-size="14.00">DOL1 &#160;, 0</text>
</g>
<!-- WedgeType:Start&#45;&gt;0 -->
<g id="edge32" class="edge"><title>WedgeType:Start&#45;&gt;0</title>
<path fill="none" stroke="black" d="M740.385,-568.345C759.559,-589.119 791.579,-619.846 826,-636 883.149,-662.821 903.097,-654.647 966,-660 1208.74,-680.655 1270.43,-652.837 1514,-648 1550.44,-647.276 1561.38,-636.613 1596,-648 1642.81,-663.396 1686.84,-700.957 1712.87,-726.462"/>
<polygon fill="black" stroke="black" points="1710.49,-729.032 1720.03,-733.63 1715.44,-724.083 1710.49,-729.032"/>
<text text-anchor="middle" x="1279" y="-668.4" font-family="Times Roman,serif" font-size="14.00">DOL4 &#160;, 0</text>
</g>
<!-- 20 -->
<g id="node29" class="node"><title>20</title>
<polygon fill="none" stroke="black" stroke-dasharray="5,2" points="1116,-519 1062,-519 1062,-483 1116,-483 1116,-519"/>
<text text-anchor="middle" x="1089" y="-496.9" font-family="Times Roman,serif" font-size="14.00">20</text>
</g>
<!-- WedgeType:Start&#45;&gt;20 -->
<g id="edge30" class="edge"><title>WedgeType:Start&#45;&gt;20</title>
<path fill="none" stroke="black" d="M783.854,-525.999C797.587,-522.058 812.174,-518.421 826,-516 905.488,-502.083 1000.34,-500.224 1051.62,-500.413"/>
<polygon fill="black" stroke="black" points="1051.86,-503.915 1061.88,-500.481 1051.9,-496.915 1051.86,-503.915"/>
<text text-anchor="middle" x="887" y="-520.4" font-family="Times Roman,serif" font-size="14.00">DOL5 &#160;, 20</text>
</g>
<!-- WedgeTypeNone:Calc&#45;&gt;WedgeTypeNone:RequestEnabled -->
<g id="edge36" class="edge"><title>WedgeTypeNone:Calc&#45;&gt;WedgeTypeNone:RequestEnabled</title>
<path fill="none" stroke="black" d="M1171.07,-436.752C1280.02,-449.698 1473.77,-472.721 1603.81,-488.173"/>
<polygon fill="black" stroke="black" points="1603.5,-491.661 1613.84,-489.365 1604.32,-484.71 1603.5,-491.661"/>
<text text-anchor="middle" x="1421" y="-478.4" font-family="Times Roman,serif" font-size="14.00">OUT PP </text>
</g>
<!-- WedgeType:Timeout&#45;&gt;WedgeType:Timeout -->
<g id="edge54" class="edge"><title>WedgeType:Timeout&#45;&gt;WedgeType:Timeout</title>
<path fill="none" stroke="black" stroke-dasharray="5,2" d="M1053.69,-821.214C1055.71,-831.335 1067.48,-839 1089,-839 1103.46,-839 1113.52,-835.54 1119.18,-830.199"/>
<polygon fill="black" stroke="black" points="1122.39,-831.633 1124.31,-821.214 1116.31,-828.159 1122.39,-831.633"/>
<text text-anchor="middle" x="1089" y="-843.4" font-family="Times Roman,serif" font-size="14.00">INPA &#160;VAL</text>
</g>
<!-- WedgeType:Disable -->
<g id="node45" class="node"><title>WedgeType:Disable</title>
<polygon fill="none" stroke="black" points="1496,-793 1346,-793 1346,-751 1496,-751 1496,-793"/>
<text text-anchor="middle" x="1421" y="-776.4" font-family="Times Roman,serif" font-size="14.00">WedgeType:Disable</text>
<text text-anchor="middle" x="1421" y="-759.4" font-family="Times Roman,serif" font-size="14.00">seq</text>
</g>
<!-- WedgeType:Timeout&#45;&gt;WedgeType:Disable -->
<g id="edge56" class="edge"><title>WedgeType:Timeout&#45;&gt;WedgeType:Disable</title>
<path fill="none" stroke="black" d="M1212.15,-778.92C1253.14,-777.562 1297.87,-776.08 1335.38,-774.837"/>
<polygon fill="black" stroke="black" points="1335.89,-778.322 1345.76,-774.493 1335.65,-771.326 1335.89,-778.322"/>
<text text-anchor="middle" x="1279" y="-782.4" font-family="Times Roman,serif" font-size="14.00">OUT PP PROC</text>
</g>
<!-- WedgeType60:Calc&#45;&gt;WedgeType60:RequestEnabled -->
<g id="edge48" class="edge"><title>WedgeType60:Calc&#45;&gt;WedgeType60:RequestEnabled</title>
<path fill="none" stroke="black" d="M1162.22,-310.003C1270.11,-281.069 1472.37,-246.422 1596,-347 1622.93,-368.906 1589.25,-398.658 1614,-423 1614.94,-423.927 1615.91,-424.825 1616.9,-425.696"/>
<polygon fill="black" stroke="black" points="1614.83,-428.521 1624.89,-431.837 1619.09,-422.969 1614.83,-428.521"/>
<text text-anchor="middle" x="1421" y="-298.4" font-family="Times Roman,serif" font-size="14.00">OUT PP </text>
</g>
<!-- WedgeType45:Calc&#45;&gt;WedgeType45:RequestEnabled -->
<g id="edge44" class="edge"><title>WedgeType45:Calc&#45;&gt;WedgeType45:RequestEnabled</title>
<path fill="none" stroke="black" d="M1162.19,-212.46C1260.89,-176.569 1442.03,-110.329 1596,-52 1604.03,-48.9591 1605.78,-47.4832 1614,-45 1621.59,-42.7068 1629.49,-40.5216 1637.48,-38.4597"/>
<polygon fill="black" stroke="black" points="1638.39,-41.8394 1647.23,-36.007 1636.68,-35.0507 1638.39,-41.8394"/>
<text text-anchor="middle" x="1421" y="-147.4" font-family="Times Roman,serif" font-size="14.00">OUT PP </text>
</g>
<!-- WedgeType30:Calc&#45;&gt;WedgeType30:RequestEnabled -->
<g id="edge40" class="edge"><title>WedgeType30:Calc&#45;&gt;WedgeType30:RequestEnabled</title>
<path fill="none" stroke="black" d="M1162.02,-605.871C1215.7,-604.97 1286.28,-613.624 1328,-658 1372.18,-704.993 1313.52,-746.277 1346,-802 1392.87,-882.406 1426.05,-896.553 1514,-927 1545.01,-937.736 1579.92,-942.023 1612.76,-942.952"/>
<polygon fill="black" stroke="black" points="1612.81,-946.454 1622.88,-943.137 1612.94,-939.455 1612.81,-946.454"/>
<text text-anchor="middle" x="1421" y="-924.4" font-family="Times Roman,serif" font-size="14.00">OUT PP </text>
</g>
<!-- WedgeType:Prescribed -->
<g id="node31" class="node"><title>WedgeType:Prescribed</title>
<polygon fill="none" stroke="black" stroke-dasharray="5,2" points="807,-373 637,-373 637,-337 807,-337 807,-373"/>
<text text-anchor="middle" x="722" y="-350.9" font-family="Times Roman,serif" font-size="14.00">WedgeType:Prescribed</text>
</g>
<!-- WedgeType:Prescribed&#45;&gt;WedgeTypeNone:Calc -->
<g id="edge34" class="edge"><title>WedgeType:Prescribed&#45;&gt;WedgeTypeNone:Calc</title>
<path fill="none" stroke="black" stroke-dasharray="5,2" d="M807.727,-369.783C850.025,-377.273 901.767,-386.727 948,-396 963.772,-399.163 980.498,-402.689 996.708,-406.196"/>
<polygon fill="black" stroke="black" points="996.206,-409.669 1006.72,-408.374 997.694,-402.829 996.206,-409.669"/>
<text text-anchor="middle" x="887" y="-400.4" font-family="Times Roman,serif" font-size="14.00">INPA &#160;</text>
</g>
<!-- WedgeType:Prescribed&#45;&gt;WedgeType60:Calc -->
<g id="edge46" class="edge"><title>WedgeType:Prescribed&#45;&gt;WedgeType60:Calc</title>
<path fill="none" stroke="black" stroke-dasharray="5,2" d="M760.076,-336.965C779.361,-328.809 803.421,-320.094 826,-316 885.512,-305.208 953.687,-310.094 1005.71,-317.344"/>
<polygon fill="black" stroke="black" points="1005.5,-320.849 1015.89,-318.822 1006.5,-313.922 1005.5,-320.849"/>
<text text-anchor="middle" x="887" y="-320.4" font-family="Times Roman,serif" font-size="14.00">INPA &#160;</text>
</g>
<!-- WedgeType:Prescribed&#45;&gt;WedgeType45:Calc -->
<g id="edge42" class="edge"><title>WedgeType:Prescribed&#45;&gt;WedgeType45:Calc</title>
<path fill="none" stroke="black" stroke-dasharray="5,2" d="M744.525,-336.781C764.686,-321.416 795.661,-300.056 826,-288 883.681,-265.078 952.809,-252.735 1005.72,-246.172"/>
<polygon fill="black" stroke="black" points="1006.22,-249.637 1015.74,-244.974 1005.39,-242.686 1006.22,-249.637"/>
<text text-anchor="middle" x="887" y="-292.4" font-family="Times Roman,serif" font-size="14.00">INPA &#160;</text>
</g>
<!-- WedgeType:Prescribed&#45;&gt;WedgeType30:Calc -->
<g id="edge38" class="edge"><title>WedgeType:Prescribed&#45;&gt;WedgeType30:Calc</title>
<path fill="none" stroke="black" stroke-dasharray="5,2" d="M730.215,-373.152C749.297,-414.592 797.181,-514.333 826,-537 833.374,-542.8 931.719,-570.362 1006,-590.631"/>
<polygon fill="black" stroke="black" points="1005.28,-594.063 1015.85,-593.315 1007.12,-587.309 1005.28,-594.063"/>
<text text-anchor="middle" x="887" y="-578.4" font-family="Times Roman,serif" font-size="14.00">INPA &#160;</text>
</g>
<!-- WedgeType:Stop&#45;&gt;WedgeType:Timeout -->
<g id="edge52" class="edge"><title>WedgeType:Stop&#45;&gt;WedgeType:Timeout</title>
<path fill="none" stroke="black" d="M618.172,-764.724C703.339,-768.03 848.783,-773.676 955.534,-777.819"/>
<polygon fill="black" stroke="black" points="955.613,-781.325 965.741,-778.215 955.884,-774.33 955.613,-781.325"/>
<text text-anchor="middle" x="722" y="-776.4" font-family="Times Roman,serif" font-size="14.00">OUT PP VAL</text>
</g>
<!-- WedgeType:Disable&#45;&gt;WedgeType30:RequestEnabled -->
<g id="edge64" class="edge"><title>WedgeType:Disable&#45;&gt;WedgeType30:RequestEnabled</title>
<path fill="none" stroke="black" d="M1472.58,-793.095C1481.2,-798.316 1489.46,-804.588 1496,-812 1510.8,-828.768 1497.83,-843.546 1514,-859 1541.09,-884.889 1577.45,-901.727 1612.95,-912.676"/>
<polygon fill="black" stroke="black" points="1612.34,-916.147 1622.93,-915.61 1614.32,-909.431 1612.34,-916.147"/>
<text text-anchor="middle" x="1555" y="-910.4" font-family="Times Roman,serif" font-size="14.00">LNK2 PP , 0</text>
</g>
<!-- WedgeType:Disable&#45;&gt;WedgeTypeNone:RequestEnabled -->
<g id="edge58" class="edge"><title>WedgeType:Disable&#45;&gt;WedgeTypeNone:RequestEnabled</title>
<path fill="none" stroke="black" d="M1445.8,-750.97C1503.44,-702.08 1646.26,-580.961 1707.9,-528.679"/>
<polygon fill="black" stroke="black" points="1710.34,-531.203 1715.7,-522.066 1705.81,-525.865 1710.34,-531.203"/>
<text text-anchor="middle" x="1555" y="-696.4" font-family="Times Roman,serif" font-size="14.00">LNK1 PP , 0</text>
</g>
<!-- WedgeType:Disable&#45;&gt;WedgeType60:RequestEnabled -->
<g id="edge60" class="edge"><title>WedgeType:Disable&#45;&gt;WedgeType60:RequestEnabled</title>
<path fill="none" stroke="black" d="M1427.9,-750.796C1447.21,-695.216 1507.42,-544.928 1614,-477 1616.51,-475.403 1619.09,-473.899 1621.74,-472.483"/>
<polygon fill="black" stroke="black" points="1623.52,-475.513 1630.99,-468.001 1620.46,-469.214 1623.52,-475.513"/>
<text text-anchor="middle" x="1555" y="-581.4" font-family="Times Roman,serif" font-size="14.00">LNK4 PP , 0</text>
</g>
<!-- WedgeType:Disable&#45;&gt;WedgeType45:RequestEnabled -->
<g id="edge62" class="edge"><title>WedgeType:Disable&#45;&gt;WedgeType45:RequestEnabled</title>
<path fill="none" stroke="black" d="M1427.16,-750.78C1441.53,-701.537 1478.77,-575.787 1514,-472 1547.81,-372.399 1572.97,-352.631 1596,-250 1606.01,-205.378 1583.81,-79.3461 1614,-45 1614.63,-44.2816 1615.28,-43.5799 1615.94,-42.8945"/>
<polygon fill="black" stroke="black" points="1618.36,-45.4248 1623.5,-36.1587 1613.7,-40.1989 1618.36,-45.4248"/>
<text text-anchor="middle" x="1555" y="-476.4" font-family="Times Roman,serif" font-size="14.00">LNK3 PP , 0</text>
</g>
<!-- WedgeType:Disable&#45;&gt;0 -->
<g id="edge66" class="edge"><title>WedgeType:Disable&#45;&gt;0</title>
<path fill="none" stroke="black" d="M1465.94,-793.184C1476.18,-798.757 1486.75,-805.147 1496,-812 1505.09,-818.735 1503.55,-825.67 1514,-830 1547.67,-843.947 1560.71,-839.11 1596,-830 1636.33,-819.589 1677.44,-794.904 1704.78,-776.071"/>
<polygon fill="black" stroke="black" points="1706.99,-778.799 1713.16,-770.187 1702.96,-773.071 1706.99,-778.799"/>
<text text-anchor="middle" x="1555" y="-842.4" font-family="Times Roman,serif" font-size="14.00">DOL3 &#160;, 0</text>
</g>
<!-- WedgeType:Disable&#45;&gt;0 -->
<g id="edge68" class="edge"><title>WedgeType:Disable&#45;&gt;0</title>
<path fill="none" stroke="black" d="M1496.2,-787.817C1502.2,-788.694 1508.19,-789.443 1514,-790 1550.28,-793.479 1559.87,-794.783 1596,-790 1632.04,-785.229 1671.94,-773.881 1700.07,-764.82"/>
<polygon fill="black" stroke="black" points="1701.47,-768.047 1709.88,-761.602 1699.28,-761.396 1701.47,-768.047"/>
<text text-anchor="middle" x="1555" y="-797.4" font-family="Times Roman,serif" font-size="14.00">DOL2 &#160;, 0</text>
</g>
<!-- WedgeType:Disable&#45;&gt;0 -->
<g id="edge70" class="edge"><title>WedgeType:Disable&#45;&gt;0</title>
<path fill="none" stroke="black" d="M1496.29,-767.235C1560.54,-763.168 1650.21,-757.493 1699.98,-754.343"/>
<polygon fill="black" stroke="black" points="1700.22,-757.835 1709.97,-753.71 1699.77,-750.849 1700.22,-757.835"/>
<text text-anchor="middle" x="1555" y="-770.4" font-family="Times Roman,serif" font-size="14.00">DOL1 &#160;, 0</text>
</g>
<!-- WedgeType:Disable&#45;&gt;0 -->
<g id="edge72" class="edge"><title>WedgeType:Disable&#45;&gt;0</title>
<path fill="none" stroke="black" d="M1472.35,-750.947C1485.69,-746.423 1500.19,-742.309 1514,-740 1578.61,-729.195 1655.07,-737.879 1699.6,-745.034"/>
<polygon fill="black" stroke="black" points="1699.23,-748.521 1709.67,-746.714 1700.38,-741.616 1699.23,-748.521"/>
<text text-anchor="middle" x="1555" y="-744.4" font-family="Times Roman,serif" font-size="14.00">DOL4 &#160;, 0</text>
</g>
<!-- Subsystem:AutoSetup -->
<g id="node54" class="node"><title>Subsystem:AutoSetup</title>
<polygon fill="none" stroke="black" points="170,-172 2.84217e-14,-172 0,-130 170,-130 170,-172"/>
<text text-anchor="middle" x="85" y="-155.4" font-family="Times Roman,serif" font-size="14.00">Subsystem:AutoSetup</text>
<text text-anchor="middle" x="85" y="-138.4" font-family="Times Roman,serif" font-size="14.00">fanout</text>
</g>
<!-- Subsystem:AutoSetup&#45;&gt;WedgeType:AutoSetup -->
<g id="edge78" class="edge"><title>Subsystem:AutoSetup&#45;&gt;WedgeType:AutoSetup</title>
<path fill="none" stroke="black" stroke-dasharray="1,5" d="M161.933,-172.007C186.949,-178.839 215.264,-186.57 242.378,-193.974"/>
<polygon fill="black" stroke="black" points="241.736,-197.427 252.305,-196.685 243.58,-190.674 241.736,-197.427"/>
<text text-anchor="middle" x="211" y="-194.4" font-family="Times Roman,serif" font-size="14.00">LNK2 &#160;</text>
</g>
<!-- WedgeRot:AutoSetup -->
<g id="node56" class="node"><title>WedgeRot:AutoSetup</title>
<polygon fill="none" stroke="black" stroke-dasharray="5,2" points="438,-169 274,-169 274,-133 438,-133 438,-169"/>
<text text-anchor="middle" x="356" y="-146.9" font-family="Times Roman,serif" font-size="14.00">WedgeRot:AutoSetup</text>
</g>
<!-- Subsystem:AutoSetup&#45;&gt;WedgeRot:AutoSetup -->
<g id="edge74" class="edge"><title>Subsystem:AutoSetup&#45;&gt;WedgeRot:AutoSetup</title>
<path fill="none" stroke="black" stroke-dasharray="1,5" d="M170.003,-151C199.568,-151 232.877,-151 263.052,-151"/>
<polygon fill="black" stroke="black" points="263.155,-154.5 273.155,-151 263.155,-147.5 263.155,-154.5"/>
<text text-anchor="middle" x="211" y="-155.4" font-family="Times Roman,serif" font-size="14.00">LNK1 &#160;</text>
</g>
<!-- FlatFilter:AutoSetup -->
<g id="node58" class="node"><title>FlatFilter:AutoSetup</title>
<polygon fill="none" stroke="black" stroke-dasharray="5,2" points="434,-115 278,-115 278,-79 434,-79 434,-115"/>
<text text-anchor="middle" x="356" y="-92.9" font-family="Times Roman,serif" font-size="14.00">FlatFilter:AutoSetup</text>
</g>
<!-- Subsystem:AutoSetup&#45;&gt;FlatFilter:AutoSetup -->
<g id="edge76" class="edge"><title>Subsystem:AutoSetup&#45;&gt;FlatFilter:AutoSetup</title>
<path fill="none" stroke="black" stroke-dasharray="1,5" d="M170.143,-133.591C176.185,-132.371 182.184,-131.164 188,-130 213.859,-124.824 241.973,-119.272 267.673,-114.227"/>
<polygon fill="black" stroke="black" points="268.629,-117.606 277.769,-112.246 267.282,-110.737 268.629,-117.606"/>
<text text-anchor="middle" x="211" y="-134.4" font-family="Times Roman,serif" font-size="14.00">LNK3 &#160;</text>
</g>
<!-- FWSetup:Status -->
<g id="node80" class="node"><title>FWSetup:Status</title>
<polygon fill="none" stroke="black" stroke-dasharray="5,2" points="2388,-306 2258,-306 2258,-270 2388,-270 2388,-306"/>
<text text-anchor="middle" x="2323" y="-283.9" font-family="Times Roman,serif" font-size="14.00">FWSetup:Status</text>
</g>
<!-- FWSetup:Calc&#45;&gt;FWSetup:Status -->
<g id="edge102" class="edge"><title>FWSetup:Calc&#45;&gt;FWSetup:Status</title>
<path fill="none" stroke="black" d="M2163.6,-288C2191.88,-288 2221.65,-288 2247.7,-288"/>
<polygon fill="black" stroke="black" points="2247.86,-291.5 2257.86,-288 2247.86,-284.5 2247.86,-291.5"/>
<text text-anchor="middle" x="2211" y="-292.4" font-family="Times Roman,serif" font-size="14.00">OUT PP </text>
</g>
<!-- FlatFilterNone:RequestEnabled -->
<g id="node61" class="node"><title>FlatFilterNone:RequestEnabled</title>
<polygon fill="none" stroke="black" stroke-dasharray="5,2" points="1851,-414 1623,-414 1623,-378 1851,-378 1851,-414"/>
<text text-anchor="middle" x="1737" y="-391.9" font-family="Times Roman,serif" font-size="14.00">FlatFilterNone:RequestEnabled</text>
</g>
<!-- FlatFilterNone:RequestEnabled&#45;&gt;FWSetup:Calc -->
<g id="edge80" class="edge"><title>FlatFilterNone:RequestEnabled&#45;&gt;FWSetup:Calc</title>
<path fill="none" stroke="black" stroke-dasharray="5,2" d="M1828.17,-377.933C1838.98,-375.22 1849.79,-372.235 1860,-369 1894.05,-358.215 1930.41,-343.77 1962.28,-330.066"/>
<polygon fill="black" stroke="black" points="1963.8,-333.223 1971.58,-326.033 1961.01,-326.8 1963.8,-333.223"/>
<text text-anchor="middle" x="1901" y="-365.4" font-family="Times Roman,serif" font-size="14.00">INPI &#160;</text>
</g>
<!-- WedgeRot270:RequestEnabled -->
<g id="node63" class="node"><title>WedgeRot270:RequestEnabled</title>
<polygon fill="none" stroke="black" stroke-dasharray="5,2" points="1851,-360 1623,-360 1623,-324 1851,-324 1851,-360"/>
<text text-anchor="middle" x="1737" y="-337.9" font-family="Times Roman,serif" font-size="14.00">WedgeRot270:RequestEnabled</text>
</g>
<!-- WedgeRot270:RequestEnabled&#45;&gt;FWSetup:Calc -->
<g id="edge82" class="edge"><title>WedgeRot270:RequestEnabled&#45;&gt;FWSetup:Calc</title>
<path fill="none" stroke="black" stroke-dasharray="5,2" d="M1842.66,-323.944C1871.44,-319.027 1902.82,-313.663 1932.36,-308.616"/>
<polygon fill="black" stroke="black" points="1933.03,-312.052 1942.3,-306.917 1931.85,-305.152 1933.03,-312.052"/>
<text text-anchor="middle" x="1901" y="-320.4" font-family="Times Roman,serif" font-size="14.00">INPH &#160;</text>
</g>
<!-- FlatFilterLarge:RequestEnabled -->
<g id="node65" class="node"><title>FlatFilterLarge:RequestEnabled</title>
<polygon fill="none" stroke="black" stroke-dasharray="5,2" points="1853,-306 1621,-306 1621,-270 1853,-270 1853,-306"/>
<text text-anchor="middle" x="1737" y="-283.9" font-family="Times Roman,serif" font-size="14.00">FlatFilterLarge:RequestEnabled</text>
</g>
<!-- FlatFilterLarge:RequestEnabled&#45;&gt;FWSetup:Calc -->
<g id="edge84" class="edge"><title>FlatFilterLarge:RequestEnabled&#45;&gt;FWSetup:Calc</title>
<path fill="none" stroke="black" stroke-dasharray="5,2" d="M1853.32,-288C1879.03,-288 1906.33,-288 1932.21,-288"/>
<polygon fill="black" stroke="black" points="1932.44,-291.5 1942.44,-288 1932.44,-284.5 1932.44,-291.5"/>
<text text-anchor="middle" x="1901" y="-292.4" font-family="Times Roman,serif" font-size="14.00">INPK &#160;</text>
</g>
<!-- FlatFilterSmall:RequestEnabled -->
<g id="node67" class="node"><title>FlatFilterSmall:RequestEnabled</title>
<polygon fill="none" stroke="black" stroke-dasharray="5,2" points="1852,-252 1622,-252 1622,-216 1852,-216 1852,-252"/>
<text text-anchor="middle" x="1737" y="-229.9" font-family="Times Roman,serif" font-size="14.00">FlatFilterSmall:RequestEnabled</text>
</g>
<!-- FlatFilterSmall:RequestEnabled&#45;&gt;FWSetup:Calc -->
<g id="edge86" class="edge"><title>FlatFilterSmall:RequestEnabled&#45;&gt;FWSetup:Calc</title>
<path fill="none" stroke="black" stroke-dasharray="5,2" d="M1842.66,-252.056C1871.44,-256.973 1902.82,-262.337 1932.36,-267.384"/>
<polygon fill="black" stroke="black" points="1931.85,-270.848 1942.3,-269.083 1933.03,-263.948 1931.85,-270.848"/>
<text text-anchor="middle" x="1901" y="-269.4" font-family="Times Roman,serif" font-size="14.00">INPJ &#160;</text>
</g>
<!-- WedgeRot0:RequestEnabled -->
<g id="node71" class="node"><title>WedgeRot0:RequestEnabled</title>
<polygon fill="none" stroke="black" stroke-dasharray="5,2" points="1842,-198 1632,-198 1632,-162 1842,-162 1842,-198"/>
<text text-anchor="middle" x="1737" y="-175.9" font-family="Times Roman,serif" font-size="14.00">WedgeRot0:RequestEnabled</text>
</g>
<!-- WedgeRot0:RequestEnabled&#45;&gt;FWSetup:Calc -->
<g id="edge92" class="edge"><title>WedgeRot0:RequestEnabled&#45;&gt;FWSetup:Calc</title>
<path fill="none" stroke="black" stroke-dasharray="5,2" d="M1828.17,-198.067C1838.98,-200.78 1849.79,-203.765 1860,-207 1894.05,-217.785 1930.41,-232.23 1962.28,-245.934"/>
<polygon fill="black" stroke="black" points="1961.01,-249.2 1971.58,-249.967 1963.8,-242.777 1961.01,-249.2"/>
<text text-anchor="middle" x="1901" y="-232.4" font-family="Times Roman,serif" font-size="14.00">INPE &#160;</text>
</g>
<!-- WedgeRot180:RequestEnabled -->
<g id="node74" class="node"><title>WedgeRot180:RequestEnabled</title>
<polygon fill="none" stroke="black" stroke-dasharray="5,2" points="1851,-144 1623,-144 1623,-108 1851,-108 1851,-144"/>
<text text-anchor="middle" x="1737" y="-121.9" font-family="Times Roman,serif" font-size="14.00">WedgeRot180:RequestEnabled</text>
</g>
<!-- WedgeRot180:RequestEnabled&#45;&gt;FWSetup:Calc -->
<g id="edge96" class="edge"><title>WedgeRot180:RequestEnabled&#45;&gt;FWSetup:Calc</title>
<path fill="none" stroke="black" stroke-dasharray="5,2" d="M1834.31,-144.076C1843.12,-146.693 1851.8,-149.655 1860,-153 1912.97,-174.611 1965.7,-212.926 2002.62,-243.231"/>
<polygon fill="black" stroke="black" points="2000.79,-246.261 2010.71,-249.958 2005.26,-240.876 2000.79,-246.261"/>
<text text-anchor="middle" x="1901" y="-189.4" font-family="Times Roman,serif" font-size="14.00">INPG &#160;</text>
</g>
<!-- WedgeRot90:RequestEnabled -->
<g id="node76" class="node"><title>WedgeRot90:RequestEnabled</title>
<polygon fill="none" stroke="black" stroke-dasharray="5,2" points="1847,-90 1627,-90 1627,-54 1847,-54 1847,-90"/>
<text text-anchor="middle" x="1737" y="-67.9" font-family="Times Roman,serif" font-size="14.00">WedgeRot90:RequestEnabled</text>
</g>
<!-- WedgeRot90:RequestEnabled&#45;&gt;FWSetup:Calc -->
<g id="edge98" class="edge"><title>WedgeRot90:RequestEnabled&#45;&gt;FWSetup:Calc</title>
<path fill="none" stroke="black" stroke-dasharray="5,2" d="M1835.41,-90.0888C1843.85,-92.6932 1852.16,-95.6495 1860,-99 1929.42,-128.666 1987.85,-195.758 2021.66,-241.476"/>
<polygon fill="black" stroke="black" points="2018.97,-243.726 2027.69,-249.75 2024.63,-239.606 2018.97,-243.726"/>
<text text-anchor="middle" x="1901" y="-141.4" font-family="Times Roman,serif" font-size="14.00">INPF &#160;</text>
</g>
</g>
</svg>
