<?xml version="1.0" encoding="UTF-8" standalone="no"?>
<!DOCTYPE svg PUBLIC "-//W3C//DTD SVG 1.1//EN"
 "http://www.w3.org/Graphics/SVG/1.1/DTD/svg11.dtd">
<!-- Generated by graphviz version 2.26.3 (20100126.1600)
 -->
<!-- Title: filter_wedgetype_setup_subs Pages: 1 -->
<svg width="1864pt" height="988pt"
 viewBox="0.00 0.00 1864.00 988.00" xmlns="http://www.w3.org/2000/svg" xmlns:xlink="http://www.w3.org/1999/xlink">
<g id="graph1" class="graph" transform="scale(1 1) rotate(0) translate(4 984)">
<title>filter_wedgetype_setup_subs</title>
<polygon fill="white" stroke="white" points="-4,5 -4,-984 1861,-984 1861,5 -4,5"/>
<!-- WedgeType:AutoSetup -->
<g id="node1" class="node"><title>WedgeType:AutoSetup</title>
<polygon fill="none" stroke="black" points="455,-798 249,-798 249,-722 455,-722 455,-798"/>
<text text-anchor="middle" x="352" y="-781.4" font-family="Times Roman,serif" font-size="14.00">WedgeType:AutoSetup</text>
<text text-anchor="middle" x="352" y="-764.4" font-family="Times Roman,serif" font-size="14.00">calcout</text>
<text text-anchor="middle" x="352" y="-747.4" font-family="Times Roman,serif" font-size="14.00">A==0&amp;&amp;!B&amp;&amp;!C&amp;&amp;!D&amp;&amp;!E</text>
<text text-anchor="middle" x="352" y="-730.4" font-family="Times Roman,serif" font-size="14.00">When Non&#45;zero</text>
</g>
<!-- WedgeType:Start -->
<g id="node13" class="node"><title>WedgeType:Start</title>
<polygon fill="none" stroke="black" points="785,-525 651,-525 651,-483 785,-483 785,-525"/>
<text text-anchor="middle" x="718" y="-508.4" font-family="Times Roman,serif" font-size="14.00">WedgeType:Start</text>
<text text-anchor="middle" x="718" y="-491.4" font-family="Times Roman,serif" font-size="14.00">seq</text>
</g>
<!-- WedgeType:AutoSetup&#45;&gt;WedgeType:Start -->
<g id="edge12" class="edge"><title>WedgeType:AutoSetup&#45;&gt;WedgeType:Start</title>
<path fill="none" stroke="black" d="M406.399,-721.951C481.105,-669.697 613.628,-577.003 679.131,-531.187"/>
<polygon fill="black" stroke="black" points="681.349,-533.907 687.537,-525.307 677.337,-528.171 681.349,-533.907"/>
<text text-anchor="middle" x="544" y="-673.4" font-family="Times Roman,serif" font-size="14.00">OUT PP PROC</text>
</g>
<!-- WedgeType30:RequestEnabled -->
<g id="node2" class="node"><title>WedgeType30:RequestEnabled</title>
<polygon fill="none" stroke="black" stroke-dasharray="5,2" points="1847,-792 1619,-792 1619,-756 1847,-756 1847,-792"/>
<text text-anchor="middle" x="1733" y="-769.9" font-family="Times Roman,serif" font-size="14.00">WedgeType30:RequestEnabled</text>
</g>
<!-- WedgeType30:RequestEnabled&#45;&gt;WedgeType:AutoSetup -->
<g id="edge2" class="edge"><title>WedgeType30:RequestEnabled&#45;&gt;WedgeType:AutoSetup</title>
<path fill="none" stroke="black" stroke-dasharray="5,2" d="M1697.84,-792.06C1622.47,-829.054 1438.82,-910 1275,-910 718,-910 718,-910 718,-910 608.179,-910 572.966,-918.606 474,-871 441.867,-855.543 412.128,-828.86 390.058,-805.529"/>
<polygon fill="black" stroke="black" points="392.531,-803.049 383.168,-798.091 387.395,-807.806 392.531,-803.049"/>
<text text-anchor="middle" x="1085" y="-914.4" font-family="Times Roman,serif" font-size="14.00">INPC &#160;</text>
</g>
<!-- WedgeTypeNone:RequestEnabled -->
<g id="node4" class="node"><title>WedgeTypeNone:RequestEnabled</title>
<polygon fill="none" stroke="black" stroke-dasharray="5,2" points="1856,-169 1610,-169 1610,-133 1856,-133 1856,-169"/>
<text text-anchor="middle" x="1733" y="-146.9" font-family="Times Roman,serif" font-size="14.00">WedgeTypeNone:RequestEnabled</text>
</g>
<!-- WedgeTypeNone:RequestEnabled&#45;&gt;WedgeType:AutoSetup -->
<g id="edge4" class="edge"><title>WedgeTypeNone:RequestEnabled&#45;&gt;WedgeType:AutoSetup</title>
<path fill="none" stroke="black" stroke-dasharray="5,2" d="M1674.23,-132.998C1611.24,-115.325 1508.02,-91 1417,-91 718,-91 718,-91 718,-91 434.899,-91 369.379,-557.778 355.476,-711.535"/>
<polygon fill="black" stroke="black" points="351.978,-711.363 354.597,-721.629 358.951,-711.97 351.978,-711.363"/>
<text text-anchor="middle" x="1085" y="-95.4" font-family="Times Roman,serif" font-size="14.00">INPB &#160;</text>
</g>
<!-- WedgeType60:RequestEnabled -->
<g id="node6" class="node"><title>WedgeType60:RequestEnabled</title>
<polygon fill="none" stroke="black" stroke-dasharray="5,2" points="1847,-614 1619,-614 1619,-578 1847,-578 1847,-614"/>
<text text-anchor="middle" x="1733" y="-591.9" font-family="Times Roman,serif" font-size="14.00">WedgeType60:RequestEnabled</text>
</g>
<!-- WedgeType60:RequestEnabled&#45;&gt;WedgeType:AutoSetup -->
<g id="edge6" class="edge"><title>WedgeType60:RequestEnabled&#45;&gt;WedgeType:AutoSetup</title>
<path fill="none" stroke="black" stroke-dasharray="5,2" d="M1712.36,-614.228C1672.59,-648.395 1581.34,-722.202 1492,-762 1373.44,-814.815 1336.89,-814.784 1208,-830 942.935,-861.291 630.037,-814.599 465.793,-783.68"/>
<polygon fill="black" stroke="black" points="466.152,-780.186 455.674,-781.76 464.846,-787.063 466.152,-780.186"/>
<text text-anchor="middle" x="1085" y="-844.4" font-family="Times Roman,serif" font-size="14.00">INPE &#160;</text>
</g>
<!-- WedgeType45:RequestEnabled -->
<g id="node8" class="node"><title>WedgeType45:RequestEnabled</title>
<polygon fill="none" stroke="black" stroke-dasharray="5,2" points="1847,-883 1619,-883 1619,-847 1847,-847 1847,-883"/>
<text text-anchor="middle" x="1733" y="-860.9" font-family="Times Roman,serif" font-size="14.00">WedgeType45:RequestEnabled</text>
</g>
<!-- WedgeType45:RequestEnabled&#45;&gt;WedgeType:AutoSetup -->
<g id="edge8" class="edge"><title>WedgeType45:RequestEnabled&#45;&gt;WedgeType:AutoSetup</title>
<path fill="none" stroke="black" stroke-dasharray="5,2" d="M1698.55,-883.203C1641.6,-911.544 1523.55,-963 1417,-963 718,-963 718,-963 718,-963 606.43,-963 568.965,-962.562 474,-904 434.701,-879.766 401.703,-838.583 379.975,-806.451"/>
<polygon fill="black" stroke="black" points="382.864,-804.476 374.423,-798.072 377.029,-808.342 382.864,-804.476"/>
<text text-anchor="middle" x="1085" y="-967.4" font-family="Times Roman,serif" font-size="14.00">INPD &#160;</text>
</g>
<!-- WedgeType:Readiness -->
<g id="node10" class="node"><title>WedgeType:Readiness</title>
<polygon fill="none" stroke="black" stroke-dasharray="5,2" points="168,-528 2.84217e-14,-528 0,-492 168,-492 168,-528"/>
<text text-anchor="middle" x="84" y="-505.9" font-family="Times Roman,serif" font-size="14.00">WedgeType:Readiness</text>
</g>
<!-- WedgeType:Readiness&#45;&gt;WedgeType:AutoSetup -->
<g id="edge10" class="edge"><title>WedgeType:Readiness&#45;&gt;WedgeType:AutoSetup</title>
<path fill="none" stroke="black" stroke-dasharray="5,2" d="M103.707,-528.383C145.439,-567.313 243.782,-659.05 303.418,-714.681"/>
<polygon fill="black" stroke="black" points="301.15,-717.351 310.85,-721.613 305.925,-712.233 301.15,-717.351"/>
<text text-anchor="middle" x="208" y="-646.4" font-family="Times Roman,serif" font-size="14.00">INPA &#160;</text>
</g>
<!-- WedgeType:Stop -->
<g id="node40" class="node"><title>WedgeType:Stop</title>
<polygon fill="none" stroke="black" points="614,-76 474,-76 474,-2.13163e-14 614,-0 614,-76"/>
<text text-anchor="middle" x="544" y="-59.4" font-family="Times Roman,serif" font-size="14.00">WedgeType:Stop</text>
<text text-anchor="middle" x="544" y="-42.4" font-family="Times Roman,serif" font-size="14.00">calcout</text>
<text text-anchor="middle" x="544" y="-25.4" font-family="Times Roman,serif" font-size="14.00">A!=2</text>
<text text-anchor="middle" x="544" y="-8.4" font-family="Times Roman,serif" font-size="14.00">Transition To Zero</text>
</g>
<!-- WedgeType:Readiness&#45;&gt;WedgeType:Stop -->
<g id="edge50" class="edge"><title>WedgeType:Readiness&#45;&gt;WedgeType:Stop</title>
<path fill="none" stroke="black" stroke-dasharray="5,2" d="M97.2644,-491.902C143.065,-430.231 300.852,-224.472 470.869,-82.7506"/>
<polygon fill="black" stroke="black" points="473.24,-85.3318 478.717,-76.2622 468.78,-79.9369 473.24,-85.3318"/>
<text text-anchor="middle" x="208" y="-382.4" font-family="Times Roman,serif" font-size="14.00">INPA &#160;</text>
</g>
<!-- WedgeTypeNone:Calc -->
<g id="node15" class="node"><title>WedgeTypeNone:Calc</title>
<polygon fill="none" stroke="black" points="1167,-385 1003,-385 1003,-309 1167,-309 1167,-385"/>
<text text-anchor="middle" x="1085" y="-368.4" font-family="Times Roman,serif" font-size="14.00">WedgeTypeNone:Calc</text>
<text text-anchor="middle" x="1085" y="-351.4" font-family="Times Roman,serif" font-size="14.00">calcout</text>
<text text-anchor="middle" x="1085" y="-334.4" font-family="Times Roman,serif" font-size="14.00">A==0</text>
<text text-anchor="middle" x="1085" y="-317.4" font-family="Times Roman,serif" font-size="14.00">Every Time</text>
</g>
<!-- WedgeType:Start&#45;&gt;WedgeTypeNone:Calc -->
<g id="edge14" class="edge"><title>WedgeType:Start&#45;&gt;WedgeTypeNone:Calc</title>
<path fill="none" stroke="black" d="M729.517,-482.567C745.956,-454.304 778.979,-405.424 822,-382 873.972,-353.703 940.015,-344.992 992.918,-343.336"/>
<polygon fill="black" stroke="black" points="993.06,-346.834 1002.98,-343.101 992.896,-339.836 993.06,-346.834"/>
<text text-anchor="middle" x="883" y="-386.4" font-family="Times Roman,serif" font-size="14.00">LNK1 PP PROC, 0</text>
</g>
<!-- WedgeType:Timeout -->
<g id="node17" class="node"><title>WedgeType:Timeout</title>
<polygon fill="none" stroke="black" points="1208,-202 962,-202 962,-126 1208,-126 1208,-202"/>
<text text-anchor="middle" x="1085" y="-185.4" font-family="Times Roman,serif" font-size="14.00">WedgeType:Timeout</text>
<text text-anchor="middle" x="1085" y="-168.4" font-family="Times Roman,serif" font-size="14.00">calcout</text>
<text text-anchor="middle" x="1085" y="-151.4" font-family="Times Roman,serif" font-size="14.00">b?b:(a&amp;&amp;c?a&#45;1:a);c:=(b?b:c);b:=0</text>
<text text-anchor="middle" x="1085" y="-134.4" font-family="Times Roman,serif" font-size="14.00">Transition To Zero</text>
</g>
<!-- WedgeType:Start&#45;&gt;WedgeType:Timeout -->
<g id="edge16" class="edge"><title>WedgeType:Start&#45;&gt;WedgeType:Timeout</title>
<path fill="none" stroke="black" d="M721.076,-482.978C729.033,-436.01 754.593,-321.689 822,-258 857.701,-224.268 906.326,-202.513 952.058,-188.539"/>
<polygon fill="black" stroke="black" points="953.167,-191.861 961.767,-185.673 951.186,-185.147 953.167,-191.861"/>
<text text-anchor="middle" x="883" y="-262.4" font-family="Times Roman,serif" font-size="14.00">LNK5 &#160;B, 20</text>
</g>
<!-- WedgeType60:Calc -->
<g id="node19" class="node"><title>WedgeType60:Calc</title>
<polygon fill="none" stroke="black" points="1158,-633 1012,-633 1012,-557 1158,-557 1158,-633"/>
<text text-anchor="middle" x="1085" y="-616.4" font-family="Times Roman,serif" font-size="14.00">WedgeType60:Calc</text>
<text text-anchor="middle" x="1085" y="-599.4" font-family="Times Roman,serif" font-size="14.00">calcout</text>
<text text-anchor="middle" x="1085" y="-582.4" font-family="Times Roman,serif" font-size="14.00">A==3</text>
<text text-anchor="middle" x="1085" y="-565.4" font-family="Times Roman,serif" font-size="14.00">Every Time</text>
</g>
<!-- WedgeType:Start&#45;&gt;WedgeType60:Calc -->
<g id="edge18" class="edge"><title>WedgeType:Start&#45;&gt;WedgeType60:Calc</title>
<path fill="none" stroke="black" d="M769.02,-525.031C785.713,-531.398 804.472,-538.017 822,-543 881.408,-559.889 949.893,-573.241 1002.08,-582.185"/>
<polygon fill="black" stroke="black" points="1001.52,-585.639 1011.96,-583.859 1002.69,-578.738 1001.52,-585.639"/>
<text text-anchor="middle" x="883" y="-575.4" font-family="Times Roman,serif" font-size="14.00">LNK4 PP PROC, 0</text>
</g>
<!-- WedgeType45:Calc -->
<g id="node21" class="node"><title>WedgeType45:Calc</title>
<polygon fill="none" stroke="black" points="1158,-821 1012,-821 1012,-745 1158,-745 1158,-821"/>
<text text-anchor="middle" x="1085" y="-804.4" font-family="Times Roman,serif" font-size="14.00">WedgeType45:Calc</text>
<text text-anchor="middle" x="1085" y="-787.4" font-family="Times Roman,serif" font-size="14.00">calcout</text>
<text text-anchor="middle" x="1085" y="-770.4" font-family="Times Roman,serif" font-size="14.00">A==2</text>
<text text-anchor="middle" x="1085" y="-753.4" font-family="Times Roman,serif" font-size="14.00">Every Time</text>
</g>
<!-- WedgeType:Start&#45;&gt;WedgeType45:Calc -->
<g id="edge20" class="edge"><title>WedgeType:Start&#45;&gt;WedgeType45:Calc</title>
<path fill="none" stroke="black" d="M738.141,-525.328C757.838,-547.355 787.242,-583.556 804,-620 819.044,-652.718 797.053,-673.03 822,-699 860.914,-739.508 890.432,-715.099 944,-732 963.007,-737.997 983.257,-744.968 1002.31,-751.795"/>
<polygon fill="black" stroke="black" points="1001.25,-755.136 1011.85,-755.238 1003.63,-748.551 1001.25,-755.136"/>
<text text-anchor="middle" x="883" y="-736.4" font-family="Times Roman,serif" font-size="14.00">LNK3 PP PROC, 0</text>
</g>
<!-- WedgeType30:Calc -->
<g id="node23" class="node"><title>WedgeType30:Calc</title>
<polygon fill="none" stroke="black" points="1158,-727 1012,-727 1012,-651 1158,-651 1158,-727"/>
<text text-anchor="middle" x="1085" y="-710.4" font-family="Times Roman,serif" font-size="14.00">WedgeType30:Calc</text>
<text text-anchor="middle" x="1085" y="-693.4" font-family="Times Roman,serif" font-size="14.00">calcout</text>
<text text-anchor="middle" x="1085" y="-676.4" font-family="Times Roman,serif" font-size="14.00">A==1</text>
<text text-anchor="middle" x="1085" y="-659.4" font-family="Times Roman,serif" font-size="14.00">Every Time</text>
</g>
<!-- WedgeType:Start&#45;&gt;WedgeType30:Calc -->
<g id="edge22" class="edge"><title>WedgeType:Start&#45;&gt;WedgeType30:Calc</title>
<path fill="none" stroke="black" d="M729.594,-525.294C746.12,-553.399 779.242,-602.1 822,-626 869.901,-652.774 890.55,-632.57 944,-645 962.93,-649.402 983.009,-655.054 1001.9,-660.83"/>
<polygon fill="black" stroke="black" points="1001.07,-664.237 1011.66,-663.856 1003.14,-657.551 1001.07,-664.237"/>
<text text-anchor="middle" x="883" y="-649.4" font-family="Times Roman,serif" font-size="14.00">LNK2 PP PROC, 0</text>
</g>
<!-- 0 -->
<g id="node25" class="node"><title>0</title>
<polygon fill="none" stroke="black" stroke-dasharray="5,2" points="1760,-398 1706,-398 1706,-362 1760,-362 1760,-398"/>
<text text-anchor="middle" x="1733" y="-375.9" font-family="Times Roman,serif" font-size="14.00">0</text>
</g>
<!-- WedgeType:Start&#45;&gt;0 -->
<g id="edge24" class="edge"><title>WedgeType:Start&#45;&gt;0</title>
<path fill="none" stroke="black" d="M738.446,-482.881C757.945,-464.319 789.139,-438.521 822,-427 983.559,-370.356 1421.51,-417.566 1592,-402 1627.49,-398.76 1667.61,-392.216 1695.95,-387.103"/>
<polygon fill="black" stroke="black" points="1696.63,-390.538 1705.83,-385.293 1695.37,-383.653 1696.63,-390.538"/>
<text text-anchor="middle" x="1275" y="-405.4" font-family="Times Roman,serif" font-size="14.00">DOL3 &#160;, 0</text>
</g>
<!-- WedgeType:Start&#45;&gt;0 -->
<g id="edge26" class="edge"><title>WedgeType:Start&#45;&gt;0</title>
<path fill="none" stroke="black" d="M785.807,-511.738C964.845,-531.109 1446.46,-576.06 1592,-517 1646.87,-494.733 1692.13,-439.723 1715.6,-406.578"/>
<polygon fill="black" stroke="black" points="1718.55,-408.47 1721.36,-398.256 1712.79,-404.485 1718.55,-408.47"/>
<text text-anchor="middle" x="1275" y="-550.4" font-family="Times Roman,serif" font-size="14.00">DOL2 &#160;, 0</text>
</g>
<!-- WedgeType:Start&#45;&gt;0 -->
<g id="edge28" class="edge"><title>WedgeType:Start&#45;&gt;0</title>
<path fill="none" stroke="black" d="M785.591,-505.576C977.549,-509.701 1517,-518.74 1592,-492 1640.51,-474.704 1684.97,-433.289 1710.51,-405.958"/>
<polygon fill="black" stroke="black" points="1713.34,-408.054 1717.51,-398.313 1708.18,-403.328 1713.34,-408.054"/>
<text text-anchor="middle" x="1275" y="-514.4" font-family="Times Roman,serif" font-size="14.00">DOL1 &#160;, 0</text>
</g>
<!-- WedgeType:Start&#45;&gt;0 -->
<g id="edge32" class="edge"><title>WedgeType:Start&#45;&gt;0</title>
<path fill="none" stroke="black" d="M752.232,-482.777C771.88,-471.754 797.458,-459.301 822,-453 1153.83,-367.801 1253.34,-468.763 1592,-417 1627.87,-411.517 1667.8,-400.568 1695.98,-391.997"/>
<polygon fill="black" stroke="black" points="1697.28,-395.258 1705.8,-388.961 1695.21,-388.57 1697.28,-395.258"/>
<text text-anchor="middle" x="1275" y="-434.4" font-family="Times Roman,serif" font-size="14.00">DOL4 &#160;, 0</text>
</g>
<!-- 20 -->
<g id="node29" class="node"><title>20</title>
<polygon fill="none" stroke="black" stroke-dasharray="5,2" points="1112,-291 1058,-291 1058,-255 1112,-255 1112,-291"/>
<text text-anchor="middle" x="1085" y="-268.9" font-family="Times Roman,serif" font-size="14.00">20</text>
</g>
<!-- WedgeType:Start&#45;&gt;20 -->
<g id="edge30" class="edge"><title>WedgeType:Start&#45;&gt;20</title>
<path fill="none" stroke="black" d="M724.046,-482.79C736.023,-444.851 766.526,-365.64 822,-326 890.392,-277.129 993.058,-270.823 1047.69,-271.356"/>
<polygon fill="black" stroke="black" points="1047.89,-274.86 1057.95,-271.543 1048.01,-267.861 1047.89,-274.86"/>
<text text-anchor="middle" x="883" y="-330.4" font-family="Times Roman,serif" font-size="14.00">DOL5 &#160;, 20</text>
</g>
<!-- WedgeTypeNone:Calc&#45;&gt;WedgeTypeNone:RequestEnabled -->
<g id="edge36" class="edge"><title>WedgeTypeNone:Calc&#45;&gt;WedgeTypeNone:RequestEnabled</title>
<path fill="none" stroke="black" d="M1167.29,-316.279C1180.94,-310.977 1194.91,-305.424 1208,-300 1343.83,-243.739 1367.25,-200.167 1510,-165 1538.68,-157.935 1570.03,-153.834 1599.92,-151.559"/>
<polygon fill="black" stroke="black" points="1600.26,-155.044 1609.99,-150.856 1599.77,-148.061 1600.26,-155.044"/>
<text text-anchor="middle" x="1417" y="-236.4" font-family="Times Roman,serif" font-size="14.00">OUT PP </text>
</g>
<!-- WedgeType:Timeout&#45;&gt;WedgeType:Timeout -->
<g id="edge54" class="edge"><title>WedgeType:Timeout&#45;&gt;WedgeType:Timeout</title>
<path fill="none" stroke="black" stroke-dasharray="5,2" d="M1049.69,-202.214C1051.71,-212.335 1063.48,-220 1085,-220 1099.46,-220 1109.52,-216.54 1115.18,-211.199"/>
<polygon fill="black" stroke="black" points="1118.39,-212.633 1120.31,-202.214 1112.31,-209.159 1118.39,-212.633"/>
<text text-anchor="middle" x="1085" y="-224.4" font-family="Times Roman,serif" font-size="14.00">INPA &#160;VAL</text>
</g>
<!-- WedgeType:Disable -->
<g id="node45" class="node"><title>WedgeType:Disable</title>
<polygon fill="none" stroke="black" points="1492,-325 1342,-325 1342,-283 1492,-283 1492,-325"/>
<text text-anchor="middle" x="1417" y="-308.4" font-family="Times Roman,serif" font-size="14.00">WedgeType:Disable</text>
<text text-anchor="middle" x="1417" y="-291.4" font-family="Times Roman,serif" font-size="14.00">seq</text>
</g>
<!-- WedgeType:Timeout&#45;&gt;WedgeType:Disable -->
<g id="edge56" class="edge"><title>WedgeType:Timeout&#45;&gt;WedgeType:Disable</title>
<path fill="none" stroke="black" d="M1175.28,-202.071C1233.19,-226.488 1306.74,-257.503 1357.41,-278.873"/>
<polygon fill="black" stroke="black" points="1356.34,-282.219 1366.91,-282.88 1359.06,-275.769 1356.34,-282.219"/>
<text text-anchor="middle" x="1275" y="-266.4" font-family="Times Roman,serif" font-size="14.00">OUT PP PROC</text>
</g>
<!-- WedgeType60:Calc&#45;&gt;WedgeType60:RequestEnabled -->
<g id="edge48" class="edge"><title>WedgeType60:Calc&#45;&gt;WedgeType60:RequestEnabled</title>
<path fill="none" stroke="black" d="M1158.07,-595.113C1267.43,-595.282 1475.06,-595.602 1608.59,-595.808"/>
<polygon fill="black" stroke="black" points="1608.87,-599.308 1618.87,-595.824 1608.88,-592.308 1608.87,-599.308"/>
<text text-anchor="middle" x="1417" y="-599.4" font-family="Times Roman,serif" font-size="14.00">OUT PP </text>
</g>
<!-- WedgeType45:Calc&#45;&gt;WedgeType45:RequestEnabled -->
<g id="edge44" class="edge"><title>WedgeType45:Calc&#45;&gt;WedgeType45:RequestEnabled</title>
<path fill="none" stroke="black" d="M1158.07,-792.247C1267.43,-806.086 1475.06,-832.359 1608.59,-849.257"/>
<polygon fill="black" stroke="black" points="1608.51,-852.775 1618.87,-850.558 1609.39,-845.83 1608.51,-852.775"/>
<text text-anchor="middle" x="1417" y="-837.4" font-family="Times Roman,serif" font-size="14.00">OUT PP </text>
</g>
<!-- WedgeType30:Calc&#45;&gt;WedgeType30:RequestEnabled -->
<g id="edge40" class="edge"><title>WedgeType30:Calc&#45;&gt;WedgeType30:RequestEnabled</title>
<path fill="none" stroke="black" d="M1158.07,-698.585C1267.43,-712.93 1475.06,-740.165 1608.59,-757.681"/>
<polygon fill="black" stroke="black" points="1608.5,-761.199 1618.87,-759.029 1609.41,-754.259 1608.5,-761.199"/>
<text text-anchor="middle" x="1417" y="-745.4" font-family="Times Roman,serif" font-size="14.00">OUT PP </text>
</g>
<!-- WedgeType:Prescribed -->
<g id="node31" class="node"><title>WedgeType:Prescribed</title>
<polygon fill="none" stroke="black" stroke-dasharray="5,2" points="803,-665 633,-665 633,-629 803,-629 803,-665"/>
<text text-anchor="middle" x="718" y="-642.9" font-family="Times Roman,serif" font-size="14.00">WedgeType:Prescribed</text>
</g>
<!-- WedgeType:Prescribed&#45;&gt;WedgeTypeNone:Calc -->
<g id="edge34" class="edge"><title>WedgeType:Prescribed&#45;&gt;WedgeTypeNone:Calc</title>
<path fill="none" stroke="black" stroke-dasharray="5,2" d="M730.671,-628.612C748.943,-602.898 784.622,-555.584 822,-522 879.408,-470.419 953.172,-422.667 1007.96,-390.12"/>
<polygon fill="black" stroke="black" points="1009.76,-393.126 1016.59,-385.029 1006.2,-387.098 1009.76,-393.126"/>
<text text-anchor="middle" x="883" y="-526.4" font-family="Times Roman,serif" font-size="14.00">INPA &#160;</text>
</g>
<!-- WedgeType:Prescribed&#45;&gt;WedgeType60:Calc -->
<g id="edge46" class="edge"><title>WedgeType:Prescribed&#45;&gt;WedgeType60:Calc</title>
<path fill="none" stroke="black" stroke-dasharray="5,2" d="M758.68,-628.949C777.558,-621.407 800.53,-613.391 822,-609 881.321,-596.867 949.643,-593.54 1001.78,-593.156"/>
<polygon fill="black" stroke="black" points="1002,-596.655 1011.99,-593.116 1001.97,-589.655 1002,-596.655"/>
<text text-anchor="middle" x="883" y="-613.4" font-family="Times Roman,serif" font-size="14.00">INPA &#160;</text>
</g>
<!-- WedgeType:Prescribed&#45;&gt;WedgeType45:Calc -->
<g id="edge42" class="edge"><title>WedgeType:Prescribed&#45;&gt;WedgeType45:Calc</title>
<path fill="none" stroke="black" stroke-dasharray="5,2" d="M729.884,-665.333C746.976,-689.97 780.995,-732.977 822,-753 877.768,-780.232 947.886,-787.081 1001.7,-787.475"/>
<polygon fill="black" stroke="black" points="1001.89,-790.975 1011.89,-787.474 1001.89,-783.975 1001.89,-790.975"/>
<text text-anchor="middle" x="883" y="-787.4" font-family="Times Roman,serif" font-size="14.00">INPA &#160;</text>
</g>
<!-- WedgeType:Prescribed&#45;&gt;WedgeType30:Calc -->
<g id="edge38" class="edge"><title>WedgeType:Prescribed&#45;&gt;WedgeType30:Calc</title>
<path fill="none" stroke="black" stroke-dasharray="5,2" d="M803.597,-663.293C809.814,-664.275 815.997,-665.191 822,-666 881.937,-674.078 949.96,-679.939 1001.81,-683.723"/>
<polygon fill="black" stroke="black" points="1001.73,-687.226 1011.96,-684.452 1002.23,-680.244 1001.73,-687.226"/>
<text text-anchor="middle" x="883" y="-682.4" font-family="Times Roman,serif" font-size="14.00">INPA &#160;</text>
</g>
<!-- WedgeType:Stop&#45;&gt;WedgeType:Timeout -->
<g id="edge52" class="edge"><title>WedgeType:Stop&#45;&gt;WedgeType:Timeout</title>
<path fill="none" stroke="black" d="M614.172,-54.3431C699.425,-74.1987 845.077,-108.121 951.857,-132.991"/>
<polygon fill="black" stroke="black" points="951.208,-136.433 961.741,-135.293 952.796,-129.616 951.208,-136.433"/>
<text text-anchor="middle" x="718" y="-103.4" font-family="Times Roman,serif" font-size="14.00">OUT PP VAL</text>
</g>
<!-- WedgeType:Disable&#45;&gt;WedgeType30:RequestEnabled -->
<g id="edge64" class="edge"><title>WedgeType:Disable&#45;&gt;WedgeType30:RequestEnabled</title>
<path fill="none" stroke="black" d="M1427.79,-325.11C1443.6,-355.008 1475.01,-410.647 1510,-452 1541.52,-489.25 1568.07,-482.476 1592,-525 1613.72,-563.594 1591.43,-582.795 1610,-623 1633.16,-673.158 1676.87,-720.804 1705.45,-748.71"/>
<polygon fill="black" stroke="black" points="1703.1,-751.298 1712.73,-755.706 1707.95,-746.252 1703.1,-751.298"/>
<text text-anchor="middle" x="1551" y="-529.4" font-family="Times Roman,serif" font-size="14.00">LNK2 PP , 0</text>
</g>
<!-- WedgeType:Disable&#45;&gt;WedgeTypeNone:RequestEnabled -->
<g id="edge58" class="edge"><title>WedgeType:Disable&#45;&gt;WedgeTypeNone:RequestEnabled</title>
<path fill="none" stroke="black" d="M1428.68,-282.6C1443.87,-256.953 1472.9,-214.725 1510,-193 1537.07,-177.146 1568.88,-167.092 1599.86,-160.763"/>
<polygon fill="black" stroke="black" points="1600.72,-164.161 1609.88,-158.836 1599.4,-157.287 1600.72,-164.161"/>
<text text-anchor="middle" x="1551" y="-197.4" font-family="Times Roman,serif" font-size="14.00">LNK1 PP , 0</text>
</g>
<!-- WedgeType:Disable&#45;&gt;WedgeType60:RequestEnabled -->
<g id="edge60" class="edge"><title>WedgeType:Disable&#45;&gt;WedgeType60:RequestEnabled</title>
<path fill="none" stroke="black" d="M1449.21,-325.096C1485.56,-349.564 1545.64,-392.064 1592,-435 1638.92,-478.454 1686.49,-536.255 1712.62,-569.468"/>
<polygon fill="black" stroke="black" points="1710.18,-572.031 1719.1,-577.755 1715.7,-567.72 1710.18,-572.031"/>
<text text-anchor="middle" x="1551" y="-439.4" font-family="Times Roman,serif" font-size="14.00">LNK4 PP , 0</text>
</g>
<!-- WedgeType:Disable&#45;&gt;WedgeType45:RequestEnabled -->
<g id="edge62" class="edge"><title>WedgeType:Disable&#45;&gt;WedgeType45:RequestEnabled</title>
<path fill="none" stroke="black" d="M1423.01,-325.058C1447.5,-409.781 1541.74,-724.831 1610,-801 1626.09,-818.958 1648.43,-832.661 1669.65,-842.69"/>
<polygon fill="black" stroke="black" points="1668.42,-845.976 1678.98,-846.903 1671.3,-839.597 1668.42,-845.976"/>
<text text-anchor="middle" x="1551" y="-778.4" font-family="Times Roman,serif" font-size="14.00">LNK3 PP , 0</text>
</g>
<!-- WedgeType:Disable&#45;&gt;0 -->
<g id="edge66" class="edge"><title>WedgeType:Disable&#45;&gt;0</title>
<path fill="none" stroke="black" d="M1433.96,-282.84C1450.87,-263.584 1478.78,-236.47 1510,-225 1544.21,-212.432 1558.67,-210.262 1592,-225 1651.35,-251.243 1696.45,-316.172 1718.34,-353.132"/>
<polygon fill="black" stroke="black" points="1715.37,-354.98 1723.4,-361.885 1721.43,-351.476 1715.37,-354.98"/>
<text text-anchor="middle" x="1551" y="-229.4" font-family="Times Roman,serif" font-size="14.00">DOL3 &#160;, 0</text>
</g>
<!-- WedgeType:Disable&#45;&gt;0 -->
<g id="edge68" class="edge"><title>WedgeType:Disable&#45;&gt;0</title>
<path fill="none" stroke="black" d="M1492.42,-321.441C1523.31,-328.643 1559.39,-337.133 1592,-345 1627.38,-353.534 1667.66,-363.566 1696.09,-370.697"/>
<polygon fill="black" stroke="black" points="1695.44,-374.143 1706,-373.185 1697.15,-367.354 1695.44,-374.143"/>
<text text-anchor="middle" x="1551" y="-349.4" font-family="Times Roman,serif" font-size="14.00">DOL2 &#160;, 0</text>
</g>
<!-- WedgeType:Disable&#45;&gt;0 -->
<g id="edge70" class="edge"><title>WedgeType:Disable&#45;&gt;0</title>
<path fill="none" stroke="black" d="M1492.08,-295.985C1523.4,-294.695 1559.89,-295.897 1592,-304 1631.9,-314.069 1672.79,-337.893 1700.19,-356.205"/>
<polygon fill="black" stroke="black" points="1698.36,-359.192 1708.59,-361.932 1702.3,-353.408 1698.36,-359.192"/>
<text text-anchor="middle" x="1551" y="-308.4" font-family="Times Roman,serif" font-size="14.00">DOL1 &#160;, 0</text>
</g>
<!-- WedgeType:Disable&#45;&gt;0 -->
<g id="edge72" class="edge"><title>WedgeType:Disable&#45;&gt;0</title>
<path fill="none" stroke="black" d="M1466.26,-282.942C1501.87,-270.731 1550.77,-260.232 1592,-274 1639.32,-289.805 1683.52,-328.423 1709.4,-354.418"/>
<polygon fill="black" stroke="black" points="1707.03,-356.997 1716.52,-361.712 1712.04,-352.11 1707.03,-356.997"/>
<text text-anchor="middle" x="1551" y="-278.4" font-family="Times Roman,serif" font-size="14.00">DOL4 &#160;, 0</text>
</g>
</g>
</svg>
