<?xml version="1.0" encoding="UTF-8" standalone="no"?>
<!DOCTYPE svg PUBLIC "-//W3C//DTD SVG 1.1//EN"
 "http://www.w3.org/Graphics/SVG/1.1/DTD/svg11.dtd">
<!-- Generated by graphviz version 2.26.3 (20100126.1600)
 -->
<!-- Title: filter_wedge_setup Pages: 1 -->
<svg width="782pt" height="732pt"
 viewBox="0.00 0.00 782.00 732.00" xmlns="http://www.w3.org/2000/svg" xmlns:xlink="http://www.w3.org/1999/xlink">
<g id="graph1" class="graph" transform="scale(1 1) rotate(0) translate(4 728)">
<title>filter_wedge_setup</title>
<polygon fill="white" stroke="white" points="-4,5 -4,-728 779,-728 779,5 -4,5"/>
<!-- Subsystem:AutoSetup -->
<g id="node1" class="node"><title>Subsystem:AutoSetup</title>
<polygon fill="none" stroke="black" points="208,-93 38,-93 38,-51 208,-51 208,-93"/>
<text text-anchor="middle" x="123" y="-76.4" font-family="Times Roman,serif" font-size="14.00">Subsystem:AutoSetup</text>
<text text-anchor="middle" x="123" y="-59.4" font-family="Times Roman,serif" font-size="14.00">fanout</text>
</g>
<!-- WedgeRot:AutoSetup -->
<g id="node3" class="node"><title>WedgeRot:AutoSetup</title>
<polygon fill="none" stroke="black" stroke-dasharray="5,2" points="521,-144 357,-144 357,-108 521,-108 521,-144"/>
<text text-anchor="middle" x="439" y="-121.9" font-family="Times Roman,serif" font-size="14.00">WedgeRot:AutoSetup</text>
</g>
<!-- Subsystem:AutoSetup&#45;&gt;WedgeRot:AutoSetup -->
<g id="edge2" class="edge"><title>Subsystem:AutoSetup&#45;&gt;WedgeRot:AutoSetup</title>
<path fill="none" stroke="black" stroke-dasharray="1,5" d="M208.098,-86.542C250.835,-93.8452 302.686,-102.706 346.418,-110.179"/>
<polygon fill="black" stroke="black" points="346.034,-113.664 356.481,-111.899 347.213,-106.764 346.034,-113.664"/>
<text text-anchor="middle" x="287" y="-108.4" font-family="Times Roman,serif" font-size="14.00">LNK1 &#160;</text>
</g>
<!-- FlatFilter:AutoSetup -->
<g id="node5" class="node"><title>FlatFilter:AutoSetup</title>
<polygon fill="none" stroke="black" stroke-dasharray="5,2" points="517,-90 361,-90 361,-54 517,-54 517,-90"/>
<text text-anchor="middle" x="439" y="-67.9" font-family="Times Roman,serif" font-size="14.00">FlatFilter:AutoSetup</text>
</g>
<!-- Subsystem:AutoSetup&#45;&gt;FlatFilter:AutoSetup -->
<g id="edge4" class="edge"><title>Subsystem:AutoSetup&#45;&gt;FlatFilter:AutoSetup</title>
<path fill="none" stroke="black" stroke-dasharray="1,5" d="M208.098,-72C252.192,-72 305.988,-72 350.557,-72"/>
<polygon fill="black" stroke="black" points="350.796,-75.5001 360.796,-72 350.796,-68.5001 350.796,-75.5001"/>
<text text-anchor="middle" x="287" y="-76.4" font-family="Times Roman,serif" font-size="14.00">LNK3 &#160;</text>
</g>
<!-- WedgeType:AutoSetup -->
<g id="node7" class="node"><title>WedgeType:AutoSetup</title>
<polygon fill="none" stroke="black" stroke-dasharray="5,2" points="525,-36 353,-36 353,-1.06581e-14 525,-0 525,-36"/>
<text text-anchor="middle" x="439" y="-13.9" font-family="Times Roman,serif" font-size="14.00">WedgeType:AutoSetup</text>
</g>
<!-- Subsystem:AutoSetup&#45;&gt;WedgeType:AutoSetup -->
<g id="edge6" class="edge"><title>Subsystem:AutoSetup&#45;&gt;WedgeType:AutoSetup</title>
<path fill="none" stroke="black" stroke-dasharray="1,5" d="M208.098,-57.458C249.563,-50.3721 299.608,-41.8202 342.492,-34.4919"/>
<polygon fill="black" stroke="black" points="343.108,-37.9375 352.375,-32.8029 341.929,-31.0375 343.108,-37.9375"/>
<text text-anchor="middle" x="287" y="-51.4" font-family="Times Roman,serif" font-size="14.00">LNK2 &#160;</text>
</g>
<!-- FWSetup:Calc -->
<g id="node8" class="node"><title>FWSetup:Calc</title>
<polygon fill="none" stroke="black" points="549,-474 329,-474 329,-398 549,-398 549,-474"/>
<text text-anchor="middle" x="439" y="-457.4" font-family="Times Roman,serif" font-size="14.00">FWSetup:Calc</text>
<text text-anchor="middle" x="439" y="-440.4" font-family="Times Roman,serif" font-size="14.00">calcout</text>
<text text-anchor="middle" x="439" y="-423.4" font-family="Times Roman,serif" font-size="14.00">!(A||B||C||D||E||F||G||H||I||J||K)</text>
<text text-anchor="middle" x="439" y="-406.4" font-family="Times Roman,serif" font-size="14.00">Every Time</text>
</g>
<!-- FWSetup:Status -->
<g id="node32" class="node"><title>FWSetup:Status</title>
<polygon fill="none" stroke="black" stroke-dasharray="5,2" points="774,-454 644,-454 644,-418 774,-418 774,-454"/>
<text text-anchor="middle" x="709" y="-431.9" font-family="Times Roman,serif" font-size="14.00">FWSetup:Status</text>
</g>
<!-- FWSetup:Calc&#45;&gt;FWSetup:Status -->
<g id="edge30" class="edge"><title>FWSetup:Calc&#45;&gt;FWSetup:Status</title>
<path fill="none" stroke="black" d="M549.598,-436C577.883,-436 607.646,-436 633.696,-436"/>
<polygon fill="black" stroke="black" points="633.861,-439.5 643.861,-436 633.861,-432.5 633.861,-439.5"/>
<text text-anchor="middle" x="597" y="-440.4" font-family="Times Roman,serif" font-size="14.00">OUT PP </text>
</g>
<!-- FlatFilterNone:RequestEnabled -->
<g id="node9" class="node"><title>FlatFilterNone:RequestEnabled</title>
<polygon fill="none" stroke="black" stroke-dasharray="5,2" points="237,-724 9,-724 9,-688 237,-688 237,-724"/>
<text text-anchor="middle" x="123" y="-701.9" font-family="Times Roman,serif" font-size="14.00">FlatFilterNone:RequestEnabled</text>
</g>
<!-- FlatFilterNone:RequestEnabled&#45;&gt;FWSetup:Calc -->
<g id="edge8" class="edge"><title>FlatFilterNone:RequestEnabled&#45;&gt;FWSetup:Calc</title>
<path fill="none" stroke="black" stroke-dasharray="5,2" d="M221.405,-687.911C229.853,-685.307 238.159,-682.35 246,-679 277.512,-665.534 285.997,-660.457 310,-636 354.987,-590.161 392.903,-526.251 415.749,-483.115"/>
<polygon fill="black" stroke="black" points="418.858,-484.723 420.392,-474.24 412.655,-481.478 418.858,-484.723"/>
<text text-anchor="middle" x="287" y="-674.4" font-family="Times Roman,serif" font-size="14.00">INPI &#160;</text>
</g>
<!-- WedgeRot270:RequestEnabled -->
<g id="node11" class="node"><title>WedgeRot270:RequestEnabled</title>
<polygon fill="none" stroke="black" stroke-dasharray="5,2" points="237,-670 9,-670 9,-634 237,-634 237,-670"/>
<text text-anchor="middle" x="123" y="-647.9" font-family="Times Roman,serif" font-size="14.00">WedgeRot270:RequestEnabled</text>
</g>
<!-- WedgeRot270:RequestEnabled&#45;&gt;FWSetup:Calc -->
<g id="edge10" class="edge"><title>WedgeRot270:RequestEnabled&#45;&gt;FWSetup:Calc</title>
<path fill="none" stroke="black" stroke-dasharray="5,2" d="M221.768,-633.9C230.096,-631.301 238.278,-628.349 246,-625 315.263,-594.963 373.734,-527.967 407.598,-482.371"/>
<polygon fill="black" stroke="black" points="410.554,-484.258 413.631,-474.12 404.903,-480.126 410.554,-484.258"/>
<text text-anchor="middle" x="287" y="-619.4" font-family="Times Roman,serif" font-size="14.00">INPH &#160;</text>
</g>
<!-- FlatFilterLarge:RequestEnabled -->
<g id="node13" class="node"><title>FlatFilterLarge:RequestEnabled</title>
<polygon fill="none" stroke="black" stroke-dasharray="5,2" points="239,-616 7,-616 7,-580 239,-580 239,-616"/>
<text text-anchor="middle" x="123" y="-593.9" font-family="Times Roman,serif" font-size="14.00">FlatFilterLarge:RequestEnabled</text>
</g>
<!-- FlatFilterLarge:RequestEnabled&#45;&gt;FWSetup:Calc -->
<g id="edge12" class="edge"><title>FlatFilterLarge:RequestEnabled&#45;&gt;FWSetup:Calc</title>
<path fill="none" stroke="black" stroke-dasharray="5,2" d="M220.676,-579.923C229.364,-577.31 237.921,-574.348 246,-571 298.678,-549.167 351.235,-511.06 388.172,-480.889"/>
<polygon fill="black" stroke="black" points="390.799,-483.258 396.277,-474.19 386.339,-477.862 390.799,-483.258"/>
<text text-anchor="middle" x="287" y="-564.4" font-family="Times Roman,serif" font-size="14.00">INPK &#160;</text>
</g>
<!-- FlatFilterSmall:RequestEnabled -->
<g id="node15" class="node"><title>FlatFilterSmall:RequestEnabled</title>
<polygon fill="none" stroke="black" stroke-dasharray="5,2" points="238,-562 8,-562 8,-526 238,-526 238,-562"/>
<text text-anchor="middle" x="123" y="-539.9" font-family="Times Roman,serif" font-size="14.00">FlatFilterSmall:RequestEnabled</text>
</g>
<!-- FlatFilterSmall:RequestEnabled&#45;&gt;FWSetup:Calc -->
<g id="edge14" class="edge"><title>FlatFilterSmall:RequestEnabled&#45;&gt;FWSetup:Calc</title>
<path fill="none" stroke="black" stroke-dasharray="5,2" d="M214.174,-525.933C224.978,-523.22 235.787,-520.235 246,-517 280.052,-506.215 316.409,-491.77 348.28,-478.066"/>
<polygon fill="black" stroke="black" points="349.798,-481.223 357.581,-474.033 347.014,-474.8 349.798,-481.223"/>
<text text-anchor="middle" x="287" y="-513.4" font-family="Times Roman,serif" font-size="14.00">INPJ &#160;</text>
</g>
<!-- WedgeType45:RequestEnabled -->
<g id="node17" class="node"><title>WedgeType45:RequestEnabled</title>
<polygon fill="none" stroke="black" stroke-dasharray="5,2" points="237,-508 9,-508 9,-472 237,-472 237,-508"/>
<text text-anchor="middle" x="123" y="-485.9" font-family="Times Roman,serif" font-size="14.00">WedgeType45:RequestEnabled</text>
</g>
<!-- WedgeType45:RequestEnabled&#45;&gt;FWSetup:Calc -->
<g id="edge16" class="edge"><title>WedgeType45:RequestEnabled&#45;&gt;FWSetup:Calc</title>
<path fill="none" stroke="black" stroke-dasharray="5,2" d="M228.663,-471.944C257.437,-467.027 288.821,-461.663 318.358,-456.616"/>
<polygon fill="black" stroke="black" points="319.03,-460.052 328.298,-454.917 317.851,-453.152 319.03,-460.052"/>
<text text-anchor="middle" x="287" y="-468.4" font-family="Times Roman,serif" font-size="14.00">INPC &#160;</text>
</g>
<!-- WedgeType30:RequestEnabled -->
<g id="node19" class="node"><title>WedgeType30:RequestEnabled</title>
<polygon fill="none" stroke="black" stroke-dasharray="5,2" points="237,-454 9,-454 9,-418 237,-418 237,-454"/>
<text text-anchor="middle" x="123" y="-431.9" font-family="Times Roman,serif" font-size="14.00">WedgeType30:RequestEnabled</text>
</g>
<!-- WedgeType30:RequestEnabled&#45;&gt;FWSetup:Calc -->
<g id="edge18" class="edge"><title>WedgeType30:RequestEnabled&#45;&gt;FWSetup:Calc</title>
<path fill="none" stroke="black" stroke-dasharray="5,2" d="M237.083,-436C263.419,-436 291.523,-436 318.136,-436"/>
<polygon fill="black" stroke="black" points="318.257,-439.5 328.257,-436 318.257,-432.5 318.257,-439.5"/>
<text text-anchor="middle" x="287" y="-440.4" font-family="Times Roman,serif" font-size="14.00">INPB &#160;</text>
</g>
<!-- WedgeRot0:RequestEnabled -->
<g id="node21" class="node"><title>WedgeRot0:RequestEnabled</title>
<polygon fill="none" stroke="black" stroke-dasharray="5,2" points="228,-400 18,-400 18,-364 228,-364 228,-400"/>
<text text-anchor="middle" x="123" y="-377.9" font-family="Times Roman,serif" font-size="14.00">WedgeRot0:RequestEnabled</text>
</g>
<!-- WedgeRot0:RequestEnabled&#45;&gt;FWSetup:Calc -->
<g id="edge20" class="edge"><title>WedgeRot0:RequestEnabled&#45;&gt;FWSetup:Calc</title>
<path fill="none" stroke="black" stroke-dasharray="5,2" d="M228.663,-400.056C257.437,-404.973 288.821,-410.337 318.358,-415.384"/>
<polygon fill="black" stroke="black" points="317.851,-418.848 328.298,-417.083 319.03,-411.948 317.851,-418.848"/>
<text text-anchor="middle" x="287" y="-417.4" font-family="Times Roman,serif" font-size="14.00">INPE &#160;</text>
</g>
<!-- WedgeType60:RequestEnabled -->
<g id="node23" class="node"><title>WedgeType60:RequestEnabled</title>
<polygon fill="none" stroke="black" stroke-dasharray="5,2" points="237,-346 9,-346 9,-310 237,-310 237,-346"/>
<text text-anchor="middle" x="123" y="-323.9" font-family="Times Roman,serif" font-size="14.00">WedgeType60:RequestEnabled</text>
</g>
<!-- WedgeType60:RequestEnabled&#45;&gt;FWSetup:Calc -->
<g id="edge22" class="edge"><title>WedgeType60:RequestEnabled&#45;&gt;FWSetup:Calc</title>
<path fill="none" stroke="black" stroke-dasharray="5,2" d="M214.174,-346.067C224.978,-348.78 235.787,-351.765 246,-355 280.052,-365.785 316.409,-380.23 348.28,-393.934"/>
<polygon fill="black" stroke="black" points="347.014,-397.2 357.581,-397.967 349.798,-390.777 347.014,-397.2"/>
<text text-anchor="middle" x="287" y="-380.4" font-family="Times Roman,serif" font-size="14.00">INPD &#160;</text>
</g>
<!-- WedgeRot180:RequestEnabled -->
<g id="node25" class="node"><title>WedgeRot180:RequestEnabled</title>
<polygon fill="none" stroke="black" stroke-dasharray="5,2" points="237,-292 9,-292 9,-256 237,-256 237,-292"/>
<text text-anchor="middle" x="123" y="-269.9" font-family="Times Roman,serif" font-size="14.00">WedgeRot180:RequestEnabled</text>
</g>
<!-- WedgeRot180:RequestEnabled&#45;&gt;FWSetup:Calc -->
<g id="edge24" class="edge"><title>WedgeRot180:RequestEnabled&#45;&gt;FWSetup:Calc</title>
<path fill="none" stroke="black" stroke-dasharray="5,2" d="M220.31,-292.076C229.119,-294.693 237.802,-297.655 246,-301 298.975,-322.611 351.695,-360.926 388.615,-391.231"/>
<polygon fill="black" stroke="black" points="386.786,-394.261 396.714,-397.958 391.258,-388.876 386.786,-394.261"/>
<text text-anchor="middle" x="287" y="-337.4" font-family="Times Roman,serif" font-size="14.00">INPG &#160;</text>
</g>
<!-- WedgeRot90:RequestEnabled -->
<g id="node27" class="node"><title>WedgeRot90:RequestEnabled</title>
<polygon fill="none" stroke="black" stroke-dasharray="5,2" points="233,-238 13,-238 13,-202 233,-202 233,-238"/>
<text text-anchor="middle" x="123" y="-215.9" font-family="Times Roman,serif" font-size="14.00">WedgeRot90:RequestEnabled</text>
</g>
<!-- WedgeRot90:RequestEnabled&#45;&gt;FWSetup:Calc -->
<g id="edge26" class="edge"><title>WedgeRot90:RequestEnabled&#45;&gt;FWSetup:Calc</title>
<path fill="none" stroke="black" stroke-dasharray="5,2" d="M221.405,-238.089C229.853,-240.693 238.159,-243.65 246,-247 315.423,-276.666 373.853,-343.758 407.663,-389.476"/>
<polygon fill="black" stroke="black" points="404.972,-391.726 413.687,-397.75 410.631,-387.606 404.972,-391.726"/>
<text text-anchor="middle" x="287" y="-289.4" font-family="Times Roman,serif" font-size="14.00">INPF &#160;</text>
</g>
<!-- WedgeTypeNone:RequestEnabled -->
<g id="node29" class="node"><title>WedgeTypeNone:RequestEnabled</title>
<polygon fill="none" stroke="black" stroke-dasharray="5,2" points="246,-184 5.68434e-14,-184 0,-148 246,-148 246,-184"/>
<text text-anchor="middle" x="123" y="-161.9" font-family="Times Roman,serif" font-size="14.00">WedgeTypeNone:RequestEnabled</text>
</g>
<!-- WedgeTypeNone:RequestEnabled&#45;&gt;FWSetup:Calc -->
<g id="edge28" class="edge"><title>WedgeTypeNone:RequestEnabled&#45;&gt;FWSetup:Calc</title>
<path fill="none" stroke="black" stroke-dasharray="5,2" d="M221.405,-184.089C229.853,-186.693 238.159,-189.65 246,-193 277.512,-206.466 285.997,-211.543 310,-236 354.987,-281.839 392.903,-345.749 415.749,-388.885"/>
<polygon fill="black" stroke="black" points="412.655,-390.522 420.392,-397.76 418.858,-387.277 412.655,-390.522"/>
<text text-anchor="middle" x="287" y="-240.4" font-family="Times Roman,serif" font-size="14.00">INPA &#160;</text>
</g>
</g>
</svg>
