<?xml version="1.0" encoding="UTF-8" standalone="no"?>
<!DOCTYPE svg PUBLIC "-//W3C//DTD SVG 1.1//EN"
 "http://www.w3.org/Graphics/SVG/1.1/DTD/svg11.dtd">
<!-- Generated by graphviz version 2.26.3 (20100126.1600)
 -->
<!-- Title: filter_wedge_subs Pages: 1 -->
<svg width="1682pt" height="652pt"
 viewBox="0.00 0.00 1682.00 652.00" xmlns="http://www.w3.org/2000/svg" xmlns:xlink="http://www.w3.org/1999/xlink">
<g id="graph1" class="graph" transform="scale(1 1) rotate(0) translate(4 648)">
<title>filter_wedge_subs</title>
<polygon fill="white" stroke="white" points="-4,5 -4,-648 1679,-648 1679,5 -4,5"/>
<!-- WedgeType:Encode -->
<g id="node1" class="node"><title>WedgeType:Encode</title>
<polygon fill="none" stroke="black" points="430,-107.5 280,-107.5 280,-48.5 430,-48.5 430,-107.5"/>
<text text-anchor="middle" x="355" y="-90.9" font-family="Times Roman,serif" font-size="14.00">WedgeType:Encode</text>
<text text-anchor="middle" x="355" y="-73.9" font-family="Times Roman,serif" font-size="14.00">calc</text>
<text text-anchor="middle" x="355" y="-56.9" font-family="Times Roman,serif" font-size="14.00">A?0:B?1:C?2:D?3:4</text>
</g>
<!-- WedgeType:Actual -->
<g id="node11" class="node"><title>WedgeType:Actual</title>
<polygon fill="none" stroke="black" points="669,-100 527,-100 527,-58 669,-58 669,-100"/>
<text text-anchor="middle" x="598" y="-83.4" font-family="Times Roman,serif" font-size="14.00">WedgeType:Actual</text>
<text text-anchor="middle" x="598" y="-66.4" font-family="Times Roman,serif" font-size="14.00">mbbo</text>
</g>
<!-- WedgeType:Encode&#45;&gt;WedgeType:Actual -->
<g id="edge10" class="edge"><title>WedgeType:Encode&#45;&gt;WedgeType:Actual</title>
<path fill="none" stroke="black" stroke-dasharray="1,5" d="M430.25,-91.1826C436.242,-91.9127 442.213,-92.5363 448,-93 470.157,-94.7753 494.133,-93.8291 516.28,-91.7726"/>
<polygon fill="black" stroke="black" points="516.717,-95.2463 526.313,-90.7554 516.011,-88.282 516.717,-95.2463"/>
<text text-anchor="middle" x="471" y="-97.4" font-family="Times Roman,serif" font-size="14.00">FLNK &#160;</text>
</g>
<!-- WedgeType:Encode&#45;&gt;WedgeType:Actual -->
<g id="edge14" class="edge"><title>WedgeType:Encode&#45;&gt;WedgeType:Actual</title>
<path fill="none" stroke="black" stroke-dasharray="5,2" d="M430.102,-72.7382C436.155,-72.4411 442.178,-72.1876 448,-72 468.434,-71.3415 473.567,-71.3131 494,-72 501.212,-72.2424 508.7,-72.5792 516.204,-72.975"/>
<polygon fill="black" stroke="black" points="516.241,-76.4825 526.422,-73.548 516.633,-69.4934 516.241,-76.4825"/>
<text text-anchor="middle" x="471" y="-76.4" font-family="Times Roman,serif" font-size="14.00">DOL &#160;</text>
</g>
<!-- WedgeType45:Achieved -->
<g id="node2" class="node"><title>WedgeType45:Achieved</title>
<polygon fill="none" stroke="black" stroke-dasharray="5,2" points="189,-198 9,-198 9,-162 189,-162 189,-198"/>
<text text-anchor="middle" x="99" y="-175.9" font-family="Times Roman,serif" font-size="14.00">WedgeType45:Achieved</text>
</g>
<!-- WedgeType45:Achieved&#45;&gt;WedgeType:Encode -->
<g id="edge2" class="edge"><title>WedgeType45:Achieved&#45;&gt;WedgeType:Encode</title>
<path fill="none" stroke="black" stroke-dasharray="5,2" d="M169.965,-162C179.457,-159.198 189.012,-156.173 198,-153 230,-141.704 264.149,-125.879 292.399,-111.676"/>
<polygon fill="black" stroke="black" points="294.022,-114.777 301.353,-107.129 290.852,-108.536 294.022,-114.777"/>
<text text-anchor="middle" x="239" y="-148.4" font-family="Times Roman,serif" font-size="14.00">INPC &#160;</text>
</g>
<!-- WedgeType30:Achieved -->
<g id="node4" class="node"><title>WedgeType30:Achieved</title>
<polygon fill="none" stroke="black" stroke-dasharray="5,2" points="189,-144 9,-144 9,-108 189,-108 189,-144"/>
<text text-anchor="middle" x="99" y="-121.9" font-family="Times Roman,serif" font-size="14.00">WedgeType30:Achieved</text>
</g>
<!-- WedgeType30:Achieved&#45;&gt;WedgeType:Encode -->
<g id="edge4" class="edge"><title>WedgeType30:Achieved&#45;&gt;WedgeType:Encode</title>
<path fill="none" stroke="black" stroke-dasharray="5,2" d="M189.13,-109.564C212.842,-105.199 238.391,-100.457 262,-96 264.636,-95.5023 267.314,-94.995 270.017,-94.4812"/>
<polygon fill="black" stroke="black" points="270.722,-97.91 279.889,-92.5988 269.411,-91.0339 270.722,-97.91"/>
<text text-anchor="middle" x="239" y="-108.4" font-family="Times Roman,serif" font-size="14.00">INPB &#160;</text>
</g>
<!-- WedgeType60:Achieved -->
<g id="node6" class="node"><title>WedgeType60:Achieved</title>
<polygon fill="none" stroke="black" stroke-dasharray="5,2" points="189,-90 9,-90 9,-54 189,-54 189,-90"/>
<text text-anchor="middle" x="99" y="-67.9" font-family="Times Roman,serif" font-size="14.00">WedgeType60:Achieved</text>
</g>
<!-- WedgeType60:Achieved&#45;&gt;WedgeType:Encode -->
<g id="edge6" class="edge"><title>WedgeType60:Achieved&#45;&gt;WedgeType:Encode</title>
<path fill="none" stroke="black" stroke-dasharray="5,2" d="M189.256,-74.1154C215.435,-74.729 243.928,-75.3967 269.787,-76.0028"/>
<polygon fill="black" stroke="black" points="269.855,-79.5053 279.935,-76.2407 270.02,-72.5072 269.855,-79.5053"/>
<text text-anchor="middle" x="239" y="-79.4" font-family="Times Roman,serif" font-size="14.00">INPD &#160;</text>
</g>
<!-- WedgeTypeNone:Achieved -->
<g id="node8" class="node"><title>WedgeTypeNone:Achieved</title>
<polygon fill="none" stroke="black" stroke-dasharray="5,2" points="198,-36 4.26326e-14,-36 0,-1.06581e-14 198,-0 198,-36"/>
<text text-anchor="middle" x="99" y="-13.9" font-family="Times Roman,serif" font-size="14.00">WedgeTypeNone:Achieved</text>
</g>
<!-- WedgeTypeNone:Achieved&#45;&gt;WedgeType:Encode -->
<g id="edge8" class="edge"><title>WedgeTypeNone:Achieved&#45;&gt;WedgeType:Encode</title>
<path fill="none" stroke="black" stroke-dasharray="5,2" d="M187.165,-36.0707C211.47,-41.2863 237.805,-47.1543 262,-53 264.651,-53.6405 267.342,-54.3009 270.057,-54.976"/>
<polygon fill="black" stroke="black" points="269.41,-58.4225 279.962,-57.4758 271.123,-51.6353 269.41,-58.4225"/>
<text text-anchor="middle" x="239" y="-57.4" font-family="Times Roman,serif" font-size="14.00">INPA &#160;</text>
</g>
<!-- WedgeType:Calc -->
<g id="node14" class="node"><title>WedgeType:Calc</title>
<polygon fill="none" stroke="black" points="910,-141.5 782,-141.5 782,-82.5 910,-82.5 910,-141.5"/>
<text text-anchor="middle" x="846" y="-124.9" font-family="Times Roman,serif" font-size="14.00">WedgeType:Calc</text>
<text text-anchor="middle" x="846" y="-107.9" font-family="Times Roman,serif" font-size="14.00">calc</text>
<text text-anchor="middle" x="846" y="-90.9" font-family="Times Roman,serif" font-size="14.00">(A=B)?2:0</text>
</g>
<!-- WedgeType:Actual&#45;&gt;WedgeType:Calc -->
<g id="edge16" class="edge"><title>WedgeType:Actual&#45;&gt;WedgeType:Calc</title>
<path fill="none" stroke="black" stroke-dasharray="1,5" d="M669.732,-88.545C701.616,-92.7876 739.143,-97.7811 771.358,-102.068"/>
<polygon fill="black" stroke="black" points="771.243,-105.583 781.617,-103.433 772.166,-98.6444 771.243,-105.583"/>
<text text-anchor="middle" x="725" y="-102.4" font-family="Times Roman,serif" font-size="14.00">FLNK &#160;</text>
</g>
<!-- WedgeType:Actual&#45;&gt;WedgeType:Calc -->
<g id="edge18" class="edge"><title>WedgeType:Actual&#45;&gt;WedgeType:Calc</title>
<path fill="none" stroke="black" stroke-dasharray="5,2" d="M669.855,-68.6968C694.787,-66.9522 722.802,-67.0555 748,-72 757.168,-73.7989 766.559,-76.4609 775.724,-79.5722"/>
<polygon fill="black" stroke="black" points="774.579,-82.8799 785.174,-82.9599 776.942,-76.2905 774.579,-82.8799"/>
<text text-anchor="middle" x="725" y="-76.4" font-family="Times Roman,serif" font-size="14.00">INPB &#160;</text>
</g>
<!-- WedgeType:Prescribed -->
<g id="node12" class="node"><title>WedgeType:Prescribed</title>
<polygon fill="none" stroke="black" points="683,-192 513,-192 513,-150 683,-150 683,-192"/>
<text text-anchor="middle" x="598" y="-175.4" font-family="Times Roman,serif" font-size="14.00">WedgeType:Prescribed</text>
<text text-anchor="middle" x="598" y="-158.4" font-family="Times Roman,serif" font-size="14.00">mbbo</text>
</g>
<!-- WedgeType:Prescribed&#45;&gt;WedgeType:Calc -->
<g id="edge12" class="edge"><title>WedgeType:Prescribed&#45;&gt;WedgeType:Calc</title>
<path fill="none" stroke="black" stroke-dasharray="1,5" d="M683.557,-177.373C704.909,-176.923 727.544,-174.663 748,-169 765.284,-164.215 782.679,-155.616 797.917,-146.523"/>
<polygon fill="black" stroke="black" points="799.96,-149.375 806.623,-141.137 796.277,-143.422 799.96,-149.375"/>
<text text-anchor="middle" x="725" y="-180.4" font-family="Times Roman,serif" font-size="14.00">FLNK &#160;</text>
</g>
<!-- WedgeType:Prescribed&#45;&gt;WedgeType:Calc -->
<g id="edge20" class="edge"><title>WedgeType:Prescribed&#45;&gt;WedgeType:Calc</title>
<path fill="none" stroke="black" stroke-dasharray="5,2" d="M683.695,-150.613C712.374,-143.79 744.085,-136.246 771.811,-129.65"/>
<polygon fill="black" stroke="black" points="772.914,-132.985 781.833,-127.266 771.294,-126.175 772.914,-132.985"/>
<text text-anchor="middle" x="725" y="-149.4" font-family="Times Roman,serif" font-size="14.00">INPA &#160;</text>
</g>
<!-- WedgeType:CalcOverride -->
<g id="node20" class="node"><title>WedgeType:CalcOverride</title>
<polygon fill="none" stroke="black" points="1196,-210.5 1008,-210.5 1008,-151.5 1196,-151.5 1196,-210.5"/>
<text text-anchor="middle" x="1102" y="-193.9" font-family="Times Roman,serif" font-size="14.00">WedgeType:CalcOverride</text>
<text text-anchor="middle" x="1102" y="-176.9" font-family="Times Roman,serif" font-size="14.00">calc</text>
<text text-anchor="middle" x="1102" y="-159.9" font-family="Times Roman,serif" font-size="14.00">B?1:A</text>
</g>
<!-- WedgeType:Calc&#45;&gt;WedgeType:CalcOverride -->
<g id="edge22" class="edge"><title>WedgeType:Calc&#45;&gt;WedgeType:CalcOverride</title>
<path fill="none" stroke="black" stroke-dasharray="1,5" d="M910.269,-129.323C936.75,-136.46 968.116,-144.914 997.726,-152.895"/>
<polygon fill="black" stroke="black" points="997.125,-156.358 1007.69,-155.581 998.947,-149.599 997.125,-156.358"/>
<text text-anchor="middle" x="967" y="-154.4" font-family="Times Roman,serif" font-size="14.00">FLNK &#160;</text>
</g>
<!-- WedgeType:Calc&#45;&gt;WedgeType:CalcOverride -->
<g id="edge28" class="edge"><title>WedgeType:Calc&#45;&gt;WedgeType:CalcOverride</title>
<path fill="none" stroke="black" stroke-dasharray="5,2" d="M910.096,-108.918C935.406,-109.295 964.481,-111.742 990,-119 1011.41,-125.088 1033.2,-135.9 1051.81,-146.809"/>
<polygon fill="black" stroke="black" points="1050.02,-149.819 1060.4,-151.981 1053.64,-143.823 1050.02,-149.819"/>
<text text-anchor="middle" x="967" y="-123.4" font-family="Times Roman,serif" font-size="14.00">INPA &#160;</text>
</g>
<!-- WedgeType:Readiness -->
<g id="node26" class="node"><title>WedgeType:Readiness</title>
<polygon fill="none" stroke="black" points="1446,-242 1278,-242 1278,-200 1446,-200 1446,-242"/>
<text text-anchor="middle" x="1362" y="-225.4" font-family="Times Roman,serif" font-size="14.00">WedgeType:Readiness</text>
<text text-anchor="middle" x="1362" y="-208.4" font-family="Times Roman,serif" font-size="14.00">mbbo</text>
</g>
<!-- WedgeType:CalcOverride&#45;&gt;WedgeType:Readiness -->
<g id="edge30" class="edge"><title>WedgeType:CalcOverride&#45;&gt;WedgeType:Readiness</title>
<path fill="none" stroke="black" stroke-dasharray="1,5" d="M1196.09,-196.205C1202.15,-197.158 1208.16,-198.097 1214,-199 1231.28,-201.672 1249.69,-204.459 1267.46,-207.117"/>
<polygon fill="black" stroke="black" points="1267.43,-210.651 1277.84,-208.665 1268.46,-203.727 1267.43,-210.651"/>
<text text-anchor="middle" x="1237" y="-209.4" font-family="Times Roman,serif" font-size="14.00">FLNK &#160;</text>
</g>
<!-- WedgeType:CalcOverride&#45;&gt;WedgeType:Readiness -->
<g id="edge32" class="edge"><title>WedgeType:CalcOverride&#45;&gt;WedgeType:Readiness</title>
<path fill="none" stroke="black" stroke-dasharray="5,2" d="M1196.18,-172.508C1217.33,-172.454 1239.56,-173.868 1260,-178 1277.95,-181.629 1296.67,-188.515 1313.1,-195.73"/>
<polygon fill="black" stroke="black" points="1311.93,-199.044 1322.49,-199.994 1314.83,-192.671 1311.93,-199.044"/>
<text text-anchor="middle" x="1237" y="-182.4" font-family="Times Roman,serif" font-size="14.00">DOL &#160;</text>
</g>
<!-- WedgeType:Override -->
<g id="node21" class="node"><title>WedgeType:Override</title>
<polygon fill="none" stroke="black" points="926,-215 766,-215 766,-173 926,-173 926,-215"/>
<text text-anchor="middle" x="846" y="-198.4" font-family="Times Roman,serif" font-size="14.00">WedgeType:Override</text>
<text text-anchor="middle" x="846" y="-181.4" font-family="Times Roman,serif" font-size="14.00">bo</text>
</g>
<!-- WedgeType:Override&#45;&gt;WedgeType:CalcOverride -->
<g id="edge24" class="edge"><title>WedgeType:Override&#45;&gt;WedgeType:CalcOverride</title>
<path fill="none" stroke="black" stroke-dasharray="1,5" d="M926.21,-198.426C932.229,-198.656 938.21,-198.852 944,-199 964.438,-199.521 969.62,-200.627 990,-199 992.534,-198.798 995.097,-198.57 997.679,-198.32"/>
<polygon fill="black" stroke="black" points="998.146,-201.79 1007.72,-197.252 997.405,-194.83 998.146,-201.79"/>
<text text-anchor="middle" x="967" y="-203.4" font-family="Times Roman,serif" font-size="14.00">FLNK &#160;</text>
</g>
<!-- WedgeType:Override&#45;&gt;WedgeType:CalcOverride -->
<g id="edge26" class="edge"><title>WedgeType:Override&#45;&gt;WedgeType:CalcOverride</title>
<path fill="none" stroke="black" stroke-dasharray="5,2" d="M926.093,-179.841C932.139,-179.104 938.158,-178.474 944,-178 961.339,-176.594 979.783,-176.068 997.719,-176.073"/>
<polygon fill="black" stroke="black" points="997.894,-179.574 1007.91,-176.132 997.934,-172.575 997.894,-179.574"/>
<text text-anchor="middle" x="967" y="-182.4" font-family="Times Roman,serif" font-size="14.00">INPB &#160;</text>
</g>
<!-- Settings:Readiness -->
<g id="node29" class="node"><title>Settings:Readiness</title>
<polygon fill="none" stroke="black" stroke-dasharray="5,2" points="1674,-314 1528,-314 1528,-278 1674,-278 1674,-314"/>
<text text-anchor="middle" x="1601" y="-291.9" font-family="Times Roman,serif" font-size="14.00">Settings:Readiness</text>
</g>
<!-- WedgeType:Readiness&#45;&gt;Settings:Readiness -->
<g id="edge34" class="edge"><title>WedgeType:Readiness&#45;&gt;Settings:Readiness</title>
<path fill="none" stroke="black" stroke-dasharray="1,5" d="M1429.21,-242.091C1461.87,-252.339 1501.01,-264.624 1533.69,-274.876"/>
<polygon fill="black" stroke="black" points="1533.01,-278.334 1543.6,-277.988 1535.11,-271.655 1533.01,-278.334"/>
<text text-anchor="middle" x="1487" y="-271.4" font-family="Times Roman,serif" font-size="14.00">FLNK &#160;</text>
</g>
<!-- WedgeRot:Encode -->
<g id="node30" class="node"><title>WedgeRot:Encode</title>
<polygon fill="none" stroke="black" points="430,-551.5 280,-551.5 280,-492.5 430,-492.5 430,-551.5"/>
<text text-anchor="middle" x="355" y="-534.9" font-family="Times Roman,serif" font-size="14.00">WedgeRot:Encode</text>
<text text-anchor="middle" x="355" y="-517.9" font-family="Times Roman,serif" font-size="14.00">calc</text>
<text text-anchor="middle" x="355" y="-500.9" font-family="Times Roman,serif" font-size="14.00">A?0:B?1:C?2:D?3:4</text>
</g>
<!-- WedgeRot:Actual -->
<g id="node40" class="node"><title>WedgeRot:Actual</title>
<polygon fill="none" stroke="black" points="665,-542 531,-542 531,-500 665,-500 665,-542"/>
<text text-anchor="middle" x="598" y="-525.4" font-family="Times Roman,serif" font-size="14.00">WedgeRot:Actual</text>
<text text-anchor="middle" x="598" y="-508.4" font-family="Times Roman,serif" font-size="14.00">mbbo</text>
</g>
<!-- WedgeRot:Encode&#45;&gt;WedgeRot:Actual -->
<g id="edge44" class="edge"><title>WedgeRot:Encode&#45;&gt;WedgeRot:Actual</title>
<path fill="none" stroke="black" stroke-dasharray="1,5" d="M430.223,-521.69C458.776,-521.573 491.338,-521.439 520.131,-521.32"/>
<polygon fill="black" stroke="black" points="520.16,-524.82 530.145,-521.279 520.131,-517.821 520.16,-524.82"/>
<text text-anchor="middle" x="471" y="-525.4" font-family="Times Roman,serif" font-size="14.00">FLNK &#160;</text>
</g>
<!-- WedgeRot:Encode&#45;&gt;WedgeRot:Actual -->
<g id="edge48" class="edge"><title>WedgeRot:Encode&#45;&gt;WedgeRot:Actual</title>
<path fill="none" stroke="black" stroke-dasharray="5,2" d="M430.11,-502.671C436.134,-501.599 442.15,-500.683 448,-500 471.434,-497.266 496.867,-499.028 520.02,-502.47"/>
<polygon fill="black" stroke="black" points="519.705,-505.965 530.134,-504.1 520.818,-499.054 519.705,-505.965"/>
<text text-anchor="middle" x="471" y="-504.4" font-family="Times Roman,serif" font-size="14.00">DOL &#160;</text>
</g>
<!-- WedgeRot180:Achieved -->
<g id="node31" class="node"><title>WedgeRot180:Achieved</title>
<polygon fill="none" stroke="black" stroke-dasharray="5,2" points="189,-644 9,-644 9,-608 189,-608 189,-644"/>
<text text-anchor="middle" x="99" y="-621.9" font-family="Times Roman,serif" font-size="14.00">WedgeRot180:Achieved</text>
</g>
<!-- WedgeRot180:Achieved&#45;&gt;WedgeRot:Encode -->
<g id="edge36" class="edge"><title>WedgeRot180:Achieved&#45;&gt;WedgeRot:Encode</title>
<path fill="none" stroke="black" stroke-dasharray="5,2" d="M170.536,-607.951C179.847,-605.176 189.201,-602.171 198,-599 230.601,-587.253 265.344,-570.673 293.836,-555.905"/>
<polygon fill="black" stroke="black" points="295.62,-558.921 302.856,-551.182 292.374,-552.72 295.62,-558.921"/>
<text text-anchor="middle" x="239" y="-594.4" font-family="Times Roman,serif" font-size="14.00">INPC &#160;</text>
</g>
<!-- WedgeRot90:Achieved -->
<g id="node33" class="node"><title>WedgeRot90:Achieved</title>
<polygon fill="none" stroke="black" stroke-dasharray="5,2" points="185,-590 13,-590 13,-554 185,-554 185,-590"/>
<text text-anchor="middle" x="99" y="-567.9" font-family="Times Roman,serif" font-size="14.00">WedgeRot90:Achieved</text>
</g>
<!-- WedgeRot90:Achieved&#45;&gt;WedgeRot:Encode -->
<g id="edge38" class="edge"><title>WedgeRot90:Achieved&#45;&gt;WedgeRot:Encode</title>
<path fill="none" stroke="black" stroke-dasharray="5,2" d="M185.328,-555.808C210.097,-551.101 237.13,-545.905 262,-541 264.637,-540.48 267.316,-539.949 270.021,-539.41"/>
<polygon fill="black" stroke="black" points="270.777,-542.829 279.896,-537.435 269.403,-535.965 270.777,-542.829"/>
<text text-anchor="middle" x="239" y="-553.4" font-family="Times Roman,serif" font-size="14.00">INPB &#160;</text>
</g>
<!-- WedgeRot270:Achieved -->
<g id="node35" class="node"><title>WedgeRot270:Achieved</title>
<polygon fill="none" stroke="black" stroke-dasharray="5,2" points="189,-536 9,-536 9,-500 189,-500 189,-536"/>
<text text-anchor="middle" x="99" y="-513.9" font-family="Times Roman,serif" font-size="14.00">WedgeRot270:Achieved</text>
</g>
<!-- WedgeRot270:Achieved&#45;&gt;WedgeRot:Encode -->
<g id="edge40" class="edge"><title>WedgeRot270:Achieved&#45;&gt;WedgeRot:Encode</title>
<path fill="none" stroke="black" stroke-dasharray="5,2" d="M189.616,-519.416C215.647,-519.823 243.939,-520.265 269.641,-520.666"/>
<polygon fill="black" stroke="black" points="269.674,-524.167 279.728,-520.824 269.784,-517.168 269.674,-524.167"/>
<text text-anchor="middle" x="239" y="-524.4" font-family="Times Roman,serif" font-size="14.00">INPD &#160;</text>
</g>
<!-- WedgeRot0:Achieved -->
<g id="node37" class="node"><title>WedgeRot0:Achieved</title>
<polygon fill="none" stroke="black" stroke-dasharray="5,2" points="180,-482 18,-482 18,-446 180,-446 180,-482"/>
<text text-anchor="middle" x="99" y="-459.9" font-family="Times Roman,serif" font-size="14.00">WedgeRot0:Achieved</text>
</g>
<!-- WedgeRot0:Achieved&#45;&gt;WedgeRot:Encode -->
<g id="edge42" class="edge"><title>WedgeRot0:Achieved&#45;&gt;WedgeRot:Encode</title>
<path fill="none" stroke="black" stroke-dasharray="5,2" d="M180.834,-480.287C206.839,-485.672 235.678,-491.862 262,-498 264.649,-498.618 267.338,-499.254 270.051,-499.904"/>
<polygon fill="black" stroke="black" points="269.409,-503.35 279.953,-502.311 271.062,-496.548 269.409,-503.35"/>
<text text-anchor="middle" x="239" y="-502.4" font-family="Times Roman,serif" font-size="14.00">INPA &#160;</text>
</g>
<!-- WedgeRot:Calc -->
<g id="node43" class="node"><title>WedgeRot:Calc</title>
<polygon fill="none" stroke="black" points="906,-534.5 786,-534.5 786,-475.5 906,-475.5 906,-534.5"/>
<text text-anchor="middle" x="846" y="-517.9" font-family="Times Roman,serif" font-size="14.00">WedgeRot:Calc</text>
<text text-anchor="middle" x="846" y="-500.9" font-family="Times Roman,serif" font-size="14.00">calc</text>
<text text-anchor="middle" x="846" y="-483.9" font-family="Times Roman,serif" font-size="14.00">(A=B)?2:0</text>
</g>
<!-- WedgeRot:Actual&#45;&gt;WedgeRot:Calc -->
<g id="edge50" class="edge"><title>WedgeRot:Actual&#45;&gt;WedgeRot:Calc</title>
<path fill="none" stroke="black" stroke-dasharray="1,5" d="M665.759,-531.916C691.574,-534.517 721.218,-535.622 748,-532 757.119,-530.767 766.588,-528.916 775.887,-526.75"/>
<polygon fill="black" stroke="black" points="777.012,-530.078 785.887,-524.291 775.34,-523.281 777.012,-530.078"/>
<text text-anchor="middle" x="725" y="-538.4" font-family="Times Roman,serif" font-size="14.00">FLNK &#160;</text>
</g>
<!-- WedgeRot:Actual&#45;&gt;WedgeRot:Calc -->
<g id="edge52" class="edge"><title>WedgeRot:Actual&#45;&gt;WedgeRot:Calc</title>
<path fill="none" stroke="black" stroke-dasharray="5,2" d="M665.648,-513.959C677.744,-512.853 690.238,-511.81 702,-511 725.919,-509.353 752.107,-508.098 775.514,-507.173"/>
<polygon fill="black" stroke="black" points="775.847,-510.663 785.706,-506.784 775.58,-503.668 775.847,-510.663"/>
<text text-anchor="middle" x="725" y="-515.4" font-family="Times Roman,serif" font-size="14.00">INPB &#160;</text>
</g>
<!-- WedgeRot:Prescribed -->
<g id="node41" class="node"><title>WedgeRot:Prescribed</title>
<polygon fill="none" stroke="black" points="679,-463 517,-463 517,-421 679,-421 679,-463"/>
<text text-anchor="middle" x="598" y="-446.4" font-family="Times Roman,serif" font-size="14.00">WedgeRot:Prescribed</text>
<text text-anchor="middle" x="598" y="-429.4" font-family="Times Roman,serif" font-size="14.00">mbbo</text>
</g>
<!-- WedgeRot:Prescribed&#45;&gt;WedgeRot:Calc -->
<g id="edge46" class="edge"><title>WedgeRot:Prescribed&#45;&gt;WedgeRot:Calc</title>
<path fill="none" stroke="black" stroke-dasharray="1,5" d="M679.548,-462.716C710.623,-470.61 745.744,-479.532 775.688,-487.139"/>
<polygon fill="black" stroke="black" points="775.078,-490.595 785.632,-489.664 776.801,-483.81 775.078,-490.595"/>
<text text-anchor="middle" x="725" y="-483.4" font-family="Times Roman,serif" font-size="14.00">FLNK &#160;</text>
</g>
<!-- WedgeRot:Prescribed&#45;&gt;WedgeRot:Calc -->
<g id="edge54" class="edge"><title>WedgeRot:Prescribed&#45;&gt;WedgeRot:Calc</title>
<path fill="none" stroke="black" stroke-dasharray="5,2" d="M679.822,-437.809C702.304,-438.656 726.425,-441.461 748,-448 756.973,-450.719 757.935,-454.218 766,-459 772.348,-462.764 779.001,-466.662 785.645,-470.525"/>
<polygon fill="black" stroke="black" points="784.262,-473.769 794.669,-475.755 787.772,-467.713 784.262,-473.769"/>
<text text-anchor="middle" x="725" y="-452.4" font-family="Times Roman,serif" font-size="14.00">INPA &#160;</text>
</g>
<!-- WedgeRot:CalcOverride -->
<g id="node49" class="node"><title>WedgeRot:CalcOverride</title>
<polygon fill="none" stroke="black" points="1192,-490.5 1012,-490.5 1012,-431.5 1192,-431.5 1192,-490.5"/>
<text text-anchor="middle" x="1102" y="-473.9" font-family="Times Roman,serif" font-size="14.00">WedgeRot:CalcOverride</text>
<text text-anchor="middle" x="1102" y="-456.9" font-family="Times Roman,serif" font-size="14.00">calc</text>
<text text-anchor="middle" x="1102" y="-439.9" font-family="Times Roman,serif" font-size="14.00">B?1:A</text>
</g>
<!-- WedgeRot:Calc&#45;&gt;WedgeRot:CalcOverride -->
<g id="edge56" class="edge"><title>WedgeRot:Calc&#45;&gt;WedgeRot:CalcOverride</title>
<path fill="none" stroke="black" stroke-dasharray="1,5" d="M906.188,-519.737C932.241,-523.842 962.911,-525.598 990,-519 1010.2,-514.08 1030.82,-504.831 1048.78,-495.141"/>
<polygon fill="black" stroke="black" points="1050.87,-497.979 1057.91,-490.054 1047.47,-491.864 1050.87,-497.979"/>
<text text-anchor="middle" x="967" y="-527.4" font-family="Times Roman,serif" font-size="14.00">FLNK &#160;</text>
</g>
<!-- WedgeRot:Calc&#45;&gt;WedgeRot:CalcOverride -->
<g id="edge62" class="edge"><title>WedgeRot:Calc&#45;&gt;WedgeRot:CalcOverride</title>
<path fill="none" stroke="black" stroke-dasharray="5,2" d="M906.021,-494.684C934.548,-489.781 969.421,-483.787 1001.8,-478.222"/>
<polygon fill="black" stroke="black" points="1002.5,-481.654 1011.76,-476.51 1001.31,-474.755 1002.5,-481.654"/>
<text text-anchor="middle" x="967" y="-490.4" font-family="Times Roman,serif" font-size="14.00">INPA &#160;</text>
</g>
<!-- WedgeRot:Readiness -->
<g id="node55" class="node"><title>WedgeRot:Readiness</title>
<polygon fill="none" stroke="black" points="1442,-442 1282,-442 1282,-400 1442,-400 1442,-442"/>
<text text-anchor="middle" x="1362" y="-425.4" font-family="Times Roman,serif" font-size="14.00">WedgeRot:Readiness</text>
<text text-anchor="middle" x="1362" y="-408.4" font-family="Times Roman,serif" font-size="14.00">mbbo</text>
</g>
<!-- WedgeRot:CalcOverride&#45;&gt;WedgeRot:Readiness -->
<g id="edge64" class="edge"><title>WedgeRot:CalcOverride&#45;&gt;WedgeRot:Readiness</title>
<path fill="none" stroke="black" stroke-dasharray="1,5" d="M1192.32,-449C1214.48,-445.897 1238.11,-442.454 1260,-439 1263.89,-438.387 1267.85,-437.747 1271.86,-437.09"/>
<polygon fill="black" stroke="black" points="1272.58,-440.518 1281.87,-435.424 1271.43,-433.613 1272.58,-440.518"/>
<text text-anchor="middle" x="1237" y="-449.4" font-family="Times Roman,serif" font-size="14.00">FLNK &#160;</text>
</g>
<!-- WedgeRot:CalcOverride&#45;&gt;WedgeRot:Readiness -->
<g id="edge66" class="edge"><title>WedgeRot:CalcOverride&#45;&gt;WedgeRot:Readiness</title>
<path fill="none" stroke="black" stroke-dasharray="5,2" d="M1165.68,-431.948C1181.18,-426.176 1197.92,-420.98 1214,-418 1232.42,-414.585 1252.35,-413.359 1271.44,-413.351"/>
<polygon fill="black" stroke="black" points="1271.6,-416.853 1281.63,-413.459 1271.67,-409.853 1271.6,-416.853"/>
<text text-anchor="middle" x="1237" y="-422.4" font-family="Times Roman,serif" font-size="14.00">DOL &#160;</text>
</g>
<!-- WedgeRot:Override -->
<g id="node50" class="node"><title>WedgeRot:Override</title>
<polygon fill="none" stroke="black" points="922,-450 770,-450 770,-408 922,-408 922,-450"/>
<text text-anchor="middle" x="846" y="-433.4" font-family="Times Roman,serif" font-size="14.00">WedgeRot:Override</text>
<text text-anchor="middle" x="846" y="-416.4" font-family="Times Roman,serif" font-size="14.00">bo</text>
</g>
<!-- WedgeRot:Override&#45;&gt;WedgeRot:CalcOverride -->
<g id="edge58" class="edge"><title>WedgeRot:Override&#45;&gt;WedgeRot:CalcOverride</title>
<path fill="none" stroke="black" stroke-dasharray="1,5" d="M922.115,-438.514C947.077,-441.635 975.208,-445.151 1001.68,-448.46"/>
<polygon fill="black" stroke="black" points="1001.38,-451.949 1011.73,-449.717 1002.25,-445.003 1001.38,-451.949"/>
<text text-anchor="middle" x="967" y="-450.4" font-family="Times Roman,serif" font-size="14.00">FLNK &#160;</text>
</g>
<!-- WedgeRot:Override&#45;&gt;WedgeRot:CalcOverride -->
<g id="edge60" class="edge"><title>WedgeRot:Override&#45;&gt;WedgeRot:CalcOverride</title>
<path fill="none" stroke="black" stroke-dasharray="5,2" d="M922.228,-418.35C944.219,-417.007 968.166,-417.218 990,-421 1000.67,-422.848 1011.67,-425.618 1022.41,-428.854"/>
<polygon fill="black" stroke="black" points="1021.6,-432.268 1032.19,-431.944 1023.71,-425.594 1021.6,-432.268"/>
<text text-anchor="middle" x="967" y="-425.4" font-family="Times Roman,serif" font-size="14.00">INPB &#160;</text>
</g>
<!-- WedgeRot:Readiness&#45;&gt;Settings:Readiness -->
<g id="edge68" class="edge"><title>WedgeRot:Readiness&#45;&gt;Settings:Readiness</title>
<path fill="none" stroke="black" stroke-dasharray="1,5" d="M1402.27,-399.937C1445.25,-377.461 1513.1,-341.975 1557.33,-318.84"/>
<polygon fill="black" stroke="black" points="1559.15,-321.836 1566.39,-314.1 1555.91,-315.634 1559.15,-321.836"/>
<text text-anchor="middle" x="1487" y="-369.4" font-family="Times Roman,serif" font-size="14.00">FLNK &#160;</text>
</g>
<!-- FlatFilter:Encode -->
<g id="node58" class="node"><title>FlatFilter:Encode</title>
<polygon fill="none" stroke="black" points="421,-368.5 289,-368.5 289,-309.5 421,-309.5 421,-368.5"/>
<text text-anchor="middle" x="355" y="-351.9" font-family="Times Roman,serif" font-size="14.00">FlatFilter:Encode</text>
<text text-anchor="middle" x="355" y="-334.9" font-family="Times Roman,serif" font-size="14.00">calc</text>
<text text-anchor="middle" x="355" y="-317.9" font-family="Times Roman,serif" font-size="14.00">A?0:B?1:C?2:3</text>
</g>
<!-- FlatFilter:Actual -->
<g id="node68" class="node"><title>FlatFilter:Actual</title>
<polygon fill="none" stroke="black" points="661,-390 535,-390 535,-348 661,-348 661,-390"/>
<text text-anchor="middle" x="598" y="-373.4" font-family="Times Roman,serif" font-size="14.00">FlatFilter:Actual</text>
<text text-anchor="middle" x="598" y="-356.4" font-family="Times Roman,serif" font-size="14.00">mbbo</text>
</g>
<!-- FlatFilter:Encode&#45;&gt;FlatFilter:Actual -->
<g id="edge78" class="edge"><title>FlatFilter:Encode&#45;&gt;FlatFilter:Actual</title>
<path fill="none" stroke="black" stroke-dasharray="1,5" d="M421.202,-351.035C430.192,-352.48 439.311,-353.849 448,-355 472.843,-358.291 500.101,-361.08 524.487,-363.281"/>
<polygon fill="black" stroke="black" points="524.478,-366.794 534.747,-364.189 525.094,-359.821 524.478,-366.794"/>
<text text-anchor="middle" x="471" y="-364.4" font-family="Times Roman,serif" font-size="14.00">FLNK &#160;</text>
</g>
<!-- FlatFilter:Encode&#45;&gt;FlatFilter:Actual -->
<g id="edge82" class="edge"><title>FlatFilter:Encode&#45;&gt;FlatFilter:Actual</title>
<path fill="none" stroke="black" stroke-dasharray="5,2" d="M421.095,-331.306C444.275,-330.009 470.408,-330.137 494,-334 508.069,-336.304 522.8,-340.252 536.604,-344.686"/>
<polygon fill="black" stroke="black" points="535.874,-348.132 546.468,-347.983 538.094,-341.493 535.874,-348.132"/>
<text text-anchor="middle" x="471" y="-338.4" font-family="Times Roman,serif" font-size="14.00">DOL &#160;</text>
</g>
<!-- FlatFilterSmall:Achieved -->
<g id="node59" class="node"><title>FlatFilterSmall:Achieved</title>
<polygon fill="none" stroke="black" stroke-dasharray="5,2" points="190,-419 8,-419 8,-383 190,-383 190,-419"/>
<text text-anchor="middle" x="99" y="-396.9" font-family="Times Roman,serif" font-size="14.00">FlatFilterSmall:Achieved</text>
</g>
<!-- FlatFilterSmall:Achieved&#45;&gt;FlatFilter:Encode -->
<g id="edge70" class="edge"><title>FlatFilterSmall:Achieved&#45;&gt;FlatFilter:Encode</title>
<path fill="none" stroke="black" stroke-dasharray="5,2" d="M181.236,-382.996C207.131,-377.149 235.805,-370.491 262,-364 267.562,-362.622 273.302,-361.164 279.072,-359.674"/>
<polygon fill="black" stroke="black" points="279.991,-363.051 288.785,-357.142 278.225,-356.278 279.991,-363.051"/>
<text text-anchor="middle" x="239" y="-378.4" font-family="Times Roman,serif" font-size="14.00">INPC &#160;</text>
</g>
<!-- FlatFilterLarge:Achieved -->
<g id="node61" class="node"><title>FlatFilterLarge:Achieved</title>
<polygon fill="none" stroke="black" stroke-dasharray="5,2" points="191,-365 7,-365 7,-329 191,-329 191,-365"/>
<text text-anchor="middle" x="99" y="-342.9" font-family="Times Roman,serif" font-size="14.00">FlatFilterLarge:Achieved</text>
</g>
<!-- FlatFilterLarge:Achieved&#45;&gt;FlatFilter:Encode -->
<g id="edge72" class="edge"><title>FlatFilterLarge:Achieved&#45;&gt;FlatFilter:Encode</title>
<path fill="none" stroke="black" stroke-dasharray="5,2" d="M191.06,-344.123C219.659,-343.229 250.863,-342.254 278.299,-341.397"/>
<polygon fill="black" stroke="black" points="278.731,-344.885 288.616,-341.074 278.512,-337.889 278.731,-344.885"/>
<text text-anchor="middle" x="239" y="-347.4" font-family="Times Roman,serif" font-size="14.00">INPB &#160;</text>
</g>
<!-- Placeholder:Achieved -->
<g id="node63" class="node"><title>Placeholder:Achieved</title>
<polygon fill="none" stroke="black" stroke-dasharray="5,2" points="180,-311 18,-311 18,-275 180,-275 180,-311"/>
<text text-anchor="middle" x="99" y="-288.9" font-family="Times Roman,serif" font-size="14.00">Placeholder:Achieved</text>
</g>
<!-- Placeholder:Achieved&#45;&gt;FlatFilter:Encode -->
<g id="edge74" class="edge"><title>Placeholder:Achieved&#45;&gt;FlatFilter:Encode</title>
<path fill="none" stroke="black" stroke-dasharray="5,2" d="M180.729,-306.692C206.728,-311.141 235.59,-316.176 262,-321 267.46,-321.997 273.097,-323.044 278.769,-324.111"/>
<polygon fill="black" stroke="black" points="278.509,-327.624 288.986,-326.045 279.812,-320.746 278.509,-327.624"/>
<text text-anchor="middle" x="239" y="-325.4" font-family="Times Roman,serif" font-size="14.00">INPD &#160;</text>
</g>
<!-- FlatFilterNone:Achieved -->
<g id="node65" class="node"><title>FlatFilterNone:Achieved</title>
<polygon fill="none" stroke="black" stroke-dasharray="5,2" points="189,-257 9,-257 9,-221 189,-221 189,-257"/>
<text text-anchor="middle" x="99" y="-234.9" font-family="Times Roman,serif" font-size="14.00">FlatFilterNone:Achieved</text>
</g>
<!-- FlatFilterNone:Achieved&#45;&gt;FlatFilter:Encode -->
<g id="edge76" class="edge"><title>FlatFilterNone:Achieved&#45;&gt;FlatFilter:Encode</title>
<path fill="none" stroke="black" stroke-dasharray="5,2" d="M169.355,-257.069C179.034,-259.88 188.802,-262.89 198,-266 229.468,-276.64 263.023,-291.697 291.001,-305.375"/>
<polygon fill="black" stroke="black" points="289.748,-308.66 300.264,-309.952 292.849,-302.384 289.748,-308.66"/>
<text text-anchor="middle" x="239" y="-294.4" font-family="Times Roman,serif" font-size="14.00">INPA &#160;</text>
</g>
<!-- FlatFilter:Calc -->
<g id="node71" class="node"><title>FlatFilter:Calc</title>
<polygon fill="none" stroke="black" points="901,-372.5 791,-372.5 791,-313.5 901,-313.5 901,-372.5"/>
<text text-anchor="middle" x="846" y="-355.9" font-family="Times Roman,serif" font-size="14.00">FlatFilter:Calc</text>
<text text-anchor="middle" x="846" y="-338.9" font-family="Times Roman,serif" font-size="14.00">calc</text>
<text text-anchor="middle" x="846" y="-321.9" font-family="Times Roman,serif" font-size="14.00">(A=B)?2:0</text>
</g>
<!-- FlatFilter:Actual&#45;&gt;FlatFilter:Calc -->
<g id="edge84" class="edge"><title>FlatFilter:Actual&#45;&gt;FlatFilter:Calc</title>
<path fill="none" stroke="black" stroke-dasharray="1,5" d="M661.335,-370.029C688.158,-369.762 719.692,-368.521 748,-365 758.599,-363.682 769.736,-361.735 780.547,-359.536"/>
<polygon fill="black" stroke="black" points="781.302,-362.954 790.359,-357.456 779.85,-356.106 781.302,-362.954"/>
<text text-anchor="middle" x="725" y="-372.4" font-family="Times Roman,serif" font-size="14.00">FLNK &#160;</text>
</g>
<!-- FlatFilter:Actual&#45;&gt;FlatFilter:Calc -->
<g id="edge86" class="edge"><title>FlatFilter:Actual&#45;&gt;FlatFilter:Calc</title>
<path fill="none" stroke="black" stroke-dasharray="5,2" d="M661.102,-351.393C674.5,-348.343 688.636,-345.631 702,-344 727.406,-340.9 755.521,-340.119 780.115,-340.299"/>
<polygon fill="black" stroke="black" points="780.378,-343.802 790.422,-340.431 780.467,-336.803 780.378,-343.802"/>
<text text-anchor="middle" x="725" y="-348.4" font-family="Times Roman,serif" font-size="14.00">INPB &#160;</text>
</g>
<!-- FlatFilter:Prescribed -->
<g id="node69" class="node"><title>FlatFilter:Prescribed</title>
<polygon fill="none" stroke="black" points="675,-308 521,-308 521,-266 675,-266 675,-308"/>
<text text-anchor="middle" x="598" y="-291.4" font-family="Times Roman,serif" font-size="14.00">FlatFilter:Prescribed</text>
<text text-anchor="middle" x="598" y="-274.4" font-family="Times Roman,serif" font-size="14.00">mbbo</text>
</g>
<!-- FlatFilter:Prescribed&#45;&gt;FlatFilter:Calc -->
<g id="edge80" class="edge"><title>FlatFilter:Prescribed&#45;&gt;FlatFilter:Calc</title>
<path fill="none" stroke="black" stroke-dasharray="1,5" d="M675.178,-303.002C698.599,-307.982 724.381,-313.59 748,-319 758.523,-321.411 769.66,-324.051 780.505,-326.672"/>
<polygon fill="black" stroke="black" points="779.812,-330.106 790.356,-329.066 781.465,-323.304 779.812,-330.106"/>
<text text-anchor="middle" x="725" y="-323.4" font-family="Times Roman,serif" font-size="14.00">FLNK &#160;</text>
</g>
<!-- FlatFilter:Prescribed&#45;&gt;FlatFilter:Calc -->
<g id="edge88" class="edge"><title>FlatFilter:Prescribed&#45;&gt;FlatFilter:Calc</title>
<path fill="none" stroke="black" stroke-dasharray="5,2" d="M675.026,-279.016C698.797,-278.666 724.812,-280.476 748,-287 757.025,-289.539 757.913,-293.257 766,-298 772.142,-301.603 778.578,-305.319 785.018,-308.999"/>
<polygon fill="black" stroke="black" points="783.351,-312.078 793.774,-313.982 786.813,-305.994 783.351,-312.078"/>
<text text-anchor="middle" x="725" y="-291.4" font-family="Times Roman,serif" font-size="14.00">INPA &#160;</text>
</g>
<!-- FlatFilter:CalcOverride -->
<g id="node77" class="node"><title>FlatFilter:CalcOverride</title>
<polygon fill="none" stroke="black" points="1187,-343.5 1017,-343.5 1017,-284.5 1187,-284.5 1187,-343.5"/>
<text text-anchor="middle" x="1102" y="-326.9" font-family="Times Roman,serif" font-size="14.00">FlatFilter:CalcOverride</text>
<text text-anchor="middle" x="1102" y="-309.9" font-family="Times Roman,serif" font-size="14.00">calc</text>
<text text-anchor="middle" x="1102" y="-292.9" font-family="Times Roman,serif" font-size="14.00">B?1:A</text>
</g>
<!-- FlatFilter:Calc&#45;&gt;FlatFilter:CalcOverride -->
<g id="edge90" class="edge"><title>FlatFilter:Calc&#45;&gt;FlatFilter:CalcOverride</title>
<path fill="none" stroke="black" stroke-dasharray="1,5" d="M901.703,-356.971C928.544,-361.726 961.105,-364.588 990,-359 1004.13,-356.268 1018.73,-351.765 1032.54,-346.638"/>
<polygon fill="black" stroke="black" points="1033.89,-349.868 1041.96,-343.002 1031.37,-343.338 1033.89,-349.868"/>
<text text-anchor="middle" x="967" y="-366.4" font-family="Times Roman,serif" font-size="14.00">FLNK &#160;</text>
</g>
<!-- FlatFilter:Calc&#45;&gt;FlatFilter:CalcOverride -->
<g id="edge96" class="edge"><title>FlatFilter:Calc&#45;&gt;FlatFilter:CalcOverride</title>
<path fill="none" stroke="black" stroke-dasharray="5,2" d="M901.548,-336.707C932.064,-333.251 970.772,-328.866 1006.02,-324.873"/>
<polygon fill="black" stroke="black" points="1006.8,-328.307 1016.34,-323.703 1006.01,-321.351 1006.8,-328.307"/>
<text text-anchor="middle" x="967" y="-335.4" font-family="Times Roman,serif" font-size="14.00">INPA &#160;</text>
</g>
<!-- FlatFilter:Readiness -->
<g id="node83" class="node"><title>FlatFilter:Readiness</title>
<polygon fill="none" stroke="black" points="1437,-317 1287,-317 1287,-275 1437,-275 1437,-317"/>
<text text-anchor="middle" x="1362" y="-300.4" font-family="Times Roman,serif" font-size="14.00">FlatFilter:Readiness</text>
<text text-anchor="middle" x="1362" y="-283.4" font-family="Times Roman,serif" font-size="14.00">mbbo</text>
</g>
<!-- FlatFilter:CalcOverride&#45;&gt;FlatFilter:Readiness -->
<g id="edge98" class="edge"><title>FlatFilter:CalcOverride&#45;&gt;FlatFilter:Readiness</title>
<path fill="none" stroke="black" stroke-dasharray="1,5" d="M1187.85,-308.056C1216.18,-306.095 1247.67,-303.915 1276.01,-301.953"/>
<polygon fill="black" stroke="black" points="1276.56,-305.424 1286.29,-301.241 1276.07,-298.44 1276.56,-305.424"/>
<text text-anchor="middle" x="1237" y="-310.4" font-family="Times Roman,serif" font-size="14.00">FLNK &#160;</text>
</g>
<!-- FlatFilter:CalcOverride&#45;&gt;FlatFilter:Readiness -->
<g id="edge100" class="edge"><title>FlatFilter:CalcOverride&#45;&gt;FlatFilter:Readiness</title>
<path fill="none" stroke="black" stroke-dasharray="5,2" d="M1187.7,-286.91C1196.51,-284.91 1205.39,-283.206 1214,-282 1234.01,-279.198 1255.62,-279.418 1275.98,-281.075"/>
<polygon fill="black" stroke="black" points="1275.89,-284.582 1286.18,-282.03 1276.55,-277.613 1275.89,-284.582"/>
<text text-anchor="middle" x="1237" y="-286.4" font-family="Times Roman,serif" font-size="14.00">DOL &#160;</text>
</g>
<!-- FlatFilter:Override -->
<g id="node78" class="node"><title>FlatFilter:Override</title>
<polygon fill="none" stroke="black" points="917,-289 775,-289 775,-247 917,-247 917,-289"/>
<text text-anchor="middle" x="846" y="-272.4" font-family="Times Roman,serif" font-size="14.00">FlatFilter:Override</text>
<text text-anchor="middle" x="846" y="-255.4" font-family="Times Roman,serif" font-size="14.00">bo</text>
</g>
<!-- FlatFilter:Override&#45;&gt;FlatFilter:CalcOverride -->
<g id="edge92" class="edge"><title>FlatFilter:Override&#45;&gt;FlatFilter:CalcOverride</title>
<path fill="none" stroke="black" stroke-dasharray="1,5" d="M917.651,-280.875C945.16,-285.818 977.008,-291.54 1006.41,-296.824"/>
<polygon fill="black" stroke="black" points="1005.82,-300.274 1016.28,-298.597 1007.06,-293.384 1005.82,-300.274"/>
<text text-anchor="middle" x="967" y="-297.4" font-family="Times Roman,serif" font-size="14.00">FLNK &#160;</text>
</g>
<!-- FlatFilter:Override&#45;&gt;FlatFilter:CalcOverride -->
<g id="edge94" class="edge"><title>FlatFilter:Override&#45;&gt;FlatFilter:CalcOverride</title>
<path fill="none" stroke="black" stroke-dasharray="5,2" d="M917.637,-260.162C940.923,-259.295 966.748,-260.136 990,-265 1006.17,-268.383 1022.86,-274.239 1038.27,-280.752"/>
<polygon fill="black" stroke="black" points="1037.11,-284.066 1047.67,-284.875 1039.92,-277.655 1037.11,-284.066"/>
<text text-anchor="middle" x="967" y="-269.4" font-family="Times Roman,serif" font-size="14.00">INPB &#160;</text>
</g>
<!-- FlatFilter:Readiness&#45;&gt;Settings:Readiness -->
<g id="edge102" class="edge"><title>FlatFilter:Readiness&#45;&gt;Settings:Readiness</title>
<path fill="none" stroke="black" stroke-dasharray="1,5" d="M1437.62,-296C1463.1,-296 1491.66,-296 1517.69,-296"/>
<polygon fill="black" stroke="black" points="1517.91,-299.5 1527.91,-296 1517.91,-292.5 1517.91,-299.5"/>
<text text-anchor="middle" x="1487" y="-300.4" font-family="Times Roman,serif" font-size="14.00">FLNK &#160;</text>
</g>
</g>
</svg>
