<?xml version="1.0" encoding="UTF-8" standalone="no"?>
<!DOCTYPE svg PUBLIC "-//W3C//DTD SVG 1.1//EN"
 "http://www.w3.org/Graphics/SVG/1.1/DTD/svg11.dtd">
<!-- Generated by graphviz version 2.26.3 (20100126.1600)
 -->
<!-- Title: filter_wedge Pages: 1 -->
<svg width="1184pt" height="476pt"
 viewBox="0.00 0.00 1184.00 476.00" xmlns="http://www.w3.org/2000/svg" xmlns:xlink="http://www.w3.org/1999/xlink">
<g id="graph1" class="graph" transform="scale(1 1) rotate(0) translate(4 472)">
<title>filter_wedge</title>
<polygon fill="white" stroke="white" points="-4,5 -4,-472 1181,-472 1181,5 -4,5"/>
<!-- MotionSafety:Status -->
<g id="node1" class="node"><title>MotionSafety:Status</title>
<polygon fill="none" stroke="black" points="471,-210.5 275,-210.5 275,-151.5 471,-151.5 471,-210.5"/>
<text text-anchor="middle" x="373" y="-193.9" font-family="Times Roman,serif" font-size="14.00">MotionSafety:Status</text>
<text text-anchor="middle" x="373" y="-176.9" font-family="Times Roman,serif" font-size="14.00">calc</text>
<text text-anchor="middle" x="373" y="-159.9" font-family="Times Roman,serif" font-size="14.00">!A&amp;&amp;!B&amp;&amp;!C&amp;&amp;D&amp;&amp;E&amp;&amp;F</text>
</g>
<!-- CheckConfirm:Status -->
<g id="node15" class="node"><title>CheckConfirm:Status</title>
<polygon fill="none" stroke="black" points="716,-299.5 554,-299.5 554,-240.5 716,-240.5 716,-299.5"/>
<text text-anchor="middle" x="635" y="-282.9" font-family="Times Roman,serif" font-size="14.00">CheckConfirm:Status</text>
<text text-anchor="middle" x="635" y="-265.9" font-family="Times Roman,serif" font-size="14.00">calc</text>
<text text-anchor="middle" x="635" y="-248.9" font-family="Times Roman,serif" font-size="14.00">A&amp;&amp;B</text>
</g>
<!-- MotionSafety:Status&#45;&gt;CheckConfirm:Status -->
<g id="edge24" class="edge"><title>MotionSafety:Status&#45;&gt;CheckConfirm:Status</title>
<path fill="none" stroke="black" stroke-dasharray="5,2" d="M471.628,-178.606C494.196,-181.854 517.083,-188.514 536,-201 549.297,-209.776 542.253,-221.237 554,-232 554.966,-232.885 555.957,-233.754 556.969,-234.605"/>
<polygon fill="black" stroke="black" points="555.033,-237.53 565.11,-240.803 559.274,-231.961 555.033,-237.53"/>
<text text-anchor="middle" x="513" y="-205.4" font-family="Times Roman,serif" font-size="14.00">INPB &#160;</text>
</g>
<!-- MotionSafety:Status&#45;&gt;CheckConfirm:Status -->
<g id="edge14" class="edge"><title>MotionSafety:Status&#45;&gt;CheckConfirm:Status</title>
<path fill="none" stroke="black" stroke-dasharray="1,5" d="M458.426,-210.019C485.81,-219.321 516.229,-229.654 543.996,-239.087"/>
<polygon fill="black" stroke="black" points="543.104,-242.48 553.698,-242.382 545.355,-235.852 543.104,-242.48"/>
<text text-anchor="middle" x="513" y="-240.4" font-family="Times Roman,serif" font-size="14.00">FLNK &#160;</text>
</g>
<!-- FlatFilter:DriveEnabled -->
<g id="node2" class="node"><title>FlatFilter:DriveEnabled</title>
<polygon fill="none" stroke="black" stroke-dasharray="5,2" points="183,-306 9,-306 9,-270 183,-270 183,-306"/>
<text text-anchor="middle" x="96" y="-283.9" font-family="Times Roman,serif" font-size="14.00">FlatFilter:DriveEnabled</text>
</g>
<!-- FlatFilter:DriveEnabled&#45;&gt;MotionSafety:Status -->
<g id="edge2" class="edge"><title>FlatFilter:DriveEnabled&#45;&gt;MotionSafety:Status</title>
<path fill="none" stroke="black" stroke-dasharray="5,2" d="M164.813,-269.928C174.018,-267.137 183.284,-264.134 192,-261 229.678,-247.452 270.563,-229.66 303.925,-214.295"/>
<polygon fill="black" stroke="black" points="305.525,-217.411 313.127,-210.031 302.582,-211.06 305.525,-217.411"/>
<text text-anchor="middle" x="233" y="-257.4" font-family="Times Roman,serif" font-size="14.00">INPC &#160;</text>
</g>
<!-- WedgeRot:DriveEnabled -->
<g id="node4" class="node"><title>WedgeRot:DriveEnabled</title>
<polygon fill="none" stroke="black" stroke-dasharray="5,2" points="188,-252 4,-252 4,-216 188,-216 188,-252"/>
<text text-anchor="middle" x="96" y="-229.9" font-family="Times Roman,serif" font-size="14.00">WedgeRot:DriveEnabled</text>
</g>
<!-- WedgeRot:DriveEnabled&#45;&gt;MotionSafety:Status -->
<g id="edge4" class="edge"><title>WedgeRot:DriveEnabled&#45;&gt;MotionSafety:Status</title>
<path fill="none" stroke="black" stroke-dasharray="5,2" d="M188.237,-216.352C212.551,-211.7 239.015,-206.636 264.116,-201.833"/>
<polygon fill="black" stroke="black" points="264.868,-205.253 274.032,-199.936 263.553,-198.378 264.868,-205.253"/>
<text text-anchor="middle" x="233" y="-214.4" font-family="Times Roman,serif" font-size="14.00">INPB &#160;</text>
</g>
<!-- WedgeRot:ErrorOK -->
<g id="node6" class="node"><title>WedgeRot:ErrorOK</title>
<polygon fill="none" stroke="black" stroke-dasharray="5,2" points="169,-198 23,-198 23,-162 169,-162 169,-198"/>
<text text-anchor="middle" x="96" y="-175.9" font-family="Times Roman,serif" font-size="14.00">WedgeRot:ErrorOK</text>
</g>
<!-- WedgeRot:ErrorOK&#45;&gt;MotionSafety:Status -->
<g id="edge6" class="edge"><title>WedgeRot:ErrorOK&#45;&gt;MotionSafety:Status</title>
<path fill="none" stroke="black" stroke-dasharray="5,2" d="M169.504,-180.265C198.501,-180.37 232.415,-180.492 264.149,-180.607"/>
<polygon fill="black" stroke="black" points="264.355,-184.108 274.367,-180.644 264.38,-177.108 264.355,-184.108"/>
<text text-anchor="middle" x="233" y="-184.4" font-family="Times Roman,serif" font-size="14.00">INPE &#160;</text>
</g>
<!-- WedgeType:ErrorOK -->
<g id="node8" class="node"><title>WedgeType:ErrorOK</title>
<polygon fill="none" stroke="black" stroke-dasharray="5,2" points="173,-144 19,-144 19,-108 173,-108 173,-144"/>
<text text-anchor="middle" x="96" y="-121.9" font-family="Times Roman,serif" font-size="14.00">WedgeType:ErrorOK</text>
</g>
<!-- WedgeType:ErrorOK&#45;&gt;MotionSafety:Status -->
<g id="edge8" class="edge"><title>WedgeType:ErrorOK&#45;&gt;MotionSafety:Status</title>
<path fill="none" stroke="black" stroke-dasharray="5,2" d="M173.528,-141.394C201.64,-146.976 233.94,-153.389 264.245,-159.406"/>
<polygon fill="black" stroke="black" points="263.947,-162.915 274.437,-161.43 265.31,-156.049 263.947,-162.915"/>
<text text-anchor="middle" x="233" y="-160.4" font-family="Times Roman,serif" font-size="14.00">INPD &#160;</text>
</g>
<!-- FlatFilter:ErrorOK -->
<g id="node10" class="node"><title>FlatFilter:ErrorOK</title>
<polygon fill="none" stroke="black" stroke-dasharray="5,2" points="165,-90 27,-90 27,-54 165,-54 165,-90"/>
<text text-anchor="middle" x="96" y="-67.9" font-family="Times Roman,serif" font-size="14.00">FlatFilter:ErrorOK</text>
</g>
<!-- FlatFilter:ErrorOK&#45;&gt;MotionSafety:Status -->
<g id="edge10" class="edge"><title>FlatFilter:ErrorOK&#45;&gt;MotionSafety:Status</title>
<path fill="none" stroke="black" stroke-dasharray="5,2" d="M165.098,-90.0756C174.214,-92.8558 183.38,-95.8555 192,-99 230.363,-112.994 271.947,-131.578 305.571,-147.516"/>
<polygon fill="black" stroke="black" points="304.302,-150.788 314.835,-151.935 307.316,-144.47 304.302,-150.788"/>
<text text-anchor="middle" x="233" y="-127.4" font-family="Times Roman,serif" font-size="14.00">INPF &#160;</text>
</g>
<!-- WedgeType:DriveEnabled -->
<g id="node12" class="node"><title>WedgeType:DriveEnabled</title>
<polygon fill="none" stroke="black" stroke-dasharray="5,2" points="192,-36 4.26326e-14,-36 0,-1.06581e-14 192,-0 192,-36"/>
<text text-anchor="middle" x="96" y="-13.9" font-family="Times Roman,serif" font-size="14.00">WedgeType:DriveEnabled</text>
</g>
<!-- WedgeType:DriveEnabled&#45;&gt;MotionSafety:Status -->
<g id="edge12" class="edge"><title>WedgeType:DriveEnabled&#45;&gt;MotionSafety:Status</title>
<path fill="none" stroke="black" stroke-dasharray="5,2" d="M168.6,-36.0231C176.613,-38.7161 184.558,-41.7088 192,-45 247.31,-69.4602 301.517,-113.646 335.968,-145.01"/>
<polygon fill="black" stroke="black" points="333.712,-147.69 343.438,-151.892 338.455,-142.542 333.712,-147.69"/>
<text text-anchor="middle" x="233" y="-82.4" font-family="Times Roman,serif" font-size="14.00">INPA &#160;</text>
</g>
<!-- Subsystem:Calc -->
<g id="node27" class="node"><title>Subsystem:Calc</title>
<polygon fill="none" stroke="black" points="929,-274.5 799,-274.5 799,-215.5 929,-215.5 929,-274.5"/>
<text text-anchor="middle" x="864" y="-257.9" font-family="Times Roman,serif" font-size="14.00">Subsystem:Calc</text>
<text text-anchor="middle" x="864" y="-240.9" font-family="Times Roman,serif" font-size="14.00">calc</text>
<text text-anchor="middle" x="864" y="-223.9" font-family="Times Roman,serif" font-size="14.00">(B&amp;&amp;C&amp;&amp;D)?A:0</text>
</g>
<!-- CheckConfirm:Status&#45;&gt;Subsystem:Calc -->
<g id="edge28" class="edge"><title>CheckConfirm:Status&#45;&gt;Subsystem:Calc</title>
<path fill="none" stroke="black" stroke-dasharray="1,5" d="M716.118,-268.417C736.994,-267.371 759.382,-265.689 780,-263 782.681,-262.65 785.403,-262.26 788.147,-261.837"/>
<polygon fill="black" stroke="black" points="788.857,-265.267 798.146,-260.171 787.707,-258.362 788.857,-265.267"/>
<text text-anchor="middle" x="757" y="-271.4" font-family="Times Roman,serif" font-size="14.00">FLNK &#160;</text>
</g>
<!-- CheckConfirm:Status&#45;&gt;Subsystem:Calc -->
<g id="edge32" class="edge"><title>CheckConfirm:Status&#45;&gt;Subsystem:Calc</title>
<path fill="none" stroke="black" stroke-dasharray="5,2" d="M716.198,-245.119C722.183,-243.876 728.162,-242.81 734,-242 754.251,-239.191 759.559,-241.635 780,-242 782.711,-242.048 785.47,-242.106 788.257,-242.17"/>
<polygon fill="black" stroke="black" points="788.345,-245.673 798.432,-242.432 788.525,-238.676 788.345,-245.673"/>
<text text-anchor="middle" x="757" y="-246.4" font-family="Times Roman,serif" font-size="14.00">INPB &#160;</text>
</g>
<!-- Settings:Readiness -->
<g id="node16" class="node"><title>Settings:Readiness</title>
<polygon fill="none" stroke="black" points="446,-371.5 300,-371.5 300,-312.5 446,-312.5 446,-371.5"/>
<text text-anchor="middle" x="373" y="-354.9" font-family="Times Roman,serif" font-size="14.00">Settings:Readiness</text>
<text text-anchor="middle" x="373" y="-337.9" font-family="Times Roman,serif" font-size="14.00">calc</text>
<text text-anchor="middle" x="373" y="-320.9" font-family="Times Roman,serif" font-size="14.00">MIN(A,B,C)</text>
</g>
<!-- Settings:Readiness&#45;&gt;CheckConfirm:Status -->
<g id="edge22" class="edge"><title>Settings:Readiness&#45;&gt;CheckConfirm:Status</title>
<path fill="none" stroke="black" stroke-dasharray="1,5" d="M409.298,-312.903C431.261,-297.181 460.625,-279.325 490,-271 506.985,-266.186 525.545,-263.935 543.543,-263.203"/>
<polygon fill="black" stroke="black" points="543.856,-266.696 553.763,-262.943 543.677,-259.699 543.856,-266.696"/>
<text text-anchor="middle" x="513" y="-275.4" font-family="Times Roman,serif" font-size="14.00">FLNK &#160;</text>
</g>
<!-- Settings:Readiness&#45;&gt;CheckConfirm:Status -->
<g id="edge26" class="edge"><title>Settings:Readiness&#45;&gt;CheckConfirm:Status</title>
<path fill="none" stroke="black" stroke-dasharray="5,2" d="M446.33,-321.848C476.649,-313.516 512.118,-303.769 544.069,-294.989"/>
<polygon fill="black" stroke="black" points="545.147,-298.322 553.862,-292.298 543.292,-291.573 545.147,-298.322"/>
<text text-anchor="middle" x="513" y="-312.4" font-family="Times Roman,serif" font-size="14.00">INPA &#160;</text>
</g>
<!-- Settings:Readiness&#45;&gt;Subsystem:Calc -->
<g id="edge36" class="edge"><title>Settings:Readiness&#45;&gt;Subsystem:Calc</title>
<path fill="none" stroke="black" stroke-dasharray="5,2" d="M446.043,-343.292C529.767,-342.322 669.648,-333.104 780,-288 786.881,-285.187 793.962,-282.021 800.956,-278.715"/>
<polygon fill="black" stroke="black" points="802.934,-281.645 810.411,-274.139 799.885,-275.344 802.934,-281.645"/>
<text text-anchor="middle" x="635" y="-341.4" font-family="Times Roman,serif" font-size="14.00">INPA &#160;</text>
</g>
<!-- FlatFilter:Readiness -->
<g id="node17" class="node"><title>FlatFilter:Readiness</title>
<polygon fill="none" stroke="black" stroke-dasharray="5,2" points="171,-468 21,-468 21,-432 171,-432 171,-468"/>
<text text-anchor="middle" x="96" y="-445.9" font-family="Times Roman,serif" font-size="14.00">FlatFilter:Readiness</text>
</g>
<!-- FlatFilter:Readiness&#45;&gt;Settings:Readiness -->
<g id="edge16" class="edge"><title>FlatFilter:Readiness&#45;&gt;Settings:Readiness</title>
<path fill="none" stroke="black" stroke-dasharray="5,2" d="M164.826,-431.965C174.029,-429.169 183.291,-426.154 192,-423 230.02,-409.23 271.254,-391.045 304.75,-375.394"/>
<polygon fill="black" stroke="black" points="306.423,-378.475 313.983,-371.053 303.444,-372.14 306.423,-378.475"/>
<text text-anchor="middle" x="233" y="-419.4" font-family="Times Roman,serif" font-size="14.00">INPC &#160;</text>
</g>
<!-- WedgeRot:Readiness -->
<g id="node19" class="node"><title>WedgeRot:Readiness</title>
<polygon fill="none" stroke="black" stroke-dasharray="5,2" points="176,-414 16,-414 16,-378 176,-378 176,-414"/>
<text text-anchor="middle" x="96" y="-391.9" font-family="Times Roman,serif" font-size="14.00">WedgeRot:Readiness</text>
</g>
<!-- WedgeRot:Readiness&#45;&gt;Settings:Readiness -->
<g id="edge18" class="edge"><title>WedgeRot:Readiness&#45;&gt;Settings:Readiness</title>
<path fill="none" stroke="black" stroke-dasharray="5,2" d="M176.12,-380.381C211.756,-373.434 253.705,-365.256 289.704,-358.238"/>
<polygon fill="black" stroke="black" points="290.544,-361.64 299.689,-356.292 289.204,-354.77 290.544,-361.64"/>
<text text-anchor="middle" x="233" y="-376.4" font-family="Times Roman,serif" font-size="14.00">INPB &#160;</text>
</g>
<!-- WedgeType:Readiness -->
<g id="node21" class="node"><title>WedgeType:Readiness</title>
<polygon fill="none" stroke="black" stroke-dasharray="5,2" points="180,-360 12,-360 12,-324 180,-324 180,-360"/>
<text text-anchor="middle" x="96" y="-337.9" font-family="Times Roman,serif" font-size="14.00">WedgeType:Readiness</text>
</g>
<!-- WedgeType:Readiness&#45;&gt;Settings:Readiness -->
<g id="edge20" class="edge"><title>WedgeType:Readiness&#45;&gt;Settings:Readiness</title>
<path fill="none" stroke="black" stroke-dasharray="5,2" d="M180.237,-342C215.006,-342 255.194,-342 289.848,-342"/>
<polygon fill="black" stroke="black" points="289.939,-345.5 299.938,-342 289.938,-338.5 289.939,-345.5"/>
<text text-anchor="middle" x="233" y="-346.4" font-family="Times Roman,serif" font-size="14.00">INPA &#160;</text>
</g>
<!-- Subsystem:Readiness -->
<g id="node35" class="node"><title>Subsystem:Readiness</title>
<polygon fill="none" stroke="black" points="1176,-266 1012,-266 1012,-224 1176,-224 1176,-266"/>
<text text-anchor="middle" x="1094" y="-249.4" font-family="Times Roman,serif" font-size="14.00">Subsystem:Readiness</text>
<text text-anchor="middle" x="1094" y="-232.4" font-family="Times Roman,serif" font-size="14.00">mbbo</text>
</g>
<!-- Subsystem:Calc&#45;&gt;Subsystem:Readiness -->
<g id="edge38" class="edge"><title>Subsystem:Calc&#45;&gt;Subsystem:Readiness</title>
<path fill="none" stroke="black" stroke-dasharray="1,5" d="M929.601,-245C952.024,-245 977.54,-245 1001.67,-245"/>
<polygon fill="black" stroke="black" points="1001.91,-248.5 1011.91,-245 1001.91,-241.5 1001.91,-248.5"/>
<text text-anchor="middle" x="971" y="-249.4" font-family="Times Roman,serif" font-size="14.00">FLNK &#160;</text>
</g>
<!-- Subsystem:Calc&#45;&gt;Subsystem:Readiness -->
<g id="edge40" class="edge"><title>Subsystem:Calc&#45;&gt;Subsystem:Readiness</title>
<path fill="none" stroke="black" stroke-dasharray="5,2" d="M929.743,-226.947C935.879,-225.752 942.032,-224.735 948,-224 965.316,-221.868 983.755,-222.359 1001.49,-224.226"/>
<polygon fill="black" stroke="black" points="1001.5,-227.752 1011.84,-225.476 1002.34,-220.802 1001.5,-227.752"/>
<text text-anchor="middle" x="971" y="-228.4" font-family="Times Roman,serif" font-size="14.00">DOL &#160;</text>
</g>
<!-- FWSetup:Status -->
<g id="node28" class="node"><title>FWSetup:Status</title>
<polygon fill="none" stroke="black" stroke-dasharray="5,2" points="700,-223 570,-223 570,-187 700,-187 700,-223"/>
<text text-anchor="middle" x="635" y="-200.9" font-family="Times Roman,serif" font-size="14.00">FWSetup:Status</text>
</g>
<!-- FWSetup:Status&#45;&gt;Subsystem:Calc -->
<g id="edge30" class="edge"><title>FWSetup:Status&#45;&gt;Subsystem:Calc</title>
<path fill="none" stroke="black" stroke-dasharray="5,2" d="M700.017,-208.438C725.17,-210.507 754.089,-213.796 780,-219 782.806,-219.564 785.652,-220.184 788.517,-220.85"/>
<polygon fill="black" stroke="black" points="787.749,-224.266 798.298,-223.274 789.433,-217.471 787.749,-224.266"/>
<text text-anchor="middle" x="757" y="-223.4" font-family="Times Roman,serif" font-size="14.00">INPC &#160;</text>
</g>
<!-- Fault:Status -->
<g id="node31" class="node"><title>Fault:Status</title>
<polygon fill="none" stroke="black" stroke-dasharray="5,2" points="685,-169 585,-169 585,-133 685,-133 685,-169"/>
<text text-anchor="middle" x="635" y="-146.9" font-family="Times Roman,serif" font-size="14.00">Fault:Status</text>
</g>
<!-- Fault:Status&#45;&gt;Subsystem:Calc -->
<g id="edge34" class="edge"><title>Fault:Status&#45;&gt;Subsystem:Calc</title>
<path fill="none" stroke="black" stroke-dasharray="5,2" d="M685.284,-160.927C713.799,-167.519 749.721,-177.469 780,-191 791.982,-196.355 804.224,-203.265 815.523,-210.342"/>
<polygon fill="black" stroke="black" points="813.655,-213.302 823.96,-215.763 817.439,-207.413 813.655,-213.302"/>
<text text-anchor="middle" x="757" y="-195.4" font-family="Times Roman,serif" font-size="14.00">INPD &#160;</text>
</g>
</g>
</svg>
