<?xml version="1.0" encoding="UTF-8" standalone="no"?>
<!DOCTYPE svg PUBLIC "-//W3C//DTD SVG 1.1//EN"
 "http://www.w3.org/Graphics/SVG/1.1/DTD/svg11.dtd">
<!-- Generated by graphviz version 2.26.3 (20100126.1600)
 -->
<!-- Title: fw_motion_achieved_subs Pages: 1 -->
<svg width="438pt" height="650pt"
 viewBox="0.00 0.00 438.00 650.00" xmlns="http://www.w3.org/2000/svg" xmlns:xlink="http://www.w3.org/1999/xlink">
<g id="graph1" class="graph" transform="scale(1 1) rotate(0) translate(4 646)">
<title>fw_motion_achieved_subs</title>
<polygon fill="white" stroke="white" points="-4,5 -4,-646 435,-646 435,5 -4,5"/>
<!-- WedgeTypeNone:Achieved -->
<g id="node1" class="node"><title>WedgeTypeNone:Achieved</title>
<polygon fill="none" stroke="black" points="198,-222 4.26326e-14,-222 0,-180 198,-180 198,-222"/>
<text text-anchor="middle" x="99" y="-205.4" font-family="Times Roman,serif" font-size="14.00">WedgeTypeNone:Achieved</text>
<text text-anchor="middle" x="99" y="-188.4" font-family="Times Roman,serif" font-size="14.00">bi</text>
</g>
<!-- WedgeType:Encode -->
<g id="node3" class="node"><title>WedgeType:Encode</title>
<polygon fill="none" stroke="black" stroke-dasharray="5,2" points="429,-129 281,-129 281,-93 429,-93 429,-129"/>
<text text-anchor="middle" x="355" y="-106.9" font-family="Times Roman,serif" font-size="14.00">WedgeType:Encode</text>
</g>
<!-- WedgeTypeNone:Achieved&#45;&gt;WedgeType:Encode -->
<g id="edge2" class="edge"><title>WedgeTypeNone:Achieved&#45;&gt;WedgeType:Encode</title>
<path fill="none" stroke="black" stroke-dasharray="1,5" d="M169.981,-179.967C179.426,-177.029 188.964,-173.991 198,-171 226.695,-161.503 233.732,-158.699 262,-148 274.562,-143.245 288.017,-137.989 300.68,-132.967"/>
<polygon fill="black" stroke="black" points="302.185,-136.135 310.181,-129.184 299.596,-129.631 302.185,-136.135"/>
<text text-anchor="middle" x="239" y="-169.4" font-family="Times Roman,serif" font-size="14.00">FLNK &#160;</text>
</g>
<!-- WedgeType30:Achieved -->
<g id="node4" class="node"><title>WedgeType30:Achieved</title>
<polygon fill="none" stroke="black" points="189,-162 9,-162 9,-120 189,-120 189,-162"/>
<text text-anchor="middle" x="99" y="-145.4" font-family="Times Roman,serif" font-size="14.00">WedgeType30:Achieved</text>
<text text-anchor="middle" x="99" y="-128.4" font-family="Times Roman,serif" font-size="14.00">bi</text>
</g>
<!-- WedgeType30:Achieved&#45;&gt;WedgeType:Encode -->
<g id="edge4" class="edge"><title>WedgeType30:Achieved&#45;&gt;WedgeType:Encode</title>
<path fill="none" stroke="black" stroke-dasharray="1,5" d="M189.256,-130.423C215.562,-127.34 244.204,-123.984 270.164,-120.942"/>
<polygon fill="black" stroke="black" points="270.823,-124.388 280.348,-119.748 270.009,-117.436 270.823,-124.388"/>
<text text-anchor="middle" x="239" y="-131.4" font-family="Times Roman,serif" font-size="14.00">FLNK &#160;</text>
</g>
<!-- WedgeType45:Achieved -->
<g id="node6" class="node"><title>WedgeType45:Achieved</title>
<polygon fill="none" stroke="black" points="189,-102 9,-102 9,-60 189,-60 189,-102"/>
<text text-anchor="middle" x="99" y="-85.4" font-family="Times Roman,serif" font-size="14.00">WedgeType45:Achieved</text>
<text text-anchor="middle" x="99" y="-68.4" font-family="Times Roman,serif" font-size="14.00">bi</text>
</g>
<!-- WedgeType45:Achieved&#45;&gt;WedgeType:Encode -->
<g id="edge6" class="edge"><title>WedgeType45:Achieved&#45;&gt;WedgeType:Encode</title>
<path fill="none" stroke="black" stroke-dasharray="1,5" d="M189.256,-91.5769C215.562,-94.6596 244.204,-98.0161 270.164,-101.058"/>
<polygon fill="black" stroke="black" points="270.009,-104.564 280.348,-102.252 270.823,-97.6115 270.009,-104.564"/>
<text text-anchor="middle" x="239" y="-104.4" font-family="Times Roman,serif" font-size="14.00">FLNK &#160;</text>
</g>
<!-- WedgeType60:Achieved -->
<g id="node8" class="node"><title>WedgeType60:Achieved</title>
<polygon fill="none" stroke="black" points="189,-42 9,-42 9,-1.06581e-14 189,-0 189,-42"/>
<text text-anchor="middle" x="99" y="-25.4" font-family="Times Roman,serif" font-size="14.00">WedgeType60:Achieved</text>
<text text-anchor="middle" x="99" y="-8.4" font-family="Times Roman,serif" font-size="14.00">bi</text>
</g>
<!-- WedgeType60:Achieved&#45;&gt;WedgeType:Encode -->
<g id="edge8" class="edge"><title>WedgeType60:Achieved&#45;&gt;WedgeType:Encode</title>
<path fill="none" stroke="black" stroke-dasharray="1,5" d="M170.554,-42.0834C179.818,-44.9885 189.155,-48.0047 198,-51 226.774,-60.7434 233.612,-64.1833 262,-75 274,-79.5724 286.853,-84.5173 299.058,-89.235"/>
<polygon fill="black" stroke="black" points="298.089,-92.613 308.678,-92.9584 300.616,-86.0849 298.089,-92.613"/>
<text text-anchor="middle" x="239" y="-79.4" font-family="Times Roman,serif" font-size="14.00">FLNK &#160;</text>
</g>
<!-- WedgeRot0:Achieved -->
<g id="node10" class="node"><title>WedgeRot0:Achieved</title>
<polygon fill="none" stroke="black" points="180,-462 18,-462 18,-420 180,-420 180,-462"/>
<text text-anchor="middle" x="99" y="-445.4" font-family="Times Roman,serif" font-size="14.00">WedgeRot0:Achieved</text>
<text text-anchor="middle" x="99" y="-428.4" font-family="Times Roman,serif" font-size="14.00">bi</text>
</g>
<!-- WedgeRot:Encode -->
<g id="node12" class="node"><title>WedgeRot:Encode</title>
<polygon fill="none" stroke="black" stroke-dasharray="5,2" points="425,-369 285,-369 285,-333 425,-333 425,-369"/>
<text text-anchor="middle" x="355" y="-346.9" font-family="Times Roman,serif" font-size="14.00">WedgeRot:Encode</text>
</g>
<!-- WedgeRot0:Achieved&#45;&gt;WedgeRot:Encode -->
<g id="edge10" class="edge"><title>WedgeRot0:Achieved&#45;&gt;WedgeRot:Encode</title>
<path fill="none" stroke="black" stroke-dasharray="1,5" d="M170.554,-419.917C179.818,-417.012 189.155,-413.995 198,-411 226.774,-401.257 233.612,-397.817 262,-387 274,-382.428 286.853,-377.483 299.058,-372.765"/>
<polygon fill="black" stroke="black" points="300.616,-375.915 308.678,-369.042 298.089,-369.387 300.616,-375.915"/>
<text text-anchor="middle" x="239" y="-408.4" font-family="Times Roman,serif" font-size="14.00">FLNK &#160;</text>
</g>
<!-- WedgeRot90:Achieved -->
<g id="node13" class="node"><title>WedgeRot90:Achieved</title>
<polygon fill="none" stroke="black" points="185,-402 13,-402 13,-360 185,-360 185,-402"/>
<text text-anchor="middle" x="99" y="-385.4" font-family="Times Roman,serif" font-size="14.00">WedgeRot90:Achieved</text>
<text text-anchor="middle" x="99" y="-368.4" font-family="Times Roman,serif" font-size="14.00">bi</text>
</g>
<!-- WedgeRot90:Achieved&#45;&gt;WedgeRot:Encode -->
<g id="edge12" class="edge"><title>WedgeRot90:Achieved&#45;&gt;WedgeRot:Encode</title>
<path fill="none" stroke="black" stroke-dasharray="1,5" d="M185.313,-370.885C214.013,-367.522 245.852,-363.791 274.125,-360.478"/>
<polygon fill="black" stroke="black" points="274.843,-363.917 284.368,-359.277 274.028,-356.965 274.843,-363.917"/>
<text text-anchor="middle" x="239" y="-370.4" font-family="Times Roman,serif" font-size="14.00">FLNK &#160;</text>
</g>
<!-- WedgeRot180:Achieved -->
<g id="node15" class="node"><title>WedgeRot180:Achieved</title>
<polygon fill="none" stroke="black" points="189,-342 9,-342 9,-300 189,-300 189,-342"/>
<text text-anchor="middle" x="99" y="-325.4" font-family="Times Roman,serif" font-size="14.00">WedgeRot180:Achieved</text>
<text text-anchor="middle" x="99" y="-308.4" font-family="Times Roman,serif" font-size="14.00">bi</text>
</g>
<!-- WedgeRot180:Achieved&#45;&gt;WedgeRot:Encode -->
<g id="edge14" class="edge"><title>WedgeRot180:Achieved&#45;&gt;WedgeRot:Encode</title>
<path fill="none" stroke="black" stroke-dasharray="1,5" d="M189.616,-331.619C217.165,-334.847 247.246,-338.373 274.11,-341.521"/>
<polygon fill="black" stroke="black" points="273.897,-345.02 284.237,-342.707 274.712,-338.067 273.897,-345.02"/>
<text text-anchor="middle" x="239" y="-343.4" font-family="Times Roman,serif" font-size="14.00">FLNK &#160;</text>
</g>
<!-- WedgeRot270:Achieved -->
<g id="node17" class="node"><title>WedgeRot270:Achieved</title>
<polygon fill="none" stroke="black" points="189,-282 9,-282 9,-240 189,-240 189,-282"/>
<text text-anchor="middle" x="99" y="-265.4" font-family="Times Roman,serif" font-size="14.00">WedgeRot270:Achieved</text>
<text text-anchor="middle" x="99" y="-248.4" font-family="Times Roman,serif" font-size="14.00">bi</text>
</g>
<!-- WedgeRot270:Achieved&#45;&gt;WedgeRot:Encode -->
<g id="edge16" class="edge"><title>WedgeRot270:Achieved&#45;&gt;WedgeRot:Encode</title>
<path fill="none" stroke="black" stroke-dasharray="1,5" d="M169.981,-282.033C179.426,-284.971 188.964,-288.009 198,-291 226.695,-300.497 233.732,-303.301 262,-314 274.562,-318.755 288.017,-324.011 300.68,-329.033"/>
<polygon fill="black" stroke="black" points="299.596,-332.369 310.181,-332.816 302.185,-325.865 299.596,-332.369"/>
<text text-anchor="middle" x="239" y="-318.4" font-family="Times Roman,serif" font-size="14.00">FLNK &#160;</text>
</g>
<!-- FlatFilterLarge:Achieved -->
<g id="node19" class="node"><title>FlatFilterLarge:Achieved</title>
<polygon fill="none" stroke="black" points="191,-642 7,-642 7,-600 191,-600 191,-642"/>
<text text-anchor="middle" x="99" y="-625.4" font-family="Times Roman,serif" font-size="14.00">FlatFilterLarge:Achieved</text>
<text text-anchor="middle" x="99" y="-608.4" font-family="Times Roman,serif" font-size="14.00">bi</text>
</g>
<!-- FlatFilter:Encode -->
<g id="node21" class="node"><title>FlatFilter:Encode</title>
<polygon fill="none" stroke="black" stroke-dasharray="5,2" points="421,-579 289,-579 289,-543 421,-543 421,-579"/>
<text text-anchor="middle" x="355" y="-556.9" font-family="Times Roman,serif" font-size="14.00">FlatFilter:Encode</text>
</g>
<!-- FlatFilterLarge:Achieved&#45;&gt;FlatFilter:Encode -->
<g id="edge18" class="edge"><title>FlatFilterLarge:Achieved&#45;&gt;FlatFilter:Encode</title>
<path fill="none" stroke="black" stroke-dasharray="1,5" d="M188.896,-599.931C218.28,-593.044 250.611,-585.466 278.879,-578.841"/>
<polygon fill="black" stroke="black" points="279.759,-582.23 288.696,-576.54 278.162,-575.414 279.759,-582.23"/>
<text text-anchor="middle" x="239" y="-596.4" font-family="Times Roman,serif" font-size="14.00">FLNK &#160;</text>
</g>
<!-- FlatFilterSmall:Achieved -->
<g id="node22" class="node"><title>FlatFilterSmall:Achieved</title>
<polygon fill="none" stroke="black" points="190,-582 8,-582 8,-540 190,-540 190,-582"/>
<text text-anchor="middle" x="99" y="-565.4" font-family="Times Roman,serif" font-size="14.00">FlatFilterSmall:Achieved</text>
<text text-anchor="middle" x="99" y="-548.4" font-family="Times Roman,serif" font-size="14.00">bi</text>
</g>
<!-- FlatFilterSmall:Achieved&#45;&gt;FlatFilter:Encode -->
<g id="edge20" class="edge"><title>FlatFilterSmall:Achieved&#45;&gt;FlatFilter:Encode</title>
<path fill="none" stroke="black" stroke-dasharray="1,5" d="M190.338,-561C219.24,-561 250.866,-561 278.608,-561"/>
<polygon fill="black" stroke="black" points="278.641,-564.5 288.64,-561 278.64,-557.5 278.641,-564.5"/>
<text text-anchor="middle" x="239" y="-565.4" font-family="Times Roman,serif" font-size="14.00">FLNK &#160;</text>
</g>
<!-- FlatFilterNone:Achieved -->
<g id="node24" class="node"><title>FlatFilterNone:Achieved</title>
<polygon fill="none" stroke="black" points="189,-522 9,-522 9,-480 189,-480 189,-522"/>
<text text-anchor="middle" x="99" y="-505.4" font-family="Times Roman,serif" font-size="14.00">FlatFilterNone:Achieved</text>
<text text-anchor="middle" x="99" y="-488.4" font-family="Times Roman,serif" font-size="14.00">bi</text>
</g>
<!-- FlatFilterNone:Achieved&#45;&gt;FlatFilter:Encode -->
<g id="edge22" class="edge"><title>FlatFilterNone:Achieved&#45;&gt;FlatFilter:Encode</title>
<path fill="none" stroke="black" stroke-dasharray="1,5" d="M188.896,-522.069C218.28,-528.956 250.611,-536.534 278.879,-543.159"/>
<polygon fill="black" stroke="black" points="278.162,-546.586 288.696,-545.46 279.759,-539.77 278.162,-546.586"/>
<text text-anchor="middle" x="239" y="-542.4" font-family="Times Roman,serif" font-size="14.00">FLNK &#160;</text>
</g>
</g>
</svg>
