<?xml version="1.0" encoding="UTF-8" standalone="no"?>
<!DOCTYPE svg PUBLIC "-//W3C//DTD SVG 1.1//EN"
 "http://www.w3.org/Graphics/SVG/1.1/DTD/svg11.dtd">
<!-- Generated by graphviz version 2.26.3 (20100126.1600)
 -->
<!-- Title: fw_motion_input_subs Pages: 1 -->
<svg width="440pt" height="350pt"
 viewBox="0.00 0.00 440.00 350.00" xmlns="http://www.w3.org/2000/svg" xmlns:xlink="http://www.w3.org/1999/xlink">
<g id="graph1" class="graph" transform="scale(1 1) rotate(0) translate(4 346)">
<title>fw_motion_input_subs</title>
<polygon fill="white" stroke="white" points="-4,5 -4,-346 437,-346 437,5 -4,5"/>
<!-- WedgeRot:DriveEnabled -->
<g id="node1" class="node"><title>WedgeRot:DriveEnabled</title>
<polygon fill="none" stroke="black" points="188,-342 4,-342 4,-300 188,-300 188,-342"/>
<text text-anchor="middle" x="96" y="-325.4" font-family="Times Roman,serif" font-size="14.00">WedgeRot:DriveEnabled</text>
<text text-anchor="middle" x="96" y="-308.4" font-family="Times Roman,serif" font-size="14.00">bi</text>
</g>
<!-- MotionSafety:Status -->
<g id="node3" class="node"><title>MotionSafety:Status</title>
<polygon fill="none" stroke="black" stroke-dasharray="5,2" points="431,-189 275,-189 275,-153 431,-153 431,-189"/>
<text text-anchor="middle" x="353" y="-166.9" font-family="Times Roman,serif" font-size="14.00">MotionSafety:Status</text>
</g>
<!-- WedgeRot:DriveEnabled&#45;&gt;MotionSafety:Status -->
<g id="edge2" class="edge"><title>WedgeRot:DriveEnabled&#45;&gt;MotionSafety:Status</title>
<path fill="none" stroke="black" stroke-dasharray="1,5" d="M171.629,-299.997C178.64,-297.268 185.533,-294.27 192,-291 243.119,-265.152 294.945,-223.047 325.51,-196.204"/>
<polygon fill="black" stroke="black" points="328.025,-198.652 333.179,-189.396 323.377,-193.417 328.025,-198.652"/>
<text text-anchor="middle" x="233" y="-284.4" font-family="Times Roman,serif" font-size="14.00">FLNK &#160;</text>
</g>
<!-- WedgeType:DriveEnabled -->
<g id="node4" class="node"><title>WedgeType:DriveEnabled</title>
<polygon fill="none" stroke="black" points="192,-282 4.26326e-14,-282 0,-240 192,-240 192,-282"/>
<text text-anchor="middle" x="96" y="-265.4" font-family="Times Roman,serif" font-size="14.00">WedgeType:DriveEnabled</text>
<text text-anchor="middle" x="96" y="-248.4" font-family="Times Roman,serif" font-size="14.00">bi</text>
</g>
<!-- WedgeType:DriveEnabled&#45;&gt;MotionSafety:Status -->
<g id="edge4" class="edge"><title>WedgeType:DriveEnabled&#45;&gt;MotionSafety:Status</title>
<path fill="none" stroke="black" stroke-dasharray="1,5" d="M164.843,-239.979C173.999,-237.039 183.244,-233.997 192,-231 227.015,-219.014 265.907,-204.553 296.694,-192.831"/>
<polygon fill="black" stroke="black" points="298.296,-195.965 306.389,-189.128 295.799,-189.426 298.296,-195.965"/>
<text text-anchor="middle" x="233" y="-227.4" font-family="Times Roman,serif" font-size="14.00">FLNK &#160;</text>
</g>
<!-- FlatFilter:DriveEnabled -->
<g id="node6" class="node"><title>FlatFilter:DriveEnabled</title>
<polygon fill="none" stroke="black" points="183,-222 9,-222 9,-180 183,-180 183,-222"/>
<text text-anchor="middle" x="96" y="-205.4" font-family="Times Roman,serif" font-size="14.00">FlatFilter:DriveEnabled</text>
<text text-anchor="middle" x="96" y="-188.4" font-family="Times Roman,serif" font-size="14.00">bi</text>
</g>
<!-- FlatFilter:DriveEnabled&#45;&gt;MotionSafety:Status -->
<g id="edge6" class="edge"><title>FlatFilter:DriveEnabled&#45;&gt;MotionSafety:Status</title>
<path fill="none" stroke="black" stroke-dasharray="1,5" d="M183.726,-190.76C209.657,-187.733 238.059,-184.417 264.066,-181.381"/>
<polygon fill="black" stroke="black" points="264.758,-184.825 274.285,-180.189 263.946,-177.872 264.758,-184.825"/>
<text text-anchor="middle" x="233" y="-190.4" font-family="Times Roman,serif" font-size="14.00">FLNK &#160;</text>
</g>
<!-- WedgeRot:ErrorOK -->
<g id="node8" class="node"><title>WedgeRot:ErrorOK</title>
<polygon fill="none" stroke="black" points="169,-162 23,-162 23,-120 169,-120 169,-162"/>
<text text-anchor="middle" x="96" y="-145.4" font-family="Times Roman,serif" font-size="14.00">WedgeRot:ErrorOK</text>
<text text-anchor="middle" x="96" y="-128.4" font-family="Times Roman,serif" font-size="14.00">bi</text>
</g>
<!-- WedgeRot:ErrorOK&#45;&gt;MotionSafety:Status -->
<g id="edge8" class="edge"><title>WedgeRot:ErrorOK&#45;&gt;MotionSafety:Status</title>
<path fill="none" stroke="black" stroke-dasharray="1,5" d="M169.646,-149.597C199.097,-153.035 233.28,-157.025 264.096,-160.622"/>
<polygon fill="black" stroke="black" points="264.068,-164.142 274.406,-161.826 264.879,-157.19 264.068,-164.142"/>
<text text-anchor="middle" x="233" y="-163.4" font-family="Times Roman,serif" font-size="14.00">FLNK &#160;</text>
</g>
<!-- WedgeType:ErrorOK -->
<g id="node10" class="node"><title>WedgeType:ErrorOK</title>
<polygon fill="none" stroke="black" points="173,-102 19,-102 19,-60 173,-60 173,-102"/>
<text text-anchor="middle" x="96" y="-85.4" font-family="Times Roman,serif" font-size="14.00">WedgeType:ErrorOK</text>
<text text-anchor="middle" x="96" y="-68.4" font-family="Times Roman,serif" font-size="14.00">bi</text>
</g>
<!-- WedgeType:ErrorOK&#45;&gt;MotionSafety:Status -->
<g id="edge10" class="edge"><title>WedgeType:ErrorOK&#45;&gt;MotionSafety:Status</title>
<path fill="none" stroke="black" stroke-dasharray="1,5" d="M164.55,-102.035C173.797,-104.985 183.144,-108.026 192,-111 227.34,-122.866 266.545,-137.446 297.419,-149.262"/>
<polygon fill="black" stroke="black" points="296.545,-152.675 307.135,-152.994 299.055,-146.141 296.545,-152.675"/>
<text text-anchor="middle" x="233" y="-137.4" font-family="Times Roman,serif" font-size="14.00">FLNK &#160;</text>
</g>
<!-- FlatFilter:ErrorOK -->
<g id="node12" class="node"><title>FlatFilter:ErrorOK</title>
<polygon fill="none" stroke="black" points="165,-42 27,-42 27,-1.06581e-14 165,-0 165,-42"/>
<text text-anchor="middle" x="96" y="-25.4" font-family="Times Roman,serif" font-size="14.00">FlatFilter:ErrorOK</text>
<text text-anchor="middle" x="96" y="-8.4" font-family="Times Roman,serif" font-size="14.00">bi</text>
</g>
<!-- FlatFilter:ErrorOK&#45;&gt;MotionSafety:Status -->
<g id="edge12" class="edge"><title>FlatFilter:ErrorOK&#45;&gt;MotionSafety:Status</title>
<path fill="none" stroke="black" stroke-dasharray="1,5" d="M165.23,-39.6916C174.415,-43.0185 183.564,-46.7882 192,-51 243.537,-76.7296 295.618,-119.237 326.071,-146.145"/>
<polygon fill="black" stroke="black" points="323.911,-148.909 333.7,-152.962 328.575,-143.689 323.911,-148.909"/>
<text text-anchor="middle" x="233" y="-92.4" font-family="Times Roman,serif" font-size="14.00">FLNK &#160;</text>
</g>
</g>
</svg>
