<?xml version="1.0" encoding="UTF-8" standalone="no"?>
<!DOCTYPE svg PUBLIC "-//W3C//DTD SVG 1.1//EN"
 "http://www.w3.org/Graphics/SVG/1.1/DTD/svg11.dtd">
<!-- Generated by graphviz version 2.40.1 (20161225.0304)
 -->
<!-- Title: gantry_couch_converters Pages: 1 -->
<svg width="2245pt" height="333pt"
 viewBox="0.00 0.00 2244.71 333.00" xmlns="http://www.w3.org/2000/svg" xmlns:xlink="http://www.w3.org/1999/xlink">
<g id="graph0" class="graph" transform="scale(1 1) rotate(0) translate(4 329)">
<title>gantry_couch_converters</title>
<polygon fill="#ffffff" stroke="transparent" points="-4,4 -4,-329 2240.7129,-329 2240.7129,4 -4,4"/>
<!-- Prescribed -->
<g id="node1" class="node">
<title>Prescribed</title>
<polygon fill="none" stroke="#000000" points="690.4073,-36 615.2275,-36 615.2275,0 690.4073,0 690.4073,-36"/>
<text text-anchor="middle" x="652.8174" y="-20.8" font-family="Times,serif" font-size="14.00" fill="#000000">Prescribed</text>
<text text-anchor="middle" x="652.8174" y="-6.8" font-family="Times,serif" font-size="14.00" fill="#000000">ao</text>
</g>
<!-- Calc -->
<g id="node2" class="node">
<title>Calc</title>
<polygon fill="none" stroke="#000000" points="1081.5493,-154 790.5435,-154 790.5435,-104 1081.5493,-104 1081.5493,-154"/>
<text text-anchor="middle" x="936.0464" y="-138.8" font-family="Times,serif" font-size="14.00" fill="#000000">Calc</text>
<text text-anchor="middle" x="936.0464" y="-124.8" font-family="Times,serif" font-size="14.00" fill="#000000">calc</text>
<text text-anchor="middle" x="936.0464" y="-110.8" font-family="Times,serif" font-size="14.00" fill="#000000">D?2:ABS(A&#45;B)&lt;=C?2:ABS(A&#45;(360&#45;B))&lt;=C?2:0</text>
</g>
<!-- Prescribed&#45;&gt;Calc -->
<g id="edge1" class="edge">
<title>Prescribed&#45;&gt;Calc</title>
<path fill="none" stroke="#000000" stroke-dasharray="1,5" d="M690.6156,-12.8292C714.616,-10.8724 746.0364,-10.7916 772.5449,-19 822.195,-34.3742 870.4981,-70.2411 901.5668,-96.8633"/>
<polygon fill="#000000" stroke="#000000" points="899.6348,-99.8224 909.4717,-103.7576 904.2358,-94.5469 899.6348,-99.8224"/>
<text text-anchor="middle" x="750.7656" y="-21.8" font-family="Times,serif" font-size="14.00" fill="#000000">FLNK &#160;</text>
</g>
<!-- Prescribed&#45;&gt;Calc -->
<g id="edge12" class="edge">
<title>Prescribed&#45;&gt;Calc</title>
<path fill="none" stroke="#000000" stroke-dasharray="5,2" d="M690.428,-32.7399C734.2401,-49.9103 807.6513,-78.6808 862.8298,-100.3058"/>
<polygon fill="#000000" stroke="#000000" points="861.6263,-103.5932 872.2139,-103.9835 864.1805,-97.0759 861.6263,-103.5932"/>
<text text-anchor="middle" x="750.7656" y="-66.8" font-family="Times,serif" font-size="14.00" fill="#000000">INPA &#160;</text>
</g>
<!-- CalcAlarm -->
<g id="node10" class="node">
<title>CalcAlarm</title>
<polygon fill="none" stroke="#000000" points="1280.7591,-185 1160.8884,-185 1160.8884,-135 1280.7591,-135 1280.7591,-185"/>
<text text-anchor="middle" x="1220.8237" y="-169.8" font-family="Times,serif" font-size="14.00" fill="#000000">CalcAlarm</text>
<text text-anchor="middle" x="1220.8237" y="-155.8" font-family="Times,serif" font-size="14.00" fill="#000000">calc</text>
<text text-anchor="middle" x="1220.8237" y="-141.8" font-family="Times,serif" font-size="14.00" fill="#000000">!E&amp;&amp;!F&amp;&amp;A?2:0</text>
</g>
<!-- Prescribed&#45;&gt;CalcAlarm -->
<g id="edge14" class="edge">
<title>Prescribed&#45;&gt;CalcAlarm</title>
<path fill="none" stroke="#000000" stroke-dasharray="5,2" d="M690.3682,-11.5348C713.9976,-8.3674 745.1065,-5.8456 772.5449,-9 912.6357,-25.1054 950.2022,-29.686 1081.5479,-81 1114.2326,-93.7692 1148.5474,-113.1535 1174.9379,-129.5245"/>
<polygon fill="#000000" stroke="#000000" points="1173.2404,-132.5915 1183.5701,-134.947 1176.9639,-126.6639 1173.2404,-132.5915"/>
<text text-anchor="middle" x="936.0464" y="-83.8" font-family="Times,serif" font-size="14.00" fill="#000000">INPE &#160;SEVR</text>
</g>
<!-- Calc&#45;&gt;CalcAlarm -->
<g id="edge13" class="edge">
<title>Calc&#45;&gt;CalcAlarm</title>
<path fill="none" stroke="#000000" stroke-dasharray="1,5" d="M1081.5949,-119.8939C1102.3743,-120.8226 1123.3791,-122.9852 1143.1064,-127 1148.8117,-128.1611 1154.6174,-129.7563 1160.355,-131.6229"/>
<polygon fill="#000000" stroke="#000000" points="1159.3222,-134.9699 1169.9171,-134.9918 1161.6484,-128.3676 1159.3222,-134.9699"/>
<text text-anchor="middle" x="1121.3271" y="-129.8" font-family="Times,serif" font-size="14.00" fill="#000000">FLNK &#160;</text>
</g>
<!-- Calc&#45;&gt;CalcAlarm -->
<g id="edge16" class="edge">
<title>Calc&#45;&gt;CalcAlarm</title>
<path fill="none" stroke="#000000" stroke-dasharray="5,2" d="M1081.772,-144.8633C1105.8803,-147.4876 1129.861,-150.0981 1150.9476,-152.3935"/>
<polygon fill="#000000" stroke="#000000" points="1150.7345,-155.8909 1161.0546,-153.4937 1151.4921,-148.932 1150.7345,-155.8909"/>
<text text-anchor="middle" x="1121.3271" y="-153.8" font-family="Times,serif" font-size="14.00" fill="#000000">INPA &#160;</text>
</g>
<!-- PosNegAngle -->
<g id="node3" class="node">
<title>PosNegAngle</title>
<polygon fill="none" stroke="#000000" points="234.6013,-254 141.0559,-254 141.0559,-204 234.6013,-204 234.6013,-254"/>
<text text-anchor="middle" x="187.8286" y="-238.8" font-family="Times,serif" font-size="14.00" fill="#000000">PosNegAngle</text>
<text text-anchor="middle" x="187.8286" y="-224.8" font-family="Times,serif" font-size="14.00" fill="#000000">calc</text>
<text text-anchor="middle" x="187.8286" y="-210.8" font-family="Times,serif" font-size="14.00" fill="#000000">A*B+C</text>
</g>
<!-- PosAngleCalc -->
<g id="node5" class="node">
<title>PosAngleCalc</title>
<polygon fill="none" stroke="#000000" points="507.9571,-268 314.3788,-268 314.3788,-190 507.9571,-190 507.9571,-268"/>
<text text-anchor="middle" x="411.168" y="-252.8" font-family="Times,serif" font-size="14.00" fill="#000000">PosAngleCalc</text>
<text text-anchor="middle" x="411.168" y="-238.8" font-family="Times,serif" font-size="14.00" fill="#000000">calcout</text>
<text text-anchor="middle" x="411.168" y="-224.8" font-family="Times,serif" font-size="14.00" fill="#000000">ABS(A&#45;D)&lt;E?0:A&gt;=B?A:A+C</text>
<text text-anchor="middle" x="411.168" y="-210.8" font-family="Times,serif" font-size="14.00" fill="#000000">Every Time</text>
<text text-anchor="middle" x="411.168" y="-196.8" font-family="Times,serif" font-size="14.00" fill="#000000">Use CALC</text>
</g>
<!-- PosNegAngle&#45;&gt;PosAngleCalc -->
<g id="edge3" class="edge">
<title>PosNegAngle&#45;&gt;PosAngleCalc</title>
<path fill="none" stroke="#000000" stroke-dasharray="1,5" d="M234.6479,-229C254.9961,-229 279.7408,-229 304.1854,-229"/>
<polygon fill="#000000" stroke="#000000" points="304.2598,-232.5001 314.2598,-229 304.2598,-225.5001 304.2598,-232.5001"/>
<text text-anchor="middle" x="274.4941" y="-231.8" font-family="Times,serif" font-size="14.00" fill="#000000">FLNK &#160;</text>
</g>
<!-- PosNegAngle&#45;&gt;PosAngleCalc -->
<g id="edge4" class="edge">
<title>PosNegAngle&#45;&gt;PosAngleCalc</title>
<path fill="none" stroke="#000000" stroke-dasharray="5,2" d="M234.6505,-214.4056C240.6782,-213.0024 246.8072,-211.8042 252.7148,-211 269.3408,-208.7366 286.9754,-208.5538 304.2091,-209.5932"/>
<polygon fill="#000000" stroke="#000000" points="304.0681,-213.0922 314.2991,-210.3399 304.5848,-206.1113 304.0681,-213.0922"/>
<text text-anchor="middle" x="274.4941" y="-213.8" font-family="Times,serif" font-size="14.00" fill="#000000">INPA &#160;</text>
</g>
<!-- VScan12 -->
<g id="node4" class="node">
<title>VScan12</title>
<polygon fill="none" stroke="#000000" stroke-dasharray="5,2" points="67.4871,-247 -.1629,-247 -.1629,-211 67.4871,-211 67.4871,-247"/>
<text text-anchor="middle" x="33.6621" y="-224.8" font-family="Times,serif" font-size="14.00" fill="#000000">VScan12</text>
</g>
<!-- VScan12&#45;&gt;PosNegAngle -->
<g id="edge2" class="edge">
<title>VScan12&#45;&gt;PosNegAngle</title>
<path fill="none" stroke="#000000" stroke-dasharray="5,2" d="M67.4946,-229C86.0042,-229 109.4332,-229 130.6894,-229"/>
<polygon fill="#000000" stroke="#000000" points="130.9187,-232.5001 140.9186,-229 130.9186,-225.5001 130.9187,-232.5001"/>
<text text-anchor="middle" x="104.1333" y="-231.8" font-family="Times,serif" font-size="14.00" fill="#000000">INPA &#160;</text>
</g>
<!-- MergeLeadLag -->
<g id="node6" class="node">
<title>MergeLeadLag</title>
<polygon fill="none" stroke="#000000" stroke-dasharray="5,2" points="703.8545,-229 601.7803,-229 601.7803,-193 703.8545,-193 703.8545,-229"/>
<text text-anchor="middle" x="652.8174" y="-206.8" font-family="Times,serif" font-size="14.00" fill="#000000">MergeLeadLag</text>
</g>
<!-- PosAngleCalc&#45;&gt;MergeLeadLag -->
<g id="edge5" class="edge">
<title>PosAngleCalc&#45;&gt;MergeLeadLag</title>
<path fill="none" stroke="#000000" stroke-dasharray="1,5" d="M508.0142,-221.3631C514.1214,-220.8972 520.1765,-220.4395 526.0625,-220 547.4268,-218.4048 570.8219,-216.7248 591.633,-215.2538"/>
<polygon fill="#000000" stroke="#000000" points="591.8924,-218.7443 601.6216,-214.5498 591.4002,-211.7616 591.8924,-218.7443"/>
<text text-anchor="middle" x="551.3555" y="-222.8" font-family="Times,serif" font-size="14.00" fill="#000000">FLNK &#160;</text>
</g>
<!-- Actual -->
<g id="node7" class="node">
<title>Actual</title>
<polygon fill="none" stroke="#000000" points="679.8174,-283 625.8174,-283 625.8174,-247 679.8174,-247 679.8174,-283"/>
<text text-anchor="middle" x="652.8174" y="-267.8" font-family="Times,serif" font-size="14.00" fill="#000000">Actual</text>
<text text-anchor="middle" x="652.8174" y="-253.8" font-family="Times,serif" font-size="14.00" fill="#000000">ao</text>
</g>
<!-- PosAngleCalc&#45;&gt;Actual -->
<g id="edge6" class="edge">
<title>PosAngleCalc&#45;&gt;Actual</title>
<path fill="none" stroke="#000000" d="M508.0637,-243.4351C545.9537,-249.0799 587.1142,-255.2118 615.8233,-259.4888"/>
<polygon fill="#000000" stroke="#000000" points="615.4012,-262.9644 625.8078,-260.9762 616.4327,-256.0408 615.4012,-262.9644"/>
<text text-anchor="middle" x="551.3555" y="-255.8" font-family="Times,serif" font-size="14.00" fill="#000000">OUT PP </text>
</g>
<!-- Actual&#45;&gt;Calc -->
<g id="edge7" class="edge">
<title>Actual&#45;&gt;Calc</title>
<path fill="none" stroke="#000000" stroke-dasharray="1,5" d="M679.8486,-255.4825C704.3817,-246.5881 741.3775,-232.5316 772.5449,-218 810.9657,-200.0865 852.9385,-177.1649 884.7369,-159.07"/>
<polygon fill="#000000" stroke="#000000" points="886.4807,-162.1047 893.4245,-154.1025 883.0061,-156.0279 886.4807,-162.1047"/>
<text text-anchor="middle" x="750.7656" y="-238.8" font-family="Times,serif" font-size="14.00" fill="#000000">FLNK &#160;</text>
</g>
<!-- Actual&#45;&gt;Calc -->
<g id="edge10" class="edge">
<title>Actual&#45;&gt;Calc</title>
<path fill="none" stroke="#000000" stroke-dasharray="5,2" d="M680.1045,-256.8537C690.7642,-252.598 702.4507,-246.4692 710.9863,-238 724.2521,-224.8374 715.0529,-212.4537 728.9863,-200 749.6792,-181.5048 775.417,-167.7839 801.6371,-157.6185"/>
<polygon fill="#000000" stroke="#000000" points="803.151,-160.7901 811.3106,-154.032 800.7175,-154.2267 803.151,-160.7901"/>
<text text-anchor="middle" x="750.7656" y="-202.8" font-family="Times,serif" font-size="14.00" fill="#000000">INPB &#160;</text>
</g>
<!-- Actual&#45;&gt;CalcAlarm -->
<g id="edge15" class="edge">
<title>Actual&#45;&gt;CalcAlarm</title>
<path fill="none" stroke="#000000" stroke-dasharray="5,2" d="M680.0284,-263.3957C704.3655,-261.7481 740.963,-258.7459 772.5449,-254 907.7011,-233.6897 1063.4406,-198.2797 1151.2009,-177.2008"/>
<polygon fill="#000000" stroke="#000000" points="1152.1382,-180.5752 1161.0396,-174.8293 1150.4979,-173.7701 1152.1382,-180.5752"/>
<text text-anchor="middle" x="936.0464" y="-252.8" font-family="Times,serif" font-size="14.00" fill="#000000">INPF &#160;SEVR</text>
</g>
<!-- Actual0 -->
<g id="node15" class="node">
<title>Actual0</title>
<polygon fill="none" stroke="#000000" points="1935.2307,-313 1853.5672,-313 1853.5672,-263 1935.2307,-263 1935.2307,-313"/>
<text text-anchor="middle" x="1894.3989" y="-297.8" font-family="Times,serif" font-size="14.00" fill="#000000">Actual0</text>
<text text-anchor="middle" x="1894.3989" y="-283.8" font-family="Times,serif" font-size="14.00" fill="#000000">calc</text>
<text text-anchor="middle" x="1894.3989" y="-269.8" font-family="Times,serif" font-size="14.00" fill="#000000">FLOOR(A)</text>
</g>
<!-- Actual&#45;&gt;Actual0 -->
<g id="edge26" class="edge">
<title>Actual&#45;&gt;Actual0</title>
<path fill="none" stroke="#000000" stroke-dasharray="5,2" d="M679.9208,-272.3907C730.0677,-285.3938 840.8978,-311 936.0464,-311 936.0464,-311 936.0464,-311 1737.792,-311 1773.3447,-311 1812.9602,-305.1258 1843.4519,-299.3147"/>
<polygon fill="#000000" stroke="#000000" points="1844.2864,-302.7177 1853.4237,-297.355 1842.9364,-295.8491 1844.2864,-302.7177"/>
<text text-anchor="middle" x="1405.4922" y="-313.8" font-family="Times,serif" font-size="14.00" fill="#000000">INPA &#160;</text>
</g>
<!-- Tolerance -->
<g id="node8" class="node">
<title>Tolerance</title>
<polygon fill="none" stroke="#000000" points="688.2988,-171 617.3359,-171 617.3359,-135 688.2988,-135 688.2988,-171"/>
<text text-anchor="middle" x="652.8174" y="-155.8" font-family="Times,serif" font-size="14.00" fill="#000000">Tolerance</text>
<text text-anchor="middle" x="652.8174" y="-141.8" font-family="Times,serif" font-size="14.00" fill="#000000">ao</text>
</g>
<!-- Tolerance&#45;&gt;Calc -->
<g id="edge8" class="edge">
<title>Tolerance&#45;&gt;Calc</title>
<path fill="none" stroke="#000000" stroke-dasharray="1,5" d="M688.454,-150.4754C712.2697,-148.7502 744.2944,-146.3575 772.5449,-144 775.0926,-143.7874 777.6624,-143.5713 780.2498,-143.3521"/>
<polygon fill="#000000" stroke="#000000" points="780.6405,-146.8316 790.3063,-142.4931 780.0446,-139.857 780.6405,-146.8316"/>
<text text-anchor="middle" x="750.7656" y="-150.8" font-family="Times,serif" font-size="14.00" fill="#000000">FLNK &#160;</text>
</g>
<!-- Tolerance&#45;&gt;Calc -->
<g id="edge9" class="edge">
<title>Tolerance&#45;&gt;Calc</title>
<path fill="none" stroke="#000000" stroke-dasharray="5,2" d="M688.5609,-137.5041C701.0978,-132.8336 715.4359,-128.3306 728.9863,-126 745.4986,-123.16 762.861,-121.4534 780.2168,-120.5617"/>
<polygon fill="#000000" stroke="#000000" points="780.5857,-124.0493 790.4283,-120.1284 780.2889,-117.0556 780.5857,-124.0493"/>
<text text-anchor="middle" x="750.7656" y="-128.8" font-family="Times,serif" font-size="14.00" fill="#000000">INPC &#160;</text>
</g>
<!-- Iso:Session:Mode -->
<g id="node9" class="node">
<title>Iso:Session:Mode</title>
<polygon fill="none" stroke="#000000" stroke-dasharray="5,2" points="711.1558,-110 594.479,-110 594.479,-74 711.1558,-74 711.1558,-110"/>
<text text-anchor="middle" x="652.8174" y="-87.8" font-family="Times,serif" font-size="14.00" fill="#000000">Iso:Session:Mode</text>
</g>
<!-- Iso:Session:Mode&#45;&gt;Calc -->
<g id="edge11" class="edge">
<title>Iso:Session:Mode&#45;&gt;Calc</title>
<path fill="none" stroke="#000000" stroke-dasharray="5,2" d="M711.0423,-97.2243C730.6109,-99.1428 752.5452,-101.4705 772.5449,-104 775.1,-104.3232 777.6767,-104.6544 780.2704,-104.9927"/>
<polygon fill="#000000" stroke="#000000" points="779.9756,-108.4841 790.3492,-106.3306 780.8967,-101.545 779.9756,-108.4841"/>
<text text-anchor="middle" x="750.7656" y="-106.8" font-family="Times,serif" font-size="14.00" fill="#000000">INPD &#160;</text>
</g>
<!-- CalcFilter -->
<g id="node11" class="node">
<title>CalcFilter</title>
<polygon fill="none" stroke="#000000" points="1450.7776,-198 1360.2068,-198 1360.2068,-148 1450.7776,-148 1450.7776,-198"/>
<text text-anchor="middle" x="1405.4922" y="-182.8" font-family="Times,serif" font-size="14.00" fill="#000000">CalcFilter</text>
<text text-anchor="middle" x="1405.4922" y="-168.8" font-family="Times,serif" font-size="14.00" fill="#000000">calc</text>
<text text-anchor="middle" x="1405.4922" y="-154.8" font-family="Times,serif" font-size="14.00" fill="#000000">A?A:B;B:=A</text>
</g>
<!-- CalcAlarm&#45;&gt;CalcFilter -->
<g id="edge17" class="edge">
<title>CalcAlarm&#45;&gt;CalcFilter</title>
<path fill="none" stroke="#000000" stroke-dasharray="1,5" d="M1280.7803,-164.2207C1303.0551,-165.7888 1328.2084,-167.5595 1350.0609,-169.0978"/>
<polygon fill="#000000" stroke="#000000" points="1349.9492,-172.5985 1360.1703,-169.8095 1350.4408,-165.6158 1349.9492,-172.5985"/>
<text text-anchor="middle" x="1320.3203" y="-171.8" font-family="Times,serif" font-size="14.00" fill="#000000">FLNK &#160;</text>
</g>
<!-- CalcAlarm&#45;&gt;CalcFilter -->
<g id="edge18" class="edge">
<title>CalcAlarm&#45;&gt;CalcFilter</title>
<path fill="none" stroke="#000000" stroke-dasharray="5,2" d="M1280.6523,-147.3151C1300.3321,-144.9393 1322.2494,-144.2272 1342.0996,-148 1344.7855,-148.5105 1347.5031,-149.1325 1350.2247,-149.8418"/>
<polygon fill="#000000" stroke="#000000" points="1349.4658,-153.2672 1360.048,-152.7485 1351.4521,-146.5549 1349.4658,-153.2672"/>
<text text-anchor="middle" x="1320.3203" y="-150.8" font-family="Times,serif" font-size="14.00" fill="#000000">INPA &#160;</text>
</g>
<!-- CalcOverride -->
<g id="node12" class="node">
<title>CalcOverride</title>
<polygon fill="none" stroke="#000000" points="1622.0551,-265 1530.2388,-265 1530.2388,-215 1622.0551,-215 1622.0551,-265"/>
<text text-anchor="middle" x="1576.147" y="-249.8" font-family="Times,serif" font-size="14.00" fill="#000000">CalcOverride</text>
<text text-anchor="middle" x="1576.147" y="-235.8" font-family="Times,serif" font-size="14.00" fill="#000000">calc</text>
<text text-anchor="middle" x="1576.147" y="-221.8" font-family="Times,serif" font-size="14.00" fill="#000000">B?1:A</text>
</g>
<!-- CalcFilter&#45;&gt;CalcOverride -->
<g id="edge19" class="edge">
<title>CalcFilter&#45;&gt;CalcOverride</title>
<path fill="none" stroke="#000000" stroke-dasharray="1,5" d="M1450.8805,-163.2359C1470.5658,-161.1114 1493.4154,-161.5886 1512.4434,-170 1529.7806,-177.664 1544.4285,-192.6351 1555.2902,-206.7716"/>
<polygon fill="#000000" stroke="#000000" points="1552.522,-208.9158 1561.2396,-214.9369 1558.1795,-204.7936 1552.522,-208.9158"/>
<text text-anchor="middle" x="1490.6641" y="-172.8" font-family="Times,serif" font-size="14.00" fill="#000000">FLNK &#160;</text>
</g>
<!-- CalcFilter&#45;&gt;CalcOverride -->
<g id="edge22" class="edge">
<title>CalcFilter&#45;&gt;CalcOverride</title>
<path fill="none" stroke="#000000" stroke-dasharray="5,2" d="M1451.2245,-190.9548C1472.6491,-199.3662 1498.3528,-209.4576 1520.86,-218.294"/>
<polygon fill="#000000" stroke="#000000" points="1519.701,-221.599 1530.2884,-221.9957 1522.2592,-215.0832 1519.701,-221.599"/>
<text text-anchor="middle" x="1490.6641" y="-216.8" font-family="Times,serif" font-size="14.00" fill="#000000">INPA &#160;</text>
</g>
<!-- Readiness -->
<g id="node14" class="node">
<title>Readiness</title>
<polygon fill="none" stroke="#000000" points="1774.058,-283 1701.526,-283 1701.526,-247 1774.058,-247 1774.058,-283"/>
<text text-anchor="middle" x="1737.792" y="-267.8" font-family="Times,serif" font-size="14.00" fill="#000000">Readiness</text>
<text text-anchor="middle" x="1737.792" y="-253.8" font-family="Times,serif" font-size="14.00" fill="#000000">mbbo</text>
</g>
<!-- CalcOverride&#45;&gt;Readiness -->
<g id="edge23" class="edge">
<title>CalcOverride&#45;&gt;Readiness</title>
<path fill="none" stroke="#000000" stroke-dasharray="1,5" d="M1622.0356,-247.0971C1643.7109,-250.4494 1669.5371,-254.4437 1691.2899,-257.808"/>
<polygon fill="#000000" stroke="#000000" points="1690.8683,-261.2843 1701.2858,-259.354 1691.9382,-254.3666 1690.8683,-261.2843"/>
<text text-anchor="middle" x="1661.6299" y="-258.8" font-family="Times,serif" font-size="14.00" fill="#000000">FLNK &#160;</text>
</g>
<!-- CalcOverride&#45;&gt;Readiness -->
<g id="edge24" class="edge">
<title>CalcOverride&#45;&gt;Readiness</title>
<path fill="none" stroke="#000000" stroke-dasharray="5,2" d="M1621.9775,-229.7281C1641.2467,-227.1603 1663.7172,-226.4927 1683.4092,-232 1690.8674,-234.0859 1698.3203,-237.5052 1705.2111,-241.3708"/>
<polygon fill="#000000" stroke="#000000" points="1703.8432,-244.635 1714.207,-246.8356 1707.4775,-238.6524 1703.8432,-244.635"/>
<text text-anchor="middle" x="1661.6299" y="-234.8" font-family="Times,serif" font-size="14.00" fill="#000000">DOL &#160;</text>
</g>
<!-- Override -->
<g id="node13" class="node">
<title>Override</title>
<polygon fill="none" stroke="#000000" points="1438.2446,-268 1372.7398,-268 1372.7398,-232 1438.2446,-232 1438.2446,-268"/>
<text text-anchor="middle" x="1405.4922" y="-252.8" font-family="Times,serif" font-size="14.00" fill="#000000">Override</text>
<text text-anchor="middle" x="1405.4922" y="-238.8" font-family="Times,serif" font-size="14.00" fill="#000000">bo</text>
</g>
<!-- Override&#45;&gt;CalcOverride -->
<g id="edge20" class="edge">
<title>Override&#45;&gt;CalcOverride</title>
<path fill="none" stroke="#000000" stroke-dasharray="1,5" d="M1438.3655,-246.5288C1448.1746,-245.5903 1458.957,-244.6544 1468.8848,-244 1485.5152,-242.9038 1503.6175,-242.0853 1520.1333,-241.4843"/>
<polygon fill="#000000" stroke="#000000" points="1520.311,-244.9803 1530.1844,-241.1376 1520.0696,-237.9845 1520.311,-244.9803"/>
<text text-anchor="middle" x="1490.6641" y="-246.8" font-family="Times,serif" font-size="14.00" fill="#000000">FLNK &#160;</text>
</g>
<!-- Override&#45;&gt;CalcOverride -->
<g id="edge21" class="edge">
<title>Override&#45;&gt;CalcOverride</title>
<path fill="none" stroke="#000000" stroke-dasharray="5,2" d="M1438.3717,-256.0522C1459.5843,-259.0722 1487.729,-261.4246 1512.4434,-258 1514.9834,-257.648 1517.5646,-257.2207 1520.1605,-256.7338"/>
<polygon fill="#000000" stroke="#000000" points="1521.1402,-260.1036 1530.1897,-254.5938 1519.6795,-253.2577 1521.1402,-260.1036"/>
<text text-anchor="middle" x="1490.6641" y="-261.8" font-family="Times,serif" font-size="14.00" fill="#000000">INPB &#160;</text>
</g>
<!-- Readiness&#45;&gt;Actual0 -->
<g id="edge25" class="edge">
<title>Readiness&#45;&gt;Actual0</title>
<path fill="none" stroke="#000000" stroke-dasharray="1,5" d="M1774.1144,-270.3345C1794.7224,-273.3611 1820.8382,-277.1965 1843.4659,-280.5197"/>
<polygon fill="#000000" stroke="#000000" points="1843.1821,-284.0155 1853.5846,-282.0058 1844.1993,-277.0898 1843.1821,-284.0155"/>
<text text-anchor="middle" x="1813.9541" y="-281.8" font-family="Times,serif" font-size="14.00" fill="#000000">FLNK &#160;</text>
</g>
<!-- Iso:GantryCouch:Settings:Readiness -->
<g id="node16" class="node">
<title>Iso:GantryCouch:Settings:Readiness</title>
<polygon fill="none" stroke="#000000" stroke-dasharray="5,2" points="2236.7578,-306 2014.5781,-306 2014.5781,-270 2236.7578,-270 2236.7578,-306"/>
<text text-anchor="middle" x="2125.668" y="-283.8" font-family="Times,serif" font-size="14.00" fill="#000000">Iso:GantryCouch:Settings:Readiness</text>
</g>
<!-- Actual0&#45;&gt;Iso:GantryCouch:Settings:Readiness -->
<g id="edge27" class="edge">
<title>Actual0&#45;&gt;Iso:GantryCouch:Settings:Readiness</title>
<path fill="none" stroke="#000000" stroke-dasharray="1,5" d="M1935.2128,-288C1954.7018,-288 1979.16,-288 2003.9907,-288"/>
<polygon fill="#000000" stroke="#000000" points="2004.2633,-291.5001 2014.2633,-288 2004.2633,-284.5001 2004.2633,-291.5001"/>
<text text-anchor="middle" x="1974.8438" y="-290.8" font-family="Times,serif" font-size="14.00" fill="#000000">FLNK &#160;</text>
</g>
</g>
</svg>
