<?xml version="1.0" encoding="UTF-8" standalone="no"?>
<!DOCTYPE svg PUBLIC "-//W3C//DTD SVG 1.1//EN"
 "http://www.w3.org/Graphics/SVG/1.1/DTD/svg11.dtd">
<!-- Generated by graphviz version 2.26.3 (20100126.1600)
 -->
<!-- Title: lcc Pages: 1 -->
<svg width="1960pt" height="918pt"
 viewBox="0.00 0.00 1960.00 918.00" xmlns="http://www.w3.org/2000/svg" xmlns:xlink="http://www.w3.org/1999/xlink">
<g id="graph1" class="graph" transform="scale(1 1) rotate(0) translate(4 914)">
<title>lcc</title>
<polygon fill="white" stroke="white" points="-4,5 -4,-914 1957,-914 1957,5 -4,5"/>
<!-- LCC:Asyn -->
<g id="node1" class="node"><title>LCC:Asyn</title>
<polygon fill="none" stroke="black" points="83,-378.5 1,-378.5 1,-319.5 83,-319.5 83,-378.5"/>
<text text-anchor="middle" x="42" y="-361.9" font-family="Times Roman,serif" font-size="14.00">LCC:Asyn</text>
<text text-anchor="middle" x="42" y="-344.9" font-family="Times Roman,serif" font-size="14.00">asyn</text>
<text text-anchor="middle" x="42" y="-327.9" font-family="Times Roman,serif" font-size="14.00">lcc</text>
</g>
<!-- LCC:Test -->
<g id="node2" class="node"><title>LCC:Test</title>
<polygon fill="none" stroke="black" points="415,-899 339,-899 339,-857 415,-857 415,-899"/>
<text text-anchor="middle" x="377" y="-882.4" font-family="Times Roman,serif" font-size="14.00">LCC:Test</text>
<text text-anchor="middle" x="377" y="-865.4" font-family="Times Roman,serif" font-size="14.00">stringin</text>
</g>
<!-- @lcc -->
<g id="node3" class="node"><title>@lcc</title>
<polygon fill="none" stroke="black" stroke-dasharray="5,2" points="69,-432 15,-432 15,-396 69,-396 69,-432"/>
<text text-anchor="middle" x="42" y="-409.9" font-family="Times Roman,serif" font-size="14.00">@lcc</text>
</g>
<!-- @lcc&#45;&gt;LCC:Test -->
<g id="edge2" class="edge"><title>@lcc&#45;&gt;LCC:Test</title>
<path fill="none" stroke="black" stroke-dasharray="5,2" d="M43.247,-432.079C48.7814,-509.877 72.1709,-813.538 102,-843 161.397,-901.667 266.562,-896.899 328.2,-887.726"/>
<polygon fill="black" stroke="black" points="329.115,-891.125 338.443,-886.101 328.018,-884.211 329.115,-891.125"/>
<text text-anchor="middle" x="189" y="-897.4" font-family="Times Roman,serif" font-size="14.00">INP test lcc proto</text>
</g>
<!-- LCC:Reset -->
<g id="node5" class="node"><title>LCC:Reset</title>
<polygon fill="none" stroke="black" points="420,-287 334,-287 334,-245 420,-245 420,-287"/>
<text text-anchor="middle" x="377" y="-270.4" font-family="Times Roman,serif" font-size="14.00">LCC:Reset</text>
<text text-anchor="middle" x="377" y="-253.4" font-family="Times Roman,serif" font-size="14.00">stringin</text>
</g>
<!-- @lcc&#45;&gt;LCC:Reset -->
<g id="edge4" class="edge"><title>@lcc&#45;&gt;LCC:Reset</title>
<path fill="none" stroke="black" stroke-dasharray="5,2" d="M69.2803,-399.941C74.6576,-396.268 79.8977,-391.931 84,-387 97.5124,-370.757 86.2237,-357.054 102,-343 163.942,-287.819 262.39,-271.876 323.163,-267.453"/>
<polygon fill="black" stroke="black" points="323.565,-270.935 333.318,-266.796 323.113,-263.949 323.565,-270.935"/>
<text text-anchor="middle" x="189" y="-347.4" font-family="Times Roman,serif" font-size="14.00">INP reset lcc proto</text>
</g>
<!-- LCC:Poll -->
<g id="node16" class="node"><title>LCC:Poll</title>
<polygon fill="none" stroke="black" points="1593,-648 1521,-648 1521,-606 1593,-606 1593,-648"/>
<text text-anchor="middle" x="1557" y="-631.4" font-family="Times Roman,serif" font-size="14.00">LCC:Poll</text>
<text text-anchor="middle" x="1557" y="-614.4" font-family="Times Roman,serif" font-size="14.00">stringin</text>
</g>
<!-- @lcc&#45;&gt;LCC:Poll -->
<g id="edge14" class="edge"><title>@lcc&#45;&gt;LCC:Poll</title>
<path fill="none" stroke="black" stroke-dasharray="5,2" d="M46.7461,-432.099C68.8887,-511.974 169.822,-829 377,-829 377,-829 377,-829 1347,-829 1444.79,-829 1514.64,-713.812 1542.98,-657.402"/>
<polygon fill="black" stroke="black" points="1546.22,-658.755 1547.48,-648.236 1539.93,-655.67 1546.22,-658.755"/>
<text text-anchor="middle" x="915" y="-833.4" font-family="Times Roman,serif" font-size="14.00">INP poll lcc proto</text>
</g>
<!-- LCC:SendCal -->
<g id="node26" class="node"><title>LCC:SendCal</title>
<polygon fill="none" stroke="black" points="429,-99 325,-99 325,-57 429,-57 429,-99"/>
<text text-anchor="middle" x="377" y="-82.4" font-family="Times Roman,serif" font-size="14.00">LCC:SendCal</text>
<text text-anchor="middle" x="377" y="-65.4" font-family="Times Roman,serif" font-size="14.00">stringin</text>
</g>
<!-- @lcc&#45;&gt;LCC:SendCal -->
<g id="edge26" class="edge"><title>@lcc&#45;&gt;LCC:SendCal</title>
<path fill="none" stroke="black" stroke-dasharray="5,2" d="M69.4239,-401.272C75.0625,-397.445 80.3769,-392.709 84,-387 116.672,-335.521 69.8511,-302.807 102,-251 150.727,-172.477 249.723,-123.603 314.685,-98.59"/>
<polygon fill="black" stroke="black" points="316.286,-101.727 324.409,-94.9257 313.817,-95.1768 316.286,-101.727"/>
<text text-anchor="middle" x="189" y="-255.4" font-family="Times Roman,serif" font-size="14.00">INP sendcal lcc proto</text>
</g>
<!-- LCC:ReadBackCal -->
<g id="node30" class="node"><title>LCC:ReadBackCal</title>
<polygon fill="none" stroke="black" points="445,-495 309,-495 309,-453 445,-453 445,-495"/>
<text text-anchor="middle" x="377" y="-478.4" font-family="Times Roman,serif" font-size="14.00">LCC:ReadBackCal</text>
<text text-anchor="middle" x="377" y="-461.4" font-family="Times Roman,serif" font-size="14.00">stringin</text>
</g>
<!-- @lcc&#45;&gt;LCC:ReadBackCal -->
<g id="edge30" class="edge"><title>@lcc&#45;&gt;LCC:ReadBackCal</title>
<path fill="none" stroke="black" stroke-dasharray="5,2" d="M69.1407,-424.765C79.3156,-428.463 91.0624,-432.338 102,-435 167.279,-450.89 242.959,-461.036 298.382,-466.983"/>
<polygon fill="black" stroke="black" points="298.177,-470.481 308.488,-468.046 298.909,-463.519 298.177,-470.481"/>
<text text-anchor="middle" x="189" y="-467.4" font-family="Times Roman,serif" font-size="14.00">INP readbackcal lcc proto</text>
</g>
<!-- LCC:SelectField -->
<g id="node34" class="node"><title>LCC:SelectField</title>
<polygon fill="none" stroke="black" points="438,-435 316,-435 316,-393 438,-393 438,-435"/>
<text text-anchor="middle" x="377" y="-418.4" font-family="Times Roman,serif" font-size="14.00">LCC:SelectField</text>
<text text-anchor="middle" x="377" y="-401.4" font-family="Times Roman,serif" font-size="14.00">stringin</text>
</g>
<!-- @lcc&#45;&gt;LCC:SelectField -->
<g id="edge34" class="edge"><title>@lcc&#45;&gt;LCC:SelectField</title>
<path fill="none" stroke="black" stroke-dasharray="5,2" d="M69.1307,-414C120.158,-414 231.923,-414 305.813,-414"/>
<polygon fill="black" stroke="black" points="305.978,-417.5 315.978,-414 305.978,-410.5 305.978,-417.5"/>
<text text-anchor="middle" x="189" y="-418.4" font-family="Times Roman,serif" font-size="14.00">INP selectfield lcc proto</text>
</g>
<!-- LCC:AutoSetup -->
<g id="node38" class="node"><title>LCC:AutoSetup</title>
<polygon fill="none" stroke="black" points="438,-375 316,-375 316,-333 438,-333 438,-375"/>
<text text-anchor="middle" x="377" y="-358.4" font-family="Times Roman,serif" font-size="14.00">LCC:AutoSetup</text>
<text text-anchor="middle" x="377" y="-341.4" font-family="Times Roman,serif" font-size="14.00">stringin</text>
</g>
<!-- @lcc&#45;&gt;LCC:AutoSetup -->
<g id="edge38" class="edge"><title>@lcc&#45;&gt;LCC:AutoSetup</title>
<path fill="none" stroke="black" stroke-dasharray="5,2" d="M69.1407,-403.235C79.3156,-399.537 91.0624,-395.662 102,-393 170.146,-376.412 249.627,-366.084 305.565,-360.257"/>
<polygon fill="black" stroke="black" points="306.135,-363.717 315.728,-359.221 305.425,-356.753 306.135,-363.717"/>
<text text-anchor="middle" x="189" y="-397.4" font-family="Times Roman,serif" font-size="14.00">INP autosetup lcc proto</text>
</g>
<!-- LCC:ResetCalc -->
<g id="node8" class="node"><title>LCC:ResetCalc</title>
<polygon fill="none" stroke="black" points="726,-264 610,-264 610,-188 726,-188 726,-264"/>
<text text-anchor="middle" x="668" y="-247.4" font-family="Times Roman,serif" font-size="14.00">LCC:ResetCalc</text>
<text text-anchor="middle" x="668" y="-230.4" font-family="Times Roman,serif" font-size="14.00">calcout</text>
<text text-anchor="middle" x="668" y="-213.4" font-family="Times Roman,serif" font-size="14.00">!A</text>
<text text-anchor="middle" x="668" y="-196.4" font-family="Times Roman,serif" font-size="14.00">Every Time</text>
</g>
<!-- LCC:Reset&#45;&gt;LCC:ResetCalc -->
<g id="edge6" class="edge"><title>LCC:Reset&#45;&gt;LCC:ResetCalc</title>
<path fill="none" stroke="black" stroke-dasharray="1,5" d="M420.724,-245.128C438.132,-237.887 458.607,-230.667 478,-227 517.848,-219.465 563.243,-218.937 599.666,-220.423"/>
<polygon fill="black" stroke="black" points="599.537,-223.921 609.69,-220.892 599.864,-216.928 599.537,-223.921"/>
<text text-anchor="middle" x="521" y="-231.4" font-family="Times Roman,serif" font-size="14.00">FLNK &#160;</text>
</g>
<!-- LCC:Reset&#45;&gt;LCC:ResetCalc -->
<g id="edge42" class="edge"><title>LCC:Reset&#45;&gt;LCC:ResetCalc</title>
<path fill="none" stroke="black" stroke-dasharray="5,2" d="M420.541,-261.554C458.496,-257.517 514.99,-251.119 564,-244 575.617,-242.313 587.932,-240.343 599.869,-238.337"/>
<polygon fill="black" stroke="black" points="600.513,-241.778 609.784,-236.649 599.338,-234.877 600.513,-241.778"/>
<text text-anchor="middle" x="521" y="-258.4" font-family="Times Roman,serif" font-size="14.00">INPA &#160;STAT</text>
</g>
<!-- LCCError:Status -->
<g id="node14" class="node"><title>LCCError:Status</title>
<polygon fill="none" stroke="black" points="979,-374 851,-374 851,-332 979,-332 979,-374"/>
<text text-anchor="middle" x="915" y="-357.4" font-family="Times Roman,serif" font-size="14.00">LCCError:Status</text>
<text text-anchor="middle" x="915" y="-340.4" font-family="Times Roman,serif" font-size="14.00">bo</text>
</g>
<!-- LCC:ResetCalc&#45;&gt;LCCError:Status -->
<g id="edge44" class="edge"><title>LCC:ResetCalc&#45;&gt;LCCError:Status</title>
<path fill="none" stroke="black" d="M726.223,-255.936C768.432,-277.639 824.918,-306.683 865.073,-327.329"/>
<polygon fill="black" stroke="black" points="863.652,-330.534 874.145,-331.994 866.852,-324.308 863.652,-330.534"/>
<text text-anchor="middle" x="801" y="-312.4" font-family="Times Roman,serif" font-size="14.00">OUT PP </text>
</g>
<!-- LCC:PollDisable -->
<g id="node9" class="node"><title>LCC:PollDisable</title>
<polygon fill="none" stroke="black" points="1408,-656.5 1286,-656.5 1286,-597.5 1408,-597.5 1408,-656.5"/>
<text text-anchor="middle" x="1347" y="-639.9" font-family="Times Roman,serif" font-size="14.00">LCC:PollDisable</text>
<text text-anchor="middle" x="1347" y="-622.9" font-family="Times Roman,serif" font-size="14.00">calc</text>
<text text-anchor="middle" x="1347" y="-605.9" font-family="Times Roman,serif" font-size="14.00">A&amp;&amp;B&amp;&amp;C</text>
</g>
<!-- LCC:PollDisable&#45;&gt;LCC:Poll -->
<g id="edge16" class="edge"><title>LCC:PollDisable&#45;&gt;LCC:Poll</title>
<path fill="none" stroke="black" stroke-dasharray="1,5" d="M1408.59,-627C1441.07,-627 1480.27,-627 1510.23,-627"/>
<polygon fill="black" stroke="black" points="1510.41,-630.5 1520.41,-627 1510.41,-623.5 1510.41,-630.5"/>
<text text-anchor="middle" x="1450" y="-631.4" font-family="Times Roman,serif" font-size="14.00">SDIS &#160;</text>
</g>
<!-- LCC:PollIndicator -->
<g id="node21" class="node"><title>LCC:PollIndicator</title>
<polygon fill="none" stroke="black" points="1624,-325 1490,-325 1490,-249 1624,-249 1624,-325"/>
<text text-anchor="middle" x="1557" y="-308.4" font-family="Times Roman,serif" font-size="14.00">LCC:PollIndicator</text>
<text text-anchor="middle" x="1557" y="-291.4" font-family="Times Roman,serif" font-size="14.00">calcout</text>
<text text-anchor="middle" x="1557" y="-274.4" font-family="Times Roman,serif" font-size="14.00">!A</text>
<text text-anchor="middle" x="1557" y="-257.4" font-family="Times Roman,serif" font-size="14.00">Every Time</text>
</g>
<!-- LCC:PollDisable&#45;&gt;LCC:PollIndicator -->
<g id="edge20" class="edge"><title>LCC:PollDisable&#45;&gt;LCC:PollIndicator</title>
<path fill="none" stroke="black" stroke-dasharray="1,5" d="M1365.09,-597.718C1401.53,-538.71 1484.07,-405.076 1528.09,-333.812"/>
<polygon fill="black" stroke="black" points="1531.24,-335.369 1533.52,-325.022 1525.28,-331.69 1531.24,-335.369"/>
<text text-anchor="middle" x="1450" y="-491.4" font-family="Times Roman,serif" font-size="14.00">SDIS &#160;</text>
</g>
<!-- LCCInit:Status -->
<g id="node10" class="node"><title>LCCInit:Status</title>
<polygon fill="none" stroke="black" points="973,-702 857,-702 857,-660 973,-660 973,-702"/>
<text text-anchor="middle" x="915" y="-685.4" font-family="Times Roman,serif" font-size="14.00">LCCInit:Status</text>
<text text-anchor="middle" x="915" y="-668.4" font-family="Times Roman,serif" font-size="14.00">bo</text>
</g>
<!-- LCCInit:Status&#45;&gt;LCC:PollDisable -->
<g id="edge8" class="edge"><title>LCCInit:Status&#45;&gt;LCC:PollDisable</title>
<path fill="none" stroke="black" stroke-dasharray="5,2" d="M973.582,-676.231C1043.43,-670.182 1163.6,-658.626 1266,-643 1269.02,-642.539 1272.1,-642.044 1275.21,-641.524"/>
<polygon fill="black" stroke="black" points="1275.93,-644.95 1285.18,-639.787 1274.73,-638.054 1275.93,-644.95"/>
<text text-anchor="middle" x="1133" y="-671.4" font-family="Times Roman,serif" font-size="14.00">INPC &#160;</text>
</g>
<!-- LCCInit:Fanout -->
<g id="node71" class="node"><title>LCCInit:Fanout</title>
<polygon fill="none" stroke="black" points="1192,-635 1074,-635 1074,-593 1192,-593 1192,-635"/>
<text text-anchor="middle" x="1133" y="-618.4" font-family="Times Roman,serif" font-size="14.00">LCCInit:Fanout</text>
<text text-anchor="middle" x="1133" y="-601.4" font-family="Times Roman,serif" font-size="14.00">fanout</text>
</g>
<!-- LCCInit:Status&#45;&gt;LCCInit:Fanout -->
<g id="edge86" class="edge"><title>LCCInit:Status&#45;&gt;LCCInit:Fanout</title>
<path fill="none" stroke="black" stroke-dasharray="1,5" d="M953.48,-659.856C967.756,-652.709 984.299,-645.225 1000,-640 1020.14,-633.297 1042.61,-628.089 1063.26,-624.155"/>
<polygon fill="black" stroke="black" points="1064.03,-627.572 1073.23,-622.325 1062.77,-620.687 1064.03,-627.572"/>
<text text-anchor="middle" x="1023" y="-644.4" font-family="Times Roman,serif" font-size="14.00">FLNK &#160;</text>
</g>
<!-- LCCSetup:Status -->
<g id="node12" class="node"><title>LCCSetup:Status</title>
<polygon fill="none" stroke="black" points="982,-773 848,-773 848,-731 982,-731 982,-773"/>
<text text-anchor="middle" x="915" y="-756.4" font-family="Times Roman,serif" font-size="14.00">LCCSetup:Status</text>
<text text-anchor="middle" x="915" y="-739.4" font-family="Times Roman,serif" font-size="14.00">bo</text>
</g>
<!-- LCCSetup:Status&#45;&gt;LCC:PollDisable -->
<g id="edge10" class="edge"><title>LCCSetup:Status&#45;&gt;LCC:PollDisable</title>
<path fill="none" stroke="black" stroke-dasharray="5,2" d="M982.023,-763.194C1040.96,-770.688 1128.56,-776.069 1202,-757 1232.98,-748.957 1241.03,-744.013 1266,-724 1287.12,-707.073 1306.7,-683.933 1321.31,-664.499"/>
<polygon fill="black" stroke="black" points="1324.15,-666.552 1327.26,-656.426 1318.51,-662.399 1324.15,-666.552"/>
<text text-anchor="middle" x="1133" y="-774.4" font-family="Times Roman,serif" font-size="14.00">INPB &#160;</text>
</g>
<!-- LCCSetup:Fanout -->
<g id="node65" class="node"><title>LCCSetup:Fanout</title>
<polygon fill="none" stroke="black" points="1201,-748 1065,-748 1065,-706 1201,-706 1201,-748"/>
<text text-anchor="middle" x="1133" y="-731.4" font-family="Times Roman,serif" font-size="14.00">LCCSetup:Fanout</text>
<text text-anchor="middle" x="1133" y="-714.4" font-family="Times Roman,serif" font-size="14.00">fanout</text>
</g>
<!-- LCCSetup:Status&#45;&gt;LCCSetup:Fanout -->
<g id="edge78" class="edge"><title>LCCSetup:Status&#45;&gt;LCCSetup:Fanout</title>
<path fill="none" stroke="black" stroke-dasharray="1,5" d="M982.186,-744.295C1004.96,-741.684 1030.59,-738.744 1054.18,-736.039"/>
<polygon fill="black" stroke="black" points="1054.62,-739.512 1064.15,-734.895 1053.82,-732.557 1054.62,-739.512"/>
<text text-anchor="middle" x="1023" y="-745.4" font-family="Times Roman,serif" font-size="14.00">FLNK &#160;</text>
</g>
<!-- LCCError:Status&#45;&gt;LCC:PollDisable -->
<g id="edge12" class="edge"><title>LCCError:Status&#45;&gt;LCC:PollDisable</title>
<path fill="none" stroke="black" stroke-dasharray="5,2" d="M933.767,-374.339C950.473,-392.914 975.925,-420.203 1000,-442 1026.76,-466.227 1033.82,-472.203 1064,-492 1122.37,-530.285 1142.92,-529.822 1202,-567 1210.35,-572.256 1211.29,-575.356 1220,-580 1237.49,-589.327 1257.23,-597.608 1275.85,-604.521"/>
<polygon fill="black" stroke="black" points="1274.87,-607.889 1285.46,-608.009 1277.25,-601.308 1274.87,-607.889"/>
<text text-anchor="middle" x="1133" y="-571.4" font-family="Times Roman,serif" font-size="14.00">INPA &#160;</text>
</g>
<!-- LCCError:Fanout -->
<g id="node60" class="node"><title>LCCError:Fanout</title>
<polygon fill="none" stroke="black" points="1198,-483 1068,-483 1068,-441 1198,-441 1198,-483"/>
<text text-anchor="middle" x="1133" y="-466.4" font-family="Times Roman,serif" font-size="14.00">LCCError:Fanout</text>
<text text-anchor="middle" x="1133" y="-449.4" font-family="Times Roman,serif" font-size="14.00">fanout</text>
</g>
<!-- LCCError:Status&#45;&gt;LCCError:Fanout -->
<g id="edge72" class="edge"><title>LCCError:Status&#45;&gt;LCCError:Fanout</title>
<path fill="none" stroke="black" stroke-dasharray="1,5" d="M952.864,-374.118C982.734,-390.523 1025.62,-413.515 1064,-432 1067.31,-433.596 1070.73,-435.204 1074.19,-436.801"/>
<polygon fill="black" stroke="black" points="1072.86,-440.04 1083.41,-440.992 1075.76,-433.667 1072.86,-440.04"/>
<text text-anchor="middle" x="1023" y="-425.4" font-family="Times Roman,serif" font-size="14.00">FLNK &#160;</text>
</g>
<!-- LCC:PollCalc -->
<g id="node20" class="node"><title>LCC:PollCalc</title>
<polygon fill="none" stroke="black" points="1895,-625 1795,-625 1795,-549 1895,-549 1895,-625"/>
<text text-anchor="middle" x="1845" y="-608.4" font-family="Times Roman,serif" font-size="14.00">LCC:PollCalc</text>
<text text-anchor="middle" x="1845" y="-591.4" font-family="Times Roman,serif" font-size="14.00">calcout</text>
<text text-anchor="middle" x="1845" y="-574.4" font-family="Times Roman,serif" font-size="14.00">!A</text>
<text text-anchor="middle" x="1845" y="-557.4" font-family="Times Roman,serif" font-size="14.00">Every Time</text>
</g>
<!-- LCC:Poll&#45;&gt;LCC:PollCalc -->
<g id="edge46" class="edge"><title>LCC:Poll&#45;&gt;LCC:PollCalc</title>
<path fill="none" stroke="black" stroke-dasharray="5,2" d="M1593.59,-622.156C1626.63,-617.759 1676.59,-611.055 1720,-605 1740.9,-602.085 1763.75,-598.818 1784.13,-595.875"/>
<polygon fill="black" stroke="black" points="1784.83,-599.31 1794.23,-594.415 1783.83,-592.382 1784.83,-599.31"/>
<text text-anchor="middle" x="1681" y="-619.4" font-family="Times Roman,serif" font-size="14.00">INPA &#160;STAT</text>
</g>
<!-- LCC:Poll&#45;&gt;LCC:PollCalc -->
<g id="edge18" class="edge"><title>LCC:Poll&#45;&gt;LCC:PollCalc</title>
<path fill="none" stroke="black" stroke-dasharray="1,5" d="M1593.88,-605.934C1608.39,-598.764 1625.51,-591.644 1642,-588 1688.95,-577.622 1743.52,-578.022 1784.25,-580.659"/>
<polygon fill="black" stroke="black" points="1784.07,-584.155 1794.29,-581.373 1784.56,-577.173 1784.07,-584.155"/>
<text text-anchor="middle" x="1681" y="-592.4" font-family="Times Roman,serif" font-size="14.00">FLNK &#160;</text>
</g>
<!-- LCC:PollCalc&#45;&gt;LCCError:Status -->
<g id="edge48" class="edge"><title>LCC:PollCalc&#45;&gt;LCCError:Status</title>
<path fill="none" stroke="black" d="M1822.19,-548.883C1779.28,-482.576 1679.73,-353 1557,-353 1133,-353 1133,-353 1133,-353 1085.45,-353 1032.06,-353 990.023,-353"/>
<polygon fill="black" stroke="black" points="989.865,-349.5 979.865,-353 989.865,-356.5 989.865,-349.5"/>
<text text-anchor="middle" x="1347" y="-357.4" font-family="Times Roman,serif" font-size="14.00">OUT PP </text>
</g>
<!-- Dosimetry:RelayError:Status -->
<g id="node23" class="node"><title>Dosimetry:RelayError:Status</title>
<polygon fill="none" stroke="black" stroke-dasharray="5,2" points="1952,-302 1738,-302 1738,-266 1952,-266 1952,-302"/>
<text text-anchor="middle" x="1845" y="-279.9" font-family="Times Roman,serif" font-size="14.00">Dosimetry:RelayError:Status</text>
</g>
<!-- LCC:PollIndicator&#45;&gt;Dosimetry:RelayError:Status -->
<g id="edge24" class="edge"><title>LCC:PollIndicator&#45;&gt;Dosimetry:RelayError:Status</title>
<path fill="none" stroke="black" d="M1624.41,-267.035C1630.32,-265.81 1636.24,-264.765 1642,-264 1674.85,-259.634 1710.8,-261.132 1743.21,-264.79"/>
<polygon fill="black" stroke="black" points="1742.79,-268.266 1753.14,-265.991 1743.63,-261.316 1742.79,-268.266"/>
<text text-anchor="middle" x="1681" y="-268.4" font-family="Times Roman,serif" font-size="14.00">OUT PP </text>
</g>
<!-- Dosimetry:RelayError:Status&#45;&gt;LCC:PollIndicator -->
<g id="edge22" class="edge"><title>Dosimetry:RelayError:Status&#45;&gt;LCC:PollIndicator</title>
<path fill="none" stroke="black" stroke-dasharray="5,2" d="M1737.93,-285.115C1703.53,-285.474 1666.12,-285.863 1634.29,-286.195"/>
<polygon fill="black" stroke="black" points="1634.12,-282.696 1624.16,-286.3 1634.2,-289.696 1634.12,-282.696"/>
<text text-anchor="middle" x="1681" y="-290.4" font-family="Times Roman,serif" font-size="14.00">INPA &#160;</text>
</g>
<!-- LCC:SendCalCalc -->
<g id="node29" class="node"><title>LCC:SendCalCalc</title>
<polygon fill="none" stroke="black" points="735,-76 601,-76 601,-2.13163e-14 735,-0 735,-76"/>
<text text-anchor="middle" x="668" y="-59.4" font-family="Times Roman,serif" font-size="14.00">LCC:SendCalCalc</text>
<text text-anchor="middle" x="668" y="-42.4" font-family="Times Roman,serif" font-size="14.00">calcout</text>
<text text-anchor="middle" x="668" y="-25.4" font-family="Times Roman,serif" font-size="14.00">!A</text>
<text text-anchor="middle" x="668" y="-8.4" font-family="Times Roman,serif" font-size="14.00">Every Time</text>
</g>
<!-- LCC:SendCal&#45;&gt;LCC:SendCalCalc -->
<g id="edge28" class="edge"><title>LCC:SendCal&#45;&gt;LCC:SendCalCalc</title>
<path fill="none" stroke="black" stroke-dasharray="1,5" d="M421.222,-56.9212C438.521,-49.7495 458.792,-42.632 478,-39 514.58,-32.0831 555.835,-31.0706 590.532,-32.1008"/>
<polygon fill="black" stroke="black" points="590.486,-35.6013 600.605,-32.4619 590.737,-28.6058 590.486,-35.6013"/>
<text text-anchor="middle" x="521" y="-43.4" font-family="Times Roman,serif" font-size="14.00">FLNK &#160;</text>
</g>
<!-- LCC:SendCal&#45;&gt;LCC:SendCalCalc -->
<g id="edge50" class="edge"><title>LCC:SendCal&#45;&gt;LCC:SendCalCalc</title>
<path fill="none" stroke="black" stroke-dasharray="5,2" d="M429.896,-72.5509C467.399,-68.4987 518.872,-62.5549 564,-56 572.696,-54.7369 581.783,-53.3155 590.81,-51.8393"/>
<polygon fill="black" stroke="black" points="591.66,-55.2461 600.951,-50.1549 590.513,-48.3407 591.66,-55.2461"/>
<text text-anchor="middle" x="521" y="-71.4" font-family="Times Roman,serif" font-size="14.00">INPA &#160;STAT</text>
</g>
<!-- LCC:SendCalCalc&#45;&gt;LCCError:Status -->
<g id="edge52" class="edge"><title>LCC:SendCalCalc&#45;&gt;LCCError:Status</title>
<path fill="none" stroke="black" d="M735.295,-71.602C741.834,-75.7947 748.189,-80.2804 754,-85 834.321,-150.231 884.297,-266.925 904.581,-322.264"/>
<polygon fill="black" stroke="black" points="901.351,-323.627 908.023,-331.857 907.94,-321.262 901.351,-323.627"/>
<text text-anchor="middle" x="801" y="-171.4" font-family="Times Roman,serif" font-size="14.00">OUT PP </text>
</g>
<!-- LCC:ReadBackCalCalc -->
<g id="node33" class="node"><title>LCC:ReadBackCalCalc</title>
<polygon fill="none" stroke="black" points="751,-546 585,-546 585,-470 751,-470 751,-546"/>
<text text-anchor="middle" x="668" y="-529.4" font-family="Times Roman,serif" font-size="14.00">LCC:ReadBackCalCalc</text>
<text text-anchor="middle" x="668" y="-512.4" font-family="Times Roman,serif" font-size="14.00">calcout</text>
<text text-anchor="middle" x="668" y="-495.4" font-family="Times Roman,serif" font-size="14.00">!A</text>
<text text-anchor="middle" x="668" y="-478.4" font-family="Times Roman,serif" font-size="14.00">Every Time</text>
</g>
<!-- LCC:ReadBackCal&#45;&gt;LCC:ReadBackCalCalc -->
<g id="edge32" class="edge"><title>LCC:ReadBackCal&#45;&gt;LCC:ReadBackCalCalc</title>
<path fill="none" stroke="black" stroke-dasharray="1,5" d="M445.789,-469.439C481.297,-468.327 525.195,-468.885 564,-475 567.628,-475.572 571.304,-476.246 574.998,-477.005"/>
<polygon fill="black" stroke="black" points="574.28,-480.43 584.803,-479.195 575.807,-473.599 574.28,-480.43"/>
<text text-anchor="middle" x="521" y="-479.4" font-family="Times Roman,serif" font-size="14.00">FLNK &#160;</text>
</g>
<!-- LCC:ReadBackCal&#45;&gt;LCC:ReadBackCalCalc -->
<g id="edge54" class="edge"><title>LCC:ReadBackCal&#45;&gt;LCC:ReadBackCalCalc</title>
<path fill="none" stroke="black" stroke-dasharray="5,2" d="M445.595,-487.103C456.413,-488.916 467.492,-490.624 478,-492 509.259,-496.093 543.554,-499.355 574.302,-501.837"/>
<polygon fill="black" stroke="black" points="574.339,-505.351 584.584,-502.65 574.89,-498.373 574.339,-505.351"/>
<text text-anchor="middle" x="521" y="-504.4" font-family="Times Roman,serif" font-size="14.00">INPA &#160;STAT</text>
</g>
<!-- LCC:ReadBackCalCalc&#45;&gt;LCCError:Status -->
<g id="edge56" class="edge"><title>LCC:ReadBackCalCalc&#45;&gt;LCCError:Status</title>
<path fill="none" stroke="black" d="M739.155,-469.774C744.209,-466.857 749.2,-463.913 754,-461 797.052,-434.87 844.779,-402.389 877.009,-379.909"/>
<polygon fill="black" stroke="black" points="879.076,-382.734 885.263,-374.133 875.063,-376.999 879.076,-382.734"/>
<text text-anchor="middle" x="801" y="-451.4" font-family="Times Roman,serif" font-size="14.00">OUT PP </text>
</g>
<!-- LCC:SelectFieldCalc -->
<g id="node37" class="node"><title>LCC:SelectFieldCalc</title>
<polygon fill="none" stroke="black" points="743,-452 593,-452 593,-376 743,-376 743,-452"/>
<text text-anchor="middle" x="668" y="-435.4" font-family="Times Roman,serif" font-size="14.00">LCC:SelectFieldCalc</text>
<text text-anchor="middle" x="668" y="-418.4" font-family="Times Roman,serif" font-size="14.00">calcout</text>
<text text-anchor="middle" x="668" y="-401.4" font-family="Times Roman,serif" font-size="14.00">!A</text>
<text text-anchor="middle" x="668" y="-384.4" font-family="Times Roman,serif" font-size="14.00">Every Time</text>
</g>
<!-- LCC:SelectField&#45;&gt;LCC:SelectFieldCalc -->
<g id="edge36" class="edge"><title>LCC:SelectField&#45;&gt;LCC:SelectFieldCalc</title>
<path fill="none" stroke="black" stroke-dasharray="1,5" d="M438.003,-414C479.848,-414 535.962,-414 582.287,-414"/>
<polygon fill="black" stroke="black" points="582.317,-417.5 592.317,-414 582.317,-410.5 582.317,-417.5"/>
<text text-anchor="middle" x="521" y="-418.4" font-family="Times Roman,serif" font-size="14.00">FLNK &#160;</text>
</g>
<!-- LCC:SelectField&#45;&gt;LCC:SelectFieldCalc -->
<g id="edge58" class="edge"><title>LCC:SelectField&#45;&gt;LCC:SelectFieldCalc</title>
<path fill="none" stroke="black" stroke-dasharray="5,2" d="M438.108,-399.2C451.193,-396.62 464.995,-394.338 478,-393 516.022,-389.089 525.967,-389.199 564,-393 569.93,-393.593 576.021,-394.371 582.14,-395.278"/>
<polygon fill="black" stroke="black" points="582.012,-398.802 592.438,-396.918 583.112,-391.889 582.012,-398.802"/>
<text text-anchor="middle" x="521" y="-397.4" font-family="Times Roman,serif" font-size="14.00">INPA &#160;STAT</text>
</g>
<!-- LCC:SelectFieldCalc&#45;&gt;LCCError:Status -->
<g id="edge60" class="edge"><title>LCC:SelectFieldCalc&#45;&gt;LCCError:Status</title>
<path fill="none" stroke="black" d="M743.787,-395.283C774.497,-387.699 809.86,-378.966 840.444,-371.413"/>
<polygon fill="black" stroke="black" points="841.325,-374.8 850.194,-369.005 839.647,-368.004 841.325,-374.8"/>
<text text-anchor="middle" x="801" y="-391.4" font-family="Times Roman,serif" font-size="14.00">OUT PP </text>
</g>
<!-- LCC:AutoSetupCalc -->
<g id="node41" class="node"><title>LCC:AutoSetupCalc</title>
<polygon fill="none" stroke="black" points="743,-358 593,-358 593,-282 743,-282 743,-358"/>
<text text-anchor="middle" x="668" y="-341.4" font-family="Times Roman,serif" font-size="14.00">LCC:AutoSetupCalc</text>
<text text-anchor="middle" x="668" y="-324.4" font-family="Times Roman,serif" font-size="14.00">calcout</text>
<text text-anchor="middle" x="668" y="-307.4" font-family="Times Roman,serif" font-size="14.00">!A</text>
<text text-anchor="middle" x="668" y="-290.4" font-family="Times Roman,serif" font-size="14.00">Every Time</text>
</g>
<!-- LCC:AutoSetup&#45;&gt;LCC:AutoSetupCalc -->
<g id="edge40" class="edge"><title>LCC:AutoSetup&#45;&gt;LCC:AutoSetupCalc</title>
<path fill="none" stroke="black" stroke-dasharray="1,5" d="M438.003,-346.872C479.848,-341.983 535.962,-335.427 582.287,-330.015"/>
<polygon fill="black" stroke="black" points="582.791,-333.48 592.317,-328.843 581.978,-326.527 582.791,-333.48"/>
<text text-anchor="middle" x="521" y="-346.4" font-family="Times Roman,serif" font-size="14.00">FLNK &#160;</text>
</g>
<!-- LCC:AutoSetup&#45;&gt;LCC:AutoSetupCalc -->
<g id="edge62" class="edge"><title>LCC:AutoSetup&#45;&gt;LCC:AutoSetupCalc</title>
<path fill="none" stroke="black" stroke-dasharray="5,2" d="M416.103,-332.995C434.356,-324.345 456.713,-315.343 478,-311 511.722,-304.12 549.476,-304.334 582.391,-307.005"/>
<polygon fill="black" stroke="black" points="582.168,-310.499 592.441,-307.908 582.795,-303.527 582.168,-310.499"/>
<text text-anchor="middle" x="521" y="-315.4" font-family="Times Roman,serif" font-size="14.00">INPA &#160;STAT</text>
</g>
<!-- LCC:AutoSetupCalc&#45;&gt;LCCError:Status -->
<g id="edge64" class="edge"><title>LCC:AutoSetupCalc&#45;&gt;LCCError:Status</title>
<path fill="none" stroke="black" d="M743.787,-330.125C774.365,-334.211 809.554,-338.912 840.047,-342.986"/>
<polygon fill="black" stroke="black" points="839.819,-346.487 850.194,-344.342 840.746,-339.548 839.819,-346.487"/>
<text text-anchor="middle" x="801" y="-345.4" font-family="Times Roman,serif" font-size="14.00">OUT PP </text>
</g>
<!-- LCC:Alarm -->
<g id="node54" class="node"><title>LCC:Alarm</title>
<polygon fill="none" stroke="black" points="421,-173 333,-173 333,-131 421,-131 421,-173"/>
<text text-anchor="middle" x="377" y="-156.4" font-family="Times Roman,serif" font-size="14.00">LCC:Alarm</text>
<text text-anchor="middle" x="377" y="-139.4" font-family="Times Roman,serif" font-size="14.00">bo</text>
</g>
<!-- LCC:AlarmCalc -->
<g id="node56" class="node"><title>LCC:AlarmCalc</title>
<polygon fill="none" stroke="black" points="727,-170 609,-170 609,-94 727,-94 727,-170"/>
<text text-anchor="middle" x="668" y="-153.4" font-family="Times Roman,serif" font-size="14.00">LCC:AlarmCalc</text>
<text text-anchor="middle" x="668" y="-136.4" font-family="Times Roman,serif" font-size="14.00">calcout</text>
<text text-anchor="middle" x="668" y="-119.4" font-family="Times Roman,serif" font-size="14.00">!A</text>
<text text-anchor="middle" x="668" y="-102.4" font-family="Times Roman,serif" font-size="14.00">Every Time</text>
</g>
<!-- LCC:Alarm&#45;&gt;LCC:AlarmCalc -->
<g id="edge66" class="edge"><title>LCC:Alarm&#45;&gt;LCC:AlarmCalc</title>
<path fill="none" stroke="black" stroke-dasharray="1,5" d="M421.629,-150.571C459.543,-149.185 515.389,-146.737 564,-143 575.271,-142.133 587.211,-141.038 598.829,-139.876"/>
<polygon fill="black" stroke="black" points="599.338,-143.342 608.93,-138.841 598.625,-136.378 599.338,-143.342"/>
<text text-anchor="middle" x="521" y="-152.4" font-family="Times Roman,serif" font-size="14.00">FLNK &#160;</text>
</g>
<!-- LCC:Alarm&#45;&gt;LCC:AlarmCalc -->
<g id="edge68" class="edge"><title>LCC:Alarm&#45;&gt;LCC:AlarmCalc</title>
<path fill="none" stroke="black" stroke-dasharray="5,2" d="M421.626,-135.725C438.976,-130.201 459.174,-124.737 478,-122 517.739,-116.223 562.583,-118.188 598.722,-121.845"/>
<polygon fill="black" stroke="black" points="598.355,-125.325 608.672,-122.916 599.104,-118.365 598.355,-125.325"/>
<text text-anchor="middle" x="521" y="-126.4" font-family="Times Roman,serif" font-size="14.00">INPA &#160;STAT</text>
</g>
<!-- LCC:AlarmCalc&#45;&gt;LCCError:Status -->
<g id="edge70" class="edge"><title>LCC:AlarmCalc&#45;&gt;LCCError:Status</title>
<path fill="none" stroke="black" d="M727.392,-161.208C736.613,-166.653 745.792,-172.647 754,-179 810.193,-222.495 863.823,-286.468 892.786,-323.512"/>
<polygon fill="black" stroke="black" points="890.375,-326.115 899.265,-331.878 895.909,-321.829 890.375,-326.115"/>
<text text-anchor="middle" x="801" y="-253.4" font-family="Times Roman,serif" font-size="14.00">OUT PP </text>
</g>
<!-- LCCError:Fanout&#45;&gt;LCC:PollDisable -->
<g id="edge74" class="edge"><title>LCCError:Fanout&#45;&gt;LCC:PollDisable</title>
<path fill="none" stroke="black" stroke-dasharray="1,5" d="M1181.9,-483.079C1216.78,-498.344 1258.75,-517.265 1266,-523 1289.18,-541.351 1309.6,-567.669 1324.13,-589.237"/>
<polygon fill="black" stroke="black" points="1321.38,-591.418 1329.8,-597.849 1327.23,-587.571 1321.38,-591.418"/>
<text text-anchor="middle" x="1243" y="-527.4" font-family="Times Roman,serif" font-size="14.00">LNK1 &#160;</text>
</g>
<!-- Subsystem:Calc -->
<g id="node63" class="node"><title>Subsystem:Calc</title>
<polygon fill="none" stroke="black" stroke-dasharray="5,2" points="1409,-480 1285,-480 1285,-444 1409,-444 1409,-480"/>
<text text-anchor="middle" x="1347" y="-457.9" font-family="Times Roman,serif" font-size="14.00">Subsystem:Calc</text>
</g>
<!-- LCCError:Fanout&#45;&gt;Subsystem:Calc -->
<g id="edge76" class="edge"><title>LCCError:Fanout&#45;&gt;Subsystem:Calc</title>
<path fill="none" stroke="black" stroke-dasharray="1,5" d="M1198.78,-446.076C1205.91,-444.818 1213.08,-443.746 1220,-443 1240.33,-440.806 1245.69,-440.65 1266,-443 1268.82,-443.327 1271.69,-443.716 1274.58,-444.155"/>
<polygon fill="black" stroke="black" points="1274.01,-447.609 1284.46,-445.828 1275.18,-440.707 1274.01,-447.609"/>
<text text-anchor="middle" x="1243" y="-447.4" font-family="Times Roman,serif" font-size="14.00">LNK2 &#160;</text>
</g>
<!-- LCCSetup:Fanout&#45;&gt;LCC:PollDisable -->
<g id="edge80" class="edge"><title>LCCSetup:Fanout&#45;&gt;LCC:PollDisable</title>
<path fill="none" stroke="black" stroke-dasharray="1,5" d="M1201.6,-709.85C1222.8,-703.368 1245.86,-695.071 1266,-685 1278.7,-678.651 1291.58,-670.411 1303.22,-662.146"/>
<polygon fill="black" stroke="black" points="1305.44,-664.864 1311.46,-656.149 1301.32,-659.204 1305.44,-664.864"/>
<text text-anchor="middle" x="1243" y="-707.4" font-family="Times Roman,serif" font-size="14.00">LNK1 &#160;</text>
</g>
<!-- LCCSetup:Fanout&#45;&gt;Subsystem:Calc -->
<g id="edge82" class="edge"><title>LCCSetup:Fanout&#45;&gt;Subsystem:Calc</title>
<path fill="none" stroke="black" stroke-dasharray="1,5" d="M1187.29,-705.907C1192.87,-701.971 1197.96,-697.366 1202,-692 1227.58,-658.016 1200.73,-635.921 1220,-598 1232.7,-573.004 1286.57,-519.377 1319.94,-487.439"/>
<polygon fill="black" stroke="black" points="1322.71,-489.633 1327.53,-480.202 1317.88,-484.565 1322.71,-489.633"/>
<text text-anchor="middle" x="1243" y="-602.4" font-family="Times Roman,serif" font-size="14.00">LNK2 &#160;</text>
</g>
<!-- LCCCal:Status -->
<g id="node68" class="node"><title>LCCCal:Status</title>
<polygon fill="none" stroke="black" points="1191,-423 1075,-423 1075,-381 1191,-381 1191,-423"/>
<text text-anchor="middle" x="1133" y="-406.4" font-family="Times Roman,serif" font-size="14.00">LCCCal:Status</text>
<text text-anchor="middle" x="1133" y="-389.4" font-family="Times Roman,serif" font-size="14.00">bo</text>
</g>
<!-- LCCCal:Status&#45;&gt;Subsystem:Calc -->
<g id="edge84" class="edge"><title>LCCCal:Status&#45;&gt;Subsystem:Calc</title>
<path fill="none" stroke="black" stroke-dasharray="1,5" d="M1191.23,-405.516C1214.84,-408.06 1242.12,-412.444 1266,-420 1280.73,-424.659 1295.98,-431.861 1309.23,-438.994"/>
<polygon fill="black" stroke="black" points="1307.61,-442.097 1318.05,-443.889 1311.01,-435.976 1307.61,-442.097"/>
<text text-anchor="middle" x="1243" y="-424.4" font-family="Times Roman,serif" font-size="14.00">FLNK &#160;</text>
</g>
<!-- LCCInit:Fanout&#45;&gt;LCC:PollDisable -->
<g id="edge88" class="edge"><title>LCCInit:Fanout&#45;&gt;LCC:PollDisable</title>
<path fill="none" stroke="black" stroke-dasharray="1,5" d="M1192.61,-617.621C1218.27,-619.18 1248.49,-621.016 1275.36,-622.648"/>
<polygon fill="black" stroke="black" points="1275.28,-626.15 1285.47,-623.262 1275.71,-619.162 1275.28,-626.15"/>
<text text-anchor="middle" x="1243" y="-626.4" font-family="Times Roman,serif" font-size="14.00">LNK1 &#160;</text>
</g>
<!-- LCCInit:Fanout&#45;&gt;Subsystem:Calc -->
<g id="edge90" class="edge"><title>LCCInit:Fanout&#45;&gt;Subsystem:Calc</title>
<path fill="none" stroke="black" stroke-dasharray="1,5" d="M1187.31,-592.922C1192.88,-588.983 1197.97,-584.373 1202,-579 1228.04,-544.268 1188.98,-513.364 1220,-483 1234.41,-468.892 1254.45,-462.121 1274.35,-459.268"/>
<polygon fill="black" stroke="black" points="1274.85,-462.734 1284.4,-458.141 1274.07,-455.778 1274.85,-462.734"/>
<text text-anchor="middle" x="1243" y="-487.4" font-family="Times Roman,serif" font-size="14.00">LNK2 &#160;</text>
</g>
<!-- Session:NewField:Seq -->
<g id="node74" class="node"><title>Session:NewField:Seq</title>
<polygon fill="none" stroke="black" points="460,-685 294,-685 294,-643 460,-643 460,-685"/>
<text text-anchor="middle" x="377" y="-668.4" font-family="Times Roman,serif" font-size="14.00">Session:NewField:Seq</text>
<text text-anchor="middle" x="377" y="-651.4" font-family="Times Roman,serif" font-size="14.00">seq</text>
</g>
<!-- Session:NewField:Seq&#45;&gt;LCCInit:Status -->
<g id="edge92" class="edge"><title>Session:NewField:Seq&#45;&gt;LCCInit:Status</title>
<path fill="none" stroke="black" d="M410.911,-685.201C450.287,-708.403 518.037,-744.026 582,-757 656.919,-772.196 679.407,-773.721 754,-757 796.686,-747.431 841.383,-725.214 872.82,-707.258"/>
<polygon fill="black" stroke="black" points="874.84,-710.132 881.727,-702.081 871.323,-704.08 874.84,-710.132"/>
<text text-anchor="middle" x="668" y="-772.4" font-family="Times Roman,serif" font-size="14.00">LNK1 &#160;, 0</text>
</g>
<!-- LCC:CalDone -->
<g id="node77" class="node"><title>LCC:CalDone</title>
<polygon fill="none" stroke="black" points="754,-748 582,-748 582,-672 754,-672 754,-748"/>
<text text-anchor="middle" x="668" y="-731.4" font-family="Times Roman,serif" font-size="14.00">LCC:CalDone</text>
<text text-anchor="middle" x="668" y="-714.4" font-family="Times Roman,serif" font-size="14.00">scalcout</text>
<text text-anchor="middle" x="668" y="-697.4" font-family="Times Roman,serif" font-size="14.00">AA==&#39;$&#39;</text>
<text text-anchor="middle" x="668" y="-680.4" font-family="Times Roman,serif" font-size="14.00">Transition To Non&#45;zero</text>
</g>
<!-- Session:NewField:Seq&#45;&gt;LCC:CalDone -->
<g id="edge94" class="edge"><title>Session:NewField:Seq&#45;&gt;LCC:CalDone</title>
<path fill="none" stroke="black" d="M460.389,-677.182C495.16,-682.678 535.758,-689.096 571.784,-694.791"/>
<polygon fill="black" stroke="black" points="571.392,-698.272 581.815,-696.376 572.485,-691.358 571.392,-698.272"/>
<text text-anchor="middle" x="521" y="-696.4" font-family="Times Roman,serif" font-size="14.00">LNK2 &#160;AA, &#39; &#39;</text>
</g>
<!-- &#39; -->
<g id="node79" class="node"><title>&#39;</title>
<polygon fill="none" stroke="black" stroke-dasharray="5,2" points="695,-600 641,-600 641,-564 695,-564 695,-600"/>
<text text-anchor="middle" x="668" y="-577.9" font-family="Times Roman,serif" font-size="14.00">&#39;</text>
</g>
<!-- Session:NewField:Seq&#45;&gt;&#39; -->
<g id="edge96" class="edge"><title>Session:NewField:Seq&#45;&gt;&#39;</title>
<path fill="none" stroke="black" d="M427.099,-642.994C443.183,-636.701 461.187,-630.119 478,-625 530.198,-609.109 592.065,-596.169 630.683,-588.772"/>
<polygon fill="black" stroke="black" points="631.756,-592.132 640.932,-586.835 630.456,-585.253 631.756,-592.132"/>
<text text-anchor="middle" x="521" y="-629.4" font-family="Times Roman,serif" font-size="14.00">DOL2 &#39; , &#39; &#39;</text>
</g>
<!-- 0 -->
<g id="node81" class="node"><title>0</title>
<polygon fill="none" stroke="black" stroke-dasharray="5,2" points="695,-654 641,-654 641,-618 695,-618 695,-654"/>
<text text-anchor="middle" x="668" y="-631.9" font-family="Times Roman,serif" font-size="14.00">0</text>
</g>
<!-- Session:NewField:Seq&#45;&gt;0 -->
<g id="edge98" class="edge"><title>Session:NewField:Seq&#45;&gt;0</title>
<path fill="none" stroke="black" d="M460.223,-655.732C466.239,-655.143 472.212,-654.561 478,-654 531.056,-648.86 592.462,-643.072 630.771,-639.48"/>
<polygon fill="black" stroke="black" points="631.308,-642.945 640.938,-638.527 630.655,-635.976 631.308,-642.945"/>
<text text-anchor="middle" x="521" y="-658.4" font-family="Times Roman,serif" font-size="14.00">DOL1 &#160;, 0</text>
</g>
<!-- LCC:CalDone&#45;&gt;LCCInit:Status -->
<g id="edge100" class="edge"><title>LCC:CalDone&#45;&gt;LCCInit:Status</title>
<path fill="none" stroke="black" d="M754.042,-699.898C784.174,-696.36 817.591,-692.437 846.133,-689.086"/>
<polygon fill="black" stroke="black" points="846.889,-692.521 856.412,-687.879 846.073,-685.569 846.889,-692.521"/>
<text text-anchor="middle" x="801" y="-701.4" font-family="Times Roman,serif" font-size="14.00">OUT PP </text>
</g>
</g>
</svg>
