<?xml version="1.0" encoding="UTF-8" standalone="no"?>
<!DOCTYPE svg PUBLIC "-//W3C//DTD SVG 1.1//EN"
 "http://www.w3.org/Graphics/SVG/1.1/DTD/svg11.dtd">
<!-- Generated by graphviz version 2.26.3 (20100126.1600)
 -->
<!-- Title: mod2_merged Pages: 1 -->
<svg width="1348pt" height="1218pt"
 viewBox="0.00 0.00 1348.00 1218.00" xmlns="http://www.w3.org/2000/svg" xmlns:xlink="http://www.w3.org/1999/xlink">
<g id="graph1" class="graph" transform="scale(1 1) rotate(0) translate(4 1214)">
<title>mod2_merged</title>
<polygon fill="white" stroke="white" points="-4,5 -4,-1214 1345,-1214 1345,5 -4,5"/>
<!-- MOD2:Waveform:Slice0:Calc -->
<g id="node1" class="node"><title>MOD2:Waveform:Slice0:Calc</title>
<polygon fill="none" stroke="black" points="561,-128.5 251,-128.5 251,-69.5 561,-69.5 561,-128.5"/>
<text text-anchor="middle" x="406" y="-111.9" font-family="Times Roman,serif" font-size="14.00">MOD2:Waveform:Slice0:Calc</text>
<text text-anchor="middle" x="406" y="-94.9" font-family="Times Roman,serif" font-size="14.00">acalcout</text>
<text text-anchor="middle" x="406" y="-77.9" font-family="Times Roman,serif" font-size="14.00">ARR(A){0,1}+ARR(B){1,2}+ARR(C){2,3}</text>
</g>
<!-- MOD2:Waveform:Merge:Calc -->
<g id="node53" class="node"><title>MOD2:Waveform:Merge:Calc</title>
<polygon fill="none" stroke="black" points="984,-623 682,-623 682,-547 984,-547 984,-623"/>
<text text-anchor="middle" x="833" y="-606.4" font-family="Times Roman,serif" font-size="14.00">MOD2:Waveform:Merge:Calc</text>
<text text-anchor="middle" x="833" y="-589.4" font-family="Times Roman,serif" font-size="14.00">acalcout</text>
<text text-anchor="middle" x="833" y="-572.4" font-family="Times Roman,serif" font-size="14.00">AA+BB+CC+DD+EE+FF+GG+HH+II+JJ</text>
<text text-anchor="middle" x="833" y="-555.4" font-family="Times Roman,serif" font-size="14.00">Every Time</text>
</g>
<!-- MOD2:Waveform:Slice0:Calc&#45;&gt;MOD2:Waveform:Merge:Calc -->
<g id="edge62" class="edge"><title>MOD2:Waveform:Slice0:Calc&#45;&gt;MOD2:Waveform:Merge:Calc</title>
<path fill="none" stroke="black" stroke-dasharray="5,2" d="M459.793,-128.085C490.904,-145.953 530.085,-170.292 562,-196 682.264,-292.874 771.811,-456.699 811.067,-537.303"/>
<polygon fill="black" stroke="black" points="808.107,-539.223 815.603,-546.71 814.412,-536.182 808.107,-539.223"/>
<text text-anchor="middle" x="622" y="-301.4" font-family="Times Roman,serif" font-size="14.00">INAA &#160;AVAL</text>
</g>
<!-- MOD2:Coil0804:Write -->
<g id="node2" class="node"><title>MOD2:Coil0804:Write</title>
<polygon fill="none" stroke="black" stroke-dasharray="5,2" points="169,-144 1,-144 1,-108 169,-108 169,-144"/>
<text text-anchor="middle" x="85" y="-121.9" font-family="Times Roman,serif" font-size="14.00">MOD2:Coil0804:Write</text>
</g>
<!-- MOD2:Coil0804:Write&#45;&gt;MOD2:Waveform:Slice0:Calc -->
<g id="edge2" class="edge"><title>MOD2:Coil0804:Write&#45;&gt;MOD2:Waveform:Slice0:Calc</title>
<path fill="none" stroke="black" stroke-dasharray="5,2" d="M169.759,-118.871C191.553,-117.038 215.766,-115.001 240.143,-112.951"/>
<polygon fill="black" stroke="black" points="240.551,-116.429 250.222,-112.103 239.964,-109.453 240.551,-116.429"/>
<text text-anchor="middle" x="210" y="-121.4" font-family="Times Roman,serif" font-size="14.00">INPB &#160;</text>
</g>
<!-- MOD2:Coil0803:Write -->
<g id="node4" class="node"><title>MOD2:Coil0803:Write</title>
<polygon fill="none" stroke="black" stroke-dasharray="5,2" points="169,-90 1,-90 1,-54 169,-54 169,-90"/>
<text text-anchor="middle" x="85" y="-67.9" font-family="Times Roman,serif" font-size="14.00">MOD2:Coil0803:Write</text>
</g>
<!-- MOD2:Coil0803:Write&#45;&gt;MOD2:Waveform:Slice0:Calc -->
<g id="edge4" class="edge"><title>MOD2:Coil0803:Write&#45;&gt;MOD2:Waveform:Slice0:Calc</title>
<path fill="none" stroke="black" stroke-dasharray="5,2" d="M169.759,-79.1292C191.553,-80.9624 215.766,-82.999 240.143,-85.0494"/>
<polygon fill="black" stroke="black" points="239.964,-88.5466 250.222,-85.8972 240.551,-81.5713 239.964,-88.5466"/>
<text text-anchor="middle" x="210" y="-87.4" font-family="Times Roman,serif" font-size="14.00">INPA &#160;</text>
</g>
<!-- MOD2:Coil0805:Write -->
<g id="node6" class="node"><title>MOD2:Coil0805:Write</title>
<polygon fill="none" stroke="black" stroke-dasharray="5,2" points="169,-36 1,-36 1,-1.06581e-14 169,-0 169,-36"/>
<text text-anchor="middle" x="85" y="-13.9" font-family="Times Roman,serif" font-size="14.00">MOD2:Coil0805:Write</text>
</g>
<!-- MOD2:Coil0805:Write&#45;&gt;MOD2:Waveform:Slice0:Calc -->
<g id="edge6" class="edge"><title>MOD2:Coil0805:Write&#45;&gt;MOD2:Waveform:Slice0:Calc</title>
<path fill="none" stroke="black" stroke-dasharray="5,2" d="M156.639,-36.0772C193.238,-45.3124 238.839,-56.8192 281,-67.4578"/>
<polygon fill="black" stroke="black" points="280.231,-70.8735 290.783,-69.9266 281.944,-64.0863 280.231,-70.8735"/>
<text text-anchor="middle" x="210" y="-57.4" font-family="Times Roman,serif" font-size="14.00">INPC &#160;</text>
</g>
<!-- MOD2:Waveform:Slice1:Calc -->
<g id="node8" class="node"><title>MOD2:Waveform:Slice1:Calc</title>
<polygon fill="none" stroke="black" points="528,-1073.5 284,-1073.5 284,-1014.5 528,-1014.5 528,-1073.5"/>
<text text-anchor="middle" x="406" y="-1056.9" font-family="Times Roman,serif" font-size="14.00">MOD2:Waveform:Slice1:Calc</text>
<text text-anchor="middle" x="406" y="-1039.9" font-family="Times Roman,serif" font-size="14.00">acalcout</text>
<text text-anchor="middle" x="406" y="-1022.9" font-family="Times Roman,serif" font-size="14.00">ARR(A){10,11}+ARR(B){11,12}</text>
</g>
<!-- MOD2:Waveform:Slice1:Calc&#45;&gt;MOD2:Waveform:Merge:Calc -->
<g id="edge52" class="edge"><title>MOD2:Waveform:Slice1:Calc&#45;&gt;MOD2:Waveform:Merge:Calc</title>
<path fill="none" stroke="black" stroke-dasharray="5,2" d="M495.804,-1014.95C556.629,-989.795 631.606,-946.607 664,-879 687.781,-829.369 647.786,-675.107 682,-632 682.387,-631.513 682.778,-631.03 683.175,-630.553"/>
<polygon fill="black" stroke="black" points="685.738,-632.937 690.006,-623.24 680.622,-628.159 685.738,-632.937"/>
<text text-anchor="middle" x="622" y="-972.4" font-family="Times Roman,serif" font-size="14.00">INBB &#160;AVAL</text>
</g>
<!-- MOD2:Coil0814:Write -->
<g id="node9" class="node"><title>MOD2:Coil0814:Write</title>
<polygon fill="none" stroke="black" stroke-dasharray="5,2" points="169,-1116 1,-1116 1,-1080 169,-1080 169,-1116"/>
<text text-anchor="middle" x="85" y="-1093.9" font-family="Times Roman,serif" font-size="14.00">MOD2:Coil0814:Write</text>
</g>
<!-- MOD2:Coil0814:Write&#45;&gt;MOD2:Waveform:Slice1:Calc -->
<g id="edge8" class="edge"><title>MOD2:Coil0814:Write&#45;&gt;MOD2:Waveform:Slice1:Calc</title>
<path fill="none" stroke="black" stroke-dasharray="5,2" d="M169.759,-1083.74C201.373,-1078.42 238.074,-1072.25 272.987,-1066.38"/>
<polygon fill="black" stroke="black" points="273.986,-1069.76 283.267,-1064.65 272.825,-1062.85 273.986,-1069.76"/>
<text text-anchor="middle" x="210" y="-1084.4" font-family="Times Roman,serif" font-size="14.00">INPB &#160;</text>
</g>
<!-- MOD2:Coil0813:Write -->
<g id="node11" class="node"><title>MOD2:Coil0813:Write</title>
<polygon fill="none" stroke="black" stroke-dasharray="5,2" points="169,-1062 1,-1062 1,-1026 169,-1026 169,-1062"/>
<text text-anchor="middle" x="85" y="-1039.9" font-family="Times Roman,serif" font-size="14.00">MOD2:Coil0813:Write</text>
</g>
<!-- MOD2:Coil0813:Write&#45;&gt;MOD2:Waveform:Slice1:Calc -->
<g id="edge10" class="edge"><title>MOD2:Coil0813:Write&#45;&gt;MOD2:Waveform:Slice1:Calc</title>
<path fill="none" stroke="black" stroke-dasharray="5,2" d="M169.759,-1044C201.373,-1044 238.074,-1044 272.987,-1044"/>
<polygon fill="black" stroke="black" points="273.267,-1047.5 283.267,-1044 273.267,-1040.5 273.267,-1047.5"/>
<text text-anchor="middle" x="210" y="-1048.4" font-family="Times Roman,serif" font-size="14.00">INPA &#160;</text>
</g>
<!-- MOD2:Waveform:Slice2:Calc -->
<g id="node13" class="node"><title>MOD2:Waveform:Slice2:Calc</title>
<polygon fill="none" stroke="black" points="528,-965.5 284,-965.5 284,-906.5 528,-906.5 528,-965.5"/>
<text text-anchor="middle" x="406" y="-948.9" font-family="Times Roman,serif" font-size="14.00">MOD2:Waveform:Slice2:Calc</text>
<text text-anchor="middle" x="406" y="-931.9" font-family="Times Roman,serif" font-size="14.00">acalcout</text>
<text text-anchor="middle" x="406" y="-914.9" font-family="Times Roman,serif" font-size="14.00">ARR(A){12,13}+ARR(B){13,14}</text>
</g>
<!-- MOD2:Waveform:Slice2:Calc&#45;&gt;MOD2:Waveform:Merge:Calc -->
<g id="edge54" class="edge"><title>MOD2:Waveform:Slice2:Calc&#45;&gt;MOD2:Waveform:Merge:Calc</title>
<path fill="none" stroke="black" stroke-dasharray="5,2" d="M491.299,-906.968C552.225,-881.093 629.306,-836.557 664,-768 691.531,-713.598 642.706,-678.621 682,-632 682.415,-631.508 682.834,-631.021 683.259,-630.539"/>
<polygon fill="black" stroke="black" points="686.01,-632.735 690.551,-623.162 681.032,-627.814 686.01,-632.735"/>
<text text-anchor="middle" x="622" y="-862.4" font-family="Times Roman,serif" font-size="14.00">INCC &#160;AVAL</text>
</g>
<!-- MOD2:Coil0816:Write -->
<g id="node14" class="node"><title>MOD2:Coil0816:Write</title>
<polygon fill="none" stroke="black" stroke-dasharray="5,2" points="169,-1008 1,-1008 1,-972 169,-972 169,-1008"/>
<text text-anchor="middle" x="85" y="-985.9" font-family="Times Roman,serif" font-size="14.00">MOD2:Coil0816:Write</text>
</g>
<!-- MOD2:Coil0816:Write&#45;&gt;MOD2:Waveform:Slice2:Calc -->
<g id="edge12" class="edge"><title>MOD2:Coil0816:Write&#45;&gt;MOD2:Waveform:Slice2:Calc</title>
<path fill="none" stroke="black" stroke-dasharray="5,2" d="M169.759,-975.742C201.373,-970.423 238.074,-964.249 272.987,-958.376"/>
<polygon fill="black" stroke="black" points="273.986,-961.757 283.267,-956.647 272.825,-954.854 273.986,-961.757"/>
<text text-anchor="middle" x="210" y="-976.4" font-family="Times Roman,serif" font-size="14.00">INPB &#160;</text>
</g>
<!-- MOD2:Coil0815:Write -->
<g id="node16" class="node"><title>MOD2:Coil0815:Write</title>
<polygon fill="none" stroke="black" stroke-dasharray="5,2" points="169,-954 1,-954 1,-918 169,-918 169,-954"/>
<text text-anchor="middle" x="85" y="-931.9" font-family="Times Roman,serif" font-size="14.00">MOD2:Coil0815:Write</text>
</g>
<!-- MOD2:Coil0815:Write&#45;&gt;MOD2:Waveform:Slice2:Calc -->
<g id="edge14" class="edge"><title>MOD2:Coil0815:Write&#45;&gt;MOD2:Waveform:Slice2:Calc</title>
<path fill="none" stroke="black" stroke-dasharray="5,2" d="M169.759,-936C201.373,-936 238.074,-936 272.987,-936"/>
<polygon fill="black" stroke="black" points="273.267,-939.5 283.267,-936 273.267,-932.5 273.267,-939.5"/>
<text text-anchor="middle" x="210" y="-940.4" font-family="Times Roman,serif" font-size="14.00">INPA &#160;</text>
</g>
<!-- MOD2:Waveform:Slice3:Calc -->
<g id="node18" class="node"><title>MOD2:Waveform:Slice3:Calc</title>
<polygon fill="none" stroke="black" points="528,-857.5 284,-857.5 284,-798.5 528,-798.5 528,-857.5"/>
<text text-anchor="middle" x="406" y="-840.9" font-family="Times Roman,serif" font-size="14.00">MOD2:Waveform:Slice3:Calc</text>
<text text-anchor="middle" x="406" y="-823.9" font-family="Times Roman,serif" font-size="14.00">acalcout</text>
<text text-anchor="middle" x="406" y="-806.9" font-family="Times Roman,serif" font-size="14.00">ARR(A){14,15}+ARR(B){15,16}</text>
</g>
<!-- MOD2:Waveform:Slice3:Calc&#45;&gt;MOD2:Waveform:Merge:Calc -->
<g id="edge48" class="edge"><title>MOD2:Waveform:Slice3:Calc&#45;&gt;MOD2:Waveform:Merge:Calc</title>
<path fill="none" stroke="black" stroke-dasharray="5,2" d="M478.989,-798.95C505.706,-787.362 535.795,-773.168 562,-758 610.472,-729.943 630.634,-728.983 664,-684 678.57,-664.357 664.436,-649.019 682,-632 682.813,-631.212 683.64,-630.437 684.478,-629.675"/>
<polygon fill="black" stroke="black" points="686.874,-632.236 692.344,-623.162 682.409,-626.844 686.874,-632.236"/>
<text text-anchor="middle" x="622" y="-751.4" font-family="Times Roman,serif" font-size="14.00">INDD &#160;AVAL</text>
</g>
<!-- MOD2:Coil0818:Write -->
<g id="node19" class="node"><title>MOD2:Coil0818:Write</title>
<polygon fill="none" stroke="black" stroke-dasharray="5,2" points="169,-900 1,-900 1,-864 169,-864 169,-900"/>
<text text-anchor="middle" x="85" y="-877.9" font-family="Times Roman,serif" font-size="14.00">MOD2:Coil0818:Write</text>
</g>
<!-- MOD2:Coil0818:Write&#45;&gt;MOD2:Waveform:Slice3:Calc -->
<g id="edge16" class="edge"><title>MOD2:Coil0818:Write&#45;&gt;MOD2:Waveform:Slice3:Calc</title>
<path fill="none" stroke="black" stroke-dasharray="5,2" d="M169.759,-867.742C201.373,-862.423 238.074,-856.249 272.987,-850.376"/>
<polygon fill="black" stroke="black" points="273.986,-853.757 283.267,-848.647 272.825,-846.854 273.986,-853.757"/>
<text text-anchor="middle" x="210" y="-868.4" font-family="Times Roman,serif" font-size="14.00">INPB &#160;</text>
</g>
<!-- MOD2:Coil0817:Write -->
<g id="node21" class="node"><title>MOD2:Coil0817:Write</title>
<polygon fill="none" stroke="black" stroke-dasharray="5,2" points="169,-846 1,-846 1,-810 169,-810 169,-846"/>
<text text-anchor="middle" x="85" y="-823.9" font-family="Times Roman,serif" font-size="14.00">MOD2:Coil0817:Write</text>
</g>
<!-- MOD2:Coil0817:Write&#45;&gt;MOD2:Waveform:Slice3:Calc -->
<g id="edge18" class="edge"><title>MOD2:Coil0817:Write&#45;&gt;MOD2:Waveform:Slice3:Calc</title>
<path fill="none" stroke="black" stroke-dasharray="5,2" d="M169.759,-828C201.373,-828 238.074,-828 272.987,-828"/>
<polygon fill="black" stroke="black" points="273.267,-831.5 283.267,-828 273.267,-824.5 273.267,-831.5"/>
<text text-anchor="middle" x="210" y="-832.4" font-family="Times Roman,serif" font-size="14.00">INPA &#160;</text>
</g>
<!-- MOD2:Waveform:Slice4:Calc -->
<g id="node23" class="node"><title>MOD2:Waveform:Slice4:Calc</title>
<polygon fill="none" stroke="black" points="528,-749.5 284,-749.5 284,-690.5 528,-690.5 528,-749.5"/>
<text text-anchor="middle" x="406" y="-732.9" font-family="Times Roman,serif" font-size="14.00">MOD2:Waveform:Slice4:Calc</text>
<text text-anchor="middle" x="406" y="-715.9" font-family="Times Roman,serif" font-size="14.00">acalcout</text>
<text text-anchor="middle" x="406" y="-698.9" font-family="Times Roman,serif" font-size="14.00">ARR(A){16,17}+ARR(B){17,18}</text>
</g>
<!-- MOD2:Waveform:Slice4:Calc&#45;&gt;MOD2:Waveform:Merge:Calc -->
<g id="edge50" class="edge"><title>MOD2:Waveform:Slice4:Calc&#45;&gt;MOD2:Waveform:Merge:Calc</title>
<path fill="none" stroke="black" stroke-dasharray="5,2" d="M496.695,-690.909C550.521,-673.688 620.12,-651.495 682,-632 688.101,-630.078 694.342,-628.117 700.647,-626.139"/>
<polygon fill="black" stroke="black" points="702.101,-629.351 710.596,-623.021 700.007,-622.671 702.101,-629.351"/>
<text text-anchor="middle" x="622" y="-667.4" font-family="Times Roman,serif" font-size="14.00">INEE &#160;AVAL</text>
</g>
<!-- MOD2:Coil0820:Write -->
<g id="node24" class="node"><title>MOD2:Coil0820:Write</title>
<polygon fill="none" stroke="black" stroke-dasharray="5,2" points="169,-792 1,-792 1,-756 169,-756 169,-792"/>
<text text-anchor="middle" x="85" y="-769.9" font-family="Times Roman,serif" font-size="14.00">MOD2:Coil0820:Write</text>
</g>
<!-- MOD2:Coil0820:Write&#45;&gt;MOD2:Waveform:Slice4:Calc -->
<g id="edge20" class="edge"><title>MOD2:Coil0820:Write&#45;&gt;MOD2:Waveform:Slice4:Calc</title>
<path fill="none" stroke="black" stroke-dasharray="5,2" d="M169.759,-759.742C201.373,-754.423 238.074,-748.249 272.987,-742.376"/>
<polygon fill="black" stroke="black" points="273.986,-745.757 283.267,-740.647 272.825,-738.854 273.986,-745.757"/>
<text text-anchor="middle" x="210" y="-760.4" font-family="Times Roman,serif" font-size="14.00">INPB &#160;</text>
</g>
<!-- MOD2:Coil0819:Write -->
<g id="node26" class="node"><title>MOD2:Coil0819:Write</title>
<polygon fill="none" stroke="black" stroke-dasharray="5,2" points="169,-738 1,-738 1,-702 169,-702 169,-738"/>
<text text-anchor="middle" x="85" y="-715.9" font-family="Times Roman,serif" font-size="14.00">MOD2:Coil0819:Write</text>
</g>
<!-- MOD2:Coil0819:Write&#45;&gt;MOD2:Waveform:Slice4:Calc -->
<g id="edge22" class="edge"><title>MOD2:Coil0819:Write&#45;&gt;MOD2:Waveform:Slice4:Calc</title>
<path fill="none" stroke="black" stroke-dasharray="5,2" d="M169.759,-720C201.373,-720 238.074,-720 272.987,-720"/>
<polygon fill="black" stroke="black" points="273.267,-723.5 283.267,-720 273.267,-716.5 273.267,-723.5"/>
<text text-anchor="middle" x="210" y="-724.4" font-family="Times Roman,serif" font-size="14.00">INPA &#160;</text>
</g>
<!-- MOD2:Waveform:Slice5:Calc -->
<g id="node28" class="node"><title>MOD2:Waveform:Slice5:Calc</title>
<polygon fill="none" stroke="black" points="528,-652.5 284,-652.5 284,-593.5 528,-593.5 528,-652.5"/>
<text text-anchor="middle" x="406" y="-635.9" font-family="Times Roman,serif" font-size="14.00">MOD2:Waveform:Slice5:Calc</text>
<text text-anchor="middle" x="406" y="-618.9" font-family="Times Roman,serif" font-size="14.00">acalcout</text>
<text text-anchor="middle" x="406" y="-601.9" font-family="Times Roman,serif" font-size="14.00">ARR(A){18,19}+ARR(B){19,20}</text>
</g>
<!-- MOD2:Waveform:Slice5:Calc&#45;&gt;MOD2:Waveform:Merge:Calc -->
<g id="edge60" class="edge"><title>MOD2:Waveform:Slice5:Calc&#45;&gt;MOD2:Waveform:Merge:Calc</title>
<path fill="none" stroke="black" stroke-dasharray="5,2" d="M528.647,-612.085C573.276,-608.114 624.416,-603.563 671.875,-599.339"/>
<polygon fill="black" stroke="black" points="672.293,-602.816 681.943,-598.443 671.672,-595.843 672.293,-602.816"/>
<text text-anchor="middle" x="622" y="-611.4" font-family="Times Roman,serif" font-size="14.00">INFF &#160;AVAL</text>
</g>
<!-- MOD2:Coil0822:Write -->
<g id="node29" class="node"><title>MOD2:Coil0822:Write</title>
<polygon fill="none" stroke="black" stroke-dasharray="5,2" points="169,-684 1,-684 1,-648 169,-648 169,-684"/>
<text text-anchor="middle" x="85" y="-661.9" font-family="Times Roman,serif" font-size="14.00">MOD2:Coil0822:Write</text>
</g>
<!-- MOD2:Coil0822:Write&#45;&gt;MOD2:Waveform:Slice5:Calc -->
<g id="edge24" class="edge"><title>MOD2:Coil0822:Write&#45;&gt;MOD2:Waveform:Slice5:Calc</title>
<path fill="none" stroke="black" stroke-dasharray="5,2" d="M169.759,-654.646C201.373,-650.411 238.074,-645.495 272.987,-640.818"/>
<polygon fill="black" stroke="black" points="273.82,-644.238 283.267,-639.441 272.891,-637.3 273.82,-644.238"/>
<text text-anchor="middle" x="210" y="-656.4" font-family="Times Roman,serif" font-size="14.00">INPB &#160;</text>
</g>
<!-- MOD2:Coil0821:Write -->
<g id="node31" class="node"><title>MOD2:Coil0821:Write</title>
<polygon fill="none" stroke="black" stroke-dasharray="5,2" points="169,-630 1,-630 1,-594 169,-594 169,-630"/>
<text text-anchor="middle" x="85" y="-607.9" font-family="Times Roman,serif" font-size="14.00">MOD2:Coil0821:Write</text>
</g>
<!-- MOD2:Coil0821:Write&#45;&gt;MOD2:Waveform:Slice5:Calc -->
<g id="edge26" class="edge"><title>MOD2:Coil0821:Write&#45;&gt;MOD2:Waveform:Slice5:Calc</title>
<path fill="none" stroke="black" stroke-dasharray="5,2" d="M169.759,-614.905C201.373,-615.988 238.074,-617.246 272.987,-618.442"/>
<polygon fill="black" stroke="black" points="273.153,-621.95 283.267,-618.794 273.393,-614.954 273.153,-621.95"/>
<text text-anchor="middle" x="210" y="-620.4" font-family="Times Roman,serif" font-size="14.00">INPA &#160;</text>
</g>
<!-- MOD2:Waveform:Slice6:Calc -->
<g id="node33" class="node"><title>MOD2:Waveform:Slice6:Calc</title>
<polygon fill="none" stroke="black" points="528,-576.5 284,-576.5 284,-517.5 528,-517.5 528,-576.5"/>
<text text-anchor="middle" x="406" y="-559.9" font-family="Times Roman,serif" font-size="14.00">MOD2:Waveform:Slice6:Calc</text>
<text text-anchor="middle" x="406" y="-542.9" font-family="Times Roman,serif" font-size="14.00">acalcout</text>
<text text-anchor="middle" x="406" y="-525.9" font-family="Times Roman,serif" font-size="14.00">ARR(A){20,21}+ARR(B){21,22}</text>
</g>
<!-- MOD2:Waveform:Slice6:Calc&#45;&gt;MOD2:Waveform:Merge:Calc -->
<g id="edge56" class="edge"><title>MOD2:Waveform:Slice6:Calc&#45;&gt;MOD2:Waveform:Merge:Calc</title>
<path fill="none" stroke="black" stroke-dasharray="5,2" d="M528.647,-557.915C573.276,-561.886 624.416,-566.437 671.875,-570.661"/>
<polygon fill="black" stroke="black" points="671.672,-574.157 681.943,-571.557 672.293,-567.184 671.672,-574.157"/>
<text text-anchor="middle" x="622" y="-573.4" font-family="Times Roman,serif" font-size="14.00">INGG &#160;AVAL</text>
</g>
<!-- MOD2:Coil0824:Write -->
<g id="node34" class="node"><title>MOD2:Coil0824:Write</title>
<polygon fill="none" stroke="black" stroke-dasharray="5,2" points="169,-576 1,-576 1,-540 169,-540 169,-576"/>
<text text-anchor="middle" x="85" y="-553.9" font-family="Times Roman,serif" font-size="14.00">MOD2:Coil0824:Write</text>
</g>
<!-- MOD2:Coil0824:Write&#45;&gt;MOD2:Waveform:Slice6:Calc -->
<g id="edge28" class="edge"><title>MOD2:Coil0824:Write&#45;&gt;MOD2:Waveform:Slice6:Calc</title>
<path fill="none" stroke="black" stroke-dasharray="5,2" d="M169.759,-555.095C201.373,-554.012 238.074,-552.754 272.987,-551.558"/>
<polygon fill="black" stroke="black" points="273.393,-555.046 283.267,-551.206 273.153,-548.05 273.393,-555.046"/>
<text text-anchor="middle" x="210" y="-558.4" font-family="Times Roman,serif" font-size="14.00">INPB &#160;</text>
</g>
<!-- MOD2:Coil0823:Write -->
<g id="node36" class="node"><title>MOD2:Coil0823:Write</title>
<polygon fill="none" stroke="black" stroke-dasharray="5,2" points="169,-522 1,-522 1,-486 169,-486 169,-522"/>
<text text-anchor="middle" x="85" y="-499.9" font-family="Times Roman,serif" font-size="14.00">MOD2:Coil0823:Write</text>
</g>
<!-- MOD2:Coil0823:Write&#45;&gt;MOD2:Waveform:Slice6:Calc -->
<g id="edge30" class="edge"><title>MOD2:Coil0823:Write&#45;&gt;MOD2:Waveform:Slice6:Calc</title>
<path fill="none" stroke="black" stroke-dasharray="5,2" d="M169.759,-515.354C201.373,-519.589 238.074,-524.505 272.987,-529.182"/>
<polygon fill="black" stroke="black" points="272.891,-532.7 283.267,-530.559 273.82,-525.762 272.891,-532.7"/>
<text text-anchor="middle" x="210" y="-526.4" font-family="Times Roman,serif" font-size="14.00">INPA &#160;</text>
</g>
<!-- MOD2:Waveform:Slice7:Calc -->
<g id="node38" class="node"><title>MOD2:Waveform:Slice7:Calc</title>
<polygon fill="none" stroke="black" points="528,-479.5 284,-479.5 284,-420.5 528,-420.5 528,-479.5"/>
<text text-anchor="middle" x="406" y="-462.9" font-family="Times Roman,serif" font-size="14.00">MOD2:Waveform:Slice7:Calc</text>
<text text-anchor="middle" x="406" y="-445.9" font-family="Times Roman,serif" font-size="14.00">acalcout</text>
<text text-anchor="middle" x="406" y="-428.9" font-family="Times Roman,serif" font-size="14.00">ARR(A){22,23}+ARR(B){23,24}</text>
</g>
<!-- MOD2:Waveform:Slice7:Calc&#45;&gt;MOD2:Waveform:Merge:Calc -->
<g id="edge46" class="edge"><title>MOD2:Waveform:Slice7:Calc&#45;&gt;MOD2:Waveform:Merge:Calc</title>
<path fill="none" stroke="black" stroke-dasharray="5,2" d="M497.864,-479.044C557.671,-497.952 636.588,-522.903 702.818,-543.842"/>
<polygon fill="black" stroke="black" points="701.904,-547.223 712.493,-546.901 704.014,-540.549 701.904,-547.223"/>
<text text-anchor="middle" x="622" y="-533.4" font-family="Times Roman,serif" font-size="14.00">INHH &#160;AVAL</text>
</g>
<!-- MOD2:Coil0826:Write -->
<g id="node39" class="node"><title>MOD2:Coil0826:Write</title>
<polygon fill="none" stroke="black" stroke-dasharray="5,2" points="169,-468 1,-468 1,-432 169,-432 169,-468"/>
<text text-anchor="middle" x="85" y="-445.9" font-family="Times Roman,serif" font-size="14.00">MOD2:Coil0826:Write</text>
</g>
<!-- MOD2:Coil0826:Write&#45;&gt;MOD2:Waveform:Slice7:Calc -->
<g id="edge32" class="edge"><title>MOD2:Coil0826:Write&#45;&gt;MOD2:Waveform:Slice7:Calc</title>
<path fill="none" stroke="black" stroke-dasharray="5,2" d="M169.759,-450C201.373,-450 238.074,-450 272.987,-450"/>
<polygon fill="black" stroke="black" points="273.267,-453.5 283.267,-450 273.267,-446.5 273.267,-453.5"/>
<text text-anchor="middle" x="210" y="-454.4" font-family="Times Roman,serif" font-size="14.00">INPB &#160;</text>
</g>
<!-- MOD2:Coil0825:Write -->
<g id="node41" class="node"><title>MOD2:Coil0825:Write</title>
<polygon fill="none" stroke="black" stroke-dasharray="5,2" points="169,-414 1,-414 1,-378 169,-378 169,-414"/>
<text text-anchor="middle" x="85" y="-391.9" font-family="Times Roman,serif" font-size="14.00">MOD2:Coil0825:Write</text>
</g>
<!-- MOD2:Coil0825:Write&#45;&gt;MOD2:Waveform:Slice7:Calc -->
<g id="edge34" class="edge"><title>MOD2:Coil0825:Write&#45;&gt;MOD2:Waveform:Slice7:Calc</title>
<path fill="none" stroke="black" stroke-dasharray="5,2" d="M169.759,-410.258C201.373,-415.577 238.074,-421.751 272.987,-427.624"/>
<polygon fill="black" stroke="black" points="272.825,-431.146 283.267,-429.353 273.986,-424.243 272.825,-431.146"/>
<text text-anchor="middle" x="210" y="-423.4" font-family="Times Roman,serif" font-size="14.00">INPA &#160;</text>
</g>
<!-- MOD2:Waveform:Slice8:Calc -->
<g id="node43" class="node"><title>MOD2:Waveform:Slice8:Calc</title>
<polygon fill="none" stroke="black" points="528,-371.5 284,-371.5 284,-312.5 528,-312.5 528,-371.5"/>
<text text-anchor="middle" x="406" y="-354.9" font-family="Times Roman,serif" font-size="14.00">MOD2:Waveform:Slice8:Calc</text>
<text text-anchor="middle" x="406" y="-337.9" font-family="Times Roman,serif" font-size="14.00">acalcout</text>
<text text-anchor="middle" x="406" y="-320.9" font-family="Times Roman,serif" font-size="14.00">ARR(A){24,25}+ARR(B){25,26}</text>
</g>
<!-- MOD2:Waveform:Slice8:Calc&#45;&gt;MOD2:Waveform:Merge:Calc -->
<g id="edge44" class="edge"><title>MOD2:Waveform:Slice8:Calc&#45;&gt;MOD2:Waveform:Merge:Calc</title>
<path fill="none" stroke="black" stroke-dasharray="5,2" d="M476.558,-371.049C503.696,-382.895 534.702,-397.265 562,-412 635.783,-451.828 716.284,-504.48 770.216,-541.194"/>
<polygon fill="black" stroke="black" points="768.406,-544.197 778.638,-546.945 772.354,-538.416 768.406,-544.197"/>
<text text-anchor="middle" x="622" y="-473.4" font-family="Times Roman,serif" font-size="14.00">INII &#160;AVAL</text>
</g>
<!-- MOD2:Coil0828:Write -->
<g id="node44" class="node"><title>MOD2:Coil0828:Write</title>
<polygon fill="none" stroke="black" stroke-dasharray="5,2" points="169,-360 1,-360 1,-324 169,-324 169,-360"/>
<text text-anchor="middle" x="85" y="-337.9" font-family="Times Roman,serif" font-size="14.00">MOD2:Coil0828:Write</text>
</g>
<!-- MOD2:Coil0828:Write&#45;&gt;MOD2:Waveform:Slice8:Calc -->
<g id="edge36" class="edge"><title>MOD2:Coil0828:Write&#45;&gt;MOD2:Waveform:Slice8:Calc</title>
<path fill="none" stroke="black" stroke-dasharray="5,2" d="M169.759,-342C201.373,-342 238.074,-342 272.987,-342"/>
<polygon fill="black" stroke="black" points="273.267,-345.5 283.267,-342 273.267,-338.5 273.267,-345.5"/>
<text text-anchor="middle" x="210" y="-346.4" font-family="Times Roman,serif" font-size="14.00">INPB &#160;</text>
</g>
<!-- MOD2:Coil0827:Write -->
<g id="node46" class="node"><title>MOD2:Coil0827:Write</title>
<polygon fill="none" stroke="black" stroke-dasharray="5,2" points="169,-306 1,-306 1,-270 169,-270 169,-306"/>
<text text-anchor="middle" x="85" y="-283.9" font-family="Times Roman,serif" font-size="14.00">MOD2:Coil0827:Write</text>
</g>
<!-- MOD2:Coil0827:Write&#45;&gt;MOD2:Waveform:Slice8:Calc -->
<g id="edge38" class="edge"><title>MOD2:Coil0827:Write&#45;&gt;MOD2:Waveform:Slice8:Calc</title>
<path fill="none" stroke="black" stroke-dasharray="5,2" d="M169.759,-302.258C201.373,-307.577 238.074,-313.751 272.987,-319.624"/>
<polygon fill="black" stroke="black" points="272.825,-323.146 283.267,-321.353 273.986,-316.243 272.825,-323.146"/>
<text text-anchor="middle" x="210" y="-315.4" font-family="Times Roman,serif" font-size="14.00">INPA &#160;</text>
</g>
<!-- MOD2:Waveform:Slice9:Calc -->
<g id="node48" class="node"><title>MOD2:Waveform:Slice9:Calc</title>
<polygon fill="none" stroke="black" points="528,-263.5 284,-263.5 284,-204.5 528,-204.5 528,-263.5"/>
<text text-anchor="middle" x="406" y="-246.9" font-family="Times Roman,serif" font-size="14.00">MOD2:Waveform:Slice9:Calc</text>
<text text-anchor="middle" x="406" y="-229.9" font-family="Times Roman,serif" font-size="14.00">acalcout</text>
<text text-anchor="middle" x="406" y="-212.9" font-family="Times Roman,serif" font-size="14.00">ARR(A){26,27}+ARR(B){27,28}</text>
</g>
<!-- MOD2:Waveform:Slice9:Calc&#45;&gt;MOD2:Waveform:Merge:Calc -->
<g id="edge58" class="edge"><title>MOD2:Waveform:Slice9:Calc&#45;&gt;MOD2:Waveform:Merge:Calc</title>
<path fill="none" stroke="black" stroke-dasharray="5,2" d="M485.005,-263.102C510.585,-274.156 538.418,-288 562,-304 660.293,-370.689 751.014,-477.765 798.464,-538.675"/>
<polygon fill="black" stroke="black" points="795.981,-541.186 804.868,-546.954 801.518,-536.903 795.981,-541.186"/>
<text text-anchor="middle" x="622" y="-389.4" font-family="Times Roman,serif" font-size="14.00">INJJ &#160;AVAL</text>
</g>
<!-- MOD2:Coil0830:Write -->
<g id="node49" class="node"><title>MOD2:Coil0830:Write</title>
<polygon fill="none" stroke="black" stroke-dasharray="5,2" points="169,-252 1,-252 1,-216 169,-216 169,-252"/>
<text text-anchor="middle" x="85" y="-229.9" font-family="Times Roman,serif" font-size="14.00">MOD2:Coil0830:Write</text>
</g>
<!-- MOD2:Coil0830:Write&#45;&gt;MOD2:Waveform:Slice9:Calc -->
<g id="edge40" class="edge"><title>MOD2:Coil0830:Write&#45;&gt;MOD2:Waveform:Slice9:Calc</title>
<path fill="none" stroke="black" stroke-dasharray="5,2" d="M169.759,-234C201.373,-234 238.074,-234 272.987,-234"/>
<polygon fill="black" stroke="black" points="273.267,-237.5 283.267,-234 273.267,-230.5 273.267,-237.5"/>
<text text-anchor="middle" x="210" y="-238.4" font-family="Times Roman,serif" font-size="14.00">INPB &#160;</text>
</g>
<!-- MOD2:Coil0829:Write -->
<g id="node51" class="node"><title>MOD2:Coil0829:Write</title>
<polygon fill="none" stroke="black" stroke-dasharray="5,2" points="169,-198 1,-198 1,-162 169,-162 169,-198"/>
<text text-anchor="middle" x="85" y="-175.9" font-family="Times Roman,serif" font-size="14.00">MOD2:Coil0829:Write</text>
</g>
<!-- MOD2:Coil0829:Write&#45;&gt;MOD2:Waveform:Slice9:Calc -->
<g id="edge42" class="edge"><title>MOD2:Coil0829:Write&#45;&gt;MOD2:Waveform:Slice9:Calc</title>
<path fill="none" stroke="black" stroke-dasharray="5,2" d="M169.759,-194.258C201.373,-199.577 238.074,-205.751 272.987,-211.624"/>
<polygon fill="black" stroke="black" points="272.825,-215.146 283.267,-213.353 273.986,-208.243 272.825,-215.146"/>
<text text-anchor="middle" x="210" y="-207.4" font-family="Times Roman,serif" font-size="14.00">INPA &#160;</text>
</g>
<!-- MOD2:CnOutWArray -->
<g id="node65" class="node"><title>MOD2:CnOutWArray</title>
<polygon fill="none" stroke="black" points="1340,-659.5 1178,-659.5 1178,-600.5 1340,-600.5 1340,-659.5"/>
<text text-anchor="middle" x="1259" y="-642.9" font-family="Times Roman,serif" font-size="14.00">MOD2:CnOutWArray</text>
<text text-anchor="middle" x="1259" y="-625.9" font-family="Times Roman,serif" font-size="14.00">waveform</text>
<text text-anchor="middle" x="1259" y="-608.9" font-family="Times Roman,serif" font-size="14.00">asynInt32ArrayOut</text>
</g>
<!-- MOD2:Waveform:Merge:Calc&#45;&gt;MOD2:CnOutWArray -->
<g id="edge64" class="edge"><title>MOD2:Waveform:Merge:Calc&#45;&gt;MOD2:CnOutWArray</title>
<path fill="none" stroke="black" d="M984.149,-597.868C1039.53,-602.968 1102.66,-609.231 1160,-616 1162.66,-616.314 1165.35,-616.64 1168.07,-616.977"/>
<polygon fill="black" stroke="black" points="1167.64,-620.45 1178,-618.236 1168.52,-613.505 1167.64,-620.45"/>
<text text-anchor="middle" x="1081" y="-620.4" font-family="Times Roman,serif" font-size="14.00">OUT PP NMS VAL</text>
</g>
<!-- MOD2:TCPAsyn00 -->
<g id="node66" class="node"><title>MOD2:TCPAsyn00</title>
<polygon fill="none" stroke="black" points="165,-1210 5,-1210 5,-1134 165,-1134 165,-1210"/>
<text text-anchor="middle" x="85" y="-1193.4" font-family="Times Roman,serif" font-size="14.00">MOD2:TCPAsyn00</text>
<text text-anchor="middle" x="85" y="-1176.4" font-family="Times Roman,serif" font-size="14.00">asyn</text>
<text text-anchor="middle" x="85" y="-1159.4" font-family="Times Roman,serif" font-size="14.00">asynRecordDevice</text>
<text text-anchor="middle" x="85" y="-1142.4" font-family="Times Roman,serif" font-size="14.00">therapyControlWrite</text>
</g>
<!-- @asyn(therapyControlOut_Word -->
<g id="node67" class="node"><title>@asyn(therapyControlOut_Word</title>
<polygon fill="none" stroke="black" stroke-dasharray="5,2" points="955,-677 711,-677 711,-641 955,-641 955,-677"/>
<text text-anchor="middle" x="833" y="-654.9" font-family="Times Roman,serif" font-size="14.00">@asyn(therapyControlOut_Word</text>
</g>
<!-- @asyn(therapyControlOut_Word&#45;&gt;MOD2:CnOutWArray -->
<g id="edge66" class="edge"><title>@asyn(therapyControlOut_Word&#45;&gt;MOD2:CnOutWArray</title>
<path fill="none" stroke="black" stroke-dasharray="5,2" d="M955.075,-650.69C1022.85,-646.076 1105.74,-640.433 1167.83,-636.207"/>
<polygon fill="black" stroke="black" points="1168.26,-639.685 1178,-635.514 1167.78,-632.702 1168.26,-639.685"/>
<text text-anchor="middle" x="1081" y="-651.4" font-family="Times Roman,serif" font-size="14.00">INP 0)MODBUS_DATA </text>
</g>
</g>
</svg>
