<?xml version="1.0" encoding="UTF-8" standalone="no"?>
<!DOCTYPE svg PUBLIC "-//W3C//DTD SVG 1.1//EN"
 "http://www.w3.org/Graphics/SVG/1.1/DTD/svg11.dtd">
<!-- Generated by graphviz version 2.26.3 (20100126.1600)
 -->
<!-- Title: press_temp_subs Pages: 1 -->
<svg width="422pt" height="950pt"
 viewBox="0.00 0.00 422.00 950.00" xmlns="http://www.w3.org/2000/svg" xmlns:xlink="http://www.w3.org/1999/xlink">
<g id="graph1" class="graph" transform="scale(1 1) rotate(0) translate(4 946)">
<title>press_temp_subs</title>
<polygon fill="white" stroke="white" points="-4,5 -4,-946 419,-946 419,5 -4,5"/>
<!-- Pressure1:Actual -->
<g id="node1" class="node"><title>Pressure1:Actual</title>
<polygon fill="none" stroke="black" points="157,-102 23,-102 23,-60 157,-60 157,-102"/>
<text text-anchor="middle" x="90" y="-85.4" font-family="Times Roman,serif" font-size="14.00">Pressure1:Actual</text>
<text text-anchor="middle" x="90" y="-68.4" font-family="Times Roman,serif" font-size="14.00">ao</text>
</g>
<!-- Pressure:AutoCalc -->
<g id="node3" class="node"><title>Pressure:AutoCalc</title>
<polygon fill="none" stroke="black" stroke-dasharray="5,2" points="409,-69 267,-69 267,-33 409,-33 409,-69"/>
<text text-anchor="middle" x="338" y="-46.9" font-family="Times Roman,serif" font-size="14.00">Pressure:AutoCalc</text>
</g>
<!-- Pressure1:Actual&#45;&gt;Pressure:AutoCalc -->
<g id="edge2" class="edge"><title>Pressure1:Actual&#45;&gt;Pressure:AutoCalc</title>
<path fill="none" stroke="black" stroke-dasharray="1,5" d="M157.112,-72.8816C187.66,-69.1862 224.089,-64.7795 256.223,-60.8924"/>
<polygon fill="black" stroke="black" points="256.984,-64.3259 266.492,-59.6502 256.144,-57.3765 256.984,-64.3259"/>
<text text-anchor="middle" x="221" y="-72.4" font-family="Times Roman,serif" font-size="14.00">FLNK &#160;</text>
</g>
<!-- Pressure2:Actual -->
<g id="node4" class="node"><title>Pressure2:Actual</title>
<polygon fill="none" stroke="black" points="157,-42 23,-42 23,-1.06581e-14 157,-0 157,-42"/>
<text text-anchor="middle" x="90" y="-25.4" font-family="Times Roman,serif" font-size="14.00">Pressure2:Actual</text>
<text text-anchor="middle" x="90" y="-8.4" font-family="Times Roman,serif" font-size="14.00">ao</text>
</g>
<!-- Pressure2:Actual&#45;&gt;Pressure:AutoCalc -->
<g id="edge4" class="edge"><title>Pressure2:Actual&#45;&gt;Pressure:AutoCalc</title>
<path fill="none" stroke="black" stroke-dasharray="1,5" d="M157.112,-29.1184C187.66,-32.8138 224.089,-37.2205 256.223,-41.1076"/>
<polygon fill="black" stroke="black" points="256.144,-44.6235 266.492,-42.3498 256.984,-37.6741 256.144,-44.6235"/>
<text text-anchor="middle" x="221" y="-44.4" font-family="Times Roman,serif" font-size="14.00">FLNK &#160;</text>
</g>
<!-- Pressure:Automatic -->
<g id="node6" class="node"><title>Pressure:Automatic</title>
<polygon fill="none" stroke="black" points="166,-222 14,-222 14,-180 166,-180 166,-222"/>
<text text-anchor="middle" x="90" y="-205.4" font-family="Times Roman,serif" font-size="14.00">Pressure:Automatic</text>
<text text-anchor="middle" x="90" y="-188.4" font-family="Times Roman,serif" font-size="14.00">ao</text>
</g>
<!-- PTAuto:Calc -->
<g id="node8" class="node"><title>PTAuto:Calc</title>
<polygon fill="none" stroke="black" stroke-dasharray="5,2" points="388,-189 288,-189 288,-153 388,-153 388,-189"/>
<text text-anchor="middle" x="338" y="-166.9" font-family="Times Roman,serif" font-size="14.00">PTAuto:Calc</text>
</g>
<!-- Pressure:Automatic&#45;&gt;PTAuto:Calc -->
<g id="edge6" class="edge"><title>Pressure:Automatic&#45;&gt;PTAuto:Calc</title>
<path fill="none" stroke="black" stroke-dasharray="1,5" d="M166.094,-191.795C201.965,-187.456 244.158,-182.352 277.766,-178.286"/>
<polygon fill="black" stroke="black" points="278.396,-181.736 287.903,-177.06 277.555,-174.786 278.396,-181.736"/>
<text text-anchor="middle" x="221" y="-192.4" font-family="Times Roman,serif" font-size="14.00">FLNK &#160;</text>
</g>
<!-- Pressure:Manual -->
<g id="node9" class="node"><title>Pressure:Manual</title>
<polygon fill="none" stroke="black" points="155,-342 25,-342 25,-300 155,-300 155,-342"/>
<text text-anchor="middle" x="90" y="-325.4" font-family="Times Roman,serif" font-size="14.00">Pressure:Manual</text>
<text text-anchor="middle" x="90" y="-308.4" font-family="Times Roman,serif" font-size="14.00">ao</text>
</g>
<!-- PTManual:Calc -->
<g id="node11" class="node"><title>PTManual:Calc</title>
<polygon fill="none" stroke="black" stroke-dasharray="5,2" points="397,-309 279,-309 279,-273 397,-273 397,-309"/>
<text text-anchor="middle" x="338" y="-286.9" font-family="Times Roman,serif" font-size="14.00">PTManual:Calc</text>
</g>
<!-- Pressure:Manual&#45;&gt;PTManual:Calc -->
<g id="edge8" class="edge"><title>Pressure:Manual&#45;&gt;PTManual:Calc</title>
<path fill="none" stroke="black" stroke-dasharray="1,5" d="M155.808,-313.039C190.55,-308.837 233.172,-303.681 268.455,-299.413"/>
<polygon fill="black" stroke="black" points="269.167,-302.852 278.674,-298.177 268.326,-295.903 269.167,-302.852"/>
<text text-anchor="middle" x="221" y="-311.4" font-family="Times Roman,serif" font-size="14.00">FLNK &#160;</text>
</g>
<!-- Temperature:Automatic -->
<g id="node12" class="node"><title>Temperature:Automatic</title>
<polygon fill="none" stroke="black" points="179,-162 1,-162 1,-120 179,-120 179,-162"/>
<text text-anchor="middle" x="90" y="-145.4" font-family="Times Roman,serif" font-size="14.00">Temperature:Automatic</text>
<text text-anchor="middle" x="90" y="-128.4" font-family="Times Roman,serif" font-size="14.00">ao</text>
</g>
<!-- Temperature:Automatic&#45;&gt;PTAuto:Calc -->
<g id="edge10" class="edge"><title>Temperature:Automatic&#45;&gt;PTAuto:Calc</title>
<path fill="none" stroke="black" stroke-dasharray="1,5" d="M179.534,-151.831C212.175,-155.779 248.277,-160.146 277.768,-163.714"/>
<polygon fill="black" stroke="black" points="277.559,-167.214 287.907,-164.94 278.4,-160.265 277.559,-167.214"/>
<text text-anchor="middle" x="221" y="-164.4" font-family="Times Roman,serif" font-size="14.00">FLNK &#160;</text>
</g>
<!-- Temperature:Manual -->
<g id="node14" class="node"><title>Temperature:Manual</title>
<polygon fill="none" stroke="black" points="169,-282 11,-282 11,-240 169,-240 169,-282"/>
<text text-anchor="middle" x="90" y="-265.4" font-family="Times Roman,serif" font-size="14.00">Temperature:Manual</text>
<text text-anchor="middle" x="90" y="-248.4" font-family="Times Roman,serif" font-size="14.00">ao</text>
</g>
<!-- Temperature:Manual&#45;&gt;PTManual:Calc -->
<g id="edge12" class="edge"><title>Temperature:Manual&#45;&gt;PTManual:Calc</title>
<path fill="none" stroke="black" stroke-dasharray="1,5" d="M169.834,-270.657C201.638,-274.505 237.901,-278.891 268.591,-282.604"/>
<polygon fill="black" stroke="black" points="268.422,-286.109 278.77,-283.835 269.263,-279.159 268.422,-286.109"/>
<text text-anchor="middle" x="221" y="-284.4" font-family="Times Roman,serif" font-size="14.00">FLNK &#160;</text>
</g>
<!-- PTFactor:Automatic -->
<g id="node16" class="node"><title>PTFactor:Automatic</title>
<polygon fill="none" stroke="black" points="166,-462 14,-462 14,-420 166,-420 166,-462"/>
<text text-anchor="middle" x="90" y="-445.4" font-family="Times Roman,serif" font-size="14.00">PTFactor:Automatic</text>
<text text-anchor="middle" x="90" y="-428.4" font-family="Times Roman,serif" font-size="14.00">ao</text>
</g>
<!-- PTFactor:Differ -->
<g id="node18" class="node"><title>PTFactor:Differ</title>
<polygon fill="none" stroke="black" stroke-dasharray="5,2" points="398,-429 278,-429 278,-393 398,-393 398,-429"/>
<text text-anchor="middle" x="338" y="-406.9" font-family="Times Roman,serif" font-size="14.00">PTFactor:Differ</text>
</g>
<!-- PTFactor:Automatic&#45;&gt;PTFactor:Differ -->
<g id="edge14" class="edge"><title>PTFactor:Automatic&#45;&gt;PTFactor:Differ</title>
<path fill="none" stroke="black" stroke-dasharray="1,5" d="M166.094,-431.795C198.47,-427.879 235.996,-423.339 267.711,-419.503"/>
<polygon fill="black" stroke="black" points="268.283,-422.959 277.791,-418.283 267.443,-416.01 268.283,-422.959"/>
<text text-anchor="middle" x="221" y="-431.4" font-family="Times Roman,serif" font-size="14.00">FLNK &#160;</text>
</g>
<!-- PTFactor:Manual -->
<g id="node19" class="node"><title>PTFactor:Manual</title>
<polygon fill="none" stroke="black" points="155,-402 25,-402 25,-360 155,-360 155,-402"/>
<text text-anchor="middle" x="90" y="-385.4" font-family="Times Roman,serif" font-size="14.00">PTFactor:Manual</text>
<text text-anchor="middle" x="90" y="-368.4" font-family="Times Roman,serif" font-size="14.00">ao</text>
</g>
<!-- PTFactor:Manual&#45;&gt;PTFactor:Differ -->
<g id="edge16" class="edge"><title>PTFactor:Manual&#45;&gt;PTFactor:Differ</title>
<path fill="none" stroke="black" stroke-dasharray="1,5" d="M155.808,-388.961C190.288,-393.132 232.532,-398.242 267.658,-402.491"/>
<polygon fill="black" stroke="black" points="267.49,-405.996 277.838,-403.722 268.33,-399.047 267.49,-405.996"/>
<text text-anchor="middle" x="221" y="-403.4" font-family="Times Roman,serif" font-size="14.00">FLNK &#160;</text>
</g>
<!-- CalVolt1:Automatic -->
<g id="node21" class="node"><title>CalVolt1:Automatic</title>
<polygon fill="none" stroke="black" points="164,-582 16,-582 16,-540 164,-540 164,-582"/>
<text text-anchor="middle" x="90" y="-565.4" font-family="Times Roman,serif" font-size="14.00">CalVolt1:Automatic</text>
<text text-anchor="middle" x="90" y="-548.4" font-family="Times Roman,serif" font-size="14.00">ao</text>
</g>
<!-- CalVolt1Preset:Calc -->
<g id="node23" class="node"><title>CalVolt1Preset:Calc</title>
<polygon fill="none" stroke="black" stroke-dasharray="5,2" points="414,-549 262,-549 262,-513 414,-513 414,-549"/>
<text text-anchor="middle" x="338" y="-526.9" font-family="Times Roman,serif" font-size="14.00">CalVolt1Preset:Calc</text>
</g>
<!-- CalVolt1:Automatic&#45;&gt;CalVolt1Preset:Calc -->
<g id="edge18" class="edge"><title>CalVolt1:Automatic&#45;&gt;CalVolt1Preset:Calc</title>
<path fill="none" stroke="black" stroke-dasharray="1,5" d="M164.744,-551.958C192.054,-548.655 223.17,-544.891 251.425,-541.473"/>
<polygon fill="black" stroke="black" points="252.186,-544.906 261.693,-540.231 251.345,-537.957 252.186,-544.906"/>
<text text-anchor="middle" x="221" y="-551.4" font-family="Times Roman,serif" font-size="14.00">FLNK &#160;</text>
</g>
<!-- CalVolt1:Manual -->
<g id="node24" class="node"><title>CalVolt1:Manual</title>
<polygon fill="none" stroke="black" points="154,-522 26,-522 26,-480 154,-480 154,-522"/>
<text text-anchor="middle" x="90" y="-505.4" font-family="Times Roman,serif" font-size="14.00">CalVolt1:Manual</text>
<text text-anchor="middle" x="90" y="-488.4" font-family="Times Roman,serif" font-size="14.00">ao</text>
</g>
<!-- CalVolt1:Manual&#45;&gt;CalVolt1Preset:Calc -->
<g id="edge20" class="edge"><title>CalVolt1:Manual&#45;&gt;CalVolt1Preset:Calc</title>
<path fill="none" stroke="black" stroke-dasharray="1,5" d="M154.512,-508.804C184.168,-512.391 219.773,-516.698 251.696,-520.56"/>
<polygon fill="black" stroke="black" points="251.57,-524.07 261.918,-521.797 252.411,-517.121 251.57,-524.07"/>
<text text-anchor="middle" x="221" y="-523.4" font-family="Times Roman,serif" font-size="14.00">FLNK &#160;</text>
</g>
<!-- CalVolt1:Preset -->
<g id="node26" class="node"><title>CalVolt1:Preset</title>
<polygon fill="none" stroke="black" points="151,-822 29,-822 29,-780 151,-780 151,-822"/>
<text text-anchor="middle" x="90" y="-805.4" font-family="Times Roman,serif" font-size="14.00">CalVolt1:Preset</text>
<text text-anchor="middle" x="90" y="-788.4" font-family="Times Roman,serif" font-size="14.00">ao</text>
</g>
<!-- Nowhere -->
<g id="node28" class="node"><title>Nowhere</title>
<polygon fill="none" stroke="black" stroke-dasharray="5,2" points="378,-729 298,-729 298,-693 378,-693 378,-729"/>
<text text-anchor="middle" x="338" y="-706.9" font-family="Times Roman,serif" font-size="14.00">Nowhere</text>
</g>
<!-- CalVolt1:Preset&#45;&gt;Nowhere -->
<g id="edge22" class="edge"><title>CalVolt1:Preset&#45;&gt;Nowhere</title>
<path fill="none" stroke="black" stroke-dasharray="1,5" d="M151.549,-780.695C161.087,-777.488 170.818,-774.18 180,-771 208.561,-761.109 215.712,-758.648 244,-748 258.403,-742.579 273.977,-736.527 288.226,-730.913"/>
<polygon fill="black" stroke="black" points="289.835,-734.041 297.849,-727.11 287.262,-727.531 289.835,-734.041"/>
<text text-anchor="middle" x="221" y="-768.4" font-family="Times Roman,serif" font-size="14.00">FLNK &#160;</text>
</g>
<!-- CalVolt2:Automatic -->
<g id="node29" class="node"><title>CalVolt2:Automatic</title>
<polygon fill="none" stroke="black" points="164,-942 16,-942 16,-900 164,-900 164,-942"/>
<text text-anchor="middle" x="90" y="-925.4" font-family="Times Roman,serif" font-size="14.00">CalVolt2:Automatic</text>
<text text-anchor="middle" x="90" y="-908.4" font-family="Times Roman,serif" font-size="14.00">ao</text>
</g>
<!-- CalVolt2Preset:Calc -->
<g id="node31" class="node"><title>CalVolt2Preset:Calc</title>
<polygon fill="none" stroke="black" stroke-dasharray="5,2" points="414,-909 262,-909 262,-873 414,-873 414,-909"/>
<text text-anchor="middle" x="338" y="-886.9" font-family="Times Roman,serif" font-size="14.00">CalVolt2Preset:Calc</text>
</g>
<!-- CalVolt2:Automatic&#45;&gt;CalVolt2Preset:Calc -->
<g id="edge24" class="edge"><title>CalVolt2:Automatic&#45;&gt;CalVolt2Preset:Calc</title>
<path fill="none" stroke="black" stroke-dasharray="1,5" d="M164.744,-911.958C192.054,-908.655 223.17,-904.891 251.425,-901.473"/>
<polygon fill="black" stroke="black" points="252.186,-904.906 261.693,-900.231 251.345,-897.957 252.186,-904.906"/>
<text text-anchor="middle" x="221" y="-911.4" font-family="Times Roman,serif" font-size="14.00">FLNK &#160;</text>
</g>
<!-- CalVolt2:Manual -->
<g id="node32" class="node"><title>CalVolt2:Manual</title>
<polygon fill="none" stroke="black" points="154,-882 26,-882 26,-840 154,-840 154,-882"/>
<text text-anchor="middle" x="90" y="-865.4" font-family="Times Roman,serif" font-size="14.00">CalVolt2:Manual</text>
<text text-anchor="middle" x="90" y="-848.4" font-family="Times Roman,serif" font-size="14.00">ao</text>
</g>
<!-- CalVolt2:Manual&#45;&gt;CalVolt2Preset:Calc -->
<g id="edge26" class="edge"><title>CalVolt2:Manual&#45;&gt;CalVolt2Preset:Calc</title>
<path fill="none" stroke="black" stroke-dasharray="1,5" d="M154.512,-868.804C184.168,-872.391 219.773,-876.698 251.696,-880.56"/>
<polygon fill="black" stroke="black" points="251.57,-884.07 261.918,-881.797 252.411,-877.121 251.57,-884.07"/>
<text text-anchor="middle" x="221" y="-883.4" font-family="Times Roman,serif" font-size="14.00">FLNK &#160;</text>
</g>
<!-- CalVolt2:Preset -->
<g id="node34" class="node"><title>CalVolt2:Preset</title>
<polygon fill="none" stroke="black" points="151,-762 29,-762 29,-720 151,-720 151,-762"/>
<text text-anchor="middle" x="90" y="-745.4" font-family="Times Roman,serif" font-size="14.00">CalVolt2:Preset</text>
<text text-anchor="middle" x="90" y="-728.4" font-family="Times Roman,serif" font-size="14.00">ao</text>
</g>
<!-- CalVolt2:Preset&#45;&gt;Nowhere -->
<g id="edge28" class="edge"><title>CalVolt2:Preset&#45;&gt;Nowhere</title>
<path fill="none" stroke="black" stroke-dasharray="1,5" d="M151.622,-733.546C193.498,-728.48 248.208,-721.862 287.506,-717.108"/>
<polygon fill="black" stroke="black" points="288.144,-720.557 297.651,-715.881 287.303,-713.607 288.144,-720.557"/>
<text text-anchor="middle" x="221" y="-731.4" font-family="Times Roman,serif" font-size="14.00">FLNK &#160;</text>
</g>
<!-- DoseRate:Manual -->
<g id="node36" class="node"><title>DoseRate:Manual</title>
<polygon fill="none" stroke="black" points="159,-702 21,-702 21,-660 159,-660 159,-702"/>
<text text-anchor="middle" x="90" y="-685.4" font-family="Times Roman,serif" font-size="14.00">DoseRate:Manual</text>
<text text-anchor="middle" x="90" y="-668.4" font-family="Times Roman,serif" font-size="14.00">ao</text>
</g>
<!-- DoseRate:Manual&#45;&gt;Nowhere -->
<g id="edge30" class="edge"><title>DoseRate:Manual&#45;&gt;Nowhere</title>
<path fill="none" stroke="black" stroke-dasharray="1,5" d="M159.082,-689.357C199.956,-694.301 250.806,-700.452 287.838,-704.932"/>
<polygon fill="black" stroke="black" points="287.548,-708.422 297.896,-706.149 288.389,-701.473 287.548,-708.422"/>
<text text-anchor="middle" x="221" y="-703.4" font-family="Times Roman,serif" font-size="14.00">FLNK &#160;</text>
</g>
<!-- TimeFactor:Manual -->
<g id="node38" class="node"><title>TimeFactor:Manual</title>
<polygon fill="none" stroke="black" points="163,-642 17,-642 17,-600 163,-600 163,-642"/>
<text text-anchor="middle" x="90" y="-625.4" font-family="Times Roman,serif" font-size="14.00">TimeFactor:Manual</text>
<text text-anchor="middle" x="90" y="-608.4" font-family="Times Roman,serif" font-size="14.00">ao</text>
</g>
<!-- TimeFactor:Manual&#45;&gt;Nowhere -->
<g id="edge32" class="edge"><title>TimeFactor:Manual&#45;&gt;Nowhere</title>
<path fill="none" stroke="black" stroke-dasharray="1,5" d="M153.454,-642.069C162.372,-645.054 171.42,-648.095 180,-651 208.49,-660.645 215.825,-662.471 244,-673 258.469,-678.407 274.063,-684.572 288.311,-690.34"/>
<polygon fill="black" stroke="black" points="287.348,-693.727 297.93,-694.256 289.987,-687.244 287.348,-693.727"/>
<text text-anchor="middle" x="221" y="-677.4" font-family="Times Roman,serif" font-size="14.00">FLNK &#160;</text>
</g>
</g>
</svg>
