<?xml version="1.0" encoding="UTF-8" standalone="no"?>
<!DOCTYPE svg PUBLIC "-//W3C//DTD SVG 1.1//EN"
 "http://www.w3.org/Graphics/SVG/1.1/DTD/svg11.dtd">
<!-- Generated by graphviz version 2.26.3 (20100126.1600)
 -->
<!-- Title: session Pages: 1 -->
<svg width="1318pt" height="878pt"
 viewBox="0.00 0.00 1318.00 878.00" xmlns="http://www.w3.org/2000/svg" xmlns:xlink="http://www.w3.org/1999/xlink">
<g id="graph1" class="graph" transform="scale(1 1) rotate(0) translate(4 874)">
<title>session</title>
<polygon fill="white" stroke="white" points="-4,5 -4,-874 1315,-874 1315,5 -4,5"/>
<!-- NewMode:Seq -->
<g id="node1" class="node"><title>NewMode:Seq</title>
<polygon fill="none" stroke="black" points="893,-752 779,-752 779,-710 893,-710 893,-752"/>
<text text-anchor="middle" x="836" y="-735.4" font-family="Times Roman,serif" font-size="14.00">NewMode:Seq</text>
<text text-anchor="middle" x="836" y="-718.4" font-family="Times Roman,serif" font-size="14.00">seq</text>
</g>
<!-- UI:Patients:Calc -->
<g id="node3" class="node"><title>UI:Patients:Calc</title>
<polygon fill="none" stroke="black" stroke-dasharray="5,2" points="1271,-870 1147,-870 1147,-834 1271,-834 1271,-870"/>
<text text-anchor="middle" x="1209" y="-847.9" font-family="Times Roman,serif" font-size="14.00">UI:Patients:Calc</text>
</g>
<!-- NewMode:Seq&#45;&gt;UI:Patients:Calc -->
<g id="edge2" class="edge"><title>NewMode:Seq&#45;&gt;UI:Patients:Calc</title>
<path fill="none" stroke="black" d="M869.527,-752.156C895.51,-767.704 932.887,-788.26 968,-801 1022.8,-820.883 1087.56,-834.051 1136.15,-842.018"/>
<polygon fill="black" stroke="black" points="1135.83,-845.512 1146.26,-843.64 1136.94,-838.6 1135.83,-845.512"/>
<text text-anchor="middle" x="1029" y="-836.4" font-family="Times Roman,serif" font-size="14.00">LNK1 PP PROC, 0</text>
</g>
<!-- Mode:Log -->
<g id="node5" class="node"><title>Mode:Log</title>
<polygon fill="none" stroke="black" stroke-dasharray="5,2" points="1250,-816 1168,-816 1168,-780 1250,-780 1250,-816"/>
<text text-anchor="middle" x="1209" y="-793.9" font-family="Times Roman,serif" font-size="14.00">Mode:Log</text>
</g>
<!-- NewMode:Seq&#45;&gt;Mode:Log -->
<g id="edge4" class="edge"><title>NewMode:Seq&#45;&gt;Mode:Log</title>
<path fill="none" stroke="black" d="M893.675,-744.456C916.728,-749.629 943.559,-755.393 968,-760 1032.9,-772.234 1108.14,-783.661 1157.05,-790.726"/>
<polygon fill="black" stroke="black" points="1156.68,-794.209 1167.07,-792.166 1157.67,-787.28 1156.68,-794.209"/>
<text text-anchor="middle" x="1029" y="-784.4" font-family="Times Roman,serif" font-size="14.00">LNK3 PP PROC, 0</text>
</g>
<!-- Patient:Id -->
<g id="node7" class="node"><title>Patient:Id</title>
<polygon fill="none" stroke="black" stroke-dasharray="5,2" points="1250,-762 1168,-762 1168,-726 1250,-726 1250,-762"/>
<text text-anchor="middle" x="1209" y="-739.9" font-family="Times Roman,serif" font-size="14.00">Patient:Id</text>
</g>
<!-- NewMode:Seq&#45;&gt;Patient:Id -->
<g id="edge6" class="edge"><title>NewMode:Seq&#45;&gt;Patient:Id</title>
<path fill="none" stroke="black" d="M893.872,-733.017C965.984,-735.53 1088.12,-739.787 1157.25,-742.197"/>
<polygon fill="black" stroke="black" points="1157.35,-745.702 1167.47,-742.553 1157.6,-738.706 1157.35,-745.702"/>
<text text-anchor="middle" x="1029" y="-743.4" font-family="Times Roman,serif" font-size="14.00">LNK2 PP MS , 0</text>
</g>
<!-- 0 -->
<g id="node9" class="node"><title>0</title>
<polygon fill="none" stroke="black" stroke-dasharray="5,2" points="1236,-489 1182,-489 1182,-453 1236,-453 1236,-489"/>
<text text-anchor="middle" x="1209" y="-466.9" font-family="Times Roman,serif" font-size="14.00">0</text>
</g>
<!-- NewMode:Seq&#45;&gt;0 -->
<g id="edge8" class="edge"><title>NewMode:Seq&#45;&gt;0</title>
<path fill="none" stroke="black" d="M893.777,-722.903C966.536,-712.461 1082.98,-694.832 1090,-688 1119.55,-659.252 1090.61,-634.38 1108,-597 1126.25,-557.779 1159.19,-520.063 1182.49,-496.287"/>
<polygon fill="black" stroke="black" points="1185.1,-498.625 1189.68,-489.073 1180.14,-493.683 1185.1,-498.625"/>
<text text-anchor="middle" x="1029" y="-714.4" font-family="Times Roman,serif" font-size="14.00">DOL3 &#160;, 0</text>
</g>
<!-- NewMode:Seq&#45;&gt;0 -->
<g id="edge10" class="edge"><title>NewMode:Seq&#45;&gt;0</title>
<path fill="none" stroke="black" d="M852.603,-709.829C881.306,-673.808 939.828,-603.024 968,-588 1016.42,-562.177 1039.93,-591.462 1090,-569 1127.95,-551.973 1163.69,-519.496 1185.91,-496.607"/>
<polygon fill="black" stroke="black" points="1188.55,-498.906 1192.91,-489.248 1183.48,-494.081 1188.55,-498.906"/>
<text text-anchor="middle" x="1029" y="-592.4" font-family="Times Roman,serif" font-size="14.00">DOL2 &#160;, 0</text>
</g>
<!-- NewMode:Seq&#45;&gt;0 -->
<g id="edge12" class="edge"><title>NewMode:Seq&#45;&gt;0</title>
<path fill="none" stroke="black" d="M859.585,-709.658C885.034,-685.499 925.232,-643.893 950,-601 962.44,-579.457 948.956,-564.006 968,-548 1010.01,-512.692 1037.64,-545.427 1090,-529 1118.91,-519.93 1149.6,-504.82 1172.58,-492.296"/>
<polygon fill="black" stroke="black" points="1174.56,-495.199 1181.61,-487.289 1171.16,-489.077 1174.56,-495.199"/>
<text text-anchor="middle" x="1029" y="-552.4" font-family="Times Roman,serif" font-size="14.00">DOL1 &#160;, 0</text>
</g>
<!-- NewPatient:Seq -->
<g id="node12" class="node"><title>NewPatient:Seq</title>
<polygon fill="none" stroke="black" points="900,-592 772,-592 772,-550 900,-550 900,-592"/>
<text text-anchor="middle" x="836" y="-575.4" font-family="Times Roman,serif" font-size="14.00">NewPatient:Seq</text>
<text text-anchor="middle" x="836" y="-558.4" font-family="Times Roman,serif" font-size="14.00">seq</text>
</g>
<!-- NewPatient:Seq&#45;&gt;0 -->
<g id="edge18" class="edge"><title>NewPatient:Seq&#45;&gt;0</title>
<path fill="none" stroke="black" d="M876.009,-549.937C901.671,-537.234 936.051,-521.688 968,-512 987.189,-506.181 1109.38,-486.611 1172.04,-476.762"/>
<polygon fill="black" stroke="black" points="1172.59,-480.22 1181.92,-475.212 1171.5,-473.304 1172.59,-480.22"/>
<text text-anchor="middle" x="1029" y="-516.4" font-family="Times Roman,serif" font-size="14.00">DOL2 &#160;, 0</text>
</g>
<!-- NewPatient:Seq&#45;&gt;0 -->
<g id="edge20" class="edge"><title>NewPatient:Seq&#45;&gt;0</title>
<path fill="none" stroke="black" d="M854.906,-549.585C878.485,-524.666 921.405,-484.905 968,-469 1036.8,-445.515 1123.23,-454.83 1171.66,-463.241"/>
<polygon fill="black" stroke="black" points="1171.22,-466.718 1181.69,-465.064 1172.47,-459.831 1171.22,-466.718"/>
<text text-anchor="middle" x="1029" y="-473.4" font-family="Times Roman,serif" font-size="14.00">DOL1 &#160;, 0</text>
</g>
<!-- UI:NewPatient:Calc -->
<g id="node14" class="node"><title>UI:NewPatient:Calc</title>
<polygon fill="none" stroke="black" stroke-dasharray="5,2" points="1284,-696 1134,-696 1134,-660 1284,-660 1284,-696"/>
<text text-anchor="middle" x="1209" y="-673.9" font-family="Times Roman,serif" font-size="14.00">UI:NewPatient:Calc</text>
</g>
<!-- NewPatient:Seq&#45;&gt;UI:NewPatient:Calc -->
<g id="edge14" class="edge"><title>NewPatient:Seq&#45;&gt;UI:NewPatient:Calc</title>
<path fill="none" stroke="black" d="M867.671,-592.092C893.565,-608.315 931.701,-629.935 968,-642 1018.21,-658.689 1076.88,-667.663 1123.77,-672.478"/>
<polygon fill="black" stroke="black" points="1123.59,-675.978 1133.89,-673.472 1124.28,-669.011 1123.59,-675.978"/>
<text text-anchor="middle" x="1029" y="-671.4" font-family="Times Roman,serif" font-size="14.00">LNK1 PP PROC, 0</text>
</g>
<!-- Field:Plan -->
<g id="node16" class="node"><title>Field:Plan</title>
<polygon fill="none" stroke="black" stroke-dasharray="5,2" points="1250,-642 1168,-642 1168,-606 1250,-606 1250,-642"/>
<text text-anchor="middle" x="1209" y="-619.9" font-family="Times Roman,serif" font-size="14.00">Field:Plan</text>
</g>
<!-- NewPatient:Seq&#45;&gt;Field:Plan -->
<g id="edge16" class="edge"><title>NewPatient:Seq&#45;&gt;Field:Plan</title>
<path fill="none" stroke="black" d="M898.462,-592.007C920.23,-598.516 944.971,-605.018 968,-609 1032.6,-620.17 1108.2,-623.291 1157.26,-624.028"/>
<polygon fill="black" stroke="black" points="1157.27,-627.528 1167.31,-624.151 1157.36,-620.529 1157.27,-627.528"/>
<text text-anchor="middle" x="1029" y="-625.4" font-family="Times Roman,serif" font-size="14.00">LNK2 PP MS , 0</text>
</g>
<!-- NewField:Calc -->
<g id="node19" class="node"><title>NewField:Calc</title>
<polygon fill="none" stroke="black" points="343,-191 231,-191 231,-115 343,-115 343,-191"/>
<text text-anchor="middle" x="287" y="-174.4" font-family="Times Roman,serif" font-size="14.00">NewField:Calc</text>
<text text-anchor="middle" x="287" y="-157.4" font-family="Times Roman,serif" font-size="14.00">calcout</text>
<text text-anchor="middle" x="287" y="-140.4" font-family="Times Roman,serif" font-size="14.00">A</text>
<text text-anchor="middle" x="287" y="-123.4" font-family="Times Roman,serif" font-size="14.00">On Change</text>
</g>
<!-- NewField:Fanout -->
<g id="node23" class="node"><title>NewField:Fanout</title>
<polygon fill="none" stroke="black" points="639,-174 509,-174 509,-132 639,-132 639,-174"/>
<text text-anchor="middle" x="574" y="-157.4" font-family="Times Roman,serif" font-size="14.00">NewField:Fanout</text>
<text text-anchor="middle" x="574" y="-140.4" font-family="Times Roman,serif" font-size="14.00">fanout</text>
</g>
<!-- NewField:Calc&#45;&gt;NewField:Fanout -->
<g id="edge24" class="edge"><title>NewField:Calc&#45;&gt;NewField:Fanout</title>
<path fill="none" stroke="black" d="M343.702,-153C387.931,-153 449.78,-153 498.248,-153"/>
<polygon fill="black" stroke="black" points="498.376,-156.5 508.376,-153 498.376,-149.5 498.376,-156.5"/>
<text text-anchor="middle" x="441" y="-157.4" font-family="Times Roman,serif" font-size="14.00">OUT PP PROC</text>
</g>
<!-- Field:Number -->
<g id="node20" class="node"><title>Field:Number</title>
<polygon fill="none" stroke="black" stroke-dasharray="5,2" points="112,-174 6,-174 6,-138 112,-138 112,-174"/>
<text text-anchor="middle" x="59" y="-151.9" font-family="Times Roman,serif" font-size="14.00">Field:Number</text>
</g>
<!-- Field:Number&#45;&gt;NewField:Calc -->
<g id="edge22" class="edge"><title>Field:Number&#45;&gt;NewField:Calc</title>
<path fill="none" stroke="black" stroke-dasharray="5,2" d="M112.744,-155.293C144.839,-154.871 185.875,-154.331 220.063,-153.881"/>
<polygon fill="black" stroke="black" points="220.482,-157.376 230.435,-153.744 220.39,-150.376 220.482,-157.376"/>
<text text-anchor="middle" x="159" y="-159.4" font-family="Times Roman,serif" font-size="14.00">INPA &#160;</text>
</g>
<!-- UI:NewField:Calc -->
<g id="node25" class="node"><title>UI:NewField:Calc</title>
<polygon fill="none" stroke="black" stroke-dasharray="5,2" points="902,-252 770,-252 770,-216 902,-216 902,-252"/>
<text text-anchor="middle" x="836" y="-229.9" font-family="Times Roman,serif" font-size="14.00">UI:NewField:Calc</text>
</g>
<!-- NewField:Fanout&#45;&gt;UI:NewField:Calc -->
<g id="edge26" class="edge"><title>NewField:Fanout&#45;&gt;UI:NewField:Calc</title>
<path fill="none" stroke="black" stroke-dasharray="1,5" d="M624.381,-174.17C635.396,-178.58 647.039,-183.076 658,-187 690.72,-198.712 727.756,-208.954 759.54,-216.862"/>
<polygon fill="black" stroke="black" points="759.117,-220.362 769.663,-219.346 760.785,-213.563 759.117,-220.362"/>
<text text-anchor="middle" x="681" y="-205.4" font-family="Times Roman,serif" font-size="14.00">LNK1 &#160;</text>
</g>
<!-- Dosimetry:RunDose:Computed -->
<g id="node27" class="node"><title>Dosimetry:RunDose:Computed</title>
<polygon fill="none" stroke="black" stroke-dasharray="5,2" points="950,-198 722,-198 722,-162 950,-162 950,-198"/>
<text text-anchor="middle" x="836" y="-175.9" font-family="Times Roman,serif" font-size="14.00">Dosimetry:RunDose:Computed</text>
</g>
<!-- NewField:Fanout&#45;&gt;Dosimetry:RunDose:Computed -->
<g id="edge28" class="edge"><title>NewField:Fanout&#45;&gt;Dosimetry:RunDose:Computed</title>
<path fill="none" stroke="black" stroke-dasharray="1,5" d="M639.775,-159.778C661.691,-162.037 686.876,-164.632 711.737,-167.194"/>
<polygon fill="black" stroke="black" points="711.679,-170.707 721.985,-168.25 712.397,-163.744 711.679,-170.707"/>
<text text-anchor="middle" x="681" y="-170.4" font-family="Times Roman,serif" font-size="14.00">LNK6 &#160;</text>
</g>
<!-- DMC:Reset -->
<g id="node29" class="node"><title>DMC:Reset</title>
<polygon fill="none" stroke="black" stroke-dasharray="5,2" points="882,-144 790,-144 790,-108 882,-108 882,-144"/>
<text text-anchor="middle" x="836" y="-121.9" font-family="Times Roman,serif" font-size="14.00">DMC:Reset</text>
</g>
<!-- NewField:Fanout&#45;&gt;DMC:Reset -->
<g id="edge30" class="edge"><title>NewField:Fanout&#45;&gt;DMC:Reset</title>
<path fill="none" stroke="black" stroke-dasharray="1,5" d="M639.527,-143.266C645.765,-142.452 651.999,-141.681 658,-141 698.667,-136.386 744.71,-132.542 779.778,-129.902"/>
<polygon fill="black" stroke="black" points="780.114,-133.386 789.827,-129.155 779.595,-126.406 780.114,-133.386"/>
<text text-anchor="middle" x="681" y="-145.4" font-family="Times Roman,serif" font-size="14.00">LNK5 &#160;</text>
</g>
<!-- NewField:Seq -->
<g id="node31" class="node"><title>NewField:Seq</title>
<polygon fill="none" stroke="black" points="891,-312 781,-312 781,-270 891,-270 891,-312"/>
<text text-anchor="middle" x="836" y="-295.4" font-family="Times Roman,serif" font-size="14.00">NewField:Seq</text>
<text text-anchor="middle" x="836" y="-278.4" font-family="Times Roman,serif" font-size="14.00">seq</text>
</g>
<!-- NewField:Fanout&#45;&gt;NewField:Seq -->
<g id="edge32" class="edge"><title>NewField:Fanout&#45;&gt;NewField:Seq</title>
<path fill="none" stroke="black" stroke-dasharray="1,5" d="M596.039,-174.208C623.305,-199.149 672.243,-239.828 722,-261 737.439,-267.569 754.681,-273.008 770.988,-277.366"/>
<polygon fill="black" stroke="black" points="770.44,-280.839 780.996,-279.941 772.184,-274.06 770.44,-280.839"/>
<text text-anchor="middle" x="681" y="-254.4" font-family="Times Roman,serif" font-size="14.00">LNK4 &#160;</text>
</g>
<!-- LCC:SelectField -->
<g id="node33" class="node"><title>LCC:SelectField</title>
<polygon fill="none" stroke="black" stroke-dasharray="5,2" points="897,-90 775,-90 775,-54 897,-54 897,-90"/>
<text text-anchor="middle" x="836" y="-67.9" font-family="Times Roman,serif" font-size="14.00">LCC:SelectField</text>
</g>
<!-- NewField:Fanout&#45;&gt;LCC:SelectField -->
<g id="edge34" class="edge"><title>NewField:Fanout&#45;&gt;LCC:SelectField</title>
<path fill="none" stroke="black" stroke-dasharray="1,5" d="M618.385,-131.913C631.025,-126.33 644.917,-120.588 658,-116 692.437,-103.924 731.728,-93.8399 764.618,-86.3854"/>
<polygon fill="black" stroke="black" points="765.609,-89.7504 774.607,-84.1571 764.085,-82.9183 765.609,-89.7504"/>
<text text-anchor="middle" x="681" y="-120.4" font-family="Times Roman,serif" font-size="14.00">LNK3 &#160;</text>
</g>
<!-- TMC:Reset -->
<g id="node35" class="node"><title>TMC:Reset</title>
<polygon fill="none" stroke="black" stroke-dasharray="5,2" points="881,-36 791,-36 791,-1.06581e-14 881,-0 881,-36"/>
<text text-anchor="middle" x="836" y="-13.9" font-family="Times Roman,serif" font-size="14.00">TMC:Reset</text>
</g>
<!-- NewField:Fanout&#45;&gt;TMC:Reset -->
<g id="edge36" class="edge"><title>NewField:Fanout&#45;&gt;TMC:Reset</title>
<path fill="none" stroke="black" stroke-dasharray="1,5" d="M595.397,-131.833C622.4,-106.531 671.455,-65.0927 722,-45 740.665,-37.5804 761.893,-31.8673 780.93,-27.6483"/>
<polygon fill="black" stroke="black" points="781.901,-31.0202 790.954,-25.517 780.445,-24.1732 781.901,-31.0202"/>
<text text-anchor="middle" x="681" y="-83.4" font-family="Times Roman,serif" font-size="14.00">LNK2 &#160;</text>
</g>
<!-- NewField:Seq&#45;&gt;0 -->
<g id="edge46" class="edge"><title>NewField:Seq&#45;&gt;0</title>
<path fill="none" stroke="black" d="M891.249,-308.159C914.773,-315.138 942.595,-322.963 968,-329 1021.68,-341.757 1041.21,-326.233 1090,-352 1132.38,-374.38 1169.31,-416.936 1190.37,-444.625"/>
<polygon fill="black" stroke="black" points="1187.6,-446.773 1196.38,-452.702 1193.22,-442.591 1187.6,-446.773"/>
<text text-anchor="middle" x="1029" y="-356.4" font-family="Times Roman,serif" font-size="14.00">DOL3 &#160;, 0</text>
</g>
<!-- NewField:Seq&#45;&gt;0 -->
<g id="edge48" class="edge"><title>NewField:Seq&#45;&gt;0</title>
<path fill="none" stroke="black" d="M891.029,-289.339C955.288,-288.316 1057,-289.821 1090,-308 1144.79,-338.184 1181.04,-405.552 1197.96,-443.554"/>
<polygon fill="black" stroke="black" points="1194.86,-445.196 1202.03,-452.991 1201.28,-442.423 1194.86,-445.196"/>
<text text-anchor="middle" x="1029" y="-312.4" font-family="Times Roman,serif" font-size="14.00">DOL1 &#160;, 0</text>
</g>
<!-- NewField:Seq&#45;&gt;0 -->
<g id="edge50" class="edge"><title>NewField:Seq&#45;&gt;0</title>
<path fill="none" stroke="black" d="M853.216,-312.229C876.345,-339.219 920.119,-385.167 968,-409 1017.47,-433.625 1036.48,-419.239 1090,-433 1117.94,-440.183 1148.96,-450.159 1172.33,-458.087"/>
<polygon fill="black" stroke="black" points="1171.25,-461.417 1181.85,-461.345 1173.52,-454.794 1171.25,-461.417"/>
<text text-anchor="middle" x="1029" y="-437.4" font-family="Times Roman,serif" font-size="14.00">DOL5 &#160;, 0</text>
</g>
<!-- NewField:Seq&#45;&gt;0 -->
<g id="edge52" class="edge"><title>NewField:Seq&#45;&gt;0</title>
<path fill="none" stroke="black" d="M864.291,-312.047C890,-330.083 929.661,-355.261 968,-369 1019.66,-387.512 1039.07,-367.556 1090,-388 1124.35,-401.79 1158.48,-427.098 1181.32,-446.157"/>
<polygon fill="black" stroke="black" points="1179.32,-449.049 1189.2,-452.863 1183.85,-443.717 1179.32,-449.049"/>
<text text-anchor="middle" x="1029" y="-392.4" font-family="Times Roman,serif" font-size="14.00">DOL4 &#160;, 0</text>
</g>
<!-- Collimator:LCCBusy:Status -->
<g id="node37" class="node"><title>Collimator:LCCBusy:Status</title>
<polygon fill="none" stroke="black" stroke-dasharray="5,2" points="1310,-195 1108,-195 1108,-159 1310,-159 1310,-195"/>
<text text-anchor="middle" x="1209" y="-172.9" font-family="Times Roman,serif" font-size="14.00">Collimator:LCCBusy:Status</text>
</g>
<!-- NewField:Seq&#45;&gt;Collimator:LCCBusy:Status -->
<g id="edge38" class="edge"><title>NewField:Seq&#45;&gt;Collimator:LCCBusy:Status</title>
<path fill="none" stroke="black" d="M891.041,-287.596C911.793,-283.703 934.18,-275.993 950,-261 968.975,-243.017 947.8,-221.595 968,-205 1003.71,-175.667 1053.07,-166.333 1097.82,-165.243"/>
<polygon fill="black" stroke="black" points="1097.93,-168.742 1107.89,-165.132 1097.85,-161.742 1097.93,-168.742"/>
<text text-anchor="middle" x="1029" y="-209.4" font-family="Times Roman,serif" font-size="14.00">LNK1 &#160;, 0</text>
</g>
<!-- Dosimetry:Time:Actual -->
<g id="node39" class="node"><title>Dosimetry:Time:Actual</title>
<polygon fill="none" stroke="black" stroke-dasharray="5,2" points="1295,-141 1123,-141 1123,-105 1295,-105 1295,-141"/>
<text text-anchor="middle" x="1209" y="-118.9" font-family="Times Roman,serif" font-size="14.00">Dosimetry:Time:Actual</text>
</g>
<!-- NewField:Seq&#45;&gt;Dosimetry:Time:Actual -->
<g id="edge40" class="edge"><title>NewField:Seq&#45;&gt;Dosimetry:Time:Actual</title>
<path fill="none" stroke="black" d="M891.116,-289.023C912.388,-285.393 935.131,-277.492 950,-261 984.936,-222.252 929.966,-180.713 968,-145 1005.75,-109.551 1063.02,-103.138 1112.26,-106.018"/>
<polygon fill="black" stroke="black" points="1112.09,-109.515 1122.31,-106.739 1112.59,-102.533 1112.09,-109.515"/>
<text text-anchor="middle" x="1029" y="-149.4" font-family="Times Roman,serif" font-size="14.00">LNK5 &#160;, 0</text>
</g>
<!-- Dosimetry:DoseB:Actual -->
<g id="node41" class="node"><title>Dosimetry:DoseB:Actual</title>
<polygon fill="none" stroke="black" stroke-dasharray="5,2" points="1301,-303 1117,-303 1117,-267 1301,-267 1301,-303"/>
<text text-anchor="middle" x="1209" y="-280.9" font-family="Times Roman,serif" font-size="14.00">Dosimetry:DoseB:Actual</text>
</g>
<!-- NewField:Seq&#45;&gt;Dosimetry:DoseB:Actual -->
<g id="edge42" class="edge"><title>NewField:Seq&#45;&gt;Dosimetry:DoseB:Actual</title>
<path fill="none" stroke="black" d="M891.043,-281.284C914.653,-277.583 942.597,-273.819 968,-272 1022.08,-268.128 1035.86,-269.051 1090,-272 1095.45,-272.297 1101.03,-272.669 1106.66,-273.099"/>
<polygon fill="black" stroke="black" points="1106.58,-276.604 1116.83,-273.93 1107.15,-269.627 1106.58,-276.604"/>
<text text-anchor="middle" x="1029" y="-276.4" font-family="Times Roman,serif" font-size="14.00">LNK4 &#160;, 0</text>
</g>
<!-- Dosimetry:DoseA:Actual -->
<g id="node43" class="node"><title>Dosimetry:DoseA:Actual</title>
<polygon fill="none" stroke="black" stroke-dasharray="5,2" points="1301,-249 1117,-249 1117,-213 1301,-213 1301,-249"/>
<text text-anchor="middle" x="1209" y="-226.9" font-family="Times Roman,serif" font-size="14.00">Dosimetry:DoseA:Actual</text>
</g>
<!-- NewField:Seq&#45;&gt;Dosimetry:DoseA:Actual -->
<g id="edge44" class="edge"><title>NewField:Seq&#45;&gt;Dosimetry:DoseA:Actual</title>
<path fill="none" stroke="black" d="M891.08,-280.826C910.268,-276.168 931.589,-269.699 950,-261 958.922,-256.784 958.723,-251.365 968,-248 1011.81,-232.111 1062.98,-226.811 1106.87,-225.902"/>
<polygon fill="black" stroke="black" points="1107.04,-229.4 1116.99,-225.767 1106.95,-222.401 1107.04,-229.4"/>
<text text-anchor="middle" x="1029" y="-252.4" font-family="Times Roman,serif" font-size="14.00">LNK3 &#160;, 0</text>
</g>
<!-- Field:Fanout -->
<g id="node48" class="node"><title>Field:Fanout</title>
<polygon fill="none" stroke="black" points="109,-109 9,-109 9,-67 109,-67 109,-109"/>
<text text-anchor="middle" x="59" y="-92.4" font-family="Times Roman,serif" font-size="14.00">Field:Fanout</text>
<text text-anchor="middle" x="59" y="-75.4" font-family="Times Roman,serif" font-size="14.00">fanout</text>
</g>
<!-- Field:Fanout&#45;&gt;NewField:Calc -->
<g id="edge56" class="edge"><title>Field:Fanout&#45;&gt;NewField:Calc</title>
<path fill="none" stroke="black" stroke-dasharray="1,5" d="M109.036,-102.265C141.746,-111.59 184.846,-123.877 220.437,-134.024"/>
<polygon fill="black" stroke="black" points="219.685,-137.449 230.262,-136.825 221.604,-130.717 219.685,-137.449"/>
<text text-anchor="middle" x="159" y="-127.4" font-family="Times Roman,serif" font-size="14.00">LNK2 &#160;</text>
</g>
<!-- NoField:Calc -->
<g id="node50" class="node"><title>NoField:Calc</title>
<polygon fill="none" stroke="black" stroke-dasharray="5,2" points="337,-94 237,-94 237,-58 337,-58 337,-94"/>
<text text-anchor="middle" x="287" y="-71.9" font-family="Times Roman,serif" font-size="14.00">NoField:Calc</text>
</g>
<!-- Field:Fanout&#45;&gt;NoField:Calc -->
<g id="edge54" class="edge"><title>Field:Fanout&#45;&gt;NoField:Calc</title>
<path fill="none" stroke="black" stroke-dasharray="1,5" d="M109.011,-79.8548C117.974,-78.6809 127.247,-77.6512 136,-77 165.789,-74.7838 198.974,-74.3423 226.631,-74.5348"/>
<polygon fill="black" stroke="black" points="226.908,-78.0376 236.942,-74.6372 226.977,-71.0379 226.908,-78.0376"/>
<text text-anchor="middle" x="159" y="-81.4" font-family="Times Roman,serif" font-size="14.00">LNK1 &#160;</text>
</g>
<!-- Patient:Fanout -->
<g id="node52" class="node"><title>Patient:Fanout</title>
<polygon fill="none" stroke="black" points="118,-302 2.13163e-14,-302 0,-260 118,-260 118,-302"/>
<text text-anchor="middle" x="59" y="-285.4" font-family="Times Roman,serif" font-size="14.00">Patient:Fanout</text>
<text text-anchor="middle" x="59" y="-268.4" font-family="Times Roman,serif" font-size="14.00">fanout</text>
</g>
<!-- NewPatient:Calc -->
<g id="node54" class="node"><title>NewPatient:Calc</title>
<polygon fill="none" stroke="black" stroke-dasharray="5,2" points="352,-353 222,-353 222,-317 352,-317 352,-353"/>
<text text-anchor="middle" x="287" y="-330.9" font-family="Times Roman,serif" font-size="14.00">NewPatient:Calc</text>
</g>
<!-- Patient:Fanout&#45;&gt;NewPatient:Calc -->
<g id="edge58" class="edge"><title>Patient:Fanout&#45;&gt;NewPatient:Calc</title>
<path fill="none" stroke="black" stroke-dasharray="1,5" d="M118.195,-297.472C124.199,-299.044 130.214,-300.58 136,-302 160.508,-308.016 187.387,-314.065 211.588,-319.311"/>
<polygon fill="black" stroke="black" points="210.912,-322.746 221.425,-321.432 212.387,-315.903 210.912,-322.746"/>
<text text-anchor="middle" x="159" y="-316.4" font-family="Times Roman,serif" font-size="14.00">LNK1 &#160;</text>
</g>
<!-- NoPatientName:Calc -->
<g id="node56" class="node"><title>NoPatientName:Calc</title>
<polygon fill="none" stroke="black" stroke-dasharray="5,2" points="366,-299 208,-299 208,-263 366,-263 366,-299"/>
<text text-anchor="middle" x="287" y="-276.9" font-family="Times Roman,serif" font-size="14.00">NoPatientName:Calc</text>
</g>
<!-- Patient:Fanout&#45;&gt;NoPatientName:Calc -->
<g id="edge60" class="edge"><title>Patient:Fanout&#45;&gt;NoPatientName:Calc</title>
<path fill="none" stroke="black" stroke-dasharray="1,5" d="M118.012,-281C142.231,-281 170.803,-281 197.495,-281"/>
<polygon fill="black" stroke="black" points="197.62,-284.5 207.62,-281 197.62,-277.5 197.62,-284.5"/>
<text text-anchor="middle" x="159" y="-285.4" font-family="Times Roman,serif" font-size="14.00">LNK3 &#160;</text>
</g>
<!-- NoPatientNumber:Calc -->
<g id="node58" class="node"><title>NoPatientNumber:Calc</title>
<polygon fill="none" stroke="black" stroke-dasharray="5,2" points="373,-245 201,-245 201,-209 373,-209 373,-245"/>
<text text-anchor="middle" x="287" y="-222.9" font-family="Times Roman,serif" font-size="14.00">NoPatientNumber:Calc</text>
</g>
<!-- Patient:Fanout&#45;&gt;NoPatientNumber:Calc -->
<g id="edge62" class="edge"><title>Patient:Fanout&#45;&gt;NoPatientNumber:Calc</title>
<path fill="none" stroke="black" stroke-dasharray="1,5" d="M118.195,-264.528C124.199,-262.956 130.214,-261.42 136,-260 153.783,-255.635 172.814,-251.252 191.164,-247.172"/>
<polygon fill="black" stroke="black" points="191.972,-250.578 200.981,-245.003 190.461,-243.743 191.972,-250.578"/>
<text text-anchor="middle" x="159" y="-264.4" font-family="Times Roman,serif" font-size="14.00">LNK2 &#160;</text>
</g>
</g>
</svg>
