<?xml version="1.0" encoding="UTF-8" standalone="no"?>
<!DOCTYPE svg PUBLIC "-//W3C//DTD SVG 1.1//EN"
 "http://www.w3.org/Graphics/SVG/1.1/DTD/svg11.dtd">
<!-- Generated by graphviz version 2.26.3 (20100126.1600)
 -->
<!-- Title: session_subs Pages: 1 -->
<svg width="1408pt" height="693pt"
 viewBox="0.00 0.00 1408.00 693.00" xmlns="http://www.w3.org/2000/svg" xmlns:xlink="http://www.w3.org/1999/xlink">
<g id="graph1" class="graph" transform="scale(1 1) rotate(0) translate(4 689)">
<title>session_subs</title>
<polygon fill="white" stroke="white" points="-4,5 -4,-689 1405,-689 1405,5 -4,5"/>
<!-- Patient:Id -->
<g id="node1" class="node"><title>Patient:Id</title>
<polygon fill="none" stroke="black" points="103,-201 21,-201 21,-159 103,-159 103,-201"/>
<text text-anchor="middle" x="62" y="-184.4" font-family="Times Roman,serif" font-size="14.00">Patient:Id</text>
<text text-anchor="middle" x="62" y="-167.4" font-family="Times Roman,serif" font-size="14.00">longin</text>
</g>
<!-- Patient:Fanout -->
<g id="node3" class="node"><title>Patient:Fanout</title>
<polygon fill="none" stroke="black" stroke-dasharray="5,2" points="370,-318 252,-318 252,-282 370,-282 370,-318"/>
<text text-anchor="middle" x="311" y="-295.9" font-family="Times Roman,serif" font-size="14.00">Patient:Fanout</text>
</g>
<!-- Patient:Id&#45;&gt;Patient:Fanout -->
<g id="edge2" class="edge"><title>Patient:Id&#45;&gt;Patient:Fanout</title>
<path fill="none" stroke="black" stroke-dasharray="1,5" d="M93.7466,-201.165C125.609,-221.689 176.63,-252.632 224,-273 229.816,-275.501 235.94,-277.88 242.135,-280.114"/>
<polygon fill="black" stroke="black" points="241.297,-283.528 251.891,-283.501 243.593,-276.915 241.297,-283.528"/>
<text text-anchor="middle" x="174" y="-269.4" font-family="Times Roman,serif" font-size="14.00">FLNK &#160;</text>
</g>
<!-- NewPatient:Calc -->
<g id="node31" class="node"><title>NewPatient:Calc</title>
<polygon fill="none" stroke="black" points="376,-264 246,-264 246,-188 376,-188 376,-264"/>
<text text-anchor="middle" x="311" y="-247.4" font-family="Times Roman,serif" font-size="14.00">NewPatient:Calc</text>
<text text-anchor="middle" x="311" y="-230.4" font-family="Times Roman,serif" font-size="14.00">calcout</text>
<text text-anchor="middle" x="311" y="-213.4" font-family="Times Roman,serif" font-size="14.00">A</text>
<text text-anchor="middle" x="311" y="-196.4" font-family="Times Roman,serif" font-size="14.00">On Change</text>
</g>
<!-- Patient:Id&#45;&gt;NewPatient:Calc -->
<g id="edge22" class="edge"><title>Patient:Id&#45;&gt;NewPatient:Calc</title>
<path fill="none" stroke="black" stroke-dasharray="5,2" d="M103.677,-187.699C139.512,-194.319 192.101,-204.035 235.346,-212.024"/>
<polygon fill="black" stroke="black" points="234.8,-215.482 245.269,-213.857 236.071,-208.598 234.8,-215.482"/>
<text text-anchor="middle" x="174" y="-210.4" font-family="Times Roman,serif" font-size="14.00">INPA MS </text>
</g>
<!-- NoPatientNumber:Calc -->
<g id="node35" class="node"><title>NoPatientNumber:Calc</title>
<polygon fill="none" stroke="black" points="397,-170 225,-170 225,-94 397,-94 397,-170"/>
<text text-anchor="middle" x="311" y="-153.4" font-family="Times Roman,serif" font-size="14.00">NoPatientNumber:Calc</text>
<text text-anchor="middle" x="311" y="-136.4" font-family="Times Roman,serif" font-size="14.00">calcout</text>
<text text-anchor="middle" x="311" y="-119.4" font-family="Times Roman,serif" font-size="14.00">A</text>
<text text-anchor="middle" x="311" y="-102.4" font-family="Times Roman,serif" font-size="14.00">Transition To Zero</text>
</g>
<!-- Patient:Id&#45;&gt;NoPatientNumber:Calc -->
<g id="edge26" class="edge"><title>Patient:Id&#45;&gt;NoPatientNumber:Calc</title>
<path fill="none" stroke="black" stroke-dasharray="5,2" d="M103.677,-171.966C133.861,-166.147 175.93,-158.037 214.291,-150.643"/>
<polygon fill="black" stroke="black" points="215.318,-154.009 224.475,-148.68 213.993,-147.136 215.318,-154.009"/>
<text text-anchor="middle" x="174" y="-169.4" font-family="Times Roman,serif" font-size="14.00">INPA MS </text>
</g>
<!-- NoPatientName:Calc -->
<g id="node47" class="node"><title>NoPatientName:Calc</title>
<polygon fill="none" stroke="black" points="390,-76 232,-76 232,-2.13163e-14 390,-0 390,-76"/>
<text text-anchor="middle" x="311" y="-59.4" font-family="Times Roman,serif" font-size="14.00">NoPatientName:Calc</text>
<text text-anchor="middle" x="311" y="-42.4" font-family="Times Roman,serif" font-size="14.00">scalcout</text>
<text text-anchor="middle" x="311" y="-25.4" font-family="Times Roman,serif" font-size="14.00">A</text>
<text text-anchor="middle" x="311" y="-8.4" font-family="Times Roman,serif" font-size="14.00">Transition To Zero</text>
</g>
<!-- Patient:Id&#45;&gt;NoPatientName:Calc -->
<g id="edge42" class="edge"><title>Patient:Id&#45;&gt;NoPatientName:Calc</title>
<path fill="none" stroke="black" stroke-dasharray="5,2" d="M97.8343,-158.931C111.636,-150.82 127.549,-141.475 142,-133 178.427,-111.638 187.195,-105.706 224,-85 226.373,-83.6651 228.786,-82.3151 231.224,-80.9572"/>
<polygon fill="black" stroke="black" points="233.09,-83.9249 240.142,-76.0179 229.698,-77.8014 233.09,-83.9249"/>
<text text-anchor="middle" x="174" y="-137.4" font-family="Times Roman,serif" font-size="14.00">INPA MS </text>
</g>
<!-- Patient:Number -->
<g id="node4" class="node"><title>Patient:Number</title>
<polygon fill="none" stroke="black" points="644,-153 520,-153 520,-111 644,-111 644,-153"/>
<text text-anchor="middle" x="582" y="-136.4" font-family="Times Roman,serif" font-size="14.00">Patient:Number</text>
<text text-anchor="middle" x="582" y="-119.4" font-family="Times Roman,serif" font-size="14.00">longin</text>
</g>
<!-- Patient:Log -->
<g id="node6" class="node"><title>Patient:Log</title>
<polygon fill="none" stroke="black" stroke-dasharray="5,2" points="879,-150 785,-150 785,-114 879,-114 879,-150"/>
<text text-anchor="middle" x="832" y="-127.9" font-family="Times Roman,serif" font-size="14.00">Patient:Log</text>
</g>
<!-- Patient:Number&#45;&gt;Patient:Log -->
<g id="edge4" class="edge"><title>Patient:Number&#45;&gt;Patient:Log</title>
<path fill="none" stroke="black" stroke-dasharray="1,5" d="M644.763,-132C684.462,-132 735.406,-132 774.129,-132"/>
<polygon fill="black" stroke="black" points="774.201,-135.5 784.201,-132 774.201,-128.5 774.201,-135.5"/>
<text text-anchor="middle" x="696" y="-136.4" font-family="Times Roman,serif" font-size="14.00">FLNK &#160;</text>
</g>
<!-- Field:Plan -->
<g id="node7" class="node"><title>Field:Plan</title>
<polygon fill="none" stroke="black" points="103,-433 21,-433 21,-391 103,-391 103,-433"/>
<text text-anchor="middle" x="62" y="-416.4" font-family="Times Roman,serif" font-size="14.00">Field:Plan</text>
<text text-anchor="middle" x="62" y="-399.4" font-family="Times Roman,serif" font-size="14.00">longin</text>
</g>
<!-- NoPlan:Calc -->
<g id="node9" class="node"><title>NoPlan:Calc</title>
<polygon fill="none" stroke="black" points="381,-412 241,-412 241,-336 381,-336 381,-412"/>
<text text-anchor="middle" x="311" y="-395.4" font-family="Times Roman,serif" font-size="14.00">NoPlan:Calc</text>
<text text-anchor="middle" x="311" y="-378.4" font-family="Times Roman,serif" font-size="14.00">calcout</text>
<text text-anchor="middle" x="311" y="-361.4" font-family="Times Roman,serif" font-size="14.00">A</text>
<text text-anchor="middle" x="311" y="-344.4" font-family="Times Roman,serif" font-size="14.00">Transition To Zero</text>
</g>
<!-- Field:Plan&#45;&gt;NoPlan:Calc -->
<g id="edge30" class="edge"><title>Field:Plan&#45;&gt;NoPlan:Calc</title>
<path fill="none" stroke="black" stroke-dasharray="5,2" d="M103.616,-406.107C132.388,-401.99 171.541,-396.302 206,-391 214.133,-389.749 222.617,-388.418 231.082,-387.073"/>
<polygon fill="black" stroke="black" points="231.666,-390.524 240.989,-385.492 230.562,-383.612 231.666,-390.524"/>
<text text-anchor="middle" x="174" y="-405.4" font-family="Times Roman,serif" font-size="14.00">INPA MS </text>
</g>
<!-- Field:Plan&#45;&gt;NoPlan:Calc -->
<g id="edge6" class="edge"><title>Field:Plan&#45;&gt;NoPlan:Calc</title>
<path fill="none" stroke="black" stroke-dasharray="1,5" d="M97.8073,-390.833C111.202,-384.05 126.85,-377.415 142,-374 170.423,-367.593 202.225,-366.156 230.507,-366.798"/>
<polygon fill="black" stroke="black" points="230.649,-370.304 240.755,-367.124 230.871,-363.308 230.649,-370.304"/>
<text text-anchor="middle" x="174" y="-378.4" font-family="Times Roman,serif" font-size="14.00">FLNK &#160;</text>
</g>
<!-- Field:Number -->
<g id="node10" class="node"><title>Field:Number</title>
<polygon fill="none" stroke="black" points="635,-395 529,-395 529,-353 635,-353 635,-395"/>
<text text-anchor="middle" x="582" y="-378.4" font-family="Times Roman,serif" font-size="14.00">Field:Number</text>
<text text-anchor="middle" x="582" y="-361.4" font-family="Times Roman,serif" font-size="14.00">longin</text>
</g>
<!-- NoPlan:Calc&#45;&gt;Field:Number -->
<g id="edge32" class="edge"><title>NoPlan:Calc&#45;&gt;Field:Number</title>
<path fill="none" stroke="black" d="M381.142,-374C423.503,-374 477.07,-374 518.23,-374"/>
<polygon fill="black" stroke="black" points="518.413,-377.5 528.413,-374 518.413,-370.5 518.413,-377.5"/>
<text text-anchor="middle" x="458" y="-378.4" font-family="Times Roman,serif" font-size="14.00">OUT PP MS </text>
</g>
<!-- Field:Fanout -->
<g id="node12" class="node"><title>Field:Fanout</title>
<polygon fill="none" stroke="black" stroke-dasharray="5,2" points="882,-466 782,-466 782,-430 882,-430 882,-466"/>
<text text-anchor="middle" x="832" y="-443.9" font-family="Times Roman,serif" font-size="14.00">Field:Fanout</text>
</g>
<!-- Field:Number&#45;&gt;Field:Fanout -->
<g id="edge8" class="edge"><title>Field:Number&#45;&gt;Field:Fanout</title>
<path fill="none" stroke="black" stroke-dasharray="1,5" d="M635.631,-389.875C675.744,-401.748 730.603,-417.987 772.143,-430.282"/>
<polygon fill="black" stroke="black" points="771.28,-433.677 781.862,-433.159 773.267,-426.965 771.28,-433.677"/>
<text text-anchor="middle" x="696" y="-420.4" font-family="Times Roman,serif" font-size="14.00">FLNK &#160;</text>
</g>
<!-- NoField:Calc -->
<g id="node40" class="node"><title>NoField:Calc</title>
<polygon fill="none" stroke="black" points="902,-412 762,-412 762,-336 902,-336 902,-412"/>
<text text-anchor="middle" x="832" y="-395.4" font-family="Times Roman,serif" font-size="14.00">NoField:Calc</text>
<text text-anchor="middle" x="832" y="-378.4" font-family="Times Roman,serif" font-size="14.00">calcout</text>
<text text-anchor="middle" x="832" y="-361.4" font-family="Times Roman,serif" font-size="14.00">A</text>
<text text-anchor="middle" x="832" y="-344.4" font-family="Times Roman,serif" font-size="14.00">Transition To Zero</text>
</g>
<!-- Field:Number&#45;&gt;NoField:Calc -->
<g id="edge34" class="edge"><title>Field:Number&#45;&gt;NoField:Calc</title>
<path fill="none" stroke="black" stroke-dasharray="5,2" d="M635.631,-374C669.479,-374 713.827,-374 751.811,-374"/>
<polygon fill="black" stroke="black" points="751.83,-377.5 761.83,-374 751.83,-370.5 751.83,-377.5"/>
<text text-anchor="middle" x="696" y="-378.4" font-family="Times Roman,serif" font-size="14.00">INPA MS </text>
</g>
<!-- NoFieldName:Calc -->
<g id="node50" class="node"><title>NoFieldName:Calc</title>
<polygon fill="none" stroke="black" points="902,-318 762,-318 762,-242 902,-242 902,-318"/>
<text text-anchor="middle" x="832" y="-301.4" font-family="Times Roman,serif" font-size="14.00">NoFieldName:Calc</text>
<text text-anchor="middle" x="832" y="-284.4" font-family="Times Roman,serif" font-size="14.00">scalcout</text>
<text text-anchor="middle" x="832" y="-267.4" font-family="Times Roman,serif" font-size="14.00">A</text>
<text text-anchor="middle" x="832" y="-250.4" font-family="Times Roman,serif" font-size="14.00">When Zero</text>
</g>
<!-- Field:Number&#45;&gt;NoFieldName:Calc -->
<g id="edge46" class="edge"><title>Field:Number&#45;&gt;NoFieldName:Calc</title>
<path fill="none" stroke="black" stroke-dasharray="5,2" d="M635.631,-353.835C669.623,-341.054 714.204,-324.291 752.296,-309.969"/>
<polygon fill="black" stroke="black" points="753.701,-313.18 761.83,-306.384 751.238,-306.627 753.701,-313.18"/>
<text text-anchor="middle" x="696" y="-345.4" font-family="Times Roman,serif" font-size="14.00">INPA MS </text>
</g>
<!-- Patient:Name -->
<g id="node13" class="node"><title>Patient:Name</title>
<polygon fill="none" stroke="black" points="637,-59 527,-59 527,-17 637,-17 637,-59"/>
<text text-anchor="middle" x="582" y="-42.4" font-family="Times Roman,serif" font-size="14.00">Patient:Name</text>
<text text-anchor="middle" x="582" y="-25.4" font-family="Times Roman,serif" font-size="14.00">stringin</text>
</g>
<g id="node15" class="node"><title></title>
<polygon fill="none" stroke="black" stroke-dasharray="5,2" points="859,-56 805,-56 805,-20 859,-20 859,-56"/>
</g>
<!-- Patient:Name&#45;&gt; -->
<g id="edge10" class="edge"><title>Patient:Name&#45;&gt;</title>
<path fill="none" stroke="black" stroke-dasharray="1,5" d="M637.173,-38C685.027,-38 752.984,-38 794.693,-38"/>
<polygon fill="black" stroke="black" points="794.703,-41.5001 804.703,-38 794.703,-34.5001 794.703,-41.5001"/>
<text text-anchor="middle" x="696" y="-42.4" font-family="Times Roman,serif" font-size="14.00">FLNK &#160;</text>
</g>
<!-- Field:Name -->
<g id="node16" class="node"><title>Field:Name</title>
<polygon fill="none" stroke="black" points="1205,-301 1113,-301 1113,-259 1205,-259 1205,-301"/>
<text text-anchor="middle" x="1159" y="-284.4" font-family="Times Roman,serif" font-size="14.00">Field:Name</text>
<text text-anchor="middle" x="1159" y="-267.4" font-family="Times Roman,serif" font-size="14.00">stringin</text>
</g>
<!-- Field:Log -->
<g id="node18" class="node"><title>Field:Log</title>
<polygon fill="none" stroke="black" stroke-dasharray="5,2" points="1399,-298 1323,-298 1323,-262 1399,-262 1399,-298"/>
<text text-anchor="middle" x="1361" y="-275.9" font-family="Times Roman,serif" font-size="14.00">Field:Log</text>
</g>
<!-- Field:Name&#45;&gt;Field:Log -->
<g id="edge12" class="edge"><title>Field:Name&#45;&gt;Field:Log</title>
<path fill="none" stroke="black" stroke-dasharray="1,5" d="M1205.09,-280C1237.03,-280 1279.5,-280 1312.05,-280"/>
<polygon fill="black" stroke="black" points="1312.24,-283.5 1322.24,-280 1312.24,-276.5 1312.24,-283.5"/>
<text text-anchor="middle" x="1281" y="-284.4" font-family="Times Roman,serif" font-size="14.00">FLNK &#160;</text>
</g>
<!-- Operator:Name -->
<g id="node19" class="node"><title>Operator:Name</title>
<polygon fill="none" stroke="black" points="123,-502 1,-502 1,-460 123,-460 123,-502"/>
<text text-anchor="middle" x="62" y="-485.4" font-family="Times Roman,serif" font-size="14.00">Operator:Name</text>
<text text-anchor="middle" x="62" y="-468.4" font-family="Times Roman,serif" font-size="14.00">stringin</text>
</g>
<!-- Operator:Log -->
<g id="node21" class="node"><title>Operator:Log</title>
<polygon fill="none" stroke="black" stroke-dasharray="5,2" points="365,-499 257,-499 257,-463 365,-463 365,-499"/>
<text text-anchor="middle" x="311" y="-476.9" font-family="Times Roman,serif" font-size="14.00">Operator:Log</text>
</g>
<!-- Operator:Name&#45;&gt;Operator:Log -->
<g id="edge14" class="edge"><title>Operator:Name&#45;&gt;Operator:Log</title>
<path fill="none" stroke="black" stroke-dasharray="1,5" d="M123.551,-481C160.936,-481 208.599,-481 246.506,-481"/>
<polygon fill="black" stroke="black" points="246.923,-484.5 256.923,-481 246.923,-477.5 246.923,-484.5"/>
<text text-anchor="middle" x="174" y="-485.4" font-family="Times Roman,serif" font-size="14.00">FLNK &#160;</text>
</g>
<!-- Mode -->
<g id="node22" class="node"><title>Mode</title>
<polygon fill="none" stroke="black" points="609,-592 555,-592 555,-550 609,-550 609,-592"/>
<text text-anchor="middle" x="582" y="-575.4" font-family="Times Roman,serif" font-size="14.00">Mode</text>
<text text-anchor="middle" x="582" y="-558.4" font-family="Times Roman,serif" font-size="14.00">bi</text>
</g>
<!-- NewMode:Calc -->
<g id="node24" class="node"><title>NewMode:Calc</title>
<polygon fill="none" stroke="black" points="891,-564 773,-564 773,-488 891,-488 891,-564"/>
<text text-anchor="middle" x="832" y="-547.4" font-family="Times Roman,serif" font-size="14.00">NewMode:Calc</text>
<text text-anchor="middle" x="832" y="-530.4" font-family="Times Roman,serif" font-size="14.00">calcout</text>
<text text-anchor="middle" x="832" y="-513.4" font-family="Times Roman,serif" font-size="14.00">A</text>
<text text-anchor="middle" x="832" y="-496.4" font-family="Times Roman,serif" font-size="14.00">On Change</text>
</g>
<!-- Mode&#45;&gt;NewMode:Calc -->
<g id="edge38" class="edge"><title>Mode&#45;&gt;NewMode:Calc</title>
<path fill="none" stroke="black" stroke-dasharray="5,2" d="M609.034,-554.693C624.54,-546.239 644.706,-536.718 664,-532 695.838,-524.215 732.074,-522.105 762.721,-522.19"/>
<polygon fill="black" stroke="black" points="762.849,-525.692 772.886,-522.298 762.924,-518.692 762.849,-525.692"/>
<text text-anchor="middle" x="696" y="-536.4" font-family="Times Roman,serif" font-size="14.00">INPA MS </text>
</g>
<!-- Mode&#45;&gt;NewMode:Calc -->
<g id="edge16" class="edge"><title>Mode&#45;&gt;NewMode:Calc</title>
<path fill="none" stroke="black" stroke-dasharray="1,5" d="M596.391,-549.903C610.897,-530.692 635.217,-503.609 664,-492 695.377,-479.344 732.021,-484.636 763.064,-494.43"/>
<polygon fill="black" stroke="black" points="762.339,-497.879 772.933,-497.751 764.571,-491.244 762.339,-497.879"/>
<text text-anchor="middle" x="696" y="-496.4" font-family="Times Roman,serif" font-size="14.00">FLNK &#160;</text>
</g>
<!-- NewRole:Calc -->
<g id="node27" class="node"><title>NewRole:Calc</title>
<polygon fill="none" stroke="black" points="918,-669 746,-669 746,-593 918,-593 918,-669"/>
<text text-anchor="middle" x="832" y="-652.4" font-family="Times Roman,serif" font-size="14.00">NewRole:Calc</text>
<text text-anchor="middle" x="832" y="-635.4" font-family="Times Roman,serif" font-size="14.00">calcout</text>
<text text-anchor="middle" x="832" y="-618.4" font-family="Times Roman,serif" font-size="14.00">!A&amp;&amp;B</text>
<text text-anchor="middle" x="832" y="-601.4" font-family="Times Roman,serif" font-size="14.00">Transition To Non&#45;zero</text>
</g>
<!-- Mode&#45;&gt;NewRole:Calc -->
<g id="edge56" class="edge"><title>Mode&#45;&gt;NewRole:Calc</title>
<path fill="none" stroke="black" stroke-dasharray="5,2" d="M609.23,-577.535C639.59,-584.822 690.406,-597.017 735.844,-607.923"/>
<polygon fill="black" stroke="black" points="735.208,-611.369 745.749,-610.3 736.842,-604.563 735.208,-611.369"/>
<text text-anchor="middle" x="696" y="-608.4" font-family="Times Roman,serif" font-size="14.00">INPB MS </text>
</g>
<!-- NewMode:Seq -->
<g id="node46" class="node"><title>NewMode:Seq</title>
<polygon fill="none" stroke="black" stroke-dasharray="5,2" points="1216,-544 1102,-544 1102,-508 1216,-508 1216,-544"/>
<text text-anchor="middle" x="1159" y="-521.9" font-family="Times Roman,serif" font-size="14.00">NewMode:Seq</text>
</g>
<!-- NewMode:Calc&#45;&gt;NewMode:Seq -->
<g id="edge40" class="edge"><title>NewMode:Calc&#45;&gt;NewMode:Seq</title>
<path fill="none" stroke="black" d="M891.217,-526C947.471,-526 1031.99,-526 1090.98,-526"/>
<polygon fill="black" stroke="black" points="1091.32,-529.5 1101.32,-526 1091.32,-522.5 1091.32,-529.5"/>
<text text-anchor="middle" x="998" y="-530.4" font-family="Times Roman,serif" font-size="14.00">OUT PP MS </text>
</g>
<!-- Operator:Role -->
<g id="node25" class="node"><title>Operator:Role</title>
<polygon fill="none" stroke="black" points="118,-664 6,-664 6,-622 118,-622 118,-664"/>
<text text-anchor="middle" x="62" y="-647.4" font-family="Times Roman,serif" font-size="14.00">Operator:Role</text>
<text text-anchor="middle" x="62" y="-630.4" font-family="Times Roman,serif" font-size="14.00">bi</text>
</g>
<!-- Operator:Role&#45;&gt;NewRole:Calc -->
<g id="edge58" class="edge"><title>Operator:Role&#45;&gt;NewRole:Calc</title>
<path fill="none" stroke="black" stroke-dasharray="5,2" d="M118.703,-652.493C126.51,-653.511 134.44,-654.395 142,-655 401.637,-675.794 468.844,-673.115 728,-647 730.545,-646.744 733.122,-646.467 735.721,-646.174"/>
<polygon fill="black" stroke="black" points="736.314,-649.628 745.828,-644.966 735.483,-642.678 736.314,-649.628"/>
<text text-anchor="middle" x="458" y="-672.4" font-family="Times Roman,serif" font-size="14.00">INPA MS </text>
</g>
<!-- Operator:Role&#45;&gt;NewRole:Calc -->
<g id="edge18" class="edge"><title>Operator:Role&#45;&gt;NewRole:Calc</title>
<path fill="none" stroke="black" stroke-dasharray="1,5" d="M118.62,-642.118C249.206,-640.083 572.716,-635.041 735.373,-632.506"/>
<polygon fill="black" stroke="black" points="735.907,-635.998 745.851,-632.343 735.797,-628.999 735.907,-635.998"/>
<text text-anchor="middle" x="458" y="-641.4" font-family="Times Roman,serif" font-size="14.00">FLNK &#160;</text>
</g>
<!-- ModeRequest:Calc -->
<g id="node30" class="node"><title>ModeRequest:Calc</title>
<polygon fill="none" stroke="black" points="382,-609 240,-609 240,-533 382,-533 382,-609"/>
<text text-anchor="middle" x="311" y="-592.4" font-family="Times Roman,serif" font-size="14.00">ModeRequest:Calc</text>
<text text-anchor="middle" x="311" y="-575.4" font-family="Times Roman,serif" font-size="14.00">calcout</text>
<text text-anchor="middle" x="311" y="-558.4" font-family="Times Roman,serif" font-size="14.00">!A||B</text>
<text text-anchor="middle" x="311" y="-541.4" font-family="Times Roman,serif" font-size="14.00">When Non&#45;zero</text>
</g>
<!-- Operator:Role&#45;&gt;ModeRequest:Calc -->
<g id="edge50" class="edge"><title>Operator:Role&#45;&gt;ModeRequest:Calc</title>
<path fill="none" stroke="black" stroke-dasharray="5,2" d="M113.288,-621.98C122.758,-618.426 132.619,-614.941 142,-612 170.347,-603.112 201.871,-594.999 229.941,-588.378"/>
<polygon fill="black" stroke="black" points="230.77,-591.779 239.715,-586.1 229.181,-584.962 230.77,-591.779"/>
<text text-anchor="middle" x="174" y="-616.4" font-family="Times Roman,serif" font-size="14.00">INPB MS </text>
</g>
<!-- NewRole:Calc&#45;&gt;Mode -->
<g id="edge60" class="edge"><title>NewRole:Calc&#45;&gt;Mode</title>
<path fill="none" stroke="black" d="M778.233,-592.899C762.735,-583.93 745.317,-575.637 728,-571 691.971,-561.352 649.123,-562.796 619.199,-565.767"/>
<polygon fill="black" stroke="black" points="618.744,-562.296 609.185,-566.867 619.508,-569.254 618.744,-562.296"/>
<text text-anchor="middle" x="696" y="-575.4" font-family="Times Roman,serif" font-size="14.00">OUT PP </text>
</g>
<!-- ModeRequest -->
<g id="node28" class="node"><title>ModeRequest</title>
<polygon fill="none" stroke="black" points="116,-577 8,-577 8,-535 116,-535 116,-577"/>
<text text-anchor="middle" x="62" y="-560.4" font-family="Times Roman,serif" font-size="14.00">ModeRequest</text>
<text text-anchor="middle" x="62" y="-543.4" font-family="Times Roman,serif" font-size="14.00">bi</text>
</g>
<!-- ModeRequest&#45;&gt;ModeRequest:Calc -->
<g id="edge52" class="edge"><title>ModeRequest&#45;&gt;ModeRequest:Calc</title>
<path fill="none" stroke="black" stroke-dasharray="5,2" d="M116.644,-559.292C149.751,-561.286 192.601,-563.868 229.639,-566.099"/>
<polygon fill="black" stroke="black" points="229.726,-569.61 239.919,-566.718 230.147,-562.623 229.726,-569.61"/>
<text text-anchor="middle" x="174" y="-568.4" font-family="Times Roman,serif" font-size="14.00">INPA MS </text>
</g>
<!-- ModeRequest&#45;&gt;ModeRequest:Calc -->
<g id="edge20" class="edge"><title>ModeRequest&#45;&gt;ModeRequest:Calc</title>
<path fill="none" stroke="black" stroke-dasharray="1,5" d="M116.608,-537.329C125.022,-535.121 133.679,-533.221 142,-532 170.143,-527.869 178.004,-526.969 206,-532 213.96,-533.431 222.105,-535.426 230.165,-537.764"/>
<polygon fill="black" stroke="black" points="229.348,-541.175 239.935,-540.772 231.408,-534.485 229.348,-541.175"/>
<text text-anchor="middle" x="174" y="-536.4" font-family="Times Roman,serif" font-size="14.00">FLNK &#160;</text>
</g>
<!-- ModeRequest:Calc&#45;&gt;Mode -->
<g id="edge54" class="edge"><title>ModeRequest:Calc&#45;&gt;Mode</title>
<path fill="none" stroke="black" d="M382.202,-571C434.392,-571 503.149,-571 544.886,-571"/>
<polygon fill="black" stroke="black" points="544.888,-574.5 554.888,-571 544.888,-567.5 544.888,-574.5"/>
<text text-anchor="middle" x="458" y="-575.4" font-family="Times Roman,serif" font-size="14.00">OUT PP </text>
</g>
<!-- NewPatient:Seq -->
<g id="node34" class="node"><title>NewPatient:Seq</title>
<polygon fill="none" stroke="black" stroke-dasharray="5,2" points="646,-244 518,-244 518,-208 646,-208 646,-244"/>
<text text-anchor="middle" x="582" y="-221.9" font-family="Times Roman,serif" font-size="14.00">NewPatient:Seq</text>
</g>
<!-- NewPatient:Calc&#45;&gt;NewPatient:Seq -->
<g id="edge24" class="edge"><title>NewPatient:Calc&#45;&gt;NewPatient:Seq</title>
<path fill="none" stroke="black" d="M376.602,-226C416.17,-226 466.688,-226 507.722,-226"/>
<polygon fill="black" stroke="black" points="507.938,-229.5 517.938,-226 507.938,-222.5 507.938,-229.5"/>
<text text-anchor="middle" x="458" y="-230.4" font-family="Times Roman,serif" font-size="14.00">OUT PP MS </text>
</g>
<!-- NoPatientNumber:Calc&#45;&gt;Patient:Number -->
<g id="edge28" class="edge"><title>NoPatientNumber:Calc&#45;&gt;Patient:Number</title>
<path fill="none" stroke="black" d="M397.864,-132C433.642,-132 474.635,-132 508.847,-132"/>
<polygon fill="black" stroke="black" points="509.233,-135.5 519.233,-132 509.233,-128.5 509.233,-135.5"/>
<text text-anchor="middle" x="458" y="-136.4" font-family="Times Roman,serif" font-size="14.00">OUT PP MS </text>
</g>
<!-- Subsystems0:NoField -->
<g id="node43" class="node"><title>Subsystems0:NoField</title>
<polygon fill="none" stroke="black" stroke-dasharray="5,2" points="1240,-392 1078,-392 1078,-356 1240,-356 1240,-392"/>
<text text-anchor="middle" x="1159" y="-369.9" font-family="Times Roman,serif" font-size="14.00">Subsystems0:NoField</text>
</g>
<!-- NoField:Calc&#45;&gt;Subsystems0:NoField -->
<g id="edge36" class="edge"><title>NoField:Calc&#45;&gt;Subsystems0:NoField</title>
<path fill="none" stroke="black" d="M902.15,-374C950.444,-374 1015.08,-374 1067.43,-374"/>
<polygon fill="black" stroke="black" points="1067.72,-377.5 1077.72,-374 1067.72,-370.5 1067.72,-377.5"/>
<text text-anchor="middle" x="998" y="-378.4" font-family="Times Roman,serif" font-size="14.00">OUT PP MS PROC</text>
</g>
<!-- NoPatientName:Calc&#45;&gt;Patient:Name -->
<g id="edge44" class="edge"><title>NoPatientName:Calc&#45;&gt;Patient:Name</title>
<path fill="none" stroke="black" d="M390.113,-38C430.241,-38 478.399,-38 516.431,-38"/>
<polygon fill="black" stroke="black" points="516.875,-41.5001 526.875,-38 516.875,-34.5001 516.875,-41.5001"/>
<text text-anchor="middle" x="458" y="-42.4" font-family="Times Roman,serif" font-size="14.00">OUT PP MS </text>
</g>
<!-- NoFieldName:Calc&#45;&gt;Field:Name -->
<g id="edge48" class="edge"><title>NoFieldName:Calc&#45;&gt;Field:Name</title>
<path fill="none" stroke="black" d="M902.15,-280C962.04,-280 1047.06,-280 1102.62,-280"/>
<polygon fill="black" stroke="black" points="1102.63,-283.5 1112.63,-280 1102.63,-276.5 1102.63,-283.5"/>
<text text-anchor="middle" x="998" y="-284.4" font-family="Times Roman,serif" font-size="14.00">OUT PP MS </text>
</g>
</g>
</svg>
