<?xml version="1.0" encoding="UTF-8" standalone="no"?>
<!DOCTYPE svg PUBLIC "-//W3C//DTD SVG 1.1//EN"
 "http://www.w3.org/Graphics/SVG/1.1/DTD/svg11.dtd">
<!-- Generated by graphviz version 2.26.3 (20100126.1600)
 -->
<!-- Title: treatment_record Pages: 1 -->
<svg width="1688pt" height="465pt"
 viewBox="0.00 0.00 1688.00 465.00" xmlns="http://www.w3.org/2000/svg" xmlns:xlink="http://www.w3.org/1999/xlink">
<g id="graph1" class="graph" transform="scale(1 1) rotate(0) translate(4 461)">
<title>treatment_record</title>
<polygon fill="white" stroke="white" points="-4,5 -4,-461 1685,-461 1685,5 -4,5"/>
<!-- Finished:Fanout -->
<g id="node1" class="node"><title>Finished:Fanout</title>
<polygon fill="none" stroke="black" points="467,-320 343,-320 343,-278 467,-278 467,-320"/>
<text text-anchor="middle" x="405" y="-303.4" font-family="Times Roman,serif" font-size="14.00">Finished:Fanout</text>
<text text-anchor="middle" x="405" y="-286.4" font-family="Times Roman,serif" font-size="14.00">fanout</text>
</g>
<!-- Dosimetry:Command:Calc -->
<g id="node3" class="node"><title>Dosimetry:Command:Calc</title>
<polygon fill="none" stroke="black" points="826,-397 632,-397 632,-321 826,-321 826,-397"/>
<text text-anchor="middle" x="729" y="-380.4" font-family="Times Roman,serif" font-size="14.00">Dosimetry:Command:Calc</text>
<text text-anchor="middle" x="729" y="-363.4" font-family="Times Roman,serif" font-size="14.00">scalcout</text>
<text text-anchor="middle" x="729" y="-346.4" font-family="Times Roman,serif" font-size="14.00">A</text>
<text text-anchor="middle" x="729" y="-329.4" font-family="Times Roman,serif" font-size="14.00">When Zero</text>
</g>
<!-- Finished:Fanout&#45;&gt;Dosimetry:Command:Calc -->
<g id="edge2" class="edge"><title>Finished:Fanout&#45;&gt;Dosimetry:Command:Calc</title>
<path fill="none" stroke="black" stroke-dasharray="1,5" d="M467.855,-310.64C511.503,-318.723 570.754,-329.695 621.785,-339.145"/>
<polygon fill="black" stroke="black" points="621.404,-342.634 631.874,-341.014 622.679,-335.751 621.404,-342.634"/>
<text text-anchor="middle" x="565" y="-340.4" font-family="Times Roman,serif" font-size="14.00">LNK1 &#160;</text>
</g>
<!-- DoseWarning:Calc -->
<g id="node5" class="node"><title>DoseWarning:Calc</title>
<polygon fill="none" stroke="black" points="800,-291 658,-291 658,-215 800,-215 800,-291"/>
<text text-anchor="middle" x="729" y="-274.4" font-family="Times Roman,serif" font-size="14.00">DoseWarning:Calc</text>
<text text-anchor="middle" x="729" y="-257.4" font-family="Times Roman,serif" font-size="14.00">scalcout</text>
<text text-anchor="middle" x="729" y="-240.4" font-family="Times Roman,serif" font-size="14.00">A</text>
<text text-anchor="middle" x="729" y="-223.4" font-family="Times Roman,serif" font-size="14.00">When Non&#45;zero</text>
</g>
<!-- Finished:Fanout&#45;&gt;DoseWarning:Calc -->
<g id="edge4" class="edge"><title>Finished:Fanout&#45;&gt;DoseWarning:Calc</title>
<path fill="none" stroke="black" stroke-dasharray="1,5" d="M467.861,-294.049C509.467,-290.363 565.158,-284.647 614,-277 624.909,-275.292 636.348,-273.233 647.604,-271.048"/>
<polygon fill="black" stroke="black" points="648.302,-274.478 657.431,-269.101 646.941,-267.611 648.302,-274.478"/>
<text text-anchor="middle" x="565" y="-294.4" font-family="Times Roman,serif" font-size="14.00">LNK3 &#160;</text>
</g>
<!-- Event:Calc -->
<g id="node7" class="node"><title>Event:Calc</title>
<polygon fill="none" stroke="black" points="824,-136 634,-136 634,-60 824,-60 824,-136"/>
<text text-anchor="middle" x="729" y="-119.4" font-family="Times Roman,serif" font-size="14.00">Event:Calc</text>
<text text-anchor="middle" x="729" y="-102.4" font-family="Times Roman,serif" font-size="14.00">calcout</text>
<text text-anchor="middle" x="729" y="-85.4" font-family="Times Roman,serif" font-size="14.00">A&lt;4?0:(A&gt;11?3:(B?1:2))</text>
<text text-anchor="middle" x="729" y="-68.4" font-family="Times Roman,serif" font-size="14.00">When Non&#45;zero</text>
</g>
<!-- Finished:Fanout&#45;&gt;Event:Calc -->
<g id="edge6" class="edge"><title>Finished:Fanout&#45;&gt;Event:Calc</title>
<path fill="none" stroke="black" stroke-dasharray="1,5" d="M453.809,-277.928C472.942,-270.242 495.248,-261.98 516,-256 558.632,-243.716 577.842,-262.71 614,-237 626.984,-227.767 622.628,-218.884 632,-206 647.567,-184.601 666.683,-162.587 683.817,-144.063"/>
<polygon fill="black" stroke="black" points="686.754,-146.046 691.022,-136.349 681.638,-141.268 686.754,-146.046"/>
<text text-anchor="middle" x="565" y="-260.4" font-family="Times Roman,serif" font-size="14.00">LNK2 &#160;</text>
</g>
<!-- Dosimetry:Command -->
<g id="node41" class="node"><title>Dosimetry:Command</title>
<polygon fill="none" stroke="black" points="1081,-380 921,-380 921,-338 1081,-338 1081,-380"/>
<text text-anchor="middle" x="1001" y="-363.4" font-family="Times Roman,serif" font-size="14.00">Dosimetry:Command</text>
<text text-anchor="middle" x="1001" y="-346.4" font-family="Times Roman,serif" font-size="14.00">stringout</text>
</g>
<!-- Dosimetry:Command:Calc&#45;&gt;Dosimetry:Command -->
<g id="edge42" class="edge"><title>Dosimetry:Command:Calc&#45;&gt;Dosimetry:Command</title>
<path fill="none" stroke="black" d="M826.046,-359C853.374,-359 882.993,-359 909.956,-359"/>
<polygon fill="black" stroke="black" points="910.149,-362.5 920.149,-359 910.149,-355.5 910.149,-362.5"/>
<text text-anchor="middle" x="873" y="-363.4" font-family="Times Roman,serif" font-size="14.00">OUT PP </text>
</g>
<!-- UI:Panel:Request -->
<g id="node11" class="node"><title>UI:Panel:Request</title>
<polygon fill="none" stroke="black" stroke-dasharray="5,2" points="1068,-271 934,-271 934,-235 1068,-235 1068,-271"/>
<text text-anchor="middle" x="1001" y="-248.9" font-family="Times Roman,serif" font-size="14.00">UI:Panel:Request</text>
</g>
<!-- DoseWarning:Calc&#45;&gt;UI:Panel:Request -->
<g id="edge10" class="edge"><title>DoseWarning:Calc&#45;&gt;UI:Panel:Request</title>
<path fill="none" stroke="black" d="M800.821,-253C838.675,-253 885.137,-253 923.767,-253"/>
<polygon fill="black" stroke="black" points="923.924,-256.5 933.924,-253 923.924,-249.5 923.924,-256.5"/>
<text text-anchor="middle" x="873" y="-257.4" font-family="Times Roman,serif" font-size="14.00">OUT PP </text>
</g>
<!-- RecordNumber:Calc -->
<g id="node20" class="node"><title>RecordNumber:Calc</title>
<polygon fill="none" stroke="black" points="1076,-182 926,-182 926,-106 1076,-106 1076,-182"/>
<text text-anchor="middle" x="1001" y="-165.4" font-family="Times Roman,serif" font-size="14.00">RecordNumber:Calc</text>
<text text-anchor="middle" x="1001" y="-148.4" font-family="Times Roman,serif" font-size="14.00">calcout</text>
<text text-anchor="middle" x="1001" y="-131.4" font-family="Times Roman,serif" font-size="14.00">A+1</text>
<text text-anchor="middle" x="1001" y="-114.4" font-family="Times Roman,serif" font-size="14.00">Every Time</text>
</g>
<!-- Event:Calc&#45;&gt;RecordNumber:Calc -->
<g id="edge20" class="edge"><title>Event:Calc&#45;&gt;RecordNumber:Calc</title>
<path fill="none" stroke="black" stroke-dasharray="1,5" d="M824.132,-114.089C853.733,-119.095 886.181,-124.582 915.112,-129.475"/>
<polygon fill="black" stroke="black" points="914.744,-132.962 925.188,-131.179 915.911,-126.06 914.744,-132.962"/>
<text text-anchor="middle" x="873" y="-131.4" font-family="Times Roman,serif" font-size="14.00">FLNK &#160;</text>
</g>
<!-- Event -->
<g id="node22" class="node"><title>Event</title>
<polygon fill="none" stroke="black" stroke-dasharray="5,2" points="1029,-88 973,-88 973,-52 1029,-52 1029,-88"/>
<text text-anchor="middle" x="1001" y="-65.9" font-family="Times Roman,serif" font-size="14.00">Event</text>
</g>
<!-- Event:Calc&#45;&gt;Event -->
<g id="edge22" class="edge"><title>Event:Calc&#45;&gt;Event</title>
<path fill="none" stroke="black" d="M824.132,-88.207C871.679,-83.3124 926.573,-77.6616 962.435,-73.9699"/>
<polygon fill="black" stroke="black" points="962.884,-77.4423 972.473,-72.9366 962.167,-70.4791 962.884,-77.4423"/>
<text text-anchor="middle" x="873" y="-90.4" font-family="Times Roman,serif" font-size="14.00">OUT PP </text>
</g>
<!-- TerminationCode -->
<g id="node8" class="node"><title>TerminationCode</title>
<polygon fill="none" stroke="black" stroke-dasharray="5,2" points="471,-237 339,-237 339,-201 471,-201 471,-237"/>
<text text-anchor="middle" x="405" y="-214.9" font-family="Times Roman,serif" font-size="14.00">TerminationCode</text>
</g>
<!-- TerminationCode&#45;&gt;DoseWarning:Calc -->
<g id="edge8" class="edge"><title>TerminationCode&#45;&gt;DoseWarning:Calc</title>
<path fill="none" stroke="black" stroke-dasharray="5,2" d="M471.7,-214.684C512.911,-213.163 566.766,-213.242 614,-220 624.973,-221.57 636.369,-223.92 647.534,-226.655"/>
<polygon fill="black" stroke="black" points="646.715,-230.058 657.27,-229.149 648.452,-223.277 646.715,-230.058"/>
<text text-anchor="middle" x="565" y="-224.4" font-family="Times Roman,serif" font-size="14.00">INPA &#160;</text>
</g>
<!-- DMCTimerAEnabled:Calc -->
<g id="node12" class="node"><title>DMCTimerAEnabled:Calc</title>
<polygon fill="none" stroke="black" points="498,-183 312,-183 312,-107 498,-107 498,-183"/>
<text text-anchor="middle" x="405" y="-166.4" font-family="Times Roman,serif" font-size="14.00">DMCTimerAEnabled:Calc</text>
<text text-anchor="middle" x="405" y="-149.4" font-family="Times Roman,serif" font-size="14.00">calcout</text>
<text text-anchor="middle" x="405" y="-132.4" font-family="Times Roman,serif" font-size="14.00">A</text>
<text text-anchor="middle" x="405" y="-115.4" font-family="Times Roman,serif" font-size="14.00">On Change</text>
</g>
<!-- DMCTimerAEnabled:Calc&#45;&gt;Event:Calc -->
<g id="edge14" class="edge"><title>DMCTimerAEnabled:Calc&#45;&gt;Event:Calc</title>
<path fill="none" stroke="black" d="M498.28,-131.469C537.487,-125.781 583.287,-119.137 623.699,-113.275"/>
<polygon fill="black" stroke="black" points="624.456,-116.702 633.85,-111.803 623.451,-109.775 624.456,-116.702"/>
<text text-anchor="middle" x="565" y="-133.4" font-family="Times Roman,serif" font-size="14.00">OUT PP PROC</text>
</g>
<!-- DMCTimerAEnabled:Status -->
<g id="node13" class="node"><title>DMCTimerAEnabled:Status</title>
<polygon fill="none" stroke="black" stroke-dasharray="5,2" points="210,-126 8,-126 8,-90 210,-90 210,-126"/>
<text text-anchor="middle" x="109" y="-103.9" font-family="Times Roman,serif" font-size="14.00">DMCTimerAEnabled:Status</text>
</g>
<!-- DMCTimerAEnabled:Status&#45;&gt;Event:Calc -->
<g id="edge16" class="edge"><title>DMCTimerAEnabled:Status&#45;&gt;Event:Calc</title>
<path fill="none" stroke="black" stroke-dasharray="5,2" d="M210.707,-91.7933C243.003,-87.3674 278.919,-83.1903 312,-81 417.947,-73.9851 539.242,-80.5719 623.596,-87.4869"/>
<polygon fill="black" stroke="black" points="623.439,-90.986 633.696,-88.3309 624.022,-84.0103 623.439,-90.986"/>
<text text-anchor="middle" x="405" y="-85.4" font-family="Times Roman,serif" font-size="14.00">INPB &#160;</text>
</g>
<!-- DMCTimerAEnabled:Status&#45;&gt;DMCTimerAEnabled:Calc -->
<g id="edge12" class="edge"><title>DMCTimerAEnabled:Status&#45;&gt;DMCTimerAEnabled:Calc</title>
<path fill="none" stroke="black" stroke-dasharray="5,2" d="M210.866,-120.733C240.187,-124.398 272.191,-128.399 301.603,-132.075"/>
<polygon fill="black" stroke="black" points="301.533,-135.594 311.89,-133.361 302.401,-128.648 301.533,-135.594"/>
<text text-anchor="middle" x="265" y="-135.4" font-family="Times Roman,serif" font-size="14.00">INPA &#160;</text>
</g>
<!-- Phase -->
<g id="node17" class="node"><title>Phase</title>
<polygon fill="none" stroke="black" stroke-dasharray="5,2" points="434,-36 376,-36 376,-1.06581e-14 434,-0 434,-36"/>
<text text-anchor="middle" x="405" y="-13.9" font-family="Times Roman,serif" font-size="14.00">Phase</text>
</g>
<!-- Phase&#45;&gt;Event:Calc -->
<g id="edge18" class="edge"><title>Phase&#45;&gt;Event:Calc</title>
<path fill="none" stroke="black" stroke-dasharray="5,2" d="M434.017,-18.0185C474.958,-18.7523 551.642,-22.7385 614,-41 626.906,-44.7796 640.119,-49.945 652.775,-55.6328"/>
<polygon fill="black" stroke="black" points="651.337,-58.8235 661.881,-59.8544 654.281,-52.4728 651.337,-58.8235"/>
<text text-anchor="middle" x="565" y="-45.4" font-family="Times Roman,serif" font-size="14.00">INPA &#160;</text>
</g>
<!-- RecordNumber -->
<g id="node23" class="node"><title>RecordNumber</title>
<polygon fill="none" stroke="black" stroke-dasharray="5,2" points="1296,-191 1178,-191 1178,-155 1296,-155 1296,-191"/>
<text text-anchor="middle" x="1237" y="-168.9" font-family="Times Roman,serif" font-size="14.00">RecordNumber</text>
</g>
<!-- RecordNumber:Calc&#45;&gt;RecordNumber -->
<g id="edge28" class="edge"><title>RecordNumber:Calc&#45;&gt;RecordNumber</title>
<path fill="none" stroke="black" d="M1076.63,-136.143C1102.62,-135.133 1131.78,-135.891 1158,-141 1169.12,-143.167 1180.66,-146.9 1191.36,-151.068"/>
<polygon fill="black" stroke="black" points="1190.35,-154.434 1200.93,-154.986 1193,-147.957 1190.35,-154.434"/>
<text text-anchor="middle" x="1129" y="-145.4" font-family="Times Roman,serif" font-size="14.00">OUT PP </text>
</g>
<!-- Records:Fanout -->
<g id="node26" class="node"><title>Records:Fanout</title>
<polygon fill="none" stroke="black" points="1298,-125 1176,-125 1176,-83 1298,-83 1298,-125"/>
<text text-anchor="middle" x="1237" y="-108.4" font-family="Times Roman,serif" font-size="14.00">Records:Fanout</text>
<text text-anchor="middle" x="1237" y="-91.4" font-family="Times Roman,serif" font-size="14.00">fanout</text>
</g>
<!-- RecordNumber:Calc&#45;&gt;Records:Fanout -->
<g id="edge26" class="edge"><title>RecordNumber:Calc&#45;&gt;Records:Fanout</title>
<path fill="none" stroke="black" stroke-dasharray="1,5" d="M1076.56,-120.151C1084.42,-118.185 1092.34,-116.414 1100,-115 1121.17,-111.092 1144.44,-108.572 1165.7,-106.947"/>
<polygon fill="black" stroke="black" points="1166.22,-110.419 1175.95,-106.219 1165.73,-103.436 1166.22,-110.419"/>
<text text-anchor="middle" x="1129" y="-119.4" font-family="Times Roman,serif" font-size="14.00">FLNK &#160;</text>
</g>
<!-- RecordNumber&#45;&gt;RecordNumber:Calc -->
<g id="edge24" class="edge"><title>RecordNumber&#45;&gt;RecordNumber:Calc</title>
<path fill="none" stroke="black" stroke-dasharray="5,2" d="M1177.86,-169.546C1153.67,-167.797 1125.43,-165.325 1100,-162 1095.59,-161.424 1091.09,-160.785 1086.54,-160.1"/>
<polygon fill="black" stroke="black" points="1086.97,-156.626 1076.55,-158.538 1085.89,-163.542 1086.97,-156.626"/>
<text text-anchor="middle" x="1129" y="-172.4" font-family="Times Roman,serif" font-size="14.00">INPA &#160;</text>
</g>
<!-- Save:Calc -->
<g id="node31" class="node"><title>Save:Calc</title>
<polygon fill="none" stroke="black" points="1487,-211 1393,-211 1393,-135 1487,-135 1487,-211"/>
<text text-anchor="middle" x="1440" y="-194.4" font-family="Times Roman,serif" font-size="14.00">Save:Calc</text>
<text text-anchor="middle" x="1440" y="-177.4" font-family="Times Roman,serif" font-size="14.00">calcout</text>
<text text-anchor="middle" x="1440" y="-160.4" font-family="Times Roman,serif" font-size="14.00">A</text>
<text text-anchor="middle" x="1440" y="-143.4" font-family="Times Roman,serif" font-size="14.00">Every Time</text>
</g>
<!-- RecordNumber&#45;&gt;Save:Calc -->
<g id="edge34" class="edge"><title>RecordNumber&#45;&gt;Save:Calc</title>
<path fill="none" stroke="black" stroke-dasharray="5,2" d="M1296.26,-173C1323.55,-173 1355.8,-173 1382.83,-173"/>
<polygon fill="black" stroke="black" points="1382.92,-176.5 1392.92,-173 1382.92,-169.5 1382.92,-176.5"/>
<text text-anchor="middle" x="1339" y="-177.4" font-family="Times Roman,serif" font-size="14.00">INPA &#160;</text>
</g>
<!-- Command:Calc -->
<g id="node29" class="node"><title>Command:Calc</title>
<polygon fill="none" stroke="black" points="1499,-117 1381,-117 1381,-41 1499,-41 1499,-117"/>
<text text-anchor="middle" x="1440" y="-100.4" font-family="Times Roman,serif" font-size="14.00">Command:Calc</text>
<text text-anchor="middle" x="1440" y="-83.4" font-family="Times Roman,serif" font-size="14.00">scalcout</text>
<text text-anchor="middle" x="1440" y="-66.4" font-family="Times Roman,serif" font-size="14.00">AA</text>
<text text-anchor="middle" x="1440" y="-49.4" font-family="Times Roman,serif" font-size="14.00">Every Time</text>
</g>
<!-- Records:Fanout&#45;&gt;Command:Calc -->
<g id="edge30" class="edge"><title>Records:Fanout&#45;&gt;Command:Calc</title>
<path fill="none" stroke="black" stroke-dasharray="1,5" d="M1298.08,-89.9242C1304.12,-88.8146 1310.16,-87.8117 1316,-87 1333.41,-84.578 1352.31,-82.8873 1369.98,-81.7077"/>
<polygon fill="black" stroke="black" points="1370.45,-85.1849 1380.22,-81.0706 1370.02,-78.1984 1370.45,-85.1849"/>
<text text-anchor="middle" x="1339" y="-91.4" font-family="Times Roman,serif" font-size="14.00">LNK1 &#160;</text>
</g>
<!-- Records:Fanout&#45;&gt;Save:Calc -->
<g id="edge32" class="edge"><title>Records:Fanout&#45;&gt;Save:Calc</title>
<path fill="none" stroke="black" stroke-dasharray="1,5" d="M1298.18,-124.796C1325.22,-133.984 1356.8,-144.722 1383.3,-153.727"/>
<polygon fill="black" stroke="black" points="1382.22,-157.056 1392.81,-156.961 1384.47,-150.429 1382.22,-157.056"/>
<text text-anchor="middle" x="1339" y="-149.4" font-family="Times Roman,serif" font-size="14.00">LNK2 &#160;</text>
</g>
<!-- Command -->
<g id="node43" class="node"><title>Command</title>
<polygon fill="none" stroke="black" points="1680,-100 1594,-100 1594,-58 1680,-58 1680,-100"/>
<text text-anchor="middle" x="1637" y="-83.4" font-family="Times Roman,serif" font-size="14.00">Command</text>
<text text-anchor="middle" x="1637" y="-66.4" font-family="Times Roman,serif" font-size="14.00">stringout</text>
</g>
<!-- Command:Calc&#45;&gt;Command -->
<g id="edge44" class="edge"><title>Command:Calc&#45;&gt;Command</title>
<path fill="none" stroke="black" d="M1499.64,-79C1526.43,-79 1557.8,-79 1583.78,-79"/>
<polygon fill="black" stroke="black" points="1583.82,-82.5001 1593.82,-79 1583.82,-75.5001 1583.82,-82.5001"/>
<text text-anchor="middle" x="1547" y="-83.4" font-family="Times Roman,serif" font-size="14.00">OUT PP </text>
</g>
<!-- Save -->
<g id="node34" class="node"><title>Save</title>
<polygon fill="none" stroke="black" points="1671,-194 1603,-194 1603,-152 1671,-152 1671,-194"/>
<text text-anchor="middle" x="1637" y="-177.4" font-family="Times Roman,serif" font-size="14.00">Save</text>
<text text-anchor="middle" x="1637" y="-160.4" font-family="Times Roman,serif" font-size="14.00">longout</text>
</g>
<!-- Save:Calc&#45;&gt;Save -->
<g id="edge36" class="edge"><title>Save:Calc&#45;&gt;Save</title>
<path fill="none" stroke="black" d="M1487.19,-173C1518.99,-173 1560.7,-173 1592.03,-173"/>
<polygon fill="black" stroke="black" points="1592.23,-176.5 1602.23,-173 1592.23,-169.5 1592.23,-176.5"/>
<text text-anchor="middle" x="1547" y="-177.4" font-family="Times Roman,serif" font-size="14.00">OUT PP </text>
</g>
<!-- SaveName -->
<g id="node35" class="node"><title>SaveName</title>
<polygon fill="none" stroke="black" points="450,-457 360,-457 360,-415 450,-415 450,-457"/>
<text text-anchor="middle" x="405" y="-440.4" font-family="Times Roman,serif" font-size="14.00">SaveName</text>
<text text-anchor="middle" x="405" y="-423.4" font-family="Times Roman,serif" font-size="14.00">stringin</text>
</g>
<!-- @isotr%Y&#45;%m&#45;%d&#45;%H%M%S -->
<g id="node36" class="node"><title>@isotr%Y&#45;%m&#45;%d&#45;%H%M%S</title>
<polygon fill="none" stroke="black" stroke-dasharray="5,2" points="218,-454 4.26326e-14,-454 0,-418 218,-418 218,-454"/>
<text text-anchor="middle" x="109" y="-431.9" font-family="Times Roman,serif" font-size="14.00">@isotr%Y&#45;%m&#45;%d&#45;%H%M%S</text>
</g>
<!-- @isotr%Y&#45;%m&#45;%d&#45;%H%M%S&#45;&gt;SaveName -->
<g id="edge38" class="edge"><title>@isotr%Y&#45;%m&#45;%d&#45;%H%M%S&#45;&gt;SaveName</title>
<path fill="none" stroke="black" stroke-dasharray="5,2" d="M218.378,-436C263.087,-436 312.851,-436 349.74,-436"/>
<polygon fill="black" stroke="black" points="349.789,-439.5 359.789,-436 349.789,-432.5 349.789,-439.5"/>
<text text-anchor="middle" x="265" y="-440.4" font-family="Times Roman,serif" font-size="14.00">INP &#160;sav</text>
</g>
<!-- $(ROOM):Session:Mode -->
<g id="node38" class="node"><title>$(ROOM):Session:Mode</title>
<polygon fill="none" stroke="black" stroke-dasharray="5,2" points="494,-397 316,-397 316,-361 494,-361 494,-397"/>
<text text-anchor="middle" x="405" y="-374.9" font-family="Times Roman,serif" font-size="14.00">$(ROOM):Session:Mode</text>
</g>
<!-- $(ROOM):Session:Mode&#45;&gt;Dosimetry:Command:Calc -->
<g id="edge40" class="edge"><title>$(ROOM):Session:Mode&#45;&gt;Dosimetry:Command:Calc</title>
<path fill="none" stroke="black" stroke-dasharray="5,2" d="M494.392,-373.482C533.845,-371.047 580.543,-368.164 621.847,-365.614"/>
<polygon fill="black" stroke="black" points="622.182,-369.1 631.947,-364.991 621.75,-362.114 622.182,-369.1"/>
<text text-anchor="middle" x="565" y="-375.4" font-family="Times Roman,serif" font-size="14.00">INPA &#160;</text>
</g>
</g>
</svg>
