<?xml version="1.0" encoding="UTF-8" standalone="no"?>
<!DOCTYPE svg PUBLIC "-//W3C//DTD SVG 1.1//EN"
 "http://www.w3.org/Graphics/SVG/1.1/DTD/svg11.dtd">
<!-- Generated by graphviz version 2.26.3 (20100126.1600)
 -->
<!-- Title: ui_panel Pages: 1 -->
<svg width="1304pt" height="659pt"
 viewBox="0.00 0.00 1304.00 659.00" xmlns="http://www.w3.org/2000/svg" xmlns:xlink="http://www.w3.org/1999/xlink">
<g id="graph1" class="graph" transform="scale(1 1) rotate(0) translate(4 655)">
<title>ui_panel</title>
<polygon fill="white" stroke="white" points="-4,5 -4,-655 1301,-655 1301,5 -4,5"/>
<!-- UI:Panel -->
<g id="node1" class="node"><title>UI:Panel</title>
<polygon fill="none" stroke="black" points="80,-424 1.42109e-14,-424 0,-382 80,-382 80,-424"/>
<text text-anchor="middle" x="40" y="-407.4" font-family="Times Roman,serif" font-size="14.00">UI:Panel</text>
<text text-anchor="middle" x="40" y="-390.4" font-family="Times Roman,serif" font-size="14.00">stringout</text>
</g>
<!-- UI:Panel:Fanout -->
<g id="node3" class="node"><title>UI:Panel:Fanout</title>
<polygon fill="none" stroke="black" points="287,-167 163,-167 163,-125 287,-125 287,-167"/>
<text text-anchor="middle" x="225" y="-150.4" font-family="Times Roman,serif" font-size="14.00">UI:Panel:Fanout</text>
<text text-anchor="middle" x="225" y="-133.4" font-family="Times Roman,serif" font-size="14.00">fanout</text>
</g>
<!-- UI:Panel&#45;&gt;UI:Panel:Fanout -->
<g id="edge2" class="edge"><title>UI:Panel&#45;&gt;UI:Panel:Fanout</title>
<path fill="none" stroke="black" stroke-dasharray="1,5" d="M44.0079,-381.836C52.8713,-336.887 75.1663,-233.816 98,-207 112.508,-189.962 132.866,-177.311 153.041,-168.088"/>
<polygon fill="black" stroke="black" points="154.491,-171.274 162.276,-164.088 151.708,-164.851 154.491,-171.274"/>
<text text-anchor="middle" x="121" y="-211.4" font-family="Times Roman,serif" font-size="14.00">FLNK &#160;</text>
</g>
<!-- UI:Dialog -->
<g id="node5" class="node"><title>UI:Dialog</title>
<polygon fill="none" stroke="black" points="554,-381.5 426,-381.5 426,-322.5 554,-322.5 554,-381.5"/>
<text text-anchor="middle" x="490" y="-364.9" font-family="Times Roman,serif" font-size="14.00">UI:Dialog</text>
<text text-anchor="middle" x="490" y="-347.9" font-family="Times Roman,serif" font-size="14.00">scalcout</text>
<text text-anchor="middle" x="490" y="-330.9" font-family="Times Roman,serif" font-size="14.00">AA[0,2]==&#39;msg&#39;</text>
</g>
<!-- UI:Panel&#45;&gt;UI:Dialog -->
<g id="edge14" class="edge"><title>UI:Panel&#45;&gt;UI:Dialog</title>
<path fill="none" stroke="black" stroke-dasharray="5,2" d="M80.3305,-398.429C155.783,-389.878 319.321,-371.344 415.39,-360.456"/>
<polygon fill="black" stroke="black" points="416.073,-363.901 425.615,-359.297 415.285,-356.945 416.073,-363.901"/>
<text text-anchor="middle" x="225" y="-393.4" font-family="Times Roman,serif" font-size="14.00">INAA &#160;</text>
</g>
<!-- UI:Panel:Save -->
<g id="node17" class="node"><title>UI:Panel:Save</title>
<polygon fill="none" stroke="black" points="830,-490 704,-490 704,-380 830,-380 830,-490"/>
<text text-anchor="middle" x="767" y="-473.4" font-family="Times Roman,serif" font-size="14.00">UI:Panel:Save</text>
<text text-anchor="middle" x="767" y="-456.4" font-family="Times Roman,serif" font-size="14.00">scalcout</text>
<text text-anchor="middle" x="767" y="-439.4" font-family="Times Roman,serif" font-size="14.00">!A</text>
<text text-anchor="middle" x="767" y="-422.4" font-family="Times Roman,serif" font-size="14.00">When Non&#45;zero</text>
<text text-anchor="middle" x="767" y="-405.4" font-family="Times Roman,serif" font-size="14.00">AA</text>
<text text-anchor="middle" x="767" y="-388.4" font-family="Times Roman,serif" font-size="14.00">Use OCAL</text>
</g>
<!-- UI:Panel&#45;&gt;UI:Panel:Save -->
<g id="edge24" class="edge"><title>UI:Panel&#45;&gt;UI:Panel:Save</title>
<path fill="none" stroke="black" stroke-dasharray="5,2" d="M80.2423,-405.89C86.1951,-406.285 92.2564,-406.667 98,-407 126.428,-408.646 133.552,-408.745 162,-410 353.719,-418.454 579.653,-427.564 693.517,-432.095"/>
<polygon fill="black" stroke="black" points="693.717,-435.606 703.849,-432.506 693.996,-428.611 693.717,-435.606"/>
<text text-anchor="middle" x="329" y="-421.4" font-family="Times Roman,serif" font-size="14.00">INAA &#160;</text>
</g>
<!-- UI:Panel:Update -->
<g id="node24" class="node"><title>UI:Panel:Update</title>
<polygon fill="none" stroke="black" points="1296,-592 1144,-592 1144,-482 1296,-482 1296,-592"/>
<text text-anchor="middle" x="1220" y="-575.4" font-family="Times Roman,serif" font-size="14.00">UI:Panel:Update</text>
<text text-anchor="middle" x="1220" y="-558.4" font-family="Times Roman,serif" font-size="14.00">scalcout</text>
<text text-anchor="middle" x="1220" y="-541.4" font-family="Times Roman,serif" font-size="14.00">!A||BB[0,2]==&#39;msg&#39;</text>
<text text-anchor="middle" x="1220" y="-524.4" font-family="Times Roman,serif" font-size="14.00">When Non&#45;zero</text>
<text text-anchor="middle" x="1220" y="-507.4" font-family="Times Roman,serif" font-size="14.00">BB</text>
<text text-anchor="middle" x="1220" y="-490.4" font-family="Times Roman,serif" font-size="14.00">Use OCAL</text>
</g>
<!-- UI:Panel&#45;&gt;UI:Panel:Update -->
<g id="edge36" class="edge"><title>UI:Panel&#45;&gt;UI:Panel:Update</title>
<path fill="none" stroke="black" stroke-dasharray="5,2" d="M48.4549,-424.17C69.8689,-473.899 131.287,-594 225,-594 225,-594 225,-594 993,-594 1040.69,-594 1092.36,-582.021 1134.34,-569.046"/>
<polygon fill="black" stroke="black" points="1135.49,-572.354 1143.96,-566.001 1133.37,-565.68 1135.49,-572.354"/>
<text text-anchor="middle" x="657" y="-598.4" font-family="Times Roman,serif" font-size="14.00">INAA &#160;</text>
</g>
<!-- UI:Panel:Restore -->
<g id="node30" class="node"><title>UI:Panel:Restore</title>
<polygon fill="none" stroke="black" points="1285,-350 1155,-350 1155,-240 1285,-240 1285,-350"/>
<text text-anchor="middle" x="1220" y="-333.4" font-family="Times Roman,serif" font-size="14.00">UI:Panel:Restore</text>
<text text-anchor="middle" x="1220" y="-316.4" font-family="Times Roman,serif" font-size="14.00">scalcout</text>
<text text-anchor="middle" x="1220" y="-299.4" font-family="Times Roman,serif" font-size="14.00">A</text>
<text text-anchor="middle" x="1220" y="-282.4" font-family="Times Roman,serif" font-size="14.00">When Non&#45;zero</text>
<text text-anchor="middle" x="1220" y="-265.4" font-family="Times Roman,serif" font-size="14.00">BB</text>
<text text-anchor="middle" x="1220" y="-248.4" font-family="Times Roman,serif" font-size="14.00">Use OCAL</text>
</g>
<!-- UI:Panel&#45;&gt;UI:Panel:Restore -->
<g id="edge44" class="edge"><title>UI:Panel&#45;&gt;UI:Panel:Restore</title>
<path fill="none" stroke="black" stroke-dasharray="5,2" d="M50.8775,-381.767C75.3966,-337.203 139.572,-238 225,-238 225,-238 225,-238 993,-238 1044.56,-238 1100.79,-252.007 1144.38,-266.133"/>
<polygon fill="black" stroke="black" points="1143.45,-269.513 1154.05,-269.335 1145.65,-262.868 1143.45,-269.513"/>
<text text-anchor="middle" x="657" y="-242.4" font-family="Times Roman,serif" font-size="14.00">INAA &#160;</text>
</g>
<!-- UI:Panel:Fanout&#45;&gt;UI:Dialog -->
<g id="edge4" class="edge"><title>UI:Panel:Fanout&#45;&gt;UI:Dialog</title>
<path fill="none" stroke="black" stroke-dasharray="1,5" d="M252.362,-167.27C297.769,-202.568 389.155,-273.607 444.425,-316.572"/>
<polygon fill="black" stroke="black" points="442.597,-319.584 452.64,-322.958 446.893,-314.057 442.597,-319.584"/>
<text text-anchor="middle" x="329" y="-246.4" font-family="Times Roman,serif" font-size="14.00">LNK1 &#160;</text>
</g>
<!-- UI:LogMessage:Calc -->
<g id="node7" class="node"><title>UI:LogMessage:Calc</title>
<polygon fill="none" stroke="black" stroke-dasharray="5,2" points="566,-36 414,-36 414,-1.06581e-14 566,-0 566,-36"/>
<text text-anchor="middle" x="490" y="-13.9" font-family="Times Roman,serif" font-size="14.00">UI:LogMessage:Calc</text>
</g>
<!-- UI:Panel:Fanout&#45;&gt;UI:LogMessage:Calc -->
<g id="edge6" class="edge"><title>UI:Panel:Fanout&#45;&gt;UI:LogMessage:Calc</title>
<path fill="none" stroke="black" stroke-dasharray="1,5" d="M243.199,-124.967C258.564,-108.253 281.865,-85.2317 306,-70 335.384,-51.4555 371.5,-39.3825 403.931,-31.5891"/>
<polygon fill="black" stroke="black" points="404.904,-34.9568 413.866,-29.3055 403.336,-28.1347 404.904,-34.9568"/>
<text text-anchor="middle" x="329" y="-74.4" font-family="Times Roman,serif" font-size="14.00">LNK5 &#160;</text>
</g>
<!-- FilterWedge:Subsystem:CheckUI -->
<g id="node9" class="node"><title>FilterWedge:Subsystem:CheckUI</title>
<polygon fill="none" stroke="black" stroke-dasharray="5,2" points="610,-198 370,-198 370,-162 610,-162 610,-198"/>
<text text-anchor="middle" x="490" y="-175.9" font-family="Times Roman,serif" font-size="14.00">FilterWedge:Subsystem:CheckUI</text>
</g>
<!-- UI:Panel:Fanout&#45;&gt;FilterWedge:Subsystem:CheckUI -->
<g id="edge8" class="edge"><title>UI:Panel:Fanout&#45;&gt;FilterWedge:Subsystem:CheckUI</title>
<path fill="none" stroke="black" stroke-dasharray="1,5" d="M287.801,-154.058C309.555,-156.849 334.814,-160.089 359.954,-163.315"/>
<polygon fill="black" stroke="black" points="359.587,-166.796 369.951,-164.597 360.478,-159.853 359.587,-166.796"/>
<text text-anchor="middle" x="329" y="-166.4" font-family="Times Roman,serif" font-size="14.00">LNK4 &#160;</text>
</g>
<!-- Collimator:LeafMotion:CheckUI -->
<g id="node11" class="node"><title>Collimator:LeafMotion:CheckUI</title>
<polygon fill="none" stroke="black" stroke-dasharray="5,2" points="605,-144 375,-144 375,-108 605,-108 605,-144"/>
<text text-anchor="middle" x="490" y="-121.9" font-family="Times Roman,serif" font-size="14.00">Collimator:LeafMotion:CheckUI</text>
</g>
<!-- UI:Panel:Fanout&#45;&gt;Collimator:LeafMotion:CheckUI -->
<g id="edge10" class="edge"><title>UI:Panel:Fanout&#45;&gt;Collimator:LeafMotion:CheckUI</title>
<path fill="none" stroke="black" stroke-dasharray="1,5" d="M287.545,-129.863C293.748,-128.705 299.976,-127.714 306,-127 324.91,-124.76 344.99,-123.509 364.669,-122.907"/>
<polygon fill="black" stroke="black" points="365.007,-126.4 374.916,-122.65 364.831,-119.402 365.007,-126.4"/>
<text text-anchor="middle" x="329" y="-131.4" font-family="Times Roman,serif" font-size="14.00">LNK3 &#160;</text>
</g>
<!-- Dosimetry:Subsystem:CheckUI -->
<g id="node13" class="node"><title>Dosimetry:Subsystem:CheckUI</title>
<polygon fill="none" stroke="black" stroke-dasharray="5,2" points="604,-90 376,-90 376,-54 604,-54 604,-90"/>
<text text-anchor="middle" x="490" y="-67.9" font-family="Times Roman,serif" font-size="14.00">Dosimetry:Subsystem:CheckUI</text>
</g>
<!-- UI:Panel:Fanout&#45;&gt;Dosimetry:Subsystem:CheckUI -->
<g id="edge12" class="edge"><title>UI:Panel:Fanout&#45;&gt;Dosimetry:Subsystem:CheckUI</title>
<path fill="none" stroke="black" stroke-dasharray="1,5" d="M258.984,-124.825C273.073,-116.891 289.87,-108.48 306,-103 324.979,-96.5528 345.533,-91.4112 365.791,-87.3207"/>
<polygon fill="black" stroke="black" points="366.554,-90.7379 375.704,-85.3959 365.22,-83.8662 366.554,-90.7379"/>
<text text-anchor="middle" x="329" y="-107.4" font-family="Times Roman,serif" font-size="14.00">LNK2 &#160;</text>
</g>
<!-- UI:Dialog&#45;&gt;UI:Panel:Save -->
<g id="edge20" class="edge"><title>UI:Dialog&#45;&gt;UI:Panel:Save</title>
<path fill="none" stroke="black" stroke-dasharray="5,2" d="M554.327,-364.9C592.958,-373.349 642.827,-385.5 686,-400 688.723,-400.914 691.481,-401.883 694.256,-402.892"/>
<polygon fill="black" stroke="black" points="693.129,-406.208 703.721,-406.463 695.6,-399.658 693.129,-406.208"/>
<text text-anchor="middle" x="657" y="-404.4" font-family="Times Roman,serif" font-size="14.00">INPA &#160;</text>
</g>
<!-- UI:Dialog&#45;&gt;UI:Panel:Update -->
<g id="edge32" class="edge"><title>UI:Dialog&#45;&gt;UI:Panel:Update</title>
<path fill="none" stroke="black" stroke-dasharray="5,2" d="M554.151,-347.931C663.483,-343.534 890.701,-345.545 1062,-422 1092.74,-435.722 1123.39,-456.085 1149.4,-475.88"/>
<polygon fill="black" stroke="black" points="1147.27,-478.653 1157.32,-481.997 1151.55,-473.113 1147.27,-478.653"/>
<text text-anchor="middle" x="877" y="-376.4" font-family="Times Roman,serif" font-size="14.00">INPA &#160;</text>
</g>
<!-- UI:Dialog&#45;&gt;UI:Panel:Restore -->
<g id="edge42" class="edge"><title>UI:Dialog&#45;&gt;UI:Panel:Restore</title>
<path fill="none" stroke="black" stroke-dasharray="5,2" d="M554.223,-345.283C577.459,-342.906 603.904,-340.263 628,-338 725.712,-328.825 750.136,-326.382 848,-319 950.469,-311.271 1068.93,-303.897 1144.13,-299.411"/>
<polygon fill="black" stroke="black" points="1144.68,-302.885 1154.45,-298.797 1144.26,-295.897 1144.68,-302.885"/>
<text text-anchor="middle" x="877" y="-323.4" font-family="Times Roman,serif" font-size="14.00">INPA &#160;</text>
</g>
<!-- UI:Panel:Request -->
<g id="node15" class="node"><title>UI:Panel:Request</title>
<polygon fill="none" stroke="black" points="557,-516 423,-516 423,-474 557,-474 557,-516"/>
<text text-anchor="middle" x="490" y="-499.4" font-family="Times Roman,serif" font-size="14.00">UI:Panel:Request</text>
<text text-anchor="middle" x="490" y="-482.4" font-family="Times Roman,serif" font-size="14.00">stringout</text>
</g>
<!-- UI:Panel:Request&#45;&gt;UI:Panel:Save -->
<g id="edge16" class="edge"><title>UI:Panel:Request&#45;&gt;UI:Panel:Save</title>
<path fill="none" stroke="black" stroke-dasharray="1,5" d="M557.054,-480.476C598.411,-471.518 651.471,-460.024 693.902,-450.834"/>
<polygon fill="black" stroke="black" points="694.858,-454.208 703.89,-448.67 693.376,-447.366 694.858,-454.208"/>
<text text-anchor="middle" x="657" y="-469.4" font-family="Times Roman,serif" font-size="14.00">FLNK &#160;</text>
</g>
<!-- UI:Panel:Request&#45;&gt;UI:Panel:Update -->
<g id="edge28" class="edge"><title>UI:Panel:Request&#45;&gt;UI:Panel:Update</title>
<path fill="none" stroke="black" stroke-dasharray="5,2" d="M557.043,-498.857C689.821,-506.497 986.1,-523.543 1133.41,-532.018"/>
<polygon fill="black" stroke="black" points="1133.57,-535.533 1143.75,-532.613 1133.97,-528.544 1133.57,-535.533"/>
<text text-anchor="middle" x="877" y="-522.4" font-family="Times Roman,serif" font-size="14.00">INBB &#160;</text>
</g>
<!-- UI:Panel:Previous -->
<g id="node19" class="node"><title>UI:Panel:Previous</title>
<polygon fill="none" stroke="black" points="1061,-473 925,-473 925,-431 1061,-431 1061,-473"/>
<text text-anchor="middle" x="993" y="-456.4" font-family="Times Roman,serif" font-size="14.00">UI:Panel:Previous</text>
<text text-anchor="middle" x="993" y="-439.4" font-family="Times Roman,serif" font-size="14.00">stringout</text>
</g>
<!-- UI:Panel:Save&#45;&gt;UI:Panel:Previous -->
<g id="edge22" class="edge"><title>UI:Panel:Save&#45;&gt;UI:Panel:Previous</title>
<path fill="none" stroke="black" stroke-dasharray="1,5" d="M830.224,-421.416C854.074,-418.181 881.383,-416.745 906,-421 915.051,-422.564 924.407,-424.981 933.478,-427.789"/>
<polygon fill="black" stroke="black" points="932.59,-431.181 943.183,-430.969 934.77,-424.529 932.59,-431.181"/>
<text text-anchor="middle" x="877" y="-425.4" font-family="Times Roman,serif" font-size="14.00">FLNK &#160;</text>
</g>
<!-- UI:Panel:Save&#45;&gt;UI:Panel:Previous -->
<g id="edge18" class="edge"><title>UI:Panel:Save&#45;&gt;UI:Panel:Previous</title>
<path fill="none" stroke="black" d="M830.224,-440.57C836.231,-441.068 842.23,-441.552 848,-442 869.501,-443.67 892.807,-445.34 914.316,-446.823"/>
<polygon fill="black" stroke="black" points="914.17,-450.321 924.385,-447.513 914.648,-443.338 914.17,-450.321"/>
<text text-anchor="middle" x="877" y="-450.4" font-family="Times Roman,serif" font-size="14.00">OUT PP </text>
</g>
<!-- UI:Panel:Previous&#45;&gt;UI:Panel:Update -->
<g id="edge26" class="edge"><title>UI:Panel:Previous&#45;&gt;UI:Panel:Update</title>
<path fill="none" stroke="black" stroke-dasharray="1,5" d="M1061.63,-466.83C1082.61,-472.221 1105.54,-478.993 1126,-487 1128.88,-488.126 1131.78,-489.318 1134.69,-490.562"/>
<polygon fill="black" stroke="black" points="1133.44,-493.837 1144,-494.7 1136.28,-487.44 1133.44,-493.837"/>
<text text-anchor="middle" x="1103" y="-491.4" font-family="Times Roman,serif" font-size="14.00">FLNK &#160;</text>
</g>
<!-- UI:Panel:Previous&#45;&gt;UI:Panel:Restore -->
<g id="edge38" class="edge"><title>UI:Panel:Previous&#45;&gt;UI:Panel:Restore</title>
<path fill="none" stroke="black" stroke-dasharray="5,2" d="M1023.61,-430.826C1054.75,-409.292 1104.18,-375.104 1145.66,-346.416"/>
<polygon fill="black" stroke="black" points="1147.88,-349.138 1154.11,-340.571 1143.9,-343.38 1147.88,-349.138"/>
<text text-anchor="middle" x="1103" y="-391.4" font-family="Times Roman,serif" font-size="14.00">INBB &#160;</text>
</g>
<!-- UI:Panel:Update&#45;&gt;UI:Panel -->
<g id="edge30" class="edge"><title>UI:Panel:Update&#45;&gt;UI:Panel</title>
<path fill="none" stroke="black" d="M1143.83,-541.395C1137.8,-541.638 1131.8,-541.846 1126,-542 1105.56,-542.543 1100.44,-542.132 1080,-542 922.18,-540.98 524.932,-555.069 370,-525 266.624,-504.937 152.822,-456.567 89.519,-427.115"/>
<polygon fill="black" stroke="black" points="90.7176,-423.812 80.1775,-422.735 87.7459,-430.15 90.7176,-423.812"/>
<text text-anchor="middle" x="657" y="-548.4" font-family="Times Roman,serif" font-size="14.00">OUT PP </text>
</g>
<!-- UI:Panel:Update&#45;&gt;UI:Panel -->
<g id="edge34" class="edge"><title>UI:Panel:Update&#45;&gt;UI:Panel</title>
<path fill="none" stroke="black" stroke-dasharray="1,5" d="M1154.56,-592.141C1145.35,-598.16 1135.71,-603.664 1126,-608 1071,-632.558 1053.23,-634 993,-634 225,-634 225,-634 225,-634 167.385,-634 140.215,-647.21 98,-608 72.5825,-584.392 53.2737,-485.319 44.7679,-434.046"/>
<polygon fill="black" stroke="black" points="48.222,-433.48 43.1653,-424.17 41.3123,-434.601 48.222,-433.48"/>
<text text-anchor="middle" x="657" y="-638.4" font-family="Times Roman,serif" font-size="14.00">FLNK &#160;</text>
</g>
<!-- UI:Panel:Restore&#45;&gt;UI:Panel -->
<g id="edge40" class="edge"><title>UI:Panel:Restore&#45;&gt;UI:Panel</title>
<path fill="none" stroke="black" d="M1154.23,-291.077C1010.87,-283.703 659.793,-272.046 370,-314 268.685,-328.668 154.054,-363.986 90.0665,-385.46"/>
<polygon fill="black" stroke="black" points="88.5935,-382.263 80.2416,-388.782 90.8359,-388.894 88.5935,-382.263"/>
<text text-anchor="middle" x="657" y="-293.4" font-family="Times Roman,serif" font-size="14.00">OUT PP </text>
</g>
</g>
</svg>
