<?xml version="1.0" encoding="UTF-8" standalone="no"?>
<!DOCTYPE svg PUBLIC "-//W3C//DTD SVG 1.1//EN"
 "http://www.w3.org/Graphics/SVG/1.1/DTD/svg11.dtd">
<!-- Generated by graphviz version 2.26.3 (20100126.1600)
 -->
<!-- Title: ui_panel Pages: 1 -->
<svg width="978pt" height="492pt"
 viewBox="0.00 0.00 978.00 492.00" xmlns="http://www.w3.org/2000/svg" xmlns:xlink="http://www.w3.org/1999/xlink">
<g id="graph1" class="graph" transform="scale(1 1) rotate(0) translate(4 488)">
<title>ui_panel</title>
<polygon fill="white" stroke="white" points="-4,5 -4,-488 975,-488 975,5 -4,5"/>
<!-- UI:Panel -->
<g id="node1" class="node"><title>UI:Panel</title>
<polygon fill="none" stroke="black" points="80,-262 1.42109e-14,-262 0,-220 80,-220 80,-262"/>
<text text-anchor="middle" x="40" y="-245.4" font-family="Times Roman,serif" font-size="14.00">UI:Panel</text>
<text text-anchor="middle" x="40" y="-228.4" font-family="Times Roman,serif" font-size="14.00">stringout</text>
</g>
<!-- UI:Panel:Fanout -->
<g id="node3" class="node"><title>UI:Panel:Fanout</title>
<polygon fill="none" stroke="black" stroke-dasharray="5,2" points="291,-484 167,-484 167,-448 291,-448 291,-484"/>
<text text-anchor="middle" x="229" y="-461.9" font-family="Times Roman,serif" font-size="14.00">UI:Panel:Fanout</text>
</g>
<!-- UI:Panel&#45;&gt;UI:Panel:Fanout -->
<g id="edge2" class="edge"><title>UI:Panel&#45;&gt;UI:Panel:Fanout</title>
<path fill="none" stroke="black" stroke-dasharray="1,5" d="M43.6515,-262.219C51.8135,-307.225 72.8116,-410.097 98,-434 113.76,-448.956 135.309,-457.274 156.378,-461.801"/>
<polygon fill="black" stroke="black" points="155.852,-465.263 166.328,-463.678 157.15,-458.384 155.852,-465.263"/>
<text text-anchor="middle" x="121" y="-462.4" font-family="Times Roman,serif" font-size="14.00">FLNK &#160;</text>
</g>
<!-- UI:Dialog -->
<g id="node4" class="node"><title>UI:Dialog</title>
<polygon fill="none" stroke="black" points="293,-311.5 165,-311.5 165,-252.5 293,-252.5 293,-311.5"/>
<text text-anchor="middle" x="229" y="-294.9" font-family="Times Roman,serif" font-size="14.00">UI:Dialog</text>
<text text-anchor="middle" x="229" y="-277.9" font-family="Times Roman,serif" font-size="14.00">scalcout</text>
<text text-anchor="middle" x="229" y="-260.9" font-family="Times Roman,serif" font-size="14.00">AA[0,2]==&#39;msg&#39;</text>
</g>
<!-- UI:Panel&#45;&gt;UI:Dialog -->
<g id="edge4" class="edge"><title>UI:Panel&#45;&gt;UI:Dialog</title>
<path fill="none" stroke="black" stroke-dasharray="5,2" d="M80.082,-249.695C101.797,-254.406 129.327,-260.378 154.793,-265.902"/>
<polygon fill="black" stroke="black" points="154.292,-269.375 164.807,-268.075 155.777,-262.534 154.292,-269.375"/>
<text text-anchor="middle" x="121" y="-266.4" font-family="Times Roman,serif" font-size="14.00">INAA &#160;</text>
</g>
<!-- UI:Panel:Save -->
<g id="node8" class="node"><title>UI:Panel:Save</title>
<polygon fill="none" stroke="black" points="504,-255 378,-255 378,-179 504,-179 504,-255"/>
<text text-anchor="middle" x="441" y="-238.4" font-family="Times Roman,serif" font-size="14.00">UI:Panel:Save</text>
<text text-anchor="middle" x="441" y="-221.4" font-family="Times Roman,serif" font-size="14.00">scalcout</text>
<text text-anchor="middle" x="441" y="-204.4" font-family="Times Roman,serif" font-size="14.00">!A</text>
<text text-anchor="middle" x="441" y="-187.4" font-family="Times Roman,serif" font-size="14.00">When Non&#45;zero</text>
</g>
<!-- UI:Panel&#45;&gt;UI:Panel:Save -->
<g id="edge14" class="edge"><title>UI:Panel&#45;&gt;UI:Panel:Save</title>
<path fill="none" stroke="black" stroke-dasharray="5,2" d="M80.0367,-235.604C103.811,-232.601 134.575,-229.062 162,-227 231.615,-221.766 311.215,-219.256 367.526,-218.062"/>
<polygon fill="black" stroke="black" points="367.835,-221.556 377.762,-217.854 367.693,-214.558 367.835,-221.556"/>
<text text-anchor="middle" x="229" y="-231.4" font-family="Times Roman,serif" font-size="14.00">INAA &#160;</text>
</g>
<!-- UI:Panel:Update -->
<g id="node15" class="node"><title>UI:Panel:Update</title>
<polygon fill="none" stroke="black" points="970,-166 818,-166 818,-90 970,-90 970,-166"/>
<text text-anchor="middle" x="894" y="-149.4" font-family="Times Roman,serif" font-size="14.00">UI:Panel:Update</text>
<text text-anchor="middle" x="894" y="-132.4" font-family="Times Roman,serif" font-size="14.00">scalcout</text>
<text text-anchor="middle" x="894" y="-115.4" font-family="Times Roman,serif" font-size="14.00">!A||BB[0,2]==&#39;msg&#39;</text>
<text text-anchor="middle" x="894" y="-98.4" font-family="Times Roman,serif" font-size="14.00">When Non&#45;zero</text>
</g>
<!-- UI:Panel&#45;&gt;UI:Panel:Update -->
<g id="edge26" class="edge"><title>UI:Panel&#45;&gt;UI:Panel:Update</title>
<path fill="none" stroke="black" stroke-dasharray="5,2" d="M41.1775,-219.893C44.3265,-182.715 55.8608,-105.044 98,-58 140.484,-10.5715 165.326,-0 229,-0 229,-0 229,-0 667,-0 736.638,-0 804.597,-46.2722 847.722,-83.1742"/>
<polygon fill="black" stroke="black" points="845.644,-86.0058 855.48,-89.9423 850.246,-80.731 845.644,-86.0058"/>
<text text-anchor="middle" x="441" y="-4.4" font-family="Times Roman,serif" font-size="14.00">INAA &#160;</text>
</g>
<!-- UI:Panel:Restore -->
<g id="node21" class="node"><title>UI:Panel:Restore</title>
<polygon fill="none" stroke="black" points="959,-387 829,-387 829,-311 959,-311 959,-387"/>
<text text-anchor="middle" x="894" y="-370.4" font-family="Times Roman,serif" font-size="14.00">UI:Panel:Restore</text>
<text text-anchor="middle" x="894" y="-353.4" font-family="Times Roman,serif" font-size="14.00">scalcout</text>
<text text-anchor="middle" x="894" y="-336.4" font-family="Times Roman,serif" font-size="14.00">A</text>
<text text-anchor="middle" x="894" y="-319.4" font-family="Times Roman,serif" font-size="14.00">When Non&#45;zero</text>
</g>
<!-- UI:Panel&#45;&gt;UI:Panel:Restore -->
<g id="edge34" class="edge"><title>UI:Panel&#45;&gt;UI:Panel:Restore</title>
<path fill="none" stroke="black" stroke-dasharray="5,2" d="M49.8443,-262.237C73.4552,-309.652 138.162,-420 229,-420 229,-420 229,-420 667,-420 719.319,-420 775.455,-402.608 818.813,-385.04"/>
<polygon fill="black" stroke="black" points="820.244,-388.235 828.145,-381.176 817.566,-381.768 820.244,-388.235"/>
<text text-anchor="middle" x="441" y="-424.4" font-family="Times Roman,serif" font-size="14.00">INAA &#160;</text>
</g>
<!-- UI:Dialog&#45;&gt;UI:Panel:Save -->
<g id="edge10" class="edge"><title>UI:Dialog&#45;&gt;UI:Panel:Save</title>
<path fill="none" stroke="black" stroke-dasharray="5,2" d="M293.351,-258.753C300.298,-256.403 307.281,-254.109 314,-252 331.399,-246.54 350.28,-241.085 368.032,-236.163"/>
<polygon fill="black" stroke="black" points="369.048,-239.514 377.761,-233.486 367.191,-232.764 369.048,-239.514"/>
<text text-anchor="middle" x="337" y="-256.4" font-family="Times Roman,serif" font-size="14.00">INPA &#160;</text>
</g>
<!-- UI:Dialog&#45;&gt;UI:Panel:Update -->
<g id="edge22" class="edge"><title>UI:Dialog&#45;&gt;UI:Panel:Update</title>
<path fill="none" stroke="black" stroke-dasharray="5,2" d="M293.007,-289.857C391.555,-299.447 584.872,-308.221 736,-253 780.975,-236.567 823.031,-201.963 852.429,-173.322"/>
<polygon fill="black" stroke="black" points="854.99,-175.711 859.624,-166.184 850.06,-170.742 854.99,-175.711"/>
<text text-anchor="middle" x="551" y="-298.4" font-family="Times Roman,serif" font-size="14.00">INPA &#160;</text>
</g>
<!-- UI:Dialog&#45;&gt;UI:Panel:Restore -->
<g id="edge32" class="edge"><title>UI:Dialog&#45;&gt;UI:Panel:Restore</title>
<path fill="none" stroke="black" stroke-dasharray="5,2" d="M293.421,-293.963C300.355,-295.073 307.315,-296.112 314,-297 494.034,-320.912 707.002,-336.87 818.031,-344.263"/>
<polygon fill="black" stroke="black" points="817.918,-347.763 828.127,-344.93 818.38,-340.778 817.918,-347.763"/>
<text text-anchor="middle" x="551" y="-329.4" font-family="Times Roman,serif" font-size="14.00">INPA &#160;</text>
</g>
<!-- UI:Panel:Request -->
<g id="node6" class="node"><title>UI:Panel:Request</title>
<polygon fill="none" stroke="black" points="296,-179 162,-179 162,-137 296,-137 296,-179"/>
<text text-anchor="middle" x="229" y="-162.4" font-family="Times Roman,serif" font-size="14.00">UI:Panel:Request</text>
<text text-anchor="middle" x="229" y="-145.4" font-family="Times Roman,serif" font-size="14.00">stringout</text>
</g>
<!-- UI:Panel:Request&#45;&gt;UI:Panel:Save -->
<g id="edge6" class="edge"><title>UI:Panel:Request&#45;&gt;UI:Panel:Save</title>
<path fill="none" stroke="black" stroke-dasharray="1,5" d="M296.146,-170.267C316.797,-174.596 339.485,-179.922 360,-186 362.617,-186.775 365.269,-187.596 367.938,-188.452"/>
<polygon fill="black" stroke="black" points="367.054,-191.847 377.648,-191.688 369.268,-185.206 367.054,-191.847"/>
<text text-anchor="middle" x="337" y="-190.4" font-family="Times Roman,serif" font-size="14.00">FLNK &#160;</text>
</g>
<!-- UI:Panel:Request&#45;&gt;UI:Panel:Update -->
<g id="edge18" class="edge"><title>UI:Panel:Request&#45;&gt;UI:Panel:Update</title>
<path fill="none" stroke="black" stroke-dasharray="5,2" d="M296.115,-154.972C417.528,-149.495 673.469,-137.949 807.695,-131.893"/>
<polygon fill="black" stroke="black" points="808.101,-135.379 817.933,-131.432 807.785,-128.386 808.101,-135.379"/>
<text text-anchor="middle" x="551" y="-148.4" font-family="Times Roman,serif" font-size="14.00">INBB &#160;</text>
</g>
<!-- UI:Panel:Previous -->
<g id="node10" class="node"><title>UI:Panel:Previous</title>
<polygon fill="none" stroke="black" points="735,-244 599,-244 599,-202 735,-202 735,-244"/>
<text text-anchor="middle" x="667" y="-227.4" font-family="Times Roman,serif" font-size="14.00">UI:Panel:Previous</text>
<text text-anchor="middle" x="667" y="-210.4" font-family="Times Roman,serif" font-size="14.00">stringout</text>
</g>
<!-- UI:Panel:Save&#45;&gt;UI:Panel:Previous -->
<g id="edge8" class="edge"><title>UI:Panel:Save&#45;&gt;UI:Panel:Previous</title>
<path fill="none" stroke="black" d="M504.402,-199.806C510.317,-198.669 516.248,-197.7 522,-197 547.589,-193.888 554.493,-193.27 580,-197 584.723,-197.691 589.547,-198.582 594.38,-199.616"/>
<polygon fill="black" stroke="black" points="593.753,-203.064 604.287,-201.922 595.341,-196.246 593.753,-203.064"/>
<text text-anchor="middle" x="551" y="-201.4" font-family="Times Roman,serif" font-size="14.00">OUT PP </text>
</g>
<!-- UI:Panel:Save&#45;&gt;UI:Panel:Previous -->
<g id="edge12" class="edge"><title>UI:Panel:Save&#45;&gt;UI:Panel:Previous</title>
<path fill="none" stroke="black" stroke-dasharray="1,5" d="M504.254,-218.679C530.191,-219.368 560.497,-220.172 587.879,-220.899"/>
<polygon fill="black" stroke="black" points="588.125,-224.407 598.214,-221.174 588.311,-217.41 588.125,-224.407"/>
<text text-anchor="middle" x="551" y="-224.4" font-family="Times Roman,serif" font-size="14.00">FLNK &#160;</text>
</g>
<!-- UI:Panel:Previous&#45;&gt;UI:Panel:Update -->
<g id="edge16" class="edge"><title>UI:Panel:Previous&#45;&gt;UI:Panel:Update</title>
<path fill="none" stroke="black" stroke-dasharray="1,5" d="M717.379,-201.916C744.131,-190.721 777.743,-176.654 808.445,-163.805"/>
<polygon fill="black" stroke="black" points="809.996,-166.95 817.87,-159.861 807.294,-160.493 809.996,-166.95"/>
<text text-anchor="middle" x="777" y="-188.4" font-family="Times Roman,serif" font-size="14.00">FLNK &#160;</text>
</g>
<!-- UI:Panel:Previous&#45;&gt;UI:Panel:Restore -->
<g id="edge28" class="edge"><title>UI:Panel:Previous&#45;&gt;UI:Panel:Restore</title>
<path fill="none" stroke="black" stroke-dasharray="5,2" d="M704.995,-244.09C736.076,-261.342 780.982,-286.268 819.224,-307.495"/>
<polygon fill="black" stroke="black" points="817.841,-310.73 828.283,-312.523 821.238,-304.609 817.841,-310.73"/>
<text text-anchor="middle" x="777" y="-297.4" font-family="Times Roman,serif" font-size="14.00">INBB &#160;</text>
</g>
<!-- UI:Panel:Update&#45;&gt;UI:Panel -->
<g id="edge24" class="edge"><title>UI:Panel:Update&#45;&gt;UI:Panel</title>
<path fill="none" stroke="black" stroke-dasharray="1,5" d="M817.993,-116.936C773.988,-111.457 717.483,-106 667,-106 229,-106 229,-106 229,-106 156.72,-106 92.9987,-172.187 61.2874,-211.873"/>
<polygon fill="black" stroke="black" points="58.4107,-209.87 55.0148,-219.906 63.928,-214.179 58.4107,-209.87"/>
<text text-anchor="middle" x="441" y="-110.4" font-family="Times Roman,serif" font-size="14.00">FLNK &#160;</text>
</g>
<!-- UI:Panel:Update&#45;&gt;UI:Panel -->
<g id="edge20" class="edge"><title>UI:Panel:Update&#45;&gt;UI:Panel</title>
<path fill="none" stroke="black" d="M819.068,-89.9507C775.768,-71.3856 719.608,-53 667,-53 229,-53 229,-53 229,-53 168.252,-53 142.677,-50.8386 98,-92 64.2887,-123.059 49.9353,-176.044 43.993,-209.746"/>
<polygon fill="black" stroke="black" points="40.4828,-209.529 42.3453,-219.959 47.3935,-210.644 40.4828,-209.529"/>
<text text-anchor="middle" x="441" y="-57.4" font-family="Times Roman,serif" font-size="14.00">OUT PP </text>
</g>
<!-- UI:Panel:Restore&#45;&gt;UI:Panel -->
<g id="edge30" class="edge"><title>UI:Panel:Restore&#45;&gt;UI:Panel</title>
<path fill="none" stroke="black" d="M828.054,-357C782.81,-361.807 721.358,-367 667,-367 229,-367 229,-367 229,-367 159.524,-367 96.1622,-307.326 63.4033,-270.112"/>
<polygon fill="black" stroke="black" points="65.6794,-267.391 56.5063,-262.09 60.3713,-271.954 65.6794,-267.391"/>
<text text-anchor="middle" x="441" y="-371.4" font-family="Times Roman,serif" font-size="14.00">OUT PP </text>
</g>
</g>
</svg>
