<?xml version="1.0" encoding="UTF-8" standalone="no"?>
<!DOCTYPE svg PUBLIC "-//W3C//DTD SVG 1.1//EN"
 "http://www.w3.org/Graphics/SVG/1.1/DTD/svg11.dtd">
<!-- Generated by graphviz version 2.26.3 (20100126.1600)
 -->
<!-- Title: ui_panel_alert Pages: 1 -->
<svg width="1462pt" height="981pt"
 viewBox="0.00 0.00 1462.00 981.00" xmlns="http://www.w3.org/2000/svg" xmlns:xlink="http://www.w3.org/1999/xlink">
<g id="graph1" class="graph" transform="scale(1 1) rotate(0) translate(4 977)">
<title>ui_panel_alert</title>
<polygon fill="white" stroke="white" points="-4,5 -4,-977 1459,-977 1459,5 -4,5"/>
<!-- UI:Panel -->
<g id="node1" class="node"><title>UI:Panel</title>
<polygon fill="none" stroke="black" points="124,-595 44,-595 44,-553 124,-553 124,-595"/>
<text text-anchor="middle" x="84" y="-578.4" font-family="Times Roman,serif" font-size="14.00">UI:Panel</text>
<text text-anchor="middle" x="84" y="-561.4" font-family="Times Roman,serif" font-size="14.00">stringout</text>
</g>
<!-- UI:Panel:Fanout -->
<g id="node3" class="node"><title>UI:Panel:Fanout</title>
<polygon fill="none" stroke="black" points="385,-201 261,-201 261,-159 385,-159 385,-201"/>
<text text-anchor="middle" x="323" y="-184.4" font-family="Times Roman,serif" font-size="14.00">UI:Panel:Fanout</text>
<text text-anchor="middle" x="323" y="-167.4" font-family="Times Roman,serif" font-size="14.00">fanout</text>
</g>
<!-- UI:Panel&#45;&gt;UI:Panel:Fanout -->
<g id="edge2" class="edge"><title>UI:Panel&#45;&gt;UI:Panel:Fanout</title>
<path fill="none" stroke="black" stroke-dasharray="1,5" d="M87.5001,-552.675C99.1379,-484.197 138.502,-271.522 186,-223 203.09,-205.542 227.172,-195.149 250.388,-188.97"/>
<polygon fill="black" stroke="black" points="251.371,-192.333 260.262,-186.572 249.719,-185.531 251.371,-192.333"/>
<text text-anchor="middle" x="209" y="-227.4" font-family="Times Roman,serif" font-size="14.00">FLNK &#160;</text>
</g>
<!-- UI:Dialog -->
<g id="node5" class="node"><title>UI:Dialog</title>
<polygon fill="none" stroke="black" points="674,-479.5 546,-479.5 546,-420.5 674,-420.5 674,-479.5"/>
<text text-anchor="middle" x="610" y="-462.9" font-family="Times Roman,serif" font-size="14.00">UI:Dialog</text>
<text text-anchor="middle" x="610" y="-445.9" font-family="Times Roman,serif" font-size="14.00">scalcout</text>
<text text-anchor="middle" x="610" y="-428.9" font-family="Times Roman,serif" font-size="14.00">AA[0,2]==&#39;msg&#39;</text>
</g>
<!-- UI:Panel&#45;&gt;UI:Dialog -->
<g id="edge14" class="edge"><title>UI:Panel&#45;&gt;UI:Dialog</title>
<path fill="none" stroke="black" stroke-dasharray="5,2" d="M107.979,-552.989C127.709,-536.691 157.043,-514.646 186,-501 299.381,-447.567 447.919,-442.465 535.735,-445.162"/>
<polygon fill="black" stroke="black" points="535.758,-448.665 545.874,-445.517 536.003,-441.669 535.758,-448.665"/>
<text text-anchor="middle" x="323" y="-480.4" font-family="Times Roman,serif" font-size="14.00">INAA &#160;</text>
</g>
<!-- UI:Panel:Save -->
<g id="node17" class="node"><title>UI:Panel:Save</title>
<polygon fill="none" stroke="black" points="969,-389 843,-389 843,-279 969,-279 969,-389"/>
<text text-anchor="middle" x="906" y="-372.4" font-family="Times Roman,serif" font-size="14.00">UI:Panel:Save</text>
<text text-anchor="middle" x="906" y="-355.4" font-family="Times Roman,serif" font-size="14.00">scalcout</text>
<text text-anchor="middle" x="906" y="-338.4" font-family="Times Roman,serif" font-size="14.00">!A</text>
<text text-anchor="middle" x="906" y="-321.4" font-family="Times Roman,serif" font-size="14.00">When Non&#45;zero</text>
<text text-anchor="middle" x="906" y="-304.4" font-family="Times Roman,serif" font-size="14.00">AA</text>
<text text-anchor="middle" x="906" y="-287.4" font-family="Times Roman,serif" font-size="14.00">Use OCAL</text>
</g>
<!-- UI:Panel&#45;&gt;UI:Panel:Save -->
<g id="edge24" class="edge"><title>UI:Panel&#45;&gt;UI:Panel:Save</title>
<path fill="none" stroke="black" stroke-dasharray="5,2" d="M102.325,-552.848C130.449,-522.177 187.589,-466.659 250,-445 453.788,-374.279 709.349,-347.669 832.699,-338.448"/>
<polygon fill="black" stroke="black" points="833.066,-341.93 842.784,-337.711 832.556,-334.949 833.066,-341.93"/>
<text text-anchor="middle" x="443" y="-401.4" font-family="Times Roman,serif" font-size="14.00">INAA &#160;</text>
</g>
<!-- UI:Panel:Update -->
<g id="node24" class="node"><title>UI:Panel:Update</title>
<polygon fill="none" stroke="black" points="1454,-593 1302,-593 1302,-483 1454,-483 1454,-593"/>
<text text-anchor="middle" x="1378" y="-576.4" font-family="Times Roman,serif" font-size="14.00">UI:Panel:Update</text>
<text text-anchor="middle" x="1378" y="-559.4" font-family="Times Roman,serif" font-size="14.00">scalcout</text>
<text text-anchor="middle" x="1378" y="-542.4" font-family="Times Roman,serif" font-size="14.00">!A||BB[0,2]==&#39;msg&#39;</text>
<text text-anchor="middle" x="1378" y="-525.4" font-family="Times Roman,serif" font-size="14.00">When Non&#45;zero</text>
<text text-anchor="middle" x="1378" y="-508.4" font-family="Times Roman,serif" font-size="14.00">BB</text>
<text text-anchor="middle" x="1378" y="-491.4" font-family="Times Roman,serif" font-size="14.00">Use OCAL</text>
</g>
<!-- UI:Panel&#45;&gt;UI:Panel:Update -->
<g id="edge36" class="edge"><title>UI:Panel&#45;&gt;UI:Panel:Update</title>
<path fill="none" stroke="black" stroke-dasharray="5,2" d="M124.179,-578.451C251.148,-591.831 655.045,-629.138 988,-602 1093.42,-593.407 1213.3,-571.956 1291.99,-556.248"/>
<polygon fill="black" stroke="black" points="1292.75,-559.667 1301.86,-554.266 1291.37,-552.804 1292.75,-559.667"/>
<text text-anchor="middle" x="777" y="-615.4" font-family="Times Roman,serif" font-size="14.00">INAA &#160;</text>
</g>
<!-- UI:Panel:Restore -->
<g id="node30" class="node"><title>UI:Panel:Restore</title>
<polygon fill="none" stroke="black" points="1443,-312 1313,-312 1313,-202 1443,-202 1443,-312"/>
<text text-anchor="middle" x="1378" y="-295.4" font-family="Times Roman,serif" font-size="14.00">UI:Panel:Restore</text>
<text text-anchor="middle" x="1378" y="-278.4" font-family="Times Roman,serif" font-size="14.00">scalcout</text>
<text text-anchor="middle" x="1378" y="-261.4" font-family="Times Roman,serif" font-size="14.00">A</text>
<text text-anchor="middle" x="1378" y="-244.4" font-family="Times Roman,serif" font-size="14.00">When Non&#45;zero</text>
<text text-anchor="middle" x="1378" y="-227.4" font-family="Times Roman,serif" font-size="14.00">BB</text>
<text text-anchor="middle" x="1378" y="-210.4" font-family="Times Roman,serif" font-size="14.00">Use OCAL</text>
</g>
<!-- UI:Panel&#45;&gt;UI:Panel:Restore -->
<g id="edge44" class="edge"><title>UI:Panel&#45;&gt;UI:Panel:Restore</title>
<path fill="none" stroke="black" stroke-dasharray="5,2" d="M97.8375,-552.678C137.955,-493.137 261.233,-325.688 414,-268 497.818,-236.349 1130.48,-240.323 1220,-244 1246.83,-245.102 1276.15,-247.252 1302.17,-249.491"/>
<polygon fill="black" stroke="black" points="1302.08,-252.996 1312.35,-250.385 1302.69,-246.023 1302.08,-252.996"/>
<text text-anchor="middle" x="777" y="-247.4" font-family="Times Roman,serif" font-size="14.00">INAA &#160;</text>
</g>
<!-- UI:Panel:AlertSave -->
<g id="node37" class="node"><title>UI:Panel:AlertSave</title>
<polygon fill="none" stroke="black" points="396,-922 250,-922 250,-812 396,-812 396,-922"/>
<text text-anchor="middle" x="323" y="-905.4" font-family="Times Roman,serif" font-size="14.00">UI:Panel:AlertSave</text>
<text text-anchor="middle" x="323" y="-888.4" font-family="Times Roman,serif" font-size="14.00">scalcout</text>
<text text-anchor="middle" x="323" y="-871.4" font-family="Times Roman,serif" font-size="14.00">A||B</text>
<text text-anchor="middle" x="323" y="-854.4" font-family="Times Roman,serif" font-size="14.00">When Zero</text>
<text text-anchor="middle" x="323" y="-837.4" font-family="Times Roman,serif" font-size="14.00">AA</text>
<text text-anchor="middle" x="323" y="-820.4" font-family="Times Roman,serif" font-size="14.00">Use OCAL</text>
</g>
<!-- UI:Panel&#45;&gt;UI:Panel:AlertSave -->
<g id="edge56" class="edge"><title>UI:Panel&#45;&gt;UI:Panel:AlertSave</title>
<path fill="none" stroke="black" stroke-dasharray="5,2" d="M90.0269,-595.135C102.386,-635.454 133.906,-724.453 186,-782 201.545,-799.172 221.356,-814.125 241.05,-826.498"/>
<polygon fill="black" stroke="black" points="239.412,-829.598 249.772,-831.82 243.059,-823.623 239.412,-829.598"/>
<text text-anchor="middle" x="209" y="-822.4" font-family="Times Roman,serif" font-size="14.00">INAA &#160;</text>
</g>
<!-- UI:Panel:AlertUpdate -->
<g id="node47" class="node"><title>UI:Panel:AlertUpdate</title>
<polygon fill="none" stroke="black" points="986,-759 826,-759 826,-649 986,-649 986,-759"/>
<text text-anchor="middle" x="906" y="-742.4" font-family="Times Roman,serif" font-size="14.00">UI:Panel:AlertUpdate</text>
<text text-anchor="middle" x="906" y="-725.4" font-family="Times Roman,serif" font-size="14.00">scalcout</text>
<text text-anchor="middle" x="906" y="-708.4" font-family="Times Roman,serif" font-size="14.00">1</text>
<text text-anchor="middle" x="906" y="-691.4" font-family="Times Roman,serif" font-size="14.00">When Non&#45;zero</text>
<text text-anchor="middle" x="906" y="-674.4" font-family="Times Roman,serif" font-size="14.00">BB</text>
<text text-anchor="middle" x="906" y="-657.4" font-family="Times Roman,serif" font-size="14.00">Use OCAL</text>
</g>
<!-- UI:Panel&#45;&gt;UI:Panel:AlertUpdate -->
<g id="edge68" class="edge"><title>UI:Panel&#45;&gt;UI:Panel:AlertUpdate</title>
<path fill="none" stroke="black" stroke-dasharray="5,2" d="M101.946,-595.214C120.686,-615.838 152.039,-646.284 186,-662 212.128,-674.091 221.439,-668.379 250,-672 450.723,-697.451 688.36,-702.994 815.301,-703.999"/>
<polygon fill="black" stroke="black" points="815.342,-707.5 825.367,-704.071 815.393,-700.5 815.342,-707.5"/>
<text text-anchor="middle" x="443" y="-696.4" font-family="Times Roman,serif" font-size="14.00">INAA &#160;</text>
</g>
<!-- UI:Panel:AlertRestore -->
<g id="node53" class="node"><title>UI:Panel:AlertRestore</title>
<polygon fill="none" stroke="black" points="988,-593 824,-593 824,-483 988,-483 988,-593"/>
<text text-anchor="middle" x="906" y="-576.4" font-family="Times Roman,serif" font-size="14.00">UI:Panel:AlertRestore</text>
<text text-anchor="middle" x="906" y="-559.4" font-family="Times Roman,serif" font-size="14.00">scalcout</text>
<text text-anchor="middle" x="906" y="-542.4" font-family="Times Roman,serif" font-size="14.00">1</text>
<text text-anchor="middle" x="906" y="-525.4" font-family="Times Roman,serif" font-size="14.00">When Non&#45;zero</text>
<text text-anchor="middle" x="906" y="-508.4" font-family="Times Roman,serif" font-size="14.00">BB</text>
<text text-anchor="middle" x="906" y="-491.4" font-family="Times Roman,serif" font-size="14.00">Use OCAL</text>
</g>
<!-- UI:Panel&#45;&gt;UI:Panel:AlertRestore -->
<g id="edge76" class="edge"><title>UI:Panel&#45;&gt;UI:Panel:AlertRestore</title>
<path fill="none" stroke="black" stroke-dasharray="5,2" d="M124.203,-572.239C249.494,-566.752 635.148,-549.862 813.622,-542.046"/>
<polygon fill="black" stroke="black" points="813.941,-545.535 823.778,-541.601 813.635,-538.542 813.941,-545.535"/>
<text text-anchor="middle" x="443" y="-563.4" font-family="Times Roman,serif" font-size="14.00">INAA &#160;</text>
</g>
<!-- UI:Panel:Fanout&#45;&gt;UI:Dialog -->
<g id="edge4" class="edge"><title>UI:Panel:Fanout&#45;&gt;UI:Dialog</title>
<path fill="none" stroke="black" stroke-dasharray="1,5" d="M348.275,-201.087C378.538,-226.667 430.356,-271.526 472,-313 480.473,-321.439 481.714,-324.377 490,-333 516.65,-360.736 547.775,-391.025 571.647,-413.835"/>
<polygon fill="black" stroke="black" points="569.474,-416.599 579.128,-420.965 574.304,-411.532 569.474,-416.599"/>
<text text-anchor="middle" x="443" y="-317.4" font-family="Times Roman,serif" font-size="14.00">LNK1 &#160;</text>
</g>
<!-- UI:LogMessage:Calc -->
<g id="node7" class="node"><title>UI:LogMessage:Calc</title>
<polygon fill="none" stroke="black" stroke-dasharray="5,2" points="686,-64 534,-64 534,-28 686,-28 686,-64"/>
<text text-anchor="middle" x="610" y="-41.9" font-family="Times Roman,serif" font-size="14.00">UI:LogMessage:Calc</text>
</g>
<!-- UI:Panel:Fanout&#45;&gt;UI:LogMessage:Calc -->
<g id="edge6" class="edge"><title>UI:Panel:Fanout&#45;&gt;UI:LogMessage:Calc</title>
<path fill="none" stroke="black" stroke-dasharray="1,5" d="M346.091,-158.712C363.786,-143.107 389.284,-122.098 414,-107 445.578,-87.71 454.886,-84.6749 490,-73 500.814,-69.4045 512.334,-66.1347 523.796,-63.211"/>
<polygon fill="black" stroke="black" points="524.966,-66.5274 533.835,-60.7314 523.287,-59.7316 524.966,-66.5274"/>
<text text-anchor="middle" x="443" y="-111.4" font-family="Times Roman,serif" font-size="14.00">LNK5 &#160;</text>
</g>
<!-- FilterWedge:Subsystem:CheckUI -->
<g id="node9" class="node"><title>FilterWedge:Subsystem:CheckUI</title>
<polygon fill="none" stroke="black" stroke-dasharray="5,2" points="730,-226 490,-226 490,-190 730,-190 730,-226"/>
<text text-anchor="middle" x="610" y="-203.9" font-family="Times Roman,serif" font-size="14.00">FilterWedge:Subsystem:CheckUI</text>
</g>
<!-- UI:Panel:Fanout&#45;&gt;FilterWedge:Subsystem:CheckUI -->
<g id="edge8" class="edge"><title>UI:Panel:Fanout&#45;&gt;FilterWedge:Subsystem:CheckUI</title>
<path fill="none" stroke="black" stroke-dasharray="1,5" d="M385.629,-186.11C413.356,-188.815 447.064,-192.104 479.836,-195.301"/>
<polygon fill="black" stroke="black" points="479.676,-198.802 489.969,-196.29 480.356,-191.835 479.676,-198.802"/>
<text text-anchor="middle" x="443" y="-198.4" font-family="Times Roman,serif" font-size="14.00">LNK4 &#160;</text>
</g>
<!-- Collimator:LeafMotion:CheckUI -->
<g id="node11" class="node"><title>Collimator:LeafMotion:CheckUI</title>
<polygon fill="none" stroke="black" stroke-dasharray="5,2" points="725,-172 495,-172 495,-136 725,-136 725,-172"/>
<text text-anchor="middle" x="610" y="-149.9" font-family="Times Roman,serif" font-size="14.00">Collimator:LeafMotion:CheckUI</text>
</g>
<!-- UI:Panel:Fanout&#45;&gt;Collimator:LeafMotion:CheckUI -->
<g id="edge10" class="edge"><title>UI:Panel:Fanout&#45;&gt;Collimator:LeafMotion:CheckUI</title>
<path fill="none" stroke="black" stroke-dasharray="1,5" d="M385.619,-172.064C395.12,-170.966 404.815,-169.906 414,-169 436.882,-166.743 461.296,-164.634 484.85,-162.753"/>
<polygon fill="black" stroke="black" points="485.192,-166.237 494.885,-161.961 484.641,-159.259 485.192,-166.237"/>
<text text-anchor="middle" x="443" y="-173.4" font-family="Times Roman,serif" font-size="14.00">LNK3 &#160;</text>
</g>
<!-- Dosimetry:Subsystem:CheckUI -->
<g id="node13" class="node"><title>Dosimetry:Subsystem:CheckUI</title>
<polygon fill="none" stroke="black" stroke-dasharray="5,2" points="724,-118 496,-118 496,-82 724,-82 724,-118"/>
<text text-anchor="middle" x="610" y="-95.9" font-family="Times Roman,serif" font-size="14.00">Dosimetry:Subsystem:CheckUI</text>
</g>
<!-- UI:Panel:Fanout&#45;&gt;Dosimetry:Subsystem:CheckUI -->
<g id="edge12" class="edge"><title>UI:Panel:Fanout&#45;&gt;Dosimetry:Subsystem:CheckUI</title>
<path fill="none" stroke="black" stroke-dasharray="1,5" d="M370.616,-158.86C384.435,-153.213 399.667,-147.451 414,-143 442.199,-134.244 473.21,-126.572 502.08,-120.227"/>
<polygon fill="black" stroke="black" points="503.161,-123.574 512.194,-118.038 501.68,-116.733 503.161,-123.574"/>
<text text-anchor="middle" x="443" y="-147.4" font-family="Times Roman,serif" font-size="14.00">LNK2 &#160;</text>
</g>
<!-- UI:Dialog&#45;&gt;UI:Panel:Save -->
<g id="edge20" class="edge"><title>UI:Dialog&#45;&gt;UI:Panel:Save</title>
<path fill="none" stroke="black" stroke-dasharray="5,2" d="M668.778,-420.904C693.031,-409.383 721.594,-396.427 748,-386 775.39,-375.184 806.03,-364.733 832.985,-356.074"/>
<polygon fill="black" stroke="black" points="834.27,-359.338 842.736,-352.967 832.145,-352.668 834.27,-359.338"/>
<text text-anchor="middle" x="777" y="-390.4" font-family="Times Roman,serif" font-size="14.00">INPA &#160;</text>
</g>
<!-- UI:Dialog&#45;&gt;UI:Panel:Update -->
<g id="edge32" class="edge"><title>UI:Dialog&#45;&gt;UI:Panel:Update</title>
<path fill="none" stroke="black" stroke-dasharray="5,2" d="M674.042,-452.128C749.362,-455.079 878.07,-461.521 988,-474 1093.1,-485.93 1213.04,-506.699 1291.84,-521.337"/>
<polygon fill="black" stroke="black" points="1291.25,-524.786 1301.72,-523.18 1292.53,-517.905 1291.25,-524.786"/>
<text text-anchor="middle" x="1035" y="-487.4" font-family="Times Roman,serif" font-size="14.00">INPA &#160;</text>
</g>
<!-- UI:Dialog&#45;&gt;UI:Panel:Restore -->
<g id="edge42" class="edge"><title>UI:Dialog&#45;&gt;UI:Panel:Restore</title>
<path fill="none" stroke="black" stroke-dasharray="5,2" d="M674.005,-448.67C832.147,-444.929 1232.29,-432.531 1284,-402 1314.79,-383.822 1337.28,-351.146 1352.53,-321.41"/>
<polygon fill="black" stroke="black" points="1355.74,-322.811 1357.03,-312.295 1349.47,-319.711 1355.74,-322.811"/>
<text text-anchor="middle" x="1035" y="-439.4" font-family="Times Roman,serif" font-size="14.00">INPA &#160;</text>
</g>
<!-- UI:Dialog&#45;&gt;UI:Panel:AlertUpdate -->
<g id="edge64" class="edge"><title>UI:Dialog&#45;&gt;UI:Panel:AlertUpdate</title>
<path fill="none" stroke="black" stroke-dasharray="5,2" d="M670.062,-479.08C711.519,-501.161 766.137,-534.426 806,-574 816.499,-584.423 815.353,-589.996 824,-602 833.293,-614.901 843.632,-628.37 853.752,-641.134"/>
<polygon fill="black" stroke="black" points="851.039,-643.345 860.013,-648.978 856.51,-638.979 851.039,-643.345"/>
<text text-anchor="middle" x="777" y="-578.4" font-family="Times Roman,serif" font-size="14.00">INPA &#160;</text>
</g>
<!-- UI:Dialog&#45;&gt;UI:Panel:AlertRestore -->
<g id="edge74" class="edge"><title>UI:Dialog&#45;&gt;UI:Panel:AlertRestore</title>
<path fill="none" stroke="black" stroke-dasharray="5,2" d="M674.425,-455.866C713.312,-460.702 763.413,-469.249 806,-484 808.753,-484.954 811.521,-485.977 814.293,-487.058"/>
<polygon fill="black" stroke="black" points="813.14,-490.369 823.719,-490.945 815.808,-483.897 813.14,-490.369"/>
<text text-anchor="middle" x="777" y="-488.4" font-family="Times Roman,serif" font-size="14.00">INPA &#160;</text>
</g>
<!-- UI:Panel:Request -->
<g id="node15" class="node"><title>UI:Panel:Request</title>
<polygon fill="none" stroke="black" points="677,-324 543,-324 543,-282 677,-282 677,-324"/>
<text text-anchor="middle" x="610" y="-307.4" font-family="Times Roman,serif" font-size="14.00">UI:Panel:Request</text>
<text text-anchor="middle" x="610" y="-290.4" font-family="Times Roman,serif" font-size="14.00">stringout</text>
</g>
<!-- UI:Panel:Request&#45;&gt;UI:Panel:Save -->
<g id="edge16" class="edge"><title>UI:Panel:Request&#45;&gt;UI:Panel:Save</title>
<path fill="none" stroke="black" stroke-dasharray="1,5" d="M677.191,-308.54C715.057,-311.821 763.207,-316.255 806,-321 814.66,-321.96 823.733,-323.038 832.73,-324.152"/>
<polygon fill="black" stroke="black" points="832.472,-327.647 842.83,-325.421 833.344,-320.702 832.472,-327.647"/>
<text text-anchor="middle" x="777" y="-325.4" font-family="Times Roman,serif" font-size="14.00">FLNK &#160;</text>
</g>
<!-- UI:Panel:Request&#45;&gt;UI:Panel:Update -->
<g id="edge28" class="edge"><title>UI:Panel:Request&#45;&gt;UI:Panel:Update</title>
<path fill="none" stroke="black" stroke-dasharray="5,2" d="M677.088,-290.972C828.123,-265.451 1189.05,-213.658 1284,-283 1292.1,-288.917 1330.94,-399.569 1356.09,-473.149"/>
<polygon fill="black" stroke="black" points="1352.85,-474.489 1359.39,-482.823 1359.48,-472.229 1352.85,-474.489"/>
<text text-anchor="middle" x="1035" y="-254.4" font-family="Times Roman,serif" font-size="14.00">INBB &#160;</text>
</g>
<!-- UI:Panel:Previous -->
<g id="node19" class="node"><title>UI:Panel:Previous</title>
<polygon fill="none" stroke="black" points="1219,-348 1083,-348 1083,-306 1219,-306 1219,-348"/>
<text text-anchor="middle" x="1151" y="-331.4" font-family="Times Roman,serif" font-size="14.00">UI:Panel:Previous</text>
<text text-anchor="middle" x="1151" y="-314.4" font-family="Times Roman,serif" font-size="14.00">stringout</text>
</g>
<!-- UI:Panel:Save&#45;&gt;UI:Panel:Previous -->
<g id="edge22" class="edge"><title>UI:Panel:Save&#45;&gt;UI:Panel:Previous</title>
<path fill="none" stroke="black" stroke-dasharray="1,5" d="M969.005,-315.032C981.173,-312.107 993.9,-309.547 1006,-308 1031.57,-304.73 1038.37,-305.234 1064,-308 1066.72,-308.293 1069.47,-308.636 1072.25,-309.021"/>
<polygon fill="black" stroke="black" points="1071.95,-312.516 1082.36,-310.583 1073.02,-305.598 1071.95,-312.516"/>
<text text-anchor="middle" x="1035" y="-312.4" font-family="Times Roman,serif" font-size="14.00">FLNK &#160;</text>
</g>
<!-- UI:Panel:Save&#45;&gt;UI:Panel:Previous -->
<g id="edge18" class="edge"><title>UI:Panel:Save&#45;&gt;UI:Panel:Previous</title>
<path fill="none" stroke="black" d="M969.094,-332.197C1000.44,-331.302 1038.65,-330.21 1071.93,-329.259"/>
<polygon fill="black" stroke="black" points="1072.2,-332.753 1082.09,-328.969 1072,-325.756 1072.2,-332.753"/>
<text text-anchor="middle" x="1035" y="-335.4" font-family="Times Roman,serif" font-size="14.00">OUT PP </text>
</g>
<!-- UI:Panel:Previous&#45;&gt;UI:Panel:Update -->
<g id="edge26" class="edge"><title>UI:Panel:Previous&#45;&gt;UI:Panel:Update</title>
<path fill="none" stroke="black" stroke-dasharray="1,5" d="M1184.14,-348.126C1212.15,-366.723 1252.59,-395.388 1284,-425 1299.96,-440.044 1315.79,-457.722 1329.79,-474.569"/>
<polygon fill="black" stroke="black" points="1327.46,-477.246 1336.51,-482.758 1332.87,-472.807 1327.46,-477.246"/>
<text text-anchor="middle" x="1261" y="-429.4" font-family="Times Roman,serif" font-size="14.00">FLNK &#160;</text>
</g>
<!-- UI:Panel:Previous&#45;&gt;UI:Panel:Restore -->
<g id="edge38" class="edge"><title>UI:Panel:Previous&#45;&gt;UI:Panel:Restore</title>
<path fill="none" stroke="black" stroke-dasharray="5,2" d="M1219.11,-305.998C1245.39,-297.892 1275.57,-288.587 1302.51,-280.278"/>
<polygon fill="black" stroke="black" points="1303.76,-283.557 1312.28,-277.266 1301.69,-276.868 1303.76,-283.557"/>
<text text-anchor="middle" x="1261" y="-302.4" font-family="Times Roman,serif" font-size="14.00">INBB &#160;</text>
</g>
<!-- UI:Panel:Update&#45;&gt;UI:Panel -->
<g id="edge30" class="edge"><title>UI:Panel:Update&#45;&gt;UI:Panel</title>
<path fill="none" stroke="black" d="M1368.75,-593.179C1354,-674.489 1322.8,-820.696 1284,-856 1239.45,-896.533 1211.23,-882 1151,-882 777,-882 777,-882 777,-882 646.953,-882 606.451,-882.891 490,-825 480.415,-820.235 481.623,-813.687 472,-809 355.85,-752.427 291.068,-832.18 186,-757 133.669,-719.555 104.954,-646.468 92.2063,-604.884"/>
<polygon fill="black" stroke="black" points="95.5594,-603.88 89.3745,-595.278 88.8451,-605.859 95.5594,-603.88"/>
<text text-anchor="middle" x="777" y="-886.4" font-family="Times Roman,serif" font-size="14.00">OUT PP </text>
</g>
<!-- UI:Panel:Update&#45;&gt;UI:Panel -->
<g id="edge34" class="edge"><title>UI:Panel:Update&#45;&gt;UI:Panel</title>
<path fill="none" stroke="black" stroke-dasharray="1,5" d="M1331.51,-593.183C1317.28,-607.984 1300.89,-623.149 1284,-635 1100.94,-763.41 1029.13,-777.352 806,-792 780.278,-793.689 770.728,-804.163 748,-792 735.284,-785.195 742.174,-772.732 730,-765 626.715,-699.402 293.229,-738.93 186,-680 152.164,-661.405 122.72,-627.807 104.281,-603.41"/>
<polygon fill="black" stroke="black" points="106.981,-601.174 98.2284,-595.204 101.347,-605.329 106.981,-601.174"/>
<text text-anchor="middle" x="777" y="-801.4" font-family="Times Roman,serif" font-size="14.00">FLNK &#160;</text>
</g>
<!-- UI:Panel:Restore&#45;&gt;UI:Panel -->
<g id="edge40" class="edge"><title>UI:Panel:Restore&#45;&gt;UI:Panel</title>
<path fill="none" stroke="black" d="M1357.93,-201.867C1326.47,-126.352 1257.86,-0 1151,-0 323,-0 323,-0 323,-0 204.333,-0 113.209,-423.391 89.8484,-542.918"/>
<polygon fill="black" stroke="black" points="86.3824,-542.408 87.9196,-552.89 93.255,-543.737 86.3824,-542.408"/>
<text text-anchor="middle" x="777" y="-4.4" font-family="Times Roman,serif" font-size="14.00">OUT PP </text>
</g>
<!-- UI:Panel:AlertRequest -->
<g id="node35" class="node"><title>UI:Panel:AlertRequest</title>
<polygon fill="none" stroke="black" points="167,-973 1,-973 1,-931 167,-931 167,-973"/>
<text text-anchor="middle" x="84" y="-956.4" font-family="Times Roman,serif" font-size="14.00">UI:Panel:AlertRequest</text>
<text text-anchor="middle" x="84" y="-939.4" font-family="Times Roman,serif" font-size="14.00">stringout</text>
</g>
<!-- UI:Panel:AlertRequest&#45;&gt;UI:Panel:AlertSave -->
<g id="edge46" class="edge"><title>UI:Panel:AlertRequest&#45;&gt;UI:Panel:AlertSave</title>
<path fill="none" stroke="black" stroke-dasharray="1,5" d="M143.079,-930.989C172.267,-920.608 207.982,-907.906 239.876,-896.563"/>
<polygon fill="black" stroke="black" points="241.391,-899.739 249.64,-893.09 239.045,-893.144 241.391,-899.739"/>
<text text-anchor="middle" x="209" y="-918.4" font-family="Times Roman,serif" font-size="14.00">FLNK &#160;</text>
</g>
<!-- UI:Panel:AlertRequest&#45;&gt;UI:Panel:AlertUpdate -->
<g id="edge60" class="edge"><title>UI:Panel:AlertRequest&#45;&gt;UI:Panel:AlertUpdate</title>
<path fill="none" stroke="black" stroke-dasharray="5,2" d="M167.787,-951.793C231.001,-950.329 319.59,-945.478 396,-931 549.018,-902.006 584.159,-879.642 730,-825 764.484,-812.08 774.911,-811.737 806,-792 818.135,-784.296 830.273,-775.145 841.696,-765.704"/>
<polygon fill="black" stroke="black" points="844.095,-768.26 849.482,-759.137 839.582,-762.909 844.095,-768.26"/>
<text text-anchor="middle" x="443" y="-931.4" font-family="Times Roman,serif" font-size="14.00">INBB &#160;</text>
</g>
<!-- UI:Panel:AlertPrevious -->
<g id="node39" class="node"><title>UI:Panel:AlertPrevious</title>
<polygon fill="none" stroke="black" points="695,-816 525,-816 525,-774 695,-774 695,-816"/>
<text text-anchor="middle" x="610" y="-799.4" font-family="Times Roman,serif" font-size="14.00">UI:Panel:AlertPrevious</text>
<text text-anchor="middle" x="610" y="-782.4" font-family="Times Roman,serif" font-size="14.00">stringout</text>
</g>
<!-- UI:Panel:AlertSave&#45;&gt;UI:Panel:AlertPrevious -->
<g id="edge48" class="edge"><title>UI:Panel:AlertSave&#45;&gt;UI:Panel:AlertPrevious</title>
<path fill="none" stroke="black" d="M396.117,-832.063C402.096,-829.82 408.106,-827.76 414,-826 446.16,-816.4 482.228,-809.617 514.572,-804.898"/>
<polygon fill="black" stroke="black" points="515.069,-808.362 524.482,-803.498 514.091,-801.431 515.069,-808.362"/>
<text text-anchor="middle" x="443" y="-830.4" font-family="Times Roman,serif" font-size="14.00">OUT PP </text>
</g>
<!-- UI:Panel:AlertSave&#45;&gt;UI:Panel:AlertPrevious -->
<g id="edge54" class="edge"><title>UI:Panel:AlertSave&#45;&gt;UI:Panel:AlertPrevious</title>
<path fill="none" stroke="black" stroke-dasharray="1,5" d="M396.101,-862.085C420.881,-858.643 448.276,-852.824 472,-843 481.117,-839.225 481.134,-834.334 490,-830 497.862,-826.157 506.225,-822.657 514.735,-819.486"/>
<polygon fill="black" stroke="black" points="516.143,-822.699 524.387,-816.045 513.793,-816.106 516.143,-822.699"/>
<text text-anchor="middle" x="443" y="-862.4" font-family="Times Roman,serif" font-size="14.00">FLNK &#160;</text>
</g>
<!-- UI:Panel:AlertPrevious&#45;&gt;UI:Panel:AlertUpdate -->
<g id="edge58" class="edge"><title>UI:Panel:AlertPrevious&#45;&gt;UI:Panel:AlertUpdate</title>
<path fill="none" stroke="black" stroke-dasharray="1,5" d="M695.767,-782.679C730.554,-776.353 770.76,-767.326 806,-755 809.32,-753.839 812.669,-752.588 816.026,-751.266"/>
<polygon fill="black" stroke="black" points="817.579,-754.411 825.492,-747.366 814.912,-747.939 817.579,-754.411"/>
<text text-anchor="middle" x="777" y="-775.4" font-family="Times Roman,serif" font-size="14.00">FLNK &#160;</text>
</g>
<!-- UI:Panel:AlertPrevious&#45;&gt;UI:Panel:AlertRestore -->
<g id="edge70" class="edge"><title>UI:Panel:AlertPrevious&#45;&gt;UI:Panel:AlertRestore</title>
<path fill="none" stroke="black" stroke-dasharray="5,2" d="M637.178,-773.767C675.532,-743.559 747.399,-686.057 806,-634 818.069,-623.279 830.679,-611.585 842.718,-600.164"/>
<polygon fill="black" stroke="black" points="845.306,-602.533 850.13,-593.1 840.476,-597.466 845.306,-602.533"/>
<text text-anchor="middle" x="777" y="-683.4" font-family="Times Roman,serif" font-size="14.00">INBB &#160;</text>
</g>
<!-- UI:AlertPanel1 -->
<g id="node40" class="node"><title>UI:AlertPanel1</title>
<polygon fill="none" stroke="black" stroke-dasharray="5,2" points="142,-906 26,-906 26,-870 142,-870 142,-906"/>
<text text-anchor="middle" x="84" y="-883.9" font-family="Times Roman,serif" font-size="14.00">UI:AlertPanel1</text>
</g>
<!-- UI:AlertPanel1&#45;&gt;UI:Panel:AlertSave -->
<g id="edge50" class="edge"><title>UI:AlertPanel1&#45;&gt;UI:Panel:AlertSave</title>
<path fill="none" stroke="black" stroke-dasharray="5,2" d="M142.16,-882.89C171.46,-880.315 207.51,-877.148 239.692,-874.32"/>
<polygon fill="black" stroke="black" points="240.336,-877.777 249.992,-873.415 239.724,-870.804 240.336,-877.777"/>
<text text-anchor="middle" x="209" y="-882.4" font-family="Times Roman,serif" font-size="14.00">INPB &#160;</text>
</g>
<!-- UI:AlertPanel0 -->
<g id="node42" class="node"><title>UI:AlertPanel0</title>
<polygon fill="none" stroke="black" stroke-dasharray="5,2" points="142,-852 26,-852 26,-816 142,-816 142,-852"/>
<text text-anchor="middle" x="84" y="-829.9" font-family="Times Roman,serif" font-size="14.00">UI:AlertPanel0</text>
</g>
<!-- UI:AlertPanel0&#45;&gt;UI:Panel:AlertSave -->
<g id="edge52" class="edge"><title>UI:AlertPanel0&#45;&gt;UI:Panel:AlertSave</title>
<path fill="none" stroke="black" stroke-dasharray="5,2" d="M142.002,-841.735C169.315,-845.403 202.338,-849.877 232,-854 234.65,-854.368 237.343,-854.744 240.063,-855.125"/>
<polygon fill="black" stroke="black" points="239.604,-858.595 249.994,-856.521 240.578,-851.663 239.604,-858.595"/>
<text text-anchor="middle" x="209" y="-858.4" font-family="Times Roman,serif" font-size="14.00">INPA &#160;</text>
</g>
<!-- UI:Panel:AlertUpdate&#45;&gt;UI:Panel -->
<g id="edge62" class="edge"><title>UI:Panel:AlertUpdate&#45;&gt;UI:Panel</title>
<path fill="none" stroke="black" d="M825.281,-692.229C818.764,-691.422 812.276,-690.666 806,-690 771.658,-686.354 218.555,-656.526 186,-645 159.483,-635.612 133.52,-617.371 114.424,-601.73"/>
<polygon fill="black" stroke="black" points="116.586,-598.975 106.679,-595.219 112.082,-604.333 116.586,-598.975"/>
<text text-anchor="middle" x="443" y="-672.4" font-family="Times Roman,serif" font-size="14.00">OUT PP </text>
</g>
<!-- UI:Panel:AlertUpdate&#45;&gt;UI:Panel -->
<g id="edge66" class="edge"><title>UI:Panel:AlertUpdate&#45;&gt;UI:Panel</title>
<path fill="none" stroke="black" stroke-dasharray="1,5" d="M825.301,-684.631C795.489,-677.991 761.334,-670.985 730,-666 489.825,-627.791 423.829,-657.808 186,-607 168.817,-603.329 150.436,-597.878 134.077,-592.459"/>
<polygon fill="black" stroke="black" points="134.776,-589 124.181,-589.105 132.529,-595.629 134.776,-589"/>
<text text-anchor="middle" x="443" y="-645.4" font-family="Times Roman,serif" font-size="14.00">FLNK &#160;</text>
</g>
<!-- UI:Panel:AlertRestore&#45;&gt;UI:Panel -->
<g id="edge72" class="edge"><title>UI:Panel:AlertRestore&#45;&gt;UI:Panel</title>
<path fill="none" stroke="black" d="M823.847,-527.505C688.922,-512.67 412.732,-492.423 186,-541 168.819,-544.681 150.438,-550.135 134.079,-555.554"/>
<polygon fill="black" stroke="black" points="132.532,-552.382 124.184,-558.907 134.778,-559.012 132.532,-552.382"/>
<text text-anchor="middle" x="443" y="-516.4" font-family="Times Roman,serif" font-size="14.00">OUT PP </text>
</g>
</g>
</svg>
